G04 #@! TF.FileFunction,Copper,L2,Bot,Signal*
%FSLAX46Y46*%
G04 Gerber Fmt 4.6, Leading zero omitted, Abs format (unit mm)*
G04 Created by KiCad (PCBNEW 4.0.0-rc1-stable) date 18.11.2015 07:04:15*
%MOMM*%
G01*
G04 APERTURE LIST*
%ADD10C,0.020000*%
%ADD11R,0.900000X1.500000*%
%ADD12C,1.700000*%
%ADD13R,0.900000X1.200000*%
%ADD14R,0.300000X1.200000*%
%ADD15R,0.800100X0.800100*%
%ADD16R,1.200000X0.900000*%
%ADD17R,1.400000X0.250000*%
%ADD18R,1.500000X0.450000*%
%ADD19R,0.500000X0.600000*%
%ADD20R,0.600000X0.500000*%
%ADD21R,1.250000X1.000000*%
%ADD22C,0.600000*%
%ADD23C,1.500000*%
%ADD24C,1.000000*%
%ADD25C,0.200000*%
%ADD26C,1.000000*%
%ADD27C,0.300000*%
%ADD28C,0.500000*%
%ADD29C,0.400000*%
%ADD30C,0.254000*%
G04 APERTURE END LIST*
D10*
D11*
X5244100Y-34570500D03*
X1944100Y-34570500D03*
X5244100Y-39470500D03*
X1944100Y-39470500D03*
X5231400Y-25871000D03*
X1931400Y-25871000D03*
X5231400Y-30771000D03*
X1931400Y-30771000D03*
D12*
X75272900Y-30441900D03*
X77812900Y-30441900D03*
X80352900Y-30441900D03*
D13*
X26631900Y-14142900D03*
X26631900Y-11942900D03*
D14*
X92467900Y-35536900D03*
X92967900Y-35536900D03*
X93467900Y-35536900D03*
X92467900Y-33536900D03*
X92967900Y-33536900D03*
X93467900Y-33536900D03*
D12*
X10502900Y-47586900D03*
X13042900Y-47586900D03*
X15582900Y-47586900D03*
X18122900Y-47586900D03*
D13*
X14693900Y-7157900D03*
X14693900Y-4957900D03*
X1739900Y-10672900D03*
X1739900Y-12872900D03*
X12788900Y-4957900D03*
X12788900Y-7157900D03*
X10883900Y-4957900D03*
X10883900Y-7157900D03*
D15*
X8282900Y-22456140D03*
X10182900Y-22456140D03*
X9232900Y-24455120D03*
D16*
X45257900Y-31076900D03*
X43057900Y-31076900D03*
D13*
X87337900Y-26801900D03*
X87337900Y-29001900D03*
D16*
X21127900Y-39331900D03*
X18927900Y-39331900D03*
X26207900Y-36791900D03*
X24007900Y-36791900D03*
X52582900Y-6946900D03*
X54782900Y-6946900D03*
D13*
X9867900Y-30611900D03*
X9867900Y-32811900D03*
D16*
X24007900Y-39331900D03*
X26207900Y-39331900D03*
X48137900Y-6946900D03*
X50337900Y-6946900D03*
D13*
X10121900Y-11180900D03*
X10121900Y-13380900D03*
X27647900Y-24261900D03*
X27647900Y-26461900D03*
X6692900Y-12872900D03*
X6692900Y-10672900D03*
D16*
X15412900Y-25996900D03*
X13212900Y-25996900D03*
D13*
X59397900Y-37891900D03*
X59397900Y-35691900D03*
D16*
X9402900Y-9486900D03*
X11602900Y-9486900D03*
X22102900Y-22821900D03*
X24302900Y-22821900D03*
D13*
X3771900Y-12872900D03*
X3771900Y-10672900D03*
D16*
X13847900Y-9486900D03*
X16047900Y-9486900D03*
X75737900Y-23710900D03*
X73537900Y-23710900D03*
X30357900Y-15836900D03*
X32557900Y-15836900D03*
D13*
X32727900Y-6481900D03*
X32727900Y-8681900D03*
D15*
X19707900Y-26362660D03*
X17807900Y-26362660D03*
X18757900Y-24363680D03*
D12*
X21932900Y-9486900D03*
X21932900Y-6946900D03*
X21932900Y-4406900D03*
X21932900Y-1866900D03*
X24472900Y-9486900D03*
X24472900Y-6946900D03*
X24472900Y-4406900D03*
X24472900Y-1866900D03*
X27012900Y-9486900D03*
X27012900Y-6946900D03*
X27012900Y-4406900D03*
X27012900Y-1866900D03*
X2247900Y-6946900D03*
X2247900Y-4406900D03*
X2247900Y-1866900D03*
X18757900Y-9486900D03*
X18757900Y-6946900D03*
X18757900Y-4406900D03*
X18757900Y-1866900D03*
X4787900Y-6946900D03*
X4787900Y-4406900D03*
X4787900Y-1866900D03*
X7327900Y-6946900D03*
X7327900Y-4406900D03*
X7327900Y-1866900D03*
X97497900Y-10756900D03*
X97497900Y-13296900D03*
X97497900Y-15836900D03*
X97497900Y-18376900D03*
X97497900Y-20916900D03*
X69049900Y-13804900D03*
X66509900Y-13804900D03*
X47967900Y-3771900D03*
X50507900Y-3771900D03*
X31457900Y-38061900D03*
X33997900Y-38061900D03*
X33997900Y-41236900D03*
X31457900Y-41236900D03*
X80352900Y-27266900D03*
X77812900Y-27266900D03*
X58635900Y-20662900D03*
X61175900Y-20662900D03*
X80987900Y-23456900D03*
X80987900Y-20916900D03*
X31457900Y-3771900D03*
X33997900Y-3771900D03*
X27957900Y-18376900D03*
X30497900Y-18376900D03*
X33037900Y-18376900D03*
X24472900Y-18376900D03*
X21932900Y-18376900D03*
X2247900Y-16471900D03*
X2247900Y-19011900D03*
X5422900Y-16471900D03*
X5422900Y-19011900D03*
X8597900Y-16471900D03*
X8597900Y-19011900D03*
X13677900Y-12661900D03*
X16217900Y-12661900D03*
X18757900Y-12661900D03*
X13677900Y-15836900D03*
X16217900Y-15836900D03*
X18757900Y-15836900D03*
X13677900Y-19011900D03*
X16217900Y-19011900D03*
X18757900Y-19011900D03*
D17*
X58167900Y-3636900D03*
X58167900Y-4136900D03*
X58167900Y-3136900D03*
X58167900Y-2636900D03*
X58167900Y-2136900D03*
X63167900Y-2136900D03*
X63167900Y-2636900D03*
X63167900Y-3136900D03*
X63167900Y-3636900D03*
X63167900Y-4136900D03*
D18*
X21437900Y-29796900D03*
X21437900Y-30446900D03*
X21437900Y-31096900D03*
X21437900Y-31746900D03*
X21437900Y-32396900D03*
X21437900Y-33046900D03*
X21437900Y-33696900D03*
X21437900Y-34346900D03*
X15537900Y-34346900D03*
X15537900Y-33696900D03*
X15537900Y-33046900D03*
X15537900Y-32396900D03*
X15537900Y-31746900D03*
X15537900Y-31096900D03*
X15537900Y-30446900D03*
X15537900Y-29796900D03*
D19*
X61937900Y-7031900D03*
X61937900Y-8131900D03*
D20*
X53132900Y-2501900D03*
X54232900Y-2501900D03*
D21*
X35521900Y-11534900D03*
X35521900Y-13534900D03*
X32727900Y-11661900D03*
X32727900Y-13661900D03*
D20*
X46437900Y-27221900D03*
X47537900Y-27221900D03*
D22*
X74129900Y-29705300D03*
X74256900Y-31407100D03*
X73901300Y-30695900D03*
X75018900Y-28917900D03*
X78955900Y-29222700D03*
X81368900Y-28536900D03*
X82918300Y-27774900D03*
X74028300Y-24701500D03*
X74637900Y-26123900D03*
X74104500Y-25514300D03*
D23*
X67525900Y-5930900D03*
X82257900Y-2882900D03*
D22*
X93137900Y-32026900D03*
X95437900Y-33376900D03*
D24*
X60837900Y-2576900D03*
X51787900Y-2376900D03*
D23*
X83887900Y-16076900D03*
X86637900Y-9476900D03*
X67271900Y-20535900D03*
D24*
X42737900Y-4726900D03*
D23*
X7887900Y-8976900D03*
D24*
X3687900Y-9126900D03*
X11437900Y-14026900D03*
D23*
X49587900Y-30326900D03*
D24*
X50587900Y-20926900D03*
X45537900Y-21626900D03*
D23*
X25037900Y-28276900D03*
D22*
X18837900Y-35876900D03*
X21437900Y-35126900D03*
D24*
X42187900Y-29876900D03*
D23*
X16237900Y-7826900D03*
X41744900Y-15963900D03*
X41744900Y-13296900D03*
X34887900Y-24826900D03*
X96227900Y-35902900D03*
X84287900Y-42676900D03*
X16687800Y-43053000D03*
X65587900Y-17026900D03*
X97487900Y-42426900D03*
D24*
X43837900Y-2776900D03*
D23*
X43087900Y-27926900D03*
D24*
X49237900Y-27526900D03*
D23*
X34737900Y-27976900D03*
X37537900Y-22476900D03*
D24*
X12537900Y-29676900D03*
X11287900Y-31276900D03*
X6837900Y-23726900D03*
D23*
X10287900Y-34926900D03*
D22*
X41937900Y-38676900D03*
X44237900Y-39076900D03*
D23*
X71737900Y-11976900D03*
D22*
X61787900Y-36076900D03*
X61037900Y-6076900D03*
X6667500Y-39979600D03*
X5600700Y-32651700D03*
D23*
X30619700Y-29794200D03*
D22*
X37537900Y-8476900D03*
X30887900Y-11176900D03*
X37537900Y-10726900D03*
X31437900Y-13376900D03*
X36987900Y-13526900D03*
D24*
X73437900Y-32126900D03*
D23*
X75287900Y-17476900D03*
D22*
X59905900Y-40474900D03*
D24*
X82137900Y-25926900D03*
X82537900Y-29426900D03*
X85837900Y-34626900D03*
X93037900Y-36926900D03*
D22*
X70737900Y-4826900D03*
X58102500Y-7277100D03*
D23*
X81837900Y-6026900D03*
X69737900Y-11326900D03*
D24*
X66037900Y-2626900D03*
D22*
X42237900Y-8526900D03*
X41287900Y-10826900D03*
X61048900Y-6946900D03*
X59651900Y-5549900D03*
D23*
X80987900Y-4476900D03*
X74237900Y-4426900D03*
D22*
X22537900Y-39376900D03*
X16954500Y-37795200D03*
X26287900Y-34576900D03*
X74155300Y-27901900D03*
X54237900Y-23776900D03*
X60437900Y-22776900D03*
X60487900Y-25176900D03*
X82087900Y-32576900D03*
X91587900Y-36076900D03*
X50137900Y-33126900D03*
X47537900Y-33126900D03*
X50437900Y-27526900D03*
X50687900Y-35826900D03*
X56787900Y-34176900D03*
X84087900Y-39776900D03*
X85687900Y-37776900D03*
X57037900Y-31276900D03*
X57137900Y-21526900D03*
X47887900Y-23076900D03*
X85137900Y-38376900D03*
X57737900Y-31876900D03*
X57787900Y-22126900D03*
X47237900Y-23776900D03*
X83937900Y-40726900D03*
X53687900Y-38226900D03*
X44487900Y-27726900D03*
X42587900Y-35976900D03*
X84487900Y-38976900D03*
X58237900Y-32876900D03*
X59787900Y-21926900D03*
X40537900Y-24976900D03*
X21987900Y-21576900D03*
X51887900Y-31526900D03*
X53037900Y-39026900D03*
X34287900Y-29476900D03*
X14887900Y-3126900D03*
X36837900Y-32476900D03*
X51737900Y-29876900D03*
X35387900Y-29426900D03*
X19537900Y-27326900D03*
X20187900Y-29476900D03*
X24437900Y-35376900D03*
X41187900Y-31226900D03*
X23087900Y-30526900D03*
X22287900Y-27176900D03*
X26887900Y-30576900D03*
X11537900Y-26926900D03*
X13887900Y-33076900D03*
X36637900Y-36976900D03*
X41237900Y-33126900D03*
X27087900Y-34376900D03*
X41262300Y-39331900D03*
X43370500Y-40093900D03*
X78397100Y-36563300D03*
X37087900Y-39276900D03*
X41137900Y-41226900D03*
X74187900Y-28776900D03*
X45987900Y-11126900D03*
X45887900Y-9426900D03*
X85813900Y-25996900D03*
X86067900Y-28028900D03*
X86067900Y-29044900D03*
X88353900Y-30314900D03*
X94195900Y-28536900D03*
X92163900Y-29298900D03*
X93537900Y-31326900D03*
X19737900Y-37076900D03*
X25687900Y-38076900D03*
X13237900Y-33576900D03*
X11137900Y-33126900D03*
X20437900Y-36526900D03*
D24*
X66187900Y-3976900D03*
D22*
X30537900Y-5426900D03*
X28037900Y-8326900D03*
X28937900Y-11776900D03*
X29037900Y-13976900D03*
X28790900Y-21043900D03*
X48087900Y-9626900D03*
X52387900Y-13426900D03*
X41744900Y-18630900D03*
X52237900Y-17226900D03*
X40982900Y-20408900D03*
X32727900Y-21297900D03*
X36664900Y-21424900D03*
X44687900Y-9676900D03*
X43637900Y-13476900D03*
X43937900Y-17176900D03*
X21120100Y-16446500D03*
X25107900Y-16471900D03*
X35775900Y-20027900D03*
X32092900Y-20027900D03*
X24287900Y-21376900D03*
X17487900Y-10526900D03*
X13677900Y-22440900D03*
X26287900Y-35976900D03*
D23*
X5295900Y-14058900D03*
D22*
X1739900Y-9486900D03*
X34187900Y-15076900D03*
X29937900Y-11926900D03*
X38387900Y-11576900D03*
X36687900Y-5726900D03*
X47487900Y-13326900D03*
X47087900Y-9576900D03*
X71037900Y-28076900D03*
X40937900Y-11976900D03*
X40837900Y-8526900D03*
X61937900Y-34626900D03*
D23*
X57837900Y-16676900D03*
D22*
X56603900Y-7124700D03*
X23237900Y-15526900D03*
X28028900Y-12788900D03*
X24537900Y-12676900D03*
X65366900Y-18376900D03*
X74256900Y-19138900D03*
X57873900Y-11645900D03*
X59524900Y-9867900D03*
D25*
X74129900Y-29705300D02*
X74129900Y-29679900D01*
X74256900Y-31407100D02*
X74256900Y-31534100D01*
X73825100Y-30746700D02*
X73850500Y-30746700D01*
X73850500Y-30746700D02*
X73901300Y-30695900D01*
X75018900Y-28917900D02*
X75018900Y-28790900D01*
X78955900Y-29222700D02*
X79540100Y-28638500D01*
X79540100Y-28638500D02*
X81267300Y-28638500D01*
X81267300Y-28638500D02*
X81368900Y-28536900D01*
X82918300Y-27774900D02*
X83223100Y-27470100D01*
X83223100Y-27470100D02*
X83223100Y-27419300D01*
X74104500Y-24777700D02*
X74028300Y-24701500D01*
X74637900Y-26123900D02*
X74637900Y-26047700D01*
X75018900Y-26504900D02*
X74637900Y-26123900D01*
X75018900Y-28917900D02*
X75018900Y-26504900D01*
X74637900Y-26047700D02*
X74104500Y-25514300D01*
X74104500Y-25514300D02*
X74104500Y-24777700D01*
D26*
X7073900Y-35090100D02*
X8350250Y-36366450D01*
X7073900Y-30060900D02*
X7073900Y-35090100D01*
X7397750Y-29737050D02*
X7073900Y-30060900D01*
X8707900Y-28426900D02*
X7397750Y-29737050D01*
X11387900Y-28426900D02*
X8887900Y-28426900D01*
X8887900Y-28426900D02*
X9387900Y-27926900D01*
X8887900Y-28426900D02*
X8707900Y-28426900D01*
X67525900Y-5930900D02*
X67525900Y-3136900D01*
X67525900Y-3136900D02*
X67779900Y-2882900D01*
X67525900Y-3136900D02*
X67525900Y-3136900D01*
X67779900Y-2882900D02*
X82257900Y-2882900D01*
D25*
X93137900Y-32026900D02*
X92967900Y-32196900D01*
X92967900Y-32196900D02*
X92967900Y-33536900D01*
X93137900Y-31796898D02*
X92887900Y-31546898D01*
X92887900Y-31546898D02*
X92887900Y-31026900D01*
X92887900Y-31026900D02*
X93437900Y-30476900D01*
X93437900Y-30476900D02*
X93887900Y-30476900D01*
X93887900Y-30476900D02*
X95437900Y-32026900D01*
X95437900Y-32026900D02*
X95437900Y-33376900D01*
X93137900Y-32026900D02*
X93137900Y-31796898D01*
D27*
X62047900Y-2136900D02*
X61937900Y-2246900D01*
X61937900Y-2246900D02*
X61937900Y-2926900D01*
X61937900Y-2926900D02*
X62147900Y-3136900D01*
X62437900Y-3136900D02*
X63167900Y-3136900D01*
X62147900Y-3136900D02*
X62437900Y-3136900D01*
X63167900Y-2136900D02*
X62047900Y-2136900D01*
X61397900Y-3136900D02*
X60837900Y-2576900D01*
X62437900Y-3136900D02*
X61397900Y-3136900D01*
X51912900Y-2501900D02*
X51787900Y-2376900D01*
X53132900Y-2501900D02*
X51912900Y-2501900D01*
D26*
X83887900Y-16076900D02*
X87037900Y-12926900D01*
X87037900Y-9876900D02*
X87037900Y-12926900D01*
X86637900Y-9476900D02*
X87037900Y-9876900D01*
X9868900Y-7157900D02*
X10883900Y-7157900D01*
X9337900Y-6626900D02*
X9868900Y-7157900D01*
X9337900Y-3276900D02*
X9337900Y-6626900D01*
X7927900Y-1866900D02*
X9337900Y-3276900D01*
X7327900Y-1866900D02*
X7927900Y-1866900D01*
X18447900Y-9486900D02*
X18757900Y-9486900D01*
X27012900Y-9486900D02*
X24472900Y-9486900D01*
X24472900Y-9486900D02*
X21932900Y-9486900D01*
X21932900Y-9486900D02*
X18757900Y-9486900D01*
X67271900Y-20535900D02*
X66337900Y-19726900D01*
X66337900Y-19726900D02*
X64387900Y-19726900D01*
X64387900Y-19726900D02*
X59887900Y-15226900D01*
X59887900Y-15226900D02*
X59887900Y-11976900D01*
X59887900Y-11976900D02*
X57287900Y-9376900D01*
X57287900Y-9376900D02*
X49337900Y-9376900D01*
X49337900Y-9376900D02*
X48137900Y-8176900D01*
X48137900Y-8176900D02*
X48137900Y-6946900D01*
X48137900Y-3941900D02*
X47967900Y-3771900D01*
X48137900Y-6946900D02*
X48137900Y-3941900D01*
X45567900Y-6946900D02*
X42787900Y-9726900D01*
X42787900Y-9726900D02*
X42787900Y-11576900D01*
X42083900Y-12280900D02*
X41337900Y-13026900D01*
X42787900Y-11576900D02*
X42083900Y-12280900D01*
X38087900Y-13026900D02*
X36595900Y-11534900D01*
X41337900Y-13026900D02*
X38087900Y-13026900D01*
X36595900Y-11534900D02*
X35521900Y-11534900D01*
X48137900Y-6946900D02*
X45767900Y-6946900D01*
X45767900Y-6946900D02*
X45567900Y-6946900D01*
X35521900Y-11475900D02*
X32727900Y-8681900D01*
X35521900Y-11534900D02*
X35521900Y-11475900D01*
D27*
X47942900Y-3771900D02*
X47967900Y-3771900D01*
X42737900Y-4726900D02*
X46987900Y-4726900D01*
X46987900Y-4726900D02*
X47942900Y-3771900D01*
D26*
X31922900Y-9486900D02*
X32727900Y-8681900D01*
X27012900Y-9486900D02*
X31922900Y-9486900D01*
X9187900Y-7676900D02*
X9706900Y-7157900D01*
X7887900Y-8976900D02*
X9187900Y-7676900D01*
X9706900Y-7157900D02*
X9868900Y-7157900D01*
D27*
X13847900Y-8003900D02*
X14693900Y-7157900D01*
X13847900Y-9486900D02*
X13847900Y-8003900D01*
X9187900Y-7926900D02*
X9187900Y-7676900D01*
X9187900Y-7676900D02*
X9187900Y-7926900D01*
X9402900Y-7461900D02*
X9187900Y-7676900D01*
X9402900Y-9486900D02*
X9402900Y-7461900D01*
X6692900Y-10171900D02*
X7887900Y-8976900D01*
X6692900Y-10672900D02*
X6692900Y-10171900D01*
X2736900Y-11875900D02*
X1739900Y-12872900D01*
X3771900Y-10840900D02*
X2736900Y-11875900D01*
X3771900Y-10672900D02*
X3771900Y-10840900D01*
X2736900Y-10077900D02*
X3687900Y-9126900D01*
X2736900Y-11875900D02*
X2736900Y-10077900D01*
X11437900Y-14026900D02*
X10791900Y-13380900D01*
X10791900Y-13380900D02*
X10121900Y-13380900D01*
D26*
X64387900Y-20476900D02*
X60837900Y-24026900D01*
X60837900Y-24026900D02*
X55987900Y-24026900D01*
X50687900Y-29326900D02*
X49687900Y-30326900D01*
X55987900Y-24026900D02*
X50687900Y-29326900D01*
X49687900Y-30326900D02*
X49587900Y-30326900D01*
X64387900Y-19726900D02*
X64387900Y-20476900D01*
D28*
X46437900Y-27221900D02*
X46242900Y-27221900D01*
X46437900Y-21576900D02*
X47087900Y-20926900D01*
X47087900Y-20926900D02*
X50587900Y-20926900D01*
X46437900Y-27221900D02*
X46437900Y-21576900D01*
X45587900Y-21576900D02*
X45537900Y-21626900D01*
X46437900Y-21576900D02*
X45587900Y-21576900D01*
D26*
X18487900Y-28426900D02*
X11387900Y-28426900D01*
D29*
X11387900Y-29926900D02*
X12557900Y-31096900D01*
X12557900Y-31096900D02*
X15537900Y-31096900D01*
X11387900Y-28426900D02*
X11387900Y-29926900D01*
X15537900Y-31096900D02*
X15537900Y-31746900D01*
X15537900Y-31746900D02*
X15537900Y-32396900D01*
X9387900Y-24610120D02*
X9232900Y-24455120D01*
X9387900Y-27926900D02*
X9387900Y-24610120D01*
X17807900Y-27746900D02*
X18487900Y-28426900D01*
X17807900Y-26362660D02*
X17807900Y-27746900D01*
X17442140Y-25996900D02*
X17807900Y-26362660D01*
X15412900Y-25996900D02*
X17442140Y-25996900D01*
D26*
X25037900Y-28276900D02*
X24887900Y-28426900D01*
X22387900Y-28276900D02*
X22237900Y-28426900D01*
X22237900Y-28426900D02*
X18487900Y-28426900D01*
X25037900Y-28276900D02*
X22387900Y-28276900D01*
D29*
X16507900Y-32396900D02*
X17187900Y-33076900D01*
X17187900Y-33076900D02*
X19687900Y-33076900D01*
X19687900Y-33076900D02*
X20307900Y-33696900D01*
X20307900Y-33696900D02*
X21437900Y-33696900D01*
X15537900Y-32396900D02*
X16507900Y-32396900D01*
X21437900Y-33696900D02*
X21437900Y-34346900D01*
D25*
X22237900Y-37726900D02*
X23172900Y-36791900D01*
X23172900Y-36791900D02*
X24007900Y-36791900D01*
X18837900Y-35876900D02*
X17837900Y-36876900D01*
X21437900Y-34346900D02*
X21437900Y-35126900D01*
X18537900Y-37726900D02*
X20637900Y-37726900D01*
X17837900Y-37026900D02*
X18537900Y-37726900D01*
X17837900Y-36876900D02*
X17837900Y-37026900D01*
X20637900Y-37726900D02*
X22237900Y-37726900D01*
D28*
X42287900Y-29976900D02*
X42187900Y-29876900D01*
X46242900Y-27221900D02*
X43487900Y-29976900D01*
X43487900Y-29976900D02*
X42287900Y-29976900D01*
D29*
X12487900Y-31166900D02*
X12557900Y-31096900D01*
X15537900Y-34346900D02*
X12857900Y-34346900D01*
X12487900Y-33976900D02*
X12857900Y-34346900D01*
X12487900Y-32676900D02*
X12487900Y-33976900D01*
X12487900Y-32676900D02*
X12487900Y-31166900D01*
D26*
X10883900Y-7157900D02*
X12788900Y-7157900D01*
X12788900Y-7157900D02*
X14693900Y-7157900D01*
X17137900Y-7826900D02*
X16237900Y-7826900D01*
X18757900Y-9446900D02*
X17137900Y-7826900D01*
X18757900Y-9486900D02*
X18757900Y-9446900D01*
X15187900Y-7826900D02*
X16237900Y-7826900D01*
X14693900Y-7332900D02*
X15187900Y-7826900D01*
X14693900Y-7157900D02*
X14693900Y-7332900D01*
X97117900Y-10756900D02*
X96337900Y-9976900D01*
X97497900Y-10756900D02*
X97117900Y-10756900D01*
X96857900Y-10756900D02*
X96037900Y-11576900D01*
X97497900Y-10756900D02*
X96857900Y-10756900D01*
X95967900Y-10756900D02*
X95837900Y-10626900D01*
X97497900Y-10756900D02*
X95967900Y-10756900D01*
X97497900Y-21336900D02*
X98437900Y-22276900D01*
X97497900Y-20916900D02*
X97497900Y-21336900D01*
X97497900Y-21816900D02*
X97137900Y-22176900D01*
X97497900Y-20916900D02*
X97497900Y-21816900D01*
X96797900Y-20916900D02*
X96437900Y-21276900D01*
X97497900Y-20916900D02*
X96797900Y-20916900D01*
X96927900Y-20916900D02*
X96487900Y-20476900D01*
X97497900Y-20916900D02*
X96927900Y-20916900D01*
X98227900Y-20916900D02*
X98587900Y-21276900D01*
X97497900Y-20916900D02*
X98227900Y-20916900D01*
X98097900Y-20916900D02*
X98587900Y-20426900D01*
X97497900Y-20916900D02*
X98097900Y-20916900D01*
X26631900Y-9867900D02*
X27012900Y-9486900D01*
X26631900Y-11942900D02*
X26631900Y-9867900D01*
X41337900Y-13026900D02*
X42083900Y-12280900D01*
X34837900Y-21375900D02*
X34632900Y-21170900D01*
X34632900Y-21170900D02*
X34632900Y-19519900D01*
X34632900Y-19519900D02*
X38188900Y-15963900D01*
X38188900Y-15963900D02*
X41744900Y-15963900D01*
X41744900Y-13296900D02*
X41474900Y-13026900D01*
X41474900Y-13026900D02*
X41337900Y-13026900D01*
X34837900Y-24776900D02*
X34837900Y-23576900D01*
X34887900Y-24826900D02*
X34837900Y-24776900D01*
X34837900Y-23576900D02*
X34837900Y-21375900D01*
X96240900Y-39826900D02*
X96608900Y-39458900D01*
X96608900Y-39458900D02*
X96608900Y-36283900D01*
X96608900Y-36283900D02*
X96227900Y-35902900D01*
X87137900Y-39826900D02*
X87187900Y-39826900D01*
X84287900Y-42676900D02*
X87137900Y-39826900D01*
X87187900Y-39826900D02*
X96240900Y-39826900D01*
X69303900Y-20535900D02*
X74891900Y-14947900D01*
X74891900Y-14947900D02*
X82758900Y-14947900D01*
X82758900Y-14947900D02*
X83887900Y-16076900D01*
X67271900Y-20535900D02*
X69303900Y-20535900D01*
X1931400Y-27318700D02*
X3276600Y-28663900D01*
X3276600Y-28663900D02*
X6324600Y-28663900D01*
X6324600Y-28663900D02*
X7397750Y-29737050D01*
X1931400Y-25871000D02*
X1931400Y-27318700D01*
X8185150Y-36366450D02*
X7670800Y-36880800D01*
X7670800Y-36880800D02*
X3086100Y-36880800D01*
X3086100Y-36880800D02*
X1944100Y-35738800D01*
X1944100Y-35738800D02*
X1944100Y-34570500D01*
X8350250Y-36366450D02*
X8185150Y-36366450D01*
X15303500Y-41668700D02*
X16687800Y-43053000D01*
X8350250Y-36366450D02*
X13652500Y-41668700D01*
X13652500Y-41668700D02*
X14871700Y-41668700D01*
X14871700Y-41668700D02*
X15303500Y-41668700D01*
X94887900Y-15126900D02*
X94887900Y-23876900D01*
X94887900Y-23876900D02*
X97887900Y-26876900D01*
X97887900Y-26876900D02*
X97887900Y-42026900D01*
X97887900Y-42026900D02*
X97487900Y-42426900D01*
X96717900Y-13296900D02*
X94887900Y-15126900D01*
X97497900Y-13296900D02*
X96717900Y-13296900D01*
D27*
X33037900Y-2176900D02*
X43237900Y-2176900D01*
X43237900Y-2176900D02*
X43837900Y-2776900D01*
X31457900Y-3756900D02*
X33037900Y-2176900D01*
X31457900Y-3771900D02*
X31457900Y-3756900D01*
D26*
X37087900Y-27976900D02*
X34737900Y-27976900D01*
X43037900Y-27976900D02*
X37087900Y-27976900D01*
X43087900Y-27926900D02*
X43037900Y-27976900D01*
D28*
X47537900Y-28796900D02*
X45257900Y-31076900D01*
X47537900Y-27221900D02*
X47537900Y-28796900D01*
X48932900Y-27221900D02*
X49237900Y-27526900D01*
X47537900Y-27221900D02*
X48932900Y-27221900D01*
X34737900Y-27526900D02*
X31472900Y-24261900D01*
X31472900Y-24261900D02*
X27647900Y-24261900D01*
X34737900Y-27976900D02*
X34737900Y-27526900D01*
X24007900Y-39331900D02*
X23832900Y-39331900D01*
D26*
X37087900Y-27976900D02*
X37087900Y-22926900D01*
X37087900Y-22926900D02*
X37537900Y-22476900D01*
D29*
X12657900Y-29796900D02*
X12537900Y-29676900D01*
X11287900Y-31276900D02*
X10622900Y-30611900D01*
X10622900Y-30611900D02*
X9867900Y-30611900D01*
X15537900Y-29796900D02*
X12657900Y-29796900D01*
X8108660Y-22456140D02*
X8282900Y-22456140D01*
X6837900Y-23726900D02*
X8108660Y-22456140D01*
D26*
X14692900Y-39331900D02*
X10287900Y-34926900D01*
X18927900Y-39331900D02*
X14692900Y-39331900D01*
D25*
X45687900Y-31506900D02*
X45257900Y-31076900D01*
X45687900Y-34926900D02*
X45687900Y-31506900D01*
X41937900Y-38676900D02*
X43637900Y-36976900D01*
X45037900Y-39876900D02*
X44237900Y-39076900D01*
X53487900Y-39876900D02*
X45037900Y-39876900D01*
X56537900Y-36826900D02*
X53487900Y-39876900D01*
X61037900Y-36826900D02*
X56537900Y-36826900D01*
X61787900Y-36076900D02*
X61037900Y-36826900D01*
X43637900Y-36976900D02*
X45687900Y-34926900D01*
D26*
X69787900Y-17026900D02*
X65587900Y-17026900D01*
X71587900Y-15226900D02*
X69787900Y-17026900D01*
X71587900Y-12126900D02*
X71587900Y-15226900D01*
X71737900Y-11976900D02*
X71587900Y-12126900D01*
D25*
X58167900Y-3136900D02*
X59697900Y-3136900D01*
X61037900Y-6076900D02*
X59937900Y-4976900D01*
X59937900Y-4976900D02*
X59937900Y-3376900D01*
X59937900Y-3376900D02*
X59697900Y-3136900D01*
D26*
X15537900Y-47541900D02*
X15582900Y-47586900D01*
D25*
X5739300Y-39470500D02*
X6248400Y-39979600D01*
X6248400Y-39979600D02*
X6667500Y-39979600D01*
X5244100Y-39470500D02*
X5739300Y-39470500D01*
X5231400Y-32282400D02*
X5600700Y-32651700D01*
X5231400Y-30771000D02*
X5231400Y-32282400D01*
D26*
X23635100Y-40576900D02*
X24007900Y-40204100D01*
X24007900Y-40204100D02*
X24007900Y-39331900D01*
X18927900Y-39331900D02*
X20172900Y-40576900D01*
X20172900Y-40576900D02*
X23635100Y-40576900D01*
X28155500Y-40576900D02*
X29400500Y-39331900D01*
X29400500Y-39331900D02*
X29400500Y-31013400D01*
X29400500Y-31013400D02*
X30619700Y-29794200D01*
X23635100Y-40576900D02*
X28155500Y-40576900D01*
X20002100Y-40576900D02*
X18351500Y-42227500D01*
X18351500Y-42227500D02*
X18351500Y-43599100D01*
X18351500Y-43599100D02*
X15582900Y-46367700D01*
X15582900Y-46367700D02*
X15582900Y-47586900D01*
X20172900Y-40576900D02*
X20002100Y-40576900D01*
D25*
X37537900Y-8476900D02*
X37537900Y-10726900D01*
X30887900Y-11176900D02*
X31372900Y-11661900D01*
X31372900Y-11661900D02*
X32727900Y-11661900D01*
X31722900Y-13661900D02*
X31437900Y-13376900D01*
X36987900Y-13526900D02*
X36979900Y-13534900D01*
X36979900Y-13534900D02*
X35521900Y-13534900D01*
X32727900Y-13661900D02*
X31722900Y-13661900D01*
X32727900Y-15666900D02*
X32557900Y-15836900D01*
X32727900Y-13661900D02*
X32727900Y-15666900D01*
D28*
X73637900Y-32126900D02*
X73437900Y-32126900D01*
D26*
X75991900Y-23456900D02*
X75737900Y-23710900D01*
X80987900Y-23456900D02*
X75991900Y-23456900D01*
D28*
X75737900Y-23710900D02*
X75703900Y-23710900D01*
D26*
X75737900Y-17926900D02*
X75287900Y-17476900D01*
X75737900Y-23710900D02*
X75737900Y-17926900D01*
D29*
X76161900Y-24134900D02*
X75737900Y-23710900D01*
X75873900Y-32126900D02*
X76542900Y-31457900D01*
X76542900Y-31457900D02*
X76542900Y-28282900D01*
X76542900Y-28282900D02*
X76161900Y-27901900D01*
X76161900Y-27901900D02*
X76161900Y-24134900D01*
X73437900Y-32126900D02*
X75873900Y-32126900D01*
D25*
X59905900Y-40474900D02*
X59397900Y-39966900D01*
X59397900Y-39966900D02*
X59397900Y-37891900D01*
D29*
X82437900Y-29426900D02*
X82537900Y-29426900D01*
X82137900Y-29126900D02*
X82437900Y-29426900D01*
X82137900Y-25926900D02*
X82137900Y-29126900D01*
X88137900Y-36926900D02*
X85837900Y-34626900D01*
X93037900Y-36926900D02*
X88137900Y-36926900D01*
D25*
X92967900Y-36856900D02*
X93037900Y-36926900D01*
X92967900Y-35536900D02*
X92967900Y-36856900D01*
X54477900Y-2136900D02*
X58167900Y-2136900D01*
X54232900Y-2381900D02*
X54477900Y-2136900D01*
X54232900Y-2501900D02*
X54232900Y-2381900D01*
X68232900Y-7031900D02*
X61937900Y-7031900D01*
X68737900Y-6526900D02*
X68232900Y-7031900D01*
X68737900Y-5926900D02*
X68737900Y-6526900D01*
X69537900Y-5126900D02*
X68737900Y-5926900D01*
X70437900Y-5126900D02*
X69537900Y-5126900D01*
X70737900Y-4826900D02*
X70437900Y-5126900D01*
X63167900Y-3636900D02*
X62027900Y-3636900D01*
X61937900Y-3726900D02*
X62027900Y-3636900D01*
X61937900Y-7031900D02*
X61937900Y-3726900D01*
X58102500Y-7277100D02*
X58324750Y-7054850D01*
X58167900Y-6872600D02*
X58242200Y-6946900D01*
X58167900Y-6872600D02*
X58242200Y-6946900D01*
X58167900Y-4136900D02*
X58167900Y-6872600D01*
X58350150Y-7054850D02*
X58242200Y-6946900D01*
X59427200Y-8131900D02*
X58350150Y-7054850D01*
X61937900Y-8131900D02*
X59427200Y-8131900D01*
X61937900Y-10726900D02*
X62487900Y-11276900D01*
X62487900Y-11276900D02*
X63981900Y-11276900D01*
X63981900Y-11276900D02*
X66509900Y-13804900D01*
X61937900Y-8131900D02*
X61937900Y-10726900D01*
X58324750Y-7054850D02*
X58350150Y-7054850D01*
D26*
X81837900Y-6026900D02*
X69937900Y-6026900D01*
X69937900Y-6026900D02*
X69737900Y-6226900D01*
X69737900Y-6226900D02*
X69737900Y-11326900D01*
D27*
X66027900Y-2636900D02*
X63167900Y-2636900D01*
X66037900Y-2626900D02*
X66027900Y-2636900D01*
D25*
X61048900Y-6946900D02*
X59651900Y-5549900D01*
X41537900Y-9226900D02*
X42237900Y-8526900D01*
X41537900Y-10576900D02*
X41537900Y-9226900D01*
X41287900Y-10826900D02*
X41537900Y-10576900D01*
D26*
X80987900Y-4476900D02*
X74287900Y-4476900D01*
X74287900Y-4476900D02*
X74237900Y-4426900D01*
D25*
X22657900Y-31746900D02*
X25137900Y-34226900D01*
X25137900Y-34226900D02*
X25137900Y-37576900D01*
X25137900Y-37576900D02*
X24587900Y-38126900D01*
X24587900Y-38126900D02*
X22332900Y-38126900D01*
X22332900Y-38126900D02*
X21127900Y-39331900D01*
X21437900Y-31746900D02*
X22657900Y-31746900D01*
X22492900Y-39331900D02*
X22537900Y-39376900D01*
X21127900Y-39331900D02*
X22492900Y-39331900D01*
X16954500Y-37795200D02*
X17437100Y-38277800D01*
X17437100Y-38277800D02*
X20073800Y-38277800D01*
X20073800Y-38277800D02*
X21127900Y-39331900D01*
X23507900Y-29796900D02*
X21437900Y-29796900D01*
X26287900Y-32576900D02*
X26287900Y-34576900D01*
X23507900Y-29796900D02*
X26287900Y-32576900D01*
X73180300Y-28876900D02*
X74155300Y-27901900D01*
X54237900Y-23776900D02*
X55237900Y-22776900D01*
X55237900Y-22776900D02*
X60437900Y-22776900D01*
X60487900Y-25176900D02*
X62087900Y-26776900D01*
X62087900Y-26776900D02*
X68237900Y-26776900D01*
X68237900Y-26776900D02*
X70337900Y-28876900D01*
X70337900Y-28876900D02*
X72887900Y-28876900D01*
X82087900Y-32576900D02*
X83087900Y-33576900D01*
X83087900Y-33576900D02*
X89087900Y-33576900D01*
X89087900Y-33576900D02*
X91587900Y-36076900D01*
X72887900Y-28876900D02*
X73180300Y-28876900D01*
X50387900Y-32876900D02*
X50137900Y-33126900D01*
X47537900Y-33126900D02*
X48237900Y-32426900D01*
X48237900Y-32426900D02*
X48237900Y-29976900D01*
X48237900Y-29976900D02*
X50437900Y-27776900D01*
X50437900Y-27776900D02*
X50437900Y-27526900D01*
X50837900Y-35676900D02*
X50837900Y-32876900D01*
X50687900Y-35826900D02*
X50837900Y-35676900D01*
X57237900Y-33726900D02*
X56787900Y-34176900D01*
X58687900Y-33726900D02*
X57237900Y-33726900D01*
X59087900Y-33326900D02*
X58687900Y-33726900D01*
X70287900Y-33326900D02*
X59087900Y-33326900D01*
X71987900Y-35026900D02*
X70287900Y-33326900D01*
X79337900Y-35026900D02*
X71987900Y-35026900D01*
X84087900Y-39776900D02*
X79337900Y-35026900D01*
X50837900Y-32876900D02*
X50387900Y-32876900D01*
X85687900Y-37776900D02*
X80887900Y-32976900D01*
X80887900Y-32976900D02*
X73037900Y-32976900D01*
X73037900Y-32976900D02*
X71287900Y-31226900D01*
X71287900Y-31226900D02*
X57087900Y-31226900D01*
X57087900Y-31226900D02*
X57037900Y-31276900D01*
X57137900Y-21526900D02*
X56987900Y-21376900D01*
X56987900Y-21376900D02*
X51787900Y-21376900D01*
X51787900Y-21376900D02*
X51037900Y-22126900D01*
X51037900Y-22126900D02*
X48837900Y-22126900D01*
X48837900Y-22126900D02*
X47887900Y-23076900D01*
X85137900Y-38376900D02*
X80437900Y-33676900D01*
X80437900Y-33676900D02*
X72737900Y-33676900D01*
X72737900Y-33676900D02*
X71237900Y-32176900D01*
X71237900Y-32176900D02*
X58037900Y-32176900D01*
X58037900Y-32176900D02*
X57737900Y-31876900D01*
X57787900Y-22126900D02*
X57737900Y-22176900D01*
X57737900Y-22176900D02*
X51837900Y-22176900D01*
X51837900Y-22176900D02*
X51287900Y-22726900D01*
X51287900Y-22726900D02*
X49387900Y-22726900D01*
X49387900Y-22726900D02*
X48337900Y-23776900D01*
X48337900Y-23776900D02*
X47237900Y-23776900D01*
X78887900Y-35676900D02*
X83937900Y-40726900D01*
X41987900Y-32326900D02*
X42237900Y-32326900D01*
X42687900Y-29176900D02*
X42487900Y-28976900D01*
X42487900Y-28976900D02*
X41637900Y-28976900D01*
X41637900Y-28976900D02*
X40537900Y-30076900D01*
X40537900Y-30076900D02*
X40537900Y-31576900D01*
X40537900Y-31576900D02*
X41287900Y-32326900D01*
X41287900Y-32326900D02*
X41987900Y-32326900D01*
X53687900Y-38226900D02*
X57637900Y-34276900D01*
X57637900Y-34276900D02*
X58987900Y-34276900D01*
X58987900Y-34276900D02*
X59437900Y-33826900D01*
X59437900Y-33826900D02*
X70087900Y-33826900D01*
X70087900Y-33826900D02*
X71887900Y-35626900D01*
X71887900Y-35626900D02*
X78887900Y-35626900D01*
X43337900Y-29176900D02*
X43137900Y-29176900D01*
X44448990Y-28065810D02*
X43337900Y-29176900D01*
X44448990Y-27765810D02*
X44448990Y-28065810D01*
X44487900Y-27726900D02*
X44448990Y-27765810D01*
X43137900Y-29176900D02*
X42687900Y-29176900D01*
X42837900Y-35726900D02*
X42587900Y-35976900D01*
X42837900Y-32926900D02*
X42837900Y-35726900D01*
X42237900Y-32326900D02*
X42837900Y-32926900D01*
X78887900Y-35626900D02*
X78887900Y-35676900D01*
X84487900Y-38976900D02*
X79987900Y-34476900D01*
X79987900Y-34476900D02*
X72587900Y-34476900D01*
X72587900Y-34476900D02*
X70787900Y-32676900D01*
X70787900Y-32676900D02*
X58437900Y-32676900D01*
X58437900Y-32676900D02*
X58237900Y-32876900D01*
X59787900Y-21926900D02*
X59937900Y-21776900D01*
X59937900Y-21776900D02*
X59937900Y-16976900D01*
X59937900Y-16976900D02*
X58487900Y-15526900D01*
X58487900Y-15526900D02*
X55137900Y-15526900D01*
X55137900Y-15526900D02*
X52037900Y-18626900D01*
X52037900Y-18626900D02*
X44187900Y-18626900D01*
X44187900Y-18626900D02*
X40537900Y-22276900D01*
X40537900Y-22276900D02*
X40537900Y-24976900D01*
X21987900Y-21576900D02*
X22102900Y-21691900D01*
X22102900Y-21691900D02*
X22102900Y-22821900D01*
X22102900Y-22821900D02*
X22632900Y-22821900D01*
X51887900Y-31526900D02*
X53037900Y-32676900D01*
X53037900Y-32676900D02*
X53037900Y-39026900D01*
X25237900Y-25426900D02*
X30187900Y-25426900D01*
X30187900Y-25426900D02*
X34237900Y-29476900D01*
X34237900Y-29476900D02*
X34287900Y-29476900D01*
X22632900Y-22821900D02*
X25237900Y-25426900D01*
X17276900Y-4957900D02*
X17995900Y-5676900D01*
X17995900Y-5676900D02*
X20662900Y-5676900D01*
X20662900Y-5676900D02*
X21932900Y-4406900D01*
X14693900Y-4957900D02*
X17276900Y-4957900D01*
X27012900Y-3771900D02*
X27012900Y-4406900D01*
X10883900Y-4957900D02*
X10883900Y-4660900D01*
X10883900Y-3380900D02*
X13667900Y-596900D01*
X13667900Y-596900D02*
X14947900Y-596900D01*
X14947900Y-596900D02*
X25107900Y-596900D01*
X25107900Y-596900D02*
X26377900Y-596900D01*
X26377900Y-596900D02*
X28155900Y-596900D01*
X28155900Y-596900D02*
X28409900Y-850900D01*
X28409900Y-850900D02*
X28409900Y-2374900D01*
X28409900Y-2374900D02*
X27012900Y-3771900D01*
X10883900Y-4957900D02*
X10883900Y-3380900D01*
X13126900Y-4957900D02*
X14947900Y-3136900D01*
X12788900Y-4957900D02*
X13126900Y-4957900D01*
X14922900Y-3161900D02*
X14947900Y-3136900D01*
X14887900Y-3126900D02*
X14922900Y-3161900D01*
X36937900Y-32376900D02*
X36837900Y-32476900D01*
X35387900Y-33926900D02*
X36837900Y-32476900D01*
X49237900Y-32376900D02*
X42637900Y-38976900D01*
X51737900Y-29876900D02*
X49237900Y-32376900D01*
X35387900Y-38576900D02*
X35387900Y-36326900D01*
X37187900Y-40376900D02*
X35387900Y-38576900D01*
X41237900Y-40376900D02*
X37187900Y-40376900D01*
X42637900Y-38976900D02*
X41237900Y-40376900D01*
X35387900Y-36326900D02*
X35387900Y-33926900D01*
X34287900Y-37771900D02*
X33997900Y-38061900D01*
X35387900Y-29426900D02*
X34287900Y-30526900D01*
X34287900Y-30526900D02*
X34287900Y-37771900D01*
X19707900Y-27156900D02*
X19537900Y-27326900D01*
X20187900Y-29476900D02*
X19217900Y-30446900D01*
X16587900Y-30446900D02*
X15537900Y-30446900D01*
X16787900Y-30446900D02*
X16587900Y-30446900D01*
X19217900Y-30446900D02*
X16787900Y-30446900D01*
X19707900Y-26362660D02*
X19707900Y-27156900D01*
X21407900Y-32426900D02*
X21437900Y-32396900D01*
X16787900Y-31926900D02*
X17287900Y-32426900D01*
X17287900Y-32426900D02*
X21407900Y-32426900D01*
X16787900Y-30446900D02*
X16787900Y-31926900D01*
X22457900Y-32396900D02*
X24437900Y-34376900D01*
X24437900Y-34376900D02*
X24437900Y-35376900D01*
X21437900Y-32396900D02*
X22457900Y-32396900D01*
X16787900Y-24476900D02*
X17887900Y-25576900D01*
X17887900Y-25576900D02*
X18922140Y-25576900D01*
X18922140Y-25576900D02*
X19707900Y-26362660D01*
X13212900Y-25996900D02*
X14732900Y-24476900D01*
X14732900Y-24476900D02*
X16787900Y-24476900D01*
X41187900Y-31226900D02*
X41337900Y-31076900D01*
X41337900Y-31076900D02*
X43057900Y-31076900D01*
X23087900Y-30526900D02*
X23007900Y-30446900D01*
X23007900Y-30446900D02*
X21437900Y-30446900D01*
X22857900Y-31096900D02*
X25637900Y-33876900D01*
X25637900Y-33876900D02*
X25637900Y-34926900D01*
X25637900Y-34926900D02*
X26037900Y-35326900D01*
X26637900Y-35326900D02*
X26687900Y-35326900D01*
X26037900Y-35326900D02*
X26637900Y-35326900D01*
X21437900Y-31096900D02*
X22857900Y-31096900D01*
X26787900Y-35326900D02*
X27087900Y-35026900D01*
X27087900Y-35026900D02*
X27087900Y-34376900D01*
X26637900Y-35326900D02*
X26787900Y-35326900D01*
X17237900Y-24176900D02*
X18187900Y-25126900D01*
X18187900Y-25126900D02*
X20237900Y-25126900D01*
X20237900Y-25126900D02*
X22287900Y-27176900D01*
X26887900Y-30576900D02*
X27087900Y-30776900D01*
X27087900Y-30776900D02*
X27087900Y-34376900D01*
X15537900Y-33046900D02*
X13917900Y-33046900D01*
X13187900Y-23576900D02*
X17237900Y-23576900D01*
X11737900Y-25026900D02*
X13187900Y-23576900D01*
X11737900Y-26726900D02*
X11737900Y-25026900D01*
X11537900Y-26926900D02*
X11737900Y-26726900D01*
X13917900Y-33046900D02*
X13887900Y-33076900D01*
X17237900Y-23576900D02*
X17237900Y-24176900D01*
X40487900Y-33126900D02*
X36637900Y-36976900D01*
X41237900Y-33126900D02*
X40487900Y-33126900D01*
X41207300Y-39276900D02*
X41262300Y-39331900D01*
X43370500Y-40093900D02*
X43726100Y-40449500D01*
X43726100Y-40449500D02*
X58686700Y-40449500D01*
X58686700Y-40449500D02*
X59397900Y-41160700D01*
X59397900Y-41160700D02*
X66967100Y-41160700D01*
X66967100Y-41160700D02*
X71335900Y-36791900D01*
X71335900Y-36791900D02*
X78168500Y-36791900D01*
X78168500Y-36791900D02*
X78397100Y-36563300D01*
X37087900Y-39276900D02*
X41207300Y-39276900D01*
X42237900Y-40126900D02*
X41137900Y-41226900D01*
X51537900Y-30826900D02*
X49437900Y-32926900D01*
X51887900Y-30826900D02*
X51537900Y-30826900D01*
X52637900Y-30076900D02*
X51887900Y-30826900D01*
X72887900Y-30076900D02*
X52637900Y-30076900D01*
X74187900Y-28776900D02*
X72887900Y-30076900D01*
X49437900Y-32926900D02*
X42237900Y-40126900D01*
X45987900Y-11126900D02*
X45887900Y-11026900D01*
X45887900Y-11026900D02*
X45887900Y-9426900D01*
X32727900Y-5086900D02*
X32727900Y-6481900D01*
X33997900Y-3816900D02*
X32727900Y-5086900D01*
X33997900Y-3771900D02*
X33997900Y-3816900D01*
X85813900Y-25996900D02*
X86067900Y-26250900D01*
X86067900Y-26250900D02*
X86067900Y-28028900D01*
X86067900Y-29044900D02*
X86110900Y-29001900D01*
X86110900Y-29001900D02*
X87337900Y-29001900D01*
X88353900Y-30314900D02*
X88226900Y-30441900D01*
X88226900Y-30441900D02*
X79717900Y-30441900D01*
X92521900Y-30210900D02*
X92467900Y-30264900D01*
X94195900Y-28536900D02*
X92521900Y-30210900D01*
X92521900Y-30242900D02*
X92467900Y-30296900D01*
X92467900Y-30296900D02*
X92467900Y-33536900D01*
X92521900Y-30210900D02*
X92521900Y-30242900D01*
X92467900Y-33536900D02*
X92467900Y-35536900D01*
X93467900Y-35536900D02*
X93467900Y-33536900D01*
X89666900Y-26801900D02*
X87337900Y-26801900D01*
X92163900Y-29298900D02*
X89666900Y-26801900D01*
X93537900Y-31326900D02*
X93737900Y-31526900D01*
X93737900Y-31526900D02*
X93837900Y-31526900D01*
X93467900Y-32896900D02*
X93837900Y-32526900D01*
X93837900Y-32526900D02*
X93837900Y-31526900D01*
X93467900Y-32896900D02*
X93467900Y-33536900D01*
X27737898Y-37801902D02*
X26207900Y-39331900D01*
X27737898Y-33176900D02*
X27737898Y-29026898D01*
X27737898Y-33176900D02*
X27737898Y-34676902D01*
X18757900Y-24363680D02*
X20524680Y-24363680D01*
X25687900Y-26976900D02*
X27637900Y-28926900D01*
X23137900Y-26976900D02*
X25687900Y-26976900D01*
X20524680Y-24363680D02*
X23137900Y-26976900D01*
X27737898Y-29026898D02*
X27637900Y-28926900D01*
X27737898Y-34676902D02*
X27737898Y-37801902D01*
X21137900Y-36776900D02*
X20687900Y-37226900D01*
X20687900Y-37226900D02*
X19887900Y-37226900D01*
X19887900Y-37226900D02*
X19737900Y-37076900D01*
X22637900Y-33326900D02*
X22637900Y-35026900D01*
X26207900Y-38596900D02*
X25687900Y-38076900D01*
X22637900Y-33326900D02*
X22357900Y-33046900D01*
X22357900Y-33046900D02*
X21437900Y-33046900D01*
X26207900Y-39331900D02*
X26207900Y-38596900D01*
X22637900Y-35026900D02*
X21137900Y-36526900D01*
X21137900Y-36526900D02*
X21137900Y-36776900D01*
X13357900Y-33696900D02*
X13237900Y-33576900D01*
X11137900Y-33126900D02*
X10822900Y-32811900D01*
X10822900Y-32811900D02*
X9867900Y-32811900D01*
X15537900Y-33696900D02*
X13357900Y-33696900D01*
X17607900Y-33696900D02*
X15537900Y-33696900D01*
X20437900Y-36526900D02*
X17607900Y-33696900D01*
X54537900Y-6701900D02*
X54782900Y-6946900D01*
X55577900Y-2636900D02*
X54537900Y-3676900D01*
X54537900Y-3676900D02*
X54537900Y-6701900D01*
X58167900Y-2636900D02*
X55577900Y-2636900D01*
D27*
X66187900Y-3976900D02*
X66027900Y-4136900D01*
X66027900Y-4136900D02*
X63167900Y-4136900D01*
D25*
X30537900Y-5426900D02*
X28037900Y-7926900D01*
X28037900Y-7926900D02*
X28037900Y-8326900D01*
X28937900Y-11776900D02*
X29037900Y-11876900D01*
X29037900Y-11876900D02*
X29037900Y-13976900D01*
X13677900Y-19011900D02*
X14422900Y-19011900D01*
X15601902Y-20681902D02*
X28428902Y-20681902D01*
X28428902Y-20681902D02*
X28790900Y-21043900D01*
X13931900Y-19011900D02*
X15601902Y-20681902D01*
X13677900Y-19011900D02*
X13931900Y-19011900D01*
X13677900Y-15836900D02*
X13797900Y-15836900D01*
X48087900Y-9626900D02*
X51887900Y-13426900D01*
X51887900Y-13426900D02*
X52387900Y-13426900D01*
X41744900Y-18630900D02*
X43268900Y-17106900D01*
X43268900Y-17106900D02*
X43268900Y-16725900D01*
X43268900Y-16725900D02*
X43522900Y-16471900D01*
X43522900Y-16471900D02*
X44792900Y-16471900D01*
X44792900Y-16471900D02*
X46247900Y-17926900D01*
X46247900Y-17926900D02*
X51537900Y-17926900D01*
X52237900Y-17226900D02*
X51537900Y-17926900D01*
X40855900Y-20281900D02*
X40982900Y-20408900D01*
X21805900Y-20281900D02*
X20104100Y-18580100D01*
X20104100Y-18580100D02*
X20104100Y-17993100D01*
X20104100Y-17993100D02*
X19687900Y-17576900D01*
X40093900Y-21297900D02*
X40982900Y-20408900D01*
X15537900Y-17576900D02*
X19687900Y-17576900D01*
X13797900Y-15836900D02*
X15537900Y-17576900D01*
X28917900Y-20281900D02*
X24345900Y-20281900D01*
X29679900Y-21043900D02*
X28917900Y-20281900D01*
X32473900Y-21043900D02*
X29679900Y-21043900D01*
X32727900Y-21297900D02*
X32473900Y-21043900D01*
X36791900Y-21297900D02*
X36664900Y-21424900D01*
X40093900Y-21297900D02*
X36791900Y-21297900D01*
X24345900Y-20281900D02*
X21805900Y-20281900D01*
X44687900Y-9676900D02*
X43637900Y-10726900D01*
X43637900Y-10726900D02*
X43637900Y-13476900D01*
X43837900Y-17076900D02*
X43937900Y-17176900D01*
X13677900Y-12661900D02*
X13677900Y-13166900D01*
X20225500Y-16339300D02*
X20237900Y-16326900D01*
X19487900Y-17076900D02*
X20225500Y-16339300D01*
X15687900Y-17076900D02*
X19487900Y-17076900D01*
X15037900Y-16426900D02*
X15687900Y-17076900D01*
X15037900Y-14526900D02*
X15037900Y-16426900D01*
X15037900Y-14526900D02*
X13677900Y-13166900D01*
X21012900Y-16339300D02*
X21120100Y-16446500D01*
X29933900Y-19646900D02*
X30314900Y-20027900D01*
X25107900Y-16471900D02*
X25361900Y-16725900D01*
X25361900Y-16725900D02*
X28409900Y-16725900D01*
X28409900Y-16725900D02*
X29298900Y-17614900D01*
X29298900Y-17614900D02*
X29298900Y-19011900D01*
X29298900Y-19011900D02*
X29933900Y-19646900D01*
X41998900Y-19646900D02*
X43937900Y-17707900D01*
X43937900Y-17707900D02*
X43937900Y-17176900D01*
X36156900Y-19646900D02*
X41998900Y-19646900D01*
X35775900Y-20027900D02*
X36156900Y-19646900D01*
X30314900Y-20027900D02*
X32092900Y-20027900D01*
X20225500Y-16339300D02*
X21012900Y-16339300D01*
X9583900Y-11180900D02*
X8537900Y-12226900D01*
X8537900Y-13976900D02*
X8537900Y-14026900D01*
X8537900Y-12226900D02*
X8537900Y-13976900D01*
X10121900Y-11180900D02*
X9583900Y-11180900D01*
X8537900Y-16411900D02*
X8597900Y-16471900D01*
X8537900Y-13976900D02*
X8537900Y-16411900D01*
X6692900Y-15121900D02*
X6692900Y-12872900D01*
X5422900Y-16391900D02*
X6692900Y-15121900D01*
X5422900Y-16471900D02*
X5422900Y-16391900D01*
X3771900Y-14947900D02*
X2247900Y-16471900D01*
X3771900Y-12872900D02*
X3771900Y-14947900D01*
X24302900Y-21391900D02*
X24287900Y-21376900D01*
X24302900Y-22821900D02*
X24302900Y-21391900D01*
X24472900Y-13804900D02*
X25361900Y-12915900D01*
X25361900Y-12915900D02*
X25361900Y-12280900D01*
X25361900Y-12280900D02*
X23757900Y-10676900D01*
X23757900Y-10676900D02*
X23637900Y-10676900D01*
X17487900Y-10526900D02*
X17537900Y-10526900D01*
X17687900Y-10676900D02*
X23637900Y-10676900D01*
X17537900Y-10526900D02*
X17687900Y-10676900D01*
X24472900Y-18376900D02*
X24472900Y-13804900D01*
X13677900Y-22440900D02*
X13662660Y-22456140D01*
X13662660Y-22456140D02*
X10182900Y-22456140D01*
X26207900Y-36791900D02*
X26622900Y-36791900D01*
X26207900Y-36056900D02*
X26287900Y-35976900D01*
X26207900Y-36791900D02*
X26207900Y-36056900D01*
X31457900Y-31606900D02*
X31937900Y-31126900D01*
X31937900Y-31126900D02*
X31937900Y-28526900D01*
X31937900Y-28526900D02*
X29872900Y-26461900D01*
X29872900Y-26461900D02*
X27647900Y-26461900D01*
X31457900Y-38061900D02*
X31457900Y-31606900D01*
X50507900Y-6776900D02*
X50337900Y-6946900D01*
X50337900Y-6946900D02*
X52582900Y-6946900D01*
X50507900Y-6776900D02*
X50337900Y-6946900D01*
X50507900Y-3771900D02*
X50507900Y-6776900D01*
D26*
X21932900Y-6946900D02*
X18757900Y-6946900D01*
X24472900Y-6946900D02*
X21932900Y-6946900D01*
X97497900Y-18376900D02*
X98259900Y-18376900D01*
X98259900Y-18376900D02*
X97497900Y-18376900D01*
X27012900Y-6946900D02*
X27042900Y-6976900D01*
X24472900Y-6946900D02*
X27012900Y-6946900D01*
X29171900Y-4942900D02*
X29171900Y-2628900D01*
X99275900Y-17326900D02*
X99275900Y-17360900D01*
X99275900Y-17360900D02*
X98259900Y-18376900D01*
X99275900Y-17326900D02*
X99275900Y-8470900D01*
X99275900Y-8470900D02*
X91909900Y-1104900D01*
X91909900Y-1104900D02*
X30695900Y-1104900D01*
X30695900Y-1104900D02*
X29171900Y-2628900D01*
X27167900Y-6946900D02*
X29171900Y-4942900D01*
X27012900Y-6946900D02*
X27167900Y-6946900D01*
X4787900Y-7708900D02*
X4787900Y-6946900D01*
X5295900Y-14058900D02*
X5295900Y-8216900D01*
X5295900Y-8216900D02*
X4787900Y-7708900D01*
D25*
X1739900Y-10672900D02*
X1739900Y-9486900D01*
X34187900Y-12976900D02*
X34187900Y-15076900D01*
X33837900Y-12626900D02*
X34187900Y-12976900D01*
X30637900Y-12626900D02*
X33837900Y-12626900D01*
X29937900Y-11926900D02*
X30637900Y-12626900D01*
X38387900Y-7426900D02*
X38387900Y-11576900D01*
X36687900Y-5726900D02*
X38387900Y-7426900D01*
X47487900Y-13326900D02*
X47087900Y-12926900D01*
X47087900Y-12926900D02*
X47087900Y-9576900D01*
X71037900Y-24476900D02*
X71803900Y-23710900D01*
X71803900Y-23710900D02*
X73537900Y-23710900D01*
X71037900Y-28076900D02*
X71037900Y-24476900D01*
X40637900Y-11676900D02*
X40937900Y-11976900D01*
X40637900Y-8726900D02*
X40637900Y-11676900D01*
X40837900Y-8526900D02*
X40637900Y-8726900D01*
X61937900Y-34626900D02*
X60872900Y-35691900D01*
X60872900Y-35691900D02*
X59397900Y-35691900D01*
D26*
X58635900Y-20662900D02*
X58635900Y-17474900D01*
X58635900Y-17474900D02*
X57837900Y-16676900D01*
D25*
X56743600Y-6985000D02*
X56603900Y-7124700D01*
X56743600Y-6946900D02*
X56743600Y-3921200D01*
X58167900Y-3636900D02*
X57027900Y-3636900D01*
X56743600Y-3921200D02*
X57027900Y-3636900D01*
X56743600Y-6946900D02*
X56743600Y-6985000D01*
X22927900Y-15836900D02*
X23237900Y-15526900D01*
X18757900Y-15836900D02*
X22927900Y-15836900D01*
X26674900Y-14142900D02*
X28028900Y-12788900D01*
X26631900Y-14142900D02*
X26674900Y-14142900D01*
X24537900Y-12676900D02*
X23137900Y-11276900D01*
X23137900Y-11276900D02*
X16987900Y-11276900D01*
X16987900Y-11276900D02*
X16047900Y-10336900D01*
X16047900Y-10336900D02*
X16047900Y-9486900D01*
X30357900Y-15836900D02*
X29947900Y-15836900D01*
X30357900Y-16133900D02*
X30357900Y-15836900D01*
X75653900Y-30060900D02*
X75272900Y-30441900D01*
X74637900Y-19773900D02*
X74637900Y-19519900D01*
X75653900Y-27139900D02*
X75653900Y-26123900D01*
X75653900Y-26123900D02*
X74637900Y-25107900D01*
X74637900Y-25107900D02*
X74637900Y-19773900D01*
X65112900Y-18122900D02*
X64985900Y-18122900D01*
X65366900Y-18376900D02*
X65112900Y-18122900D01*
X74637900Y-19519900D02*
X74256900Y-19138900D01*
X31203900Y-16979900D02*
X30357900Y-16133900D01*
X33489900Y-16979900D02*
X31203900Y-16979900D01*
X35902900Y-14566900D02*
X33489900Y-16979900D01*
X52285900Y-14566900D02*
X35902900Y-14566900D01*
X55079900Y-11772900D02*
X52285900Y-14566900D01*
X57746900Y-11772900D02*
X55079900Y-11772900D01*
X57873900Y-11645900D02*
X57746900Y-11772900D01*
X60921900Y-11264900D02*
X59524900Y-9867900D01*
X60921900Y-14058900D02*
X60921900Y-11264900D01*
X64985900Y-18122900D02*
X60921900Y-14058900D01*
X75653900Y-30060900D02*
X75653900Y-27139900D01*
X5231400Y-22924500D02*
X5231400Y-25871000D01*
X7061200Y-21094700D02*
X5231400Y-22924500D01*
X8877300Y-21094700D02*
X7061200Y-21094700D01*
X12357100Y-17614900D02*
X8877300Y-21094700D01*
X12357100Y-11861800D02*
X12357100Y-17614900D01*
X12788900Y-11430000D02*
X12357100Y-11861800D01*
X14249400Y-11430000D02*
X12788900Y-11430000D01*
X14947900Y-12128500D02*
X14249400Y-11430000D01*
X14947900Y-13677900D02*
X14947900Y-12128500D01*
X15290800Y-14020800D02*
X14947900Y-13677900D01*
X16967200Y-14020800D02*
X15290800Y-14020800D01*
X18326100Y-12661900D02*
X16967200Y-14020800D01*
X18757900Y-12661900D02*
X18326100Y-12661900D01*
X5244100Y-34187400D02*
X5244100Y-34570500D01*
X1931400Y-30874700D02*
X5244100Y-34187400D01*
X1931400Y-30771000D02*
X1931400Y-30874700D01*
D30*
G36*
X96238244Y-19216986D02*
X96655617Y-19635088D01*
X96703212Y-19654851D01*
X96633547Y-19872942D01*
X97497900Y-20737295D01*
X98362253Y-19872942D01*
X98292719Y-19655260D01*
X98337986Y-19636556D01*
X98513365Y-19461482D01*
X98694246Y-19425503D01*
X99062466Y-19179466D01*
X99327900Y-18914032D01*
X99327900Y-32225035D01*
X99310900Y-38676565D01*
X99310900Y-40649900D01*
X99022900Y-40649900D01*
X99022900Y-26876900D01*
X99015938Y-26841900D01*
X98936504Y-26442555D01*
X98690466Y-26074334D01*
X96022900Y-23406768D01*
X96022900Y-21960858D01*
X96633547Y-21960858D01*
X96713820Y-22212159D01*
X97269179Y-22413618D01*
X97859358Y-22387215D01*
X98281980Y-22212159D01*
X98362253Y-21960858D01*
X97497900Y-21096505D01*
X96633547Y-21960858D01*
X96022900Y-21960858D01*
X96022900Y-21173635D01*
X96027585Y-21278358D01*
X96202641Y-21700980D01*
X96453942Y-21781253D01*
X97318295Y-20916900D01*
X97677505Y-20916900D01*
X98541858Y-21781253D01*
X98793159Y-21700980D01*
X98994618Y-21145621D01*
X98968215Y-20555442D01*
X98793159Y-20132820D01*
X98541858Y-20052547D01*
X97677505Y-20916900D01*
X97318295Y-20916900D01*
X96453942Y-20052547D01*
X96202641Y-20132820D01*
X96022900Y-20628309D01*
X96022900Y-18695813D01*
X96238244Y-19216986D01*
X96238244Y-19216986D01*
G37*
X96238244Y-19216986D02*
X96655617Y-19635088D01*
X96703212Y-19654851D01*
X96633547Y-19872942D01*
X97497900Y-20737295D01*
X98362253Y-19872942D01*
X98292719Y-19655260D01*
X98337986Y-19636556D01*
X98513365Y-19461482D01*
X98694246Y-19425503D01*
X99062466Y-19179466D01*
X99327900Y-18914032D01*
X99327900Y-32225035D01*
X99310900Y-38676565D01*
X99310900Y-40649900D01*
X99022900Y-40649900D01*
X99022900Y-26876900D01*
X99015938Y-26841900D01*
X98936504Y-26442555D01*
X98690466Y-26074334D01*
X96022900Y-23406768D01*
X96022900Y-21960858D01*
X96633547Y-21960858D01*
X96713820Y-22212159D01*
X97269179Y-22413618D01*
X97859358Y-22387215D01*
X98281980Y-22212159D01*
X98362253Y-21960858D01*
X97497900Y-21096505D01*
X96633547Y-21960858D01*
X96022900Y-21960858D01*
X96022900Y-21173635D01*
X96027585Y-21278358D01*
X96202641Y-21700980D01*
X96453942Y-21781253D01*
X97318295Y-20916900D01*
X97677505Y-20916900D01*
X98541858Y-21781253D01*
X98793159Y-21700980D01*
X98994618Y-21145621D01*
X98968215Y-20555442D01*
X98793159Y-20132820D01*
X98541858Y-20052547D01*
X97677505Y-20916900D01*
X97318295Y-20916900D01*
X96453942Y-20052547D01*
X96202641Y-20132820D01*
X96022900Y-20628309D01*
X96022900Y-18695813D01*
X96238244Y-19216986D01*
G36*
X10364177Y-2861177D02*
X10204849Y-3099628D01*
X10148900Y-3380900D01*
X10148900Y-3786708D01*
X9982459Y-3893810D01*
X9837469Y-4106010D01*
X9786460Y-4357900D01*
X9786460Y-5557900D01*
X9830738Y-5793217D01*
X9969810Y-6009341D01*
X10037906Y-6055869D01*
X9895573Y-6198202D01*
X9798900Y-6431591D01*
X9798900Y-6872150D01*
X9957650Y-7030900D01*
X10756900Y-7030900D01*
X10756900Y-7010900D01*
X11010900Y-7010900D01*
X11010900Y-7030900D01*
X11810150Y-7030900D01*
X11836400Y-7004650D01*
X11862650Y-7030900D01*
X12661900Y-7030900D01*
X12661900Y-7010900D01*
X12915900Y-7010900D01*
X12915900Y-7030900D01*
X13715150Y-7030900D01*
X13741400Y-7004650D01*
X13767650Y-7030900D01*
X14566900Y-7030900D01*
X14566900Y-7010900D01*
X14820900Y-7010900D01*
X14820900Y-7030900D01*
X15620150Y-7030900D01*
X15778900Y-6872150D01*
X15778900Y-6431591D01*
X15682227Y-6198202D01*
X15540990Y-6056964D01*
X15595341Y-6021990D01*
X15740331Y-5809790D01*
X15764002Y-5692900D01*
X16972454Y-5692900D01*
X17465811Y-6186258D01*
X17273158Y-6650219D01*
X17272643Y-7240989D01*
X17498244Y-7786986D01*
X17663039Y-7952069D01*
X17671378Y-8435690D01*
X17599230Y-8507838D01*
X17673909Y-8582517D01*
X17674815Y-8635045D01*
X17462641Y-8702820D01*
X17295340Y-9164016D01*
X17295340Y-9036900D01*
X17251062Y-8801583D01*
X17111990Y-8585459D01*
X16899790Y-8440469D01*
X16647900Y-8389460D01*
X15447900Y-8389460D01*
X15212583Y-8433738D01*
X14996459Y-8572810D01*
X14949931Y-8640906D01*
X14807598Y-8498573D01*
X14574209Y-8401900D01*
X14133650Y-8401900D01*
X13974900Y-8560650D01*
X13974900Y-9359900D01*
X13994900Y-9359900D01*
X13994900Y-9613900D01*
X13974900Y-9613900D01*
X13974900Y-10413150D01*
X14133650Y-10571900D01*
X14574209Y-10571900D01*
X14807598Y-10475227D01*
X14948836Y-10333990D01*
X14983810Y-10388341D01*
X15196010Y-10533331D01*
X15358519Y-10566240D01*
X15364828Y-10597957D01*
X15368849Y-10618172D01*
X15528177Y-10856623D01*
X15870305Y-11198751D01*
X15377814Y-11402244D01*
X15319401Y-11460555D01*
X14769123Y-10910277D01*
X14530672Y-10750949D01*
X14249400Y-10695000D01*
X12788900Y-10695000D01*
X12554294Y-10741667D01*
X12507627Y-10750949D01*
X12269176Y-10910277D01*
X11837377Y-11342077D01*
X11678049Y-11580528D01*
X11622100Y-11861800D01*
X11622100Y-17310453D01*
X10083042Y-18849511D01*
X10083157Y-18717811D01*
X9857556Y-18171814D01*
X9440183Y-17753712D01*
X9412343Y-17742152D01*
X9437986Y-17731556D01*
X9856088Y-17314183D01*
X10082642Y-16768581D01*
X10083157Y-16177811D01*
X9857556Y-15631814D01*
X9440183Y-15213712D01*
X9272900Y-15144250D01*
X9272900Y-14479926D01*
X9312201Y-14519227D01*
X9545590Y-14615900D01*
X9836150Y-14615900D01*
X9994900Y-14457150D01*
X9994900Y-13507900D01*
X10248900Y-13507900D01*
X10248900Y-14457150D01*
X10407650Y-14615900D01*
X10698210Y-14615900D01*
X10931599Y-14519227D01*
X11110227Y-14340598D01*
X11206900Y-14107209D01*
X11206900Y-13666650D01*
X11048150Y-13507900D01*
X10248900Y-13507900D01*
X9994900Y-13507900D01*
X9974900Y-13507900D01*
X9974900Y-13253900D01*
X9994900Y-13253900D01*
X9994900Y-13233900D01*
X10248900Y-13233900D01*
X10248900Y-13253900D01*
X11048150Y-13253900D01*
X11206900Y-13095150D01*
X11206900Y-12654591D01*
X11110227Y-12421202D01*
X10968990Y-12279964D01*
X11023341Y-12244990D01*
X11168331Y-12032790D01*
X11219340Y-11780900D01*
X11219340Y-10584340D01*
X12202900Y-10584340D01*
X12438217Y-10540062D01*
X12654341Y-10400990D01*
X12719135Y-10306161D01*
X12888202Y-10475227D01*
X13121591Y-10571900D01*
X13562150Y-10571900D01*
X13720900Y-10413150D01*
X13720900Y-9613900D01*
X13700900Y-9613900D01*
X13700900Y-9359900D01*
X13720900Y-9359900D01*
X13720900Y-8560650D01*
X13562150Y-8401900D01*
X13121591Y-8401900D01*
X12888202Y-8498573D01*
X12719583Y-8667191D01*
X12666990Y-8585459D01*
X12454790Y-8440469D01*
X12219887Y-8392900D01*
X12503150Y-8392900D01*
X12661900Y-8234150D01*
X12661900Y-7284900D01*
X12915900Y-7284900D01*
X12915900Y-8234150D01*
X13074650Y-8392900D01*
X13365210Y-8392900D01*
X13598599Y-8296227D01*
X13741400Y-8153425D01*
X13884201Y-8296227D01*
X14117590Y-8392900D01*
X14408150Y-8392900D01*
X14566900Y-8234150D01*
X14566900Y-7284900D01*
X14820900Y-7284900D01*
X14820900Y-8234150D01*
X14979650Y-8392900D01*
X15270210Y-8392900D01*
X15503599Y-8296227D01*
X15682227Y-8117598D01*
X15778900Y-7884209D01*
X15778900Y-7443650D01*
X15620150Y-7284900D01*
X14820900Y-7284900D01*
X14566900Y-7284900D01*
X13767650Y-7284900D01*
X13741400Y-7311150D01*
X13715150Y-7284900D01*
X12915900Y-7284900D01*
X12661900Y-7284900D01*
X11862650Y-7284900D01*
X11836400Y-7311150D01*
X11810150Y-7284900D01*
X11010900Y-7284900D01*
X11010900Y-8234150D01*
X11166210Y-8389460D01*
X11002900Y-8389460D01*
X10767583Y-8433738D01*
X10551459Y-8572810D01*
X10504931Y-8640906D01*
X10362598Y-8498573D01*
X10129209Y-8401900D01*
X9688650Y-8401900D01*
X9529900Y-8560650D01*
X9529900Y-9359900D01*
X9549900Y-9359900D01*
X9549900Y-9613900D01*
X9529900Y-9613900D01*
X9529900Y-9633900D01*
X9275900Y-9633900D01*
X9275900Y-9613900D01*
X8326650Y-9613900D01*
X8167900Y-9772650D01*
X8167900Y-10063210D01*
X8264573Y-10296599D01*
X8443202Y-10475227D01*
X8676591Y-10571900D01*
X9026283Y-10571900D01*
X9024460Y-10580900D01*
X9024460Y-10700893D01*
X8018177Y-11707177D01*
X7858849Y-11945628D01*
X7802900Y-12226900D01*
X7802900Y-15193615D01*
X7757814Y-15212244D01*
X7339712Y-15629617D01*
X7113158Y-16175219D01*
X7112643Y-16765989D01*
X7338244Y-17311986D01*
X7755617Y-17730088D01*
X7783457Y-17741648D01*
X7757814Y-17752244D01*
X7339712Y-18169617D01*
X7113158Y-18715219D01*
X7112643Y-19305989D01*
X7338244Y-19851986D01*
X7755617Y-20270088D01*
X7971426Y-20359700D01*
X7061200Y-20359700D01*
X6779928Y-20415649D01*
X6541477Y-20574976D01*
X4711677Y-22404777D01*
X4552349Y-22643228D01*
X4496400Y-22924500D01*
X4496400Y-24549808D01*
X4329959Y-24656910D01*
X4184969Y-24869110D01*
X4133960Y-25121000D01*
X4133960Y-26621000D01*
X4178238Y-26856317D01*
X4317310Y-27072441D01*
X4529510Y-27217431D01*
X4781400Y-27268440D01*
X5681400Y-27268440D01*
X5916717Y-27224162D01*
X6132841Y-27085090D01*
X6277831Y-26872890D01*
X6328840Y-26621000D01*
X6328840Y-25121000D01*
X6284562Y-24885683D01*
X6145490Y-24669559D01*
X5966400Y-24547192D01*
X5966400Y-24460412D01*
X6194135Y-24688545D01*
X6611144Y-24861703D01*
X7062675Y-24862097D01*
X7356065Y-24740870D01*
X8197850Y-24740870D01*
X8197850Y-24981480D01*
X8294523Y-25214869D01*
X8473152Y-25393497D01*
X8706541Y-25490170D01*
X8947150Y-25490170D01*
X9105900Y-25331420D01*
X9105900Y-24582120D01*
X9359900Y-24582120D01*
X9359900Y-25331420D01*
X9518650Y-25490170D01*
X9759259Y-25490170D01*
X9992648Y-25393497D01*
X10171277Y-25214869D01*
X10267950Y-24981480D01*
X10267950Y-24740870D01*
X10109200Y-24582120D01*
X9359900Y-24582120D01*
X9105900Y-24582120D01*
X8356600Y-24582120D01*
X8197850Y-24740870D01*
X7356065Y-24740870D01*
X7479986Y-24689667D01*
X7799545Y-24370665D01*
X7972703Y-23953656D01*
X7972861Y-23772807D01*
X8242038Y-23503630D01*
X8504810Y-23503630D01*
X8473152Y-23516743D01*
X8294523Y-23695371D01*
X8197850Y-23928760D01*
X8197850Y-24169370D01*
X8356600Y-24328120D01*
X9105900Y-24328120D01*
X9105900Y-23578820D01*
X8959743Y-23432663D01*
X9134391Y-23320280D01*
X9233532Y-23175183D01*
X9318760Y-23307631D01*
X9504309Y-23434411D01*
X9359900Y-23578820D01*
X9359900Y-24328120D01*
X10109200Y-24328120D01*
X10267950Y-24169370D01*
X10267950Y-23928760D01*
X10171277Y-23695371D01*
X9992648Y-23516743D01*
X9960990Y-23503630D01*
X10582950Y-23503630D01*
X10818267Y-23459352D01*
X11034391Y-23320280D01*
X11122629Y-23191140D01*
X12534213Y-23191140D01*
X11218177Y-24507177D01*
X11058849Y-24745628D01*
X11002900Y-25026900D01*
X11002900Y-26139829D01*
X10745708Y-26396573D01*
X10603062Y-26740101D01*
X10602738Y-27112067D01*
X10744783Y-27455843D01*
X11007573Y-27719092D01*
X11351101Y-27861738D01*
X11723067Y-27862062D01*
X12066843Y-27720017D01*
X12330092Y-27457227D01*
X12472738Y-27113699D01*
X12472780Y-27065965D01*
X12612900Y-27094340D01*
X13812900Y-27094340D01*
X14048217Y-27050062D01*
X14264341Y-26910990D01*
X14310869Y-26842894D01*
X14453202Y-26985227D01*
X14686591Y-27081900D01*
X15127150Y-27081900D01*
X15285900Y-26923150D01*
X15285900Y-26123900D01*
X15539900Y-26123900D01*
X15539900Y-26923150D01*
X15698650Y-27081900D01*
X16139209Y-27081900D01*
X16372598Y-26985227D01*
X16551227Y-26806599D01*
X16616751Y-26648410D01*
X16772850Y-26648410D01*
X16772850Y-26889020D01*
X16869523Y-27122409D01*
X17048152Y-27301037D01*
X17281541Y-27397710D01*
X17522150Y-27397710D01*
X17680900Y-27238960D01*
X17680900Y-26489660D01*
X16931600Y-26489660D01*
X16772850Y-26648410D01*
X16616751Y-26648410D01*
X16647900Y-26573210D01*
X16647900Y-26282650D01*
X16489150Y-26123900D01*
X15539900Y-26123900D01*
X15285900Y-26123900D01*
X15265900Y-26123900D01*
X15265900Y-25869900D01*
X15285900Y-25869900D01*
X15285900Y-25849900D01*
X15539900Y-25849900D01*
X15539900Y-25869900D01*
X16489150Y-25869900D01*
X16647900Y-25711150D01*
X16647900Y-25420590D01*
X16616615Y-25345061D01*
X16871994Y-25600440D01*
X16869523Y-25602911D01*
X16772850Y-25836300D01*
X16772850Y-26076910D01*
X16931600Y-26235660D01*
X17576260Y-26235660D01*
X17606628Y-26255951D01*
X17887900Y-26311900D01*
X17954900Y-26311900D01*
X17954900Y-26489660D01*
X17934900Y-26489660D01*
X17934900Y-27238960D01*
X18093650Y-27397710D01*
X18334259Y-27397710D01*
X18567648Y-27301037D01*
X18602953Y-27265733D01*
X18602738Y-27512067D01*
X18744783Y-27855843D01*
X19007573Y-28119092D01*
X19351101Y-28261738D01*
X19723067Y-28262062D01*
X20066843Y-28120017D01*
X20330092Y-27857227D01*
X20472738Y-27513699D01*
X20472939Y-27282430D01*
X20559391Y-27226800D01*
X20704381Y-27014600D01*
X20755390Y-26762710D01*
X20755390Y-26683837D01*
X21352808Y-27281255D01*
X21352738Y-27362067D01*
X21494783Y-27705843D01*
X21757573Y-27969092D01*
X22101101Y-28111738D01*
X22473067Y-28112062D01*
X22816843Y-27970017D01*
X23080092Y-27707227D01*
X23082710Y-27700922D01*
X23137900Y-27711900D01*
X25383454Y-27711900D01*
X27002898Y-29331345D01*
X27002898Y-29641999D01*
X26702733Y-29641738D01*
X26358957Y-29783783D01*
X26095708Y-30046573D01*
X25953062Y-30390101D01*
X25952738Y-30762067D01*
X26094783Y-31105843D01*
X26352900Y-31364411D01*
X26352900Y-31602453D01*
X24027623Y-29277177D01*
X23789172Y-29117849D01*
X23507900Y-29061900D01*
X22566286Y-29061900D01*
X22439790Y-28975469D01*
X22187900Y-28924460D01*
X20957561Y-28924460D01*
X20718227Y-28684708D01*
X20374699Y-28542062D01*
X20002733Y-28541738D01*
X19658957Y-28683783D01*
X19395708Y-28946573D01*
X19253062Y-29290101D01*
X19252990Y-29372363D01*
X18913454Y-29711900D01*
X16935340Y-29711900D01*
X16935340Y-29571900D01*
X16891062Y-29336583D01*
X16751990Y-29120459D01*
X16539790Y-28975469D01*
X16287900Y-28924460D01*
X14787900Y-28924460D01*
X14588924Y-28961900D01*
X13427880Y-28961900D01*
X13181665Y-28715255D01*
X12764656Y-28542097D01*
X12313125Y-28541703D01*
X11895814Y-28714133D01*
X11576255Y-29033135D01*
X11403097Y-29450144D01*
X11402703Y-29901675D01*
X11502039Y-30142086D01*
X11333807Y-30141939D01*
X11213334Y-30021466D01*
X11191949Y-30007177D01*
X10942441Y-29840461D01*
X10932718Y-29838527D01*
X10921062Y-29776583D01*
X10781990Y-29560459D01*
X10569790Y-29415469D01*
X10317900Y-29364460D01*
X9417900Y-29364460D01*
X9182583Y-29408738D01*
X8966459Y-29547810D01*
X8821469Y-29760010D01*
X8770460Y-30011900D01*
X8770460Y-31211900D01*
X8814738Y-31447217D01*
X8953810Y-31663341D01*
X9023611Y-31711034D01*
X8966459Y-31747810D01*
X8821469Y-31960010D01*
X8770460Y-32211900D01*
X8770460Y-33411900D01*
X8814738Y-33647217D01*
X8953810Y-33863341D01*
X9166010Y-34008331D01*
X9233903Y-34022080D01*
X9114439Y-34141336D01*
X8903141Y-34650198D01*
X8902660Y-35201185D01*
X9113069Y-35710415D01*
X9502336Y-36100361D01*
X10011198Y-36311659D01*
X10067576Y-36311708D01*
X13890334Y-40134466D01*
X14258554Y-40380503D01*
X14692900Y-40466900D01*
X18457768Y-40466900D01*
X18482368Y-40491500D01*
X18323968Y-40649900D01*
X7319475Y-40649900D01*
X7459692Y-40509927D01*
X7602338Y-40166399D01*
X7602662Y-39794433D01*
X7460617Y-39450657D01*
X7197827Y-39187408D01*
X6854299Y-39044762D01*
X6482333Y-39044438D01*
X6390591Y-39082345D01*
X6341540Y-39033294D01*
X6341540Y-38720500D01*
X6297262Y-38485183D01*
X6158190Y-38269059D01*
X5945990Y-38124069D01*
X5694100Y-38073060D01*
X4794100Y-38073060D01*
X4558783Y-38117338D01*
X4342659Y-38256410D01*
X4197669Y-38468610D01*
X4146660Y-38720500D01*
X4146660Y-40220500D01*
X4190938Y-40455817D01*
X4315827Y-40649900D01*
X2869244Y-40649900D01*
X2990531Y-40472390D01*
X3041540Y-40220500D01*
X3041540Y-38720500D01*
X2997262Y-38485183D01*
X2858190Y-38269059D01*
X2645990Y-38124069D01*
X2394100Y-38073060D01*
X1494100Y-38073060D01*
X1258783Y-38117338D01*
X1042659Y-38256410D01*
X897669Y-38468610D01*
X846660Y-38720500D01*
X846660Y-40220500D01*
X890938Y-40455817D01*
X1015827Y-40649900D01*
X747900Y-40649900D01*
X747900Y-34856250D01*
X859100Y-34856250D01*
X859100Y-35446809D01*
X955773Y-35680198D01*
X1134401Y-35858827D01*
X1367790Y-35955500D01*
X1658350Y-35955500D01*
X1817100Y-35796750D01*
X1817100Y-34697500D01*
X2071100Y-34697500D01*
X2071100Y-35796750D01*
X2229850Y-35955500D01*
X2520410Y-35955500D01*
X2753799Y-35858827D01*
X2932427Y-35680198D01*
X3029100Y-35446809D01*
X3029100Y-34856250D01*
X2870350Y-34697500D01*
X2071100Y-34697500D01*
X1817100Y-34697500D01*
X1017850Y-34697500D01*
X859100Y-34856250D01*
X747900Y-34856250D01*
X747900Y-33694191D01*
X859100Y-33694191D01*
X859100Y-34284750D01*
X1017850Y-34443500D01*
X1817100Y-34443500D01*
X1817100Y-33344250D01*
X2071100Y-33344250D01*
X2071100Y-34443500D01*
X2870350Y-34443500D01*
X3029100Y-34284750D01*
X3029100Y-33694191D01*
X2932427Y-33460802D01*
X2753799Y-33282173D01*
X2520410Y-33185500D01*
X2229850Y-33185500D01*
X2071100Y-33344250D01*
X1817100Y-33344250D01*
X1658350Y-33185500D01*
X1367790Y-33185500D01*
X1134401Y-33282173D01*
X955773Y-33460802D01*
X859100Y-33694191D01*
X747900Y-33694191D01*
X747900Y-30021000D01*
X833960Y-30021000D01*
X833960Y-31521000D01*
X878238Y-31756317D01*
X1017310Y-31972441D01*
X1229510Y-32117431D01*
X1481400Y-32168440D01*
X2185694Y-32168440D01*
X4146660Y-34129407D01*
X4146660Y-35320500D01*
X4190938Y-35555817D01*
X4330010Y-35771941D01*
X4542210Y-35916931D01*
X4794100Y-35967940D01*
X5694100Y-35967940D01*
X5929417Y-35923662D01*
X6145541Y-35784590D01*
X6290531Y-35572390D01*
X6341540Y-35320500D01*
X6341540Y-33820500D01*
X6297262Y-33585183D01*
X6176707Y-33397835D01*
X6392892Y-33182027D01*
X6535538Y-32838499D01*
X6535862Y-32466533D01*
X6393817Y-32122757D01*
X6183044Y-31911616D01*
X6277831Y-31772890D01*
X6328840Y-31521000D01*
X6328840Y-30021000D01*
X6284562Y-29785683D01*
X6145490Y-29569559D01*
X5933290Y-29424569D01*
X5681400Y-29373560D01*
X4781400Y-29373560D01*
X4546083Y-29417838D01*
X4329959Y-29556910D01*
X4184969Y-29769110D01*
X4133960Y-30021000D01*
X4133960Y-31521000D01*
X4178238Y-31756317D01*
X4317310Y-31972441D01*
X4496400Y-32094808D01*
X4496400Y-32282400D01*
X4525664Y-32429517D01*
X3028840Y-30932694D01*
X3028840Y-30021000D01*
X2984562Y-29785683D01*
X2845490Y-29569559D01*
X2633290Y-29424569D01*
X2381400Y-29373560D01*
X1481400Y-29373560D01*
X1246083Y-29417838D01*
X1029959Y-29556910D01*
X884969Y-29769110D01*
X833960Y-30021000D01*
X747900Y-30021000D01*
X747900Y-26156750D01*
X846400Y-26156750D01*
X846400Y-26747309D01*
X943073Y-26980698D01*
X1121701Y-27159327D01*
X1355090Y-27256000D01*
X1645650Y-27256000D01*
X1804400Y-27097250D01*
X1804400Y-25998000D01*
X2058400Y-25998000D01*
X2058400Y-27097250D01*
X2217150Y-27256000D01*
X2507710Y-27256000D01*
X2741099Y-27159327D01*
X2919727Y-26980698D01*
X3016400Y-26747309D01*
X3016400Y-26156750D01*
X2857650Y-25998000D01*
X2058400Y-25998000D01*
X1804400Y-25998000D01*
X1005150Y-25998000D01*
X846400Y-26156750D01*
X747900Y-26156750D01*
X747900Y-24994691D01*
X846400Y-24994691D01*
X846400Y-25585250D01*
X1005150Y-25744000D01*
X1804400Y-25744000D01*
X1804400Y-24644750D01*
X2058400Y-24644750D01*
X2058400Y-25744000D01*
X2857650Y-25744000D01*
X3016400Y-25585250D01*
X3016400Y-24994691D01*
X2919727Y-24761302D01*
X2741099Y-24582673D01*
X2507710Y-24486000D01*
X2217150Y-24486000D01*
X2058400Y-24644750D01*
X1804400Y-24644750D01*
X1645650Y-24486000D01*
X1355090Y-24486000D01*
X1121701Y-24582673D01*
X943073Y-24761302D01*
X846400Y-24994691D01*
X747900Y-24994691D01*
X747900Y-14344314D01*
X748548Y-13825295D01*
X751573Y-13832598D01*
X930201Y-14011227D01*
X1163590Y-14107900D01*
X1454150Y-14107900D01*
X1612900Y-13949150D01*
X1612900Y-12999900D01*
X1592900Y-12999900D01*
X1592900Y-12745900D01*
X1612900Y-12745900D01*
X1612900Y-12725900D01*
X1866900Y-12725900D01*
X1866900Y-12745900D01*
X1886900Y-12745900D01*
X1886900Y-12999900D01*
X1866900Y-12999900D01*
X1866900Y-13949150D01*
X2025650Y-14107900D01*
X2316210Y-14107900D01*
X2549599Y-14011227D01*
X2728227Y-13832598D01*
X2755855Y-13765898D01*
X2857810Y-13924341D01*
X3036900Y-14046708D01*
X3036900Y-14643453D01*
X2649591Y-15030762D01*
X2544581Y-14987158D01*
X1953811Y-14986643D01*
X1407814Y-15212244D01*
X989712Y-15629617D01*
X763158Y-16175219D01*
X762643Y-16765989D01*
X988244Y-17311986D01*
X1405617Y-17730088D01*
X1433457Y-17741648D01*
X1407814Y-17752244D01*
X989712Y-18169617D01*
X763158Y-18715219D01*
X762643Y-19305989D01*
X988244Y-19851986D01*
X1405617Y-20270088D01*
X1951219Y-20496642D01*
X2541989Y-20497157D01*
X3087986Y-20271556D01*
X3506088Y-19854183D01*
X3732642Y-19308581D01*
X3733157Y-18717811D01*
X3507556Y-18171814D01*
X3090183Y-17753712D01*
X3062343Y-17742152D01*
X3087986Y-17731556D01*
X3506088Y-17314183D01*
X3732642Y-16768581D01*
X3733157Y-16177811D01*
X3688796Y-16070450D01*
X4291623Y-15467624D01*
X4450951Y-15229173D01*
X4460289Y-15182227D01*
X4510336Y-15232361D01*
X4547290Y-15247706D01*
X4164712Y-15629617D01*
X3938158Y-16175219D01*
X3937643Y-16765989D01*
X4163244Y-17311986D01*
X4580617Y-17730088D01*
X4608457Y-17741648D01*
X4582814Y-17752244D01*
X4164712Y-18169617D01*
X3938158Y-18715219D01*
X3937643Y-19305989D01*
X4163244Y-19851986D01*
X4580617Y-20270088D01*
X5126219Y-20496642D01*
X5716989Y-20497157D01*
X6262986Y-20271556D01*
X6681088Y-19854183D01*
X6907642Y-19308581D01*
X6908157Y-18717811D01*
X6682556Y-18171814D01*
X6265183Y-17753712D01*
X6237343Y-17742152D01*
X6262986Y-17731556D01*
X6681088Y-17314183D01*
X6907642Y-16768581D01*
X6908157Y-16177811D01*
X6840406Y-16013841D01*
X7212623Y-15641624D01*
X7371951Y-15403172D01*
X7384172Y-15341733D01*
X7427900Y-15121900D01*
X7427900Y-14044092D01*
X7594341Y-13936990D01*
X7739331Y-13724790D01*
X7790340Y-13472900D01*
X7790340Y-12272900D01*
X7746062Y-12037583D01*
X7606990Y-11821459D01*
X7538894Y-11774931D01*
X7681227Y-11632598D01*
X7777900Y-11399209D01*
X7777900Y-10958650D01*
X7619150Y-10799900D01*
X6819900Y-10799900D01*
X6819900Y-10819900D01*
X6565900Y-10819900D01*
X6565900Y-10799900D01*
X6545900Y-10799900D01*
X6545900Y-10545900D01*
X6565900Y-10545900D01*
X6565900Y-9596650D01*
X6819900Y-9596650D01*
X6819900Y-10545900D01*
X7619150Y-10545900D01*
X7777900Y-10387150D01*
X7777900Y-9946591D01*
X7681227Y-9713202D01*
X7502599Y-9534573D01*
X7269210Y-9437900D01*
X6978650Y-9437900D01*
X6819900Y-9596650D01*
X6565900Y-9596650D01*
X6430900Y-9461650D01*
X6430900Y-8910590D01*
X8167900Y-8910590D01*
X8167900Y-9201150D01*
X8326650Y-9359900D01*
X9275900Y-9359900D01*
X9275900Y-8560650D01*
X9117150Y-8401900D01*
X8676591Y-8401900D01*
X8443202Y-8498573D01*
X8264573Y-8677201D01*
X8167900Y-8910590D01*
X6430900Y-8910590D01*
X6430900Y-8332391D01*
X6781764Y-8328059D01*
X7031219Y-8431642D01*
X7621989Y-8432157D01*
X7907563Y-8314160D01*
X8739468Y-8303890D01*
X8784059Y-8295215D01*
X8826453Y-8267935D01*
X8854894Y-8226310D01*
X8864900Y-8176900D01*
X8864900Y-7443650D01*
X9798900Y-7443650D01*
X9798900Y-7884209D01*
X9895573Y-8117598D01*
X10074201Y-8296227D01*
X10307590Y-8392900D01*
X10598150Y-8392900D01*
X10756900Y-8234150D01*
X10756900Y-7284900D01*
X9957650Y-7284900D01*
X9798900Y-7443650D01*
X8864900Y-7443650D01*
X8864900Y-853900D01*
X12371453Y-853900D01*
X10364177Y-2861177D01*
X10364177Y-2861177D01*
G37*
X10364177Y-2861177D02*
X10204849Y-3099628D01*
X10148900Y-3380900D01*
X10148900Y-3786708D01*
X9982459Y-3893810D01*
X9837469Y-4106010D01*
X9786460Y-4357900D01*
X9786460Y-5557900D01*
X9830738Y-5793217D01*
X9969810Y-6009341D01*
X10037906Y-6055869D01*
X9895573Y-6198202D01*
X9798900Y-6431591D01*
X9798900Y-6872150D01*
X9957650Y-7030900D01*
X10756900Y-7030900D01*
X10756900Y-7010900D01*
X11010900Y-7010900D01*
X11010900Y-7030900D01*
X11810150Y-7030900D01*
X11836400Y-7004650D01*
X11862650Y-7030900D01*
X12661900Y-7030900D01*
X12661900Y-7010900D01*
X12915900Y-7010900D01*
X12915900Y-7030900D01*
X13715150Y-7030900D01*
X13741400Y-7004650D01*
X13767650Y-7030900D01*
X14566900Y-7030900D01*
X14566900Y-7010900D01*
X14820900Y-7010900D01*
X14820900Y-7030900D01*
X15620150Y-7030900D01*
X15778900Y-6872150D01*
X15778900Y-6431591D01*
X15682227Y-6198202D01*
X15540990Y-6056964D01*
X15595341Y-6021990D01*
X15740331Y-5809790D01*
X15764002Y-5692900D01*
X16972454Y-5692900D01*
X17465811Y-6186258D01*
X17273158Y-6650219D01*
X17272643Y-7240989D01*
X17498244Y-7786986D01*
X17663039Y-7952069D01*
X17671378Y-8435690D01*
X17599230Y-8507838D01*
X17673909Y-8582517D01*
X17674815Y-8635045D01*
X17462641Y-8702820D01*
X17295340Y-9164016D01*
X17295340Y-9036900D01*
X17251062Y-8801583D01*
X17111990Y-8585459D01*
X16899790Y-8440469D01*
X16647900Y-8389460D01*
X15447900Y-8389460D01*
X15212583Y-8433738D01*
X14996459Y-8572810D01*
X14949931Y-8640906D01*
X14807598Y-8498573D01*
X14574209Y-8401900D01*
X14133650Y-8401900D01*
X13974900Y-8560650D01*
X13974900Y-9359900D01*
X13994900Y-9359900D01*
X13994900Y-9613900D01*
X13974900Y-9613900D01*
X13974900Y-10413150D01*
X14133650Y-10571900D01*
X14574209Y-10571900D01*
X14807598Y-10475227D01*
X14948836Y-10333990D01*
X14983810Y-10388341D01*
X15196010Y-10533331D01*
X15358519Y-10566240D01*
X15364828Y-10597957D01*
X15368849Y-10618172D01*
X15528177Y-10856623D01*
X15870305Y-11198751D01*
X15377814Y-11402244D01*
X15319401Y-11460555D01*
X14769123Y-10910277D01*
X14530672Y-10750949D01*
X14249400Y-10695000D01*
X12788900Y-10695000D01*
X12554294Y-10741667D01*
X12507627Y-10750949D01*
X12269176Y-10910277D01*
X11837377Y-11342077D01*
X11678049Y-11580528D01*
X11622100Y-11861800D01*
X11622100Y-17310453D01*
X10083042Y-18849511D01*
X10083157Y-18717811D01*
X9857556Y-18171814D01*
X9440183Y-17753712D01*
X9412343Y-17742152D01*
X9437986Y-17731556D01*
X9856088Y-17314183D01*
X10082642Y-16768581D01*
X10083157Y-16177811D01*
X9857556Y-15631814D01*
X9440183Y-15213712D01*
X9272900Y-15144250D01*
X9272900Y-14479926D01*
X9312201Y-14519227D01*
X9545590Y-14615900D01*
X9836150Y-14615900D01*
X9994900Y-14457150D01*
X9994900Y-13507900D01*
X10248900Y-13507900D01*
X10248900Y-14457150D01*
X10407650Y-14615900D01*
X10698210Y-14615900D01*
X10931599Y-14519227D01*
X11110227Y-14340598D01*
X11206900Y-14107209D01*
X11206900Y-13666650D01*
X11048150Y-13507900D01*
X10248900Y-13507900D01*
X9994900Y-13507900D01*
X9974900Y-13507900D01*
X9974900Y-13253900D01*
X9994900Y-13253900D01*
X9994900Y-13233900D01*
X10248900Y-13233900D01*
X10248900Y-13253900D01*
X11048150Y-13253900D01*
X11206900Y-13095150D01*
X11206900Y-12654591D01*
X11110227Y-12421202D01*
X10968990Y-12279964D01*
X11023341Y-12244990D01*
X11168331Y-12032790D01*
X11219340Y-11780900D01*
X11219340Y-10584340D01*
X12202900Y-10584340D01*
X12438217Y-10540062D01*
X12654341Y-10400990D01*
X12719135Y-10306161D01*
X12888202Y-10475227D01*
X13121591Y-10571900D01*
X13562150Y-10571900D01*
X13720900Y-10413150D01*
X13720900Y-9613900D01*
X13700900Y-9613900D01*
X13700900Y-9359900D01*
X13720900Y-9359900D01*
X13720900Y-8560650D01*
X13562150Y-8401900D01*
X13121591Y-8401900D01*
X12888202Y-8498573D01*
X12719583Y-8667191D01*
X12666990Y-8585459D01*
X12454790Y-8440469D01*
X12219887Y-8392900D01*
X12503150Y-8392900D01*
X12661900Y-8234150D01*
X12661900Y-7284900D01*
X12915900Y-7284900D01*
X12915900Y-8234150D01*
X13074650Y-8392900D01*
X13365210Y-8392900D01*
X13598599Y-8296227D01*
X13741400Y-8153425D01*
X13884201Y-8296227D01*
X14117590Y-8392900D01*
X14408150Y-8392900D01*
X14566900Y-8234150D01*
X14566900Y-7284900D01*
X14820900Y-7284900D01*
X14820900Y-8234150D01*
X14979650Y-8392900D01*
X15270210Y-8392900D01*
X15503599Y-8296227D01*
X15682227Y-8117598D01*
X15778900Y-7884209D01*
X15778900Y-7443650D01*
X15620150Y-7284900D01*
X14820900Y-7284900D01*
X14566900Y-7284900D01*
X13767650Y-7284900D01*
X13741400Y-7311150D01*
X13715150Y-7284900D01*
X12915900Y-7284900D01*
X12661900Y-7284900D01*
X11862650Y-7284900D01*
X11836400Y-7311150D01*
X11810150Y-7284900D01*
X11010900Y-7284900D01*
X11010900Y-8234150D01*
X11166210Y-8389460D01*
X11002900Y-8389460D01*
X10767583Y-8433738D01*
X10551459Y-8572810D01*
X10504931Y-8640906D01*
X10362598Y-8498573D01*
X10129209Y-8401900D01*
X9688650Y-8401900D01*
X9529900Y-8560650D01*
X9529900Y-9359900D01*
X9549900Y-9359900D01*
X9549900Y-9613900D01*
X9529900Y-9613900D01*
X9529900Y-9633900D01*
X9275900Y-9633900D01*
X9275900Y-9613900D01*
X8326650Y-9613900D01*
X8167900Y-9772650D01*
X8167900Y-10063210D01*
X8264573Y-10296599D01*
X8443202Y-10475227D01*
X8676591Y-10571900D01*
X9026283Y-10571900D01*
X9024460Y-10580900D01*
X9024460Y-10700893D01*
X8018177Y-11707177D01*
X7858849Y-11945628D01*
X7802900Y-12226900D01*
X7802900Y-15193615D01*
X7757814Y-15212244D01*
X7339712Y-15629617D01*
X7113158Y-16175219D01*
X7112643Y-16765989D01*
X7338244Y-17311986D01*
X7755617Y-17730088D01*
X7783457Y-17741648D01*
X7757814Y-17752244D01*
X7339712Y-18169617D01*
X7113158Y-18715219D01*
X7112643Y-19305989D01*
X7338244Y-19851986D01*
X7755617Y-20270088D01*
X7971426Y-20359700D01*
X7061200Y-20359700D01*
X6779928Y-20415649D01*
X6541477Y-20574976D01*
X4711677Y-22404777D01*
X4552349Y-22643228D01*
X4496400Y-22924500D01*
X4496400Y-24549808D01*
X4329959Y-24656910D01*
X4184969Y-24869110D01*
X4133960Y-25121000D01*
X4133960Y-26621000D01*
X4178238Y-26856317D01*
X4317310Y-27072441D01*
X4529510Y-27217431D01*
X4781400Y-27268440D01*
X5681400Y-27268440D01*
X5916717Y-27224162D01*
X6132841Y-27085090D01*
X6277831Y-26872890D01*
X6328840Y-26621000D01*
X6328840Y-25121000D01*
X6284562Y-24885683D01*
X6145490Y-24669559D01*
X5966400Y-24547192D01*
X5966400Y-24460412D01*
X6194135Y-24688545D01*
X6611144Y-24861703D01*
X7062675Y-24862097D01*
X7356065Y-24740870D01*
X8197850Y-24740870D01*
X8197850Y-24981480D01*
X8294523Y-25214869D01*
X8473152Y-25393497D01*
X8706541Y-25490170D01*
X8947150Y-25490170D01*
X9105900Y-25331420D01*
X9105900Y-24582120D01*
X9359900Y-24582120D01*
X9359900Y-25331420D01*
X9518650Y-25490170D01*
X9759259Y-25490170D01*
X9992648Y-25393497D01*
X10171277Y-25214869D01*
X10267950Y-24981480D01*
X10267950Y-24740870D01*
X10109200Y-24582120D01*
X9359900Y-24582120D01*
X9105900Y-24582120D01*
X8356600Y-24582120D01*
X8197850Y-24740870D01*
X7356065Y-24740870D01*
X7479986Y-24689667D01*
X7799545Y-24370665D01*
X7972703Y-23953656D01*
X7972861Y-23772807D01*
X8242038Y-23503630D01*
X8504810Y-23503630D01*
X8473152Y-23516743D01*
X8294523Y-23695371D01*
X8197850Y-23928760D01*
X8197850Y-24169370D01*
X8356600Y-24328120D01*
X9105900Y-24328120D01*
X9105900Y-23578820D01*
X8959743Y-23432663D01*
X9134391Y-23320280D01*
X9233532Y-23175183D01*
X9318760Y-23307631D01*
X9504309Y-23434411D01*
X9359900Y-23578820D01*
X9359900Y-24328120D01*
X10109200Y-24328120D01*
X10267950Y-24169370D01*
X10267950Y-23928760D01*
X10171277Y-23695371D01*
X9992648Y-23516743D01*
X9960990Y-23503630D01*
X10582950Y-23503630D01*
X10818267Y-23459352D01*
X11034391Y-23320280D01*
X11122629Y-23191140D01*
X12534213Y-23191140D01*
X11218177Y-24507177D01*
X11058849Y-24745628D01*
X11002900Y-25026900D01*
X11002900Y-26139829D01*
X10745708Y-26396573D01*
X10603062Y-26740101D01*
X10602738Y-27112067D01*
X10744783Y-27455843D01*
X11007573Y-27719092D01*
X11351101Y-27861738D01*
X11723067Y-27862062D01*
X12066843Y-27720017D01*
X12330092Y-27457227D01*
X12472738Y-27113699D01*
X12472780Y-27065965D01*
X12612900Y-27094340D01*
X13812900Y-27094340D01*
X14048217Y-27050062D01*
X14264341Y-26910990D01*
X14310869Y-26842894D01*
X14453202Y-26985227D01*
X14686591Y-27081900D01*
X15127150Y-27081900D01*
X15285900Y-26923150D01*
X15285900Y-26123900D01*
X15539900Y-26123900D01*
X15539900Y-26923150D01*
X15698650Y-27081900D01*
X16139209Y-27081900D01*
X16372598Y-26985227D01*
X16551227Y-26806599D01*
X16616751Y-26648410D01*
X16772850Y-26648410D01*
X16772850Y-26889020D01*
X16869523Y-27122409D01*
X17048152Y-27301037D01*
X17281541Y-27397710D01*
X17522150Y-27397710D01*
X17680900Y-27238960D01*
X17680900Y-26489660D01*
X16931600Y-26489660D01*
X16772850Y-26648410D01*
X16616751Y-26648410D01*
X16647900Y-26573210D01*
X16647900Y-26282650D01*
X16489150Y-26123900D01*
X15539900Y-26123900D01*
X15285900Y-26123900D01*
X15265900Y-26123900D01*
X15265900Y-25869900D01*
X15285900Y-25869900D01*
X15285900Y-25849900D01*
X15539900Y-25849900D01*
X15539900Y-25869900D01*
X16489150Y-25869900D01*
X16647900Y-25711150D01*
X16647900Y-25420590D01*
X16616615Y-25345061D01*
X16871994Y-25600440D01*
X16869523Y-25602911D01*
X16772850Y-25836300D01*
X16772850Y-26076910D01*
X16931600Y-26235660D01*
X17576260Y-26235660D01*
X17606628Y-26255951D01*
X17887900Y-26311900D01*
X17954900Y-26311900D01*
X17954900Y-26489660D01*
X17934900Y-26489660D01*
X17934900Y-27238960D01*
X18093650Y-27397710D01*
X18334259Y-27397710D01*
X18567648Y-27301037D01*
X18602953Y-27265733D01*
X18602738Y-27512067D01*
X18744783Y-27855843D01*
X19007573Y-28119092D01*
X19351101Y-28261738D01*
X19723067Y-28262062D01*
X20066843Y-28120017D01*
X20330092Y-27857227D01*
X20472738Y-27513699D01*
X20472939Y-27282430D01*
X20559391Y-27226800D01*
X20704381Y-27014600D01*
X20755390Y-26762710D01*
X20755390Y-26683837D01*
X21352808Y-27281255D01*
X21352738Y-27362067D01*
X21494783Y-27705843D01*
X21757573Y-27969092D01*
X22101101Y-28111738D01*
X22473067Y-28112062D01*
X22816843Y-27970017D01*
X23080092Y-27707227D01*
X23082710Y-27700922D01*
X23137900Y-27711900D01*
X25383454Y-27711900D01*
X27002898Y-29331345D01*
X27002898Y-29641999D01*
X26702733Y-29641738D01*
X26358957Y-29783783D01*
X26095708Y-30046573D01*
X25953062Y-30390101D01*
X25952738Y-30762067D01*
X26094783Y-31105843D01*
X26352900Y-31364411D01*
X26352900Y-31602453D01*
X24027623Y-29277177D01*
X23789172Y-29117849D01*
X23507900Y-29061900D01*
X22566286Y-29061900D01*
X22439790Y-28975469D01*
X22187900Y-28924460D01*
X20957561Y-28924460D01*
X20718227Y-28684708D01*
X20374699Y-28542062D01*
X20002733Y-28541738D01*
X19658957Y-28683783D01*
X19395708Y-28946573D01*
X19253062Y-29290101D01*
X19252990Y-29372363D01*
X18913454Y-29711900D01*
X16935340Y-29711900D01*
X16935340Y-29571900D01*
X16891062Y-29336583D01*
X16751990Y-29120459D01*
X16539790Y-28975469D01*
X16287900Y-28924460D01*
X14787900Y-28924460D01*
X14588924Y-28961900D01*
X13427880Y-28961900D01*
X13181665Y-28715255D01*
X12764656Y-28542097D01*
X12313125Y-28541703D01*
X11895814Y-28714133D01*
X11576255Y-29033135D01*
X11403097Y-29450144D01*
X11402703Y-29901675D01*
X11502039Y-30142086D01*
X11333807Y-30141939D01*
X11213334Y-30021466D01*
X11191949Y-30007177D01*
X10942441Y-29840461D01*
X10932718Y-29838527D01*
X10921062Y-29776583D01*
X10781990Y-29560459D01*
X10569790Y-29415469D01*
X10317900Y-29364460D01*
X9417900Y-29364460D01*
X9182583Y-29408738D01*
X8966459Y-29547810D01*
X8821469Y-29760010D01*
X8770460Y-30011900D01*
X8770460Y-31211900D01*
X8814738Y-31447217D01*
X8953810Y-31663341D01*
X9023611Y-31711034D01*
X8966459Y-31747810D01*
X8821469Y-31960010D01*
X8770460Y-32211900D01*
X8770460Y-33411900D01*
X8814738Y-33647217D01*
X8953810Y-33863341D01*
X9166010Y-34008331D01*
X9233903Y-34022080D01*
X9114439Y-34141336D01*
X8903141Y-34650198D01*
X8902660Y-35201185D01*
X9113069Y-35710415D01*
X9502336Y-36100361D01*
X10011198Y-36311659D01*
X10067576Y-36311708D01*
X13890334Y-40134466D01*
X14258554Y-40380503D01*
X14692900Y-40466900D01*
X18457768Y-40466900D01*
X18482368Y-40491500D01*
X18323968Y-40649900D01*
X7319475Y-40649900D01*
X7459692Y-40509927D01*
X7602338Y-40166399D01*
X7602662Y-39794433D01*
X7460617Y-39450657D01*
X7197827Y-39187408D01*
X6854299Y-39044762D01*
X6482333Y-39044438D01*
X6390591Y-39082345D01*
X6341540Y-39033294D01*
X6341540Y-38720500D01*
X6297262Y-38485183D01*
X6158190Y-38269059D01*
X5945990Y-38124069D01*
X5694100Y-38073060D01*
X4794100Y-38073060D01*
X4558783Y-38117338D01*
X4342659Y-38256410D01*
X4197669Y-38468610D01*
X4146660Y-38720500D01*
X4146660Y-40220500D01*
X4190938Y-40455817D01*
X4315827Y-40649900D01*
X2869244Y-40649900D01*
X2990531Y-40472390D01*
X3041540Y-40220500D01*
X3041540Y-38720500D01*
X2997262Y-38485183D01*
X2858190Y-38269059D01*
X2645990Y-38124069D01*
X2394100Y-38073060D01*
X1494100Y-38073060D01*
X1258783Y-38117338D01*
X1042659Y-38256410D01*
X897669Y-38468610D01*
X846660Y-38720500D01*
X846660Y-40220500D01*
X890938Y-40455817D01*
X1015827Y-40649900D01*
X747900Y-40649900D01*
X747900Y-34856250D01*
X859100Y-34856250D01*
X859100Y-35446809D01*
X955773Y-35680198D01*
X1134401Y-35858827D01*
X1367790Y-35955500D01*
X1658350Y-35955500D01*
X1817100Y-35796750D01*
X1817100Y-34697500D01*
X2071100Y-34697500D01*
X2071100Y-35796750D01*
X2229850Y-35955500D01*
X2520410Y-35955500D01*
X2753799Y-35858827D01*
X2932427Y-35680198D01*
X3029100Y-35446809D01*
X3029100Y-34856250D01*
X2870350Y-34697500D01*
X2071100Y-34697500D01*
X1817100Y-34697500D01*
X1017850Y-34697500D01*
X859100Y-34856250D01*
X747900Y-34856250D01*
X747900Y-33694191D01*
X859100Y-33694191D01*
X859100Y-34284750D01*
X1017850Y-34443500D01*
X1817100Y-34443500D01*
X1817100Y-33344250D01*
X2071100Y-33344250D01*
X2071100Y-34443500D01*
X2870350Y-34443500D01*
X3029100Y-34284750D01*
X3029100Y-33694191D01*
X2932427Y-33460802D01*
X2753799Y-33282173D01*
X2520410Y-33185500D01*
X2229850Y-33185500D01*
X2071100Y-33344250D01*
X1817100Y-33344250D01*
X1658350Y-33185500D01*
X1367790Y-33185500D01*
X1134401Y-33282173D01*
X955773Y-33460802D01*
X859100Y-33694191D01*
X747900Y-33694191D01*
X747900Y-30021000D01*
X833960Y-30021000D01*
X833960Y-31521000D01*
X878238Y-31756317D01*
X1017310Y-31972441D01*
X1229510Y-32117431D01*
X1481400Y-32168440D01*
X2185694Y-32168440D01*
X4146660Y-34129407D01*
X4146660Y-35320500D01*
X4190938Y-35555817D01*
X4330010Y-35771941D01*
X4542210Y-35916931D01*
X4794100Y-35967940D01*
X5694100Y-35967940D01*
X5929417Y-35923662D01*
X6145541Y-35784590D01*
X6290531Y-35572390D01*
X6341540Y-35320500D01*
X6341540Y-33820500D01*
X6297262Y-33585183D01*
X6176707Y-33397835D01*
X6392892Y-33182027D01*
X6535538Y-32838499D01*
X6535862Y-32466533D01*
X6393817Y-32122757D01*
X6183044Y-31911616D01*
X6277831Y-31772890D01*
X6328840Y-31521000D01*
X6328840Y-30021000D01*
X6284562Y-29785683D01*
X6145490Y-29569559D01*
X5933290Y-29424569D01*
X5681400Y-29373560D01*
X4781400Y-29373560D01*
X4546083Y-29417838D01*
X4329959Y-29556910D01*
X4184969Y-29769110D01*
X4133960Y-30021000D01*
X4133960Y-31521000D01*
X4178238Y-31756317D01*
X4317310Y-31972441D01*
X4496400Y-32094808D01*
X4496400Y-32282400D01*
X4525664Y-32429517D01*
X3028840Y-30932694D01*
X3028840Y-30021000D01*
X2984562Y-29785683D01*
X2845490Y-29569559D01*
X2633290Y-29424569D01*
X2381400Y-29373560D01*
X1481400Y-29373560D01*
X1246083Y-29417838D01*
X1029959Y-29556910D01*
X884969Y-29769110D01*
X833960Y-30021000D01*
X747900Y-30021000D01*
X747900Y-26156750D01*
X846400Y-26156750D01*
X846400Y-26747309D01*
X943073Y-26980698D01*
X1121701Y-27159327D01*
X1355090Y-27256000D01*
X1645650Y-27256000D01*
X1804400Y-27097250D01*
X1804400Y-25998000D01*
X2058400Y-25998000D01*
X2058400Y-27097250D01*
X2217150Y-27256000D01*
X2507710Y-27256000D01*
X2741099Y-27159327D01*
X2919727Y-26980698D01*
X3016400Y-26747309D01*
X3016400Y-26156750D01*
X2857650Y-25998000D01*
X2058400Y-25998000D01*
X1804400Y-25998000D01*
X1005150Y-25998000D01*
X846400Y-26156750D01*
X747900Y-26156750D01*
X747900Y-24994691D01*
X846400Y-24994691D01*
X846400Y-25585250D01*
X1005150Y-25744000D01*
X1804400Y-25744000D01*
X1804400Y-24644750D01*
X2058400Y-24644750D01*
X2058400Y-25744000D01*
X2857650Y-25744000D01*
X3016400Y-25585250D01*
X3016400Y-24994691D01*
X2919727Y-24761302D01*
X2741099Y-24582673D01*
X2507710Y-24486000D01*
X2217150Y-24486000D01*
X2058400Y-24644750D01*
X1804400Y-24644750D01*
X1645650Y-24486000D01*
X1355090Y-24486000D01*
X1121701Y-24582673D01*
X943073Y-24761302D01*
X846400Y-24994691D01*
X747900Y-24994691D01*
X747900Y-14344314D01*
X748548Y-13825295D01*
X751573Y-13832598D01*
X930201Y-14011227D01*
X1163590Y-14107900D01*
X1454150Y-14107900D01*
X1612900Y-13949150D01*
X1612900Y-12999900D01*
X1592900Y-12999900D01*
X1592900Y-12745900D01*
X1612900Y-12745900D01*
X1612900Y-12725900D01*
X1866900Y-12725900D01*
X1866900Y-12745900D01*
X1886900Y-12745900D01*
X1886900Y-12999900D01*
X1866900Y-12999900D01*
X1866900Y-13949150D01*
X2025650Y-14107900D01*
X2316210Y-14107900D01*
X2549599Y-14011227D01*
X2728227Y-13832598D01*
X2755855Y-13765898D01*
X2857810Y-13924341D01*
X3036900Y-14046708D01*
X3036900Y-14643453D01*
X2649591Y-15030762D01*
X2544581Y-14987158D01*
X1953811Y-14986643D01*
X1407814Y-15212244D01*
X989712Y-15629617D01*
X763158Y-16175219D01*
X762643Y-16765989D01*
X988244Y-17311986D01*
X1405617Y-17730088D01*
X1433457Y-17741648D01*
X1407814Y-17752244D01*
X989712Y-18169617D01*
X763158Y-18715219D01*
X762643Y-19305989D01*
X988244Y-19851986D01*
X1405617Y-20270088D01*
X1951219Y-20496642D01*
X2541989Y-20497157D01*
X3087986Y-20271556D01*
X3506088Y-19854183D01*
X3732642Y-19308581D01*
X3733157Y-18717811D01*
X3507556Y-18171814D01*
X3090183Y-17753712D01*
X3062343Y-17742152D01*
X3087986Y-17731556D01*
X3506088Y-17314183D01*
X3732642Y-16768581D01*
X3733157Y-16177811D01*
X3688796Y-16070450D01*
X4291623Y-15467624D01*
X4450951Y-15229173D01*
X4460289Y-15182227D01*
X4510336Y-15232361D01*
X4547290Y-15247706D01*
X4164712Y-15629617D01*
X3938158Y-16175219D01*
X3937643Y-16765989D01*
X4163244Y-17311986D01*
X4580617Y-17730088D01*
X4608457Y-17741648D01*
X4582814Y-17752244D01*
X4164712Y-18169617D01*
X3938158Y-18715219D01*
X3937643Y-19305989D01*
X4163244Y-19851986D01*
X4580617Y-20270088D01*
X5126219Y-20496642D01*
X5716989Y-20497157D01*
X6262986Y-20271556D01*
X6681088Y-19854183D01*
X6907642Y-19308581D01*
X6908157Y-18717811D01*
X6682556Y-18171814D01*
X6265183Y-17753712D01*
X6237343Y-17742152D01*
X6262986Y-17731556D01*
X6681088Y-17314183D01*
X6907642Y-16768581D01*
X6908157Y-16177811D01*
X6840406Y-16013841D01*
X7212623Y-15641624D01*
X7371951Y-15403172D01*
X7384172Y-15341733D01*
X7427900Y-15121900D01*
X7427900Y-14044092D01*
X7594341Y-13936990D01*
X7739331Y-13724790D01*
X7790340Y-13472900D01*
X7790340Y-12272900D01*
X7746062Y-12037583D01*
X7606990Y-11821459D01*
X7538894Y-11774931D01*
X7681227Y-11632598D01*
X7777900Y-11399209D01*
X7777900Y-10958650D01*
X7619150Y-10799900D01*
X6819900Y-10799900D01*
X6819900Y-10819900D01*
X6565900Y-10819900D01*
X6565900Y-10799900D01*
X6545900Y-10799900D01*
X6545900Y-10545900D01*
X6565900Y-10545900D01*
X6565900Y-9596650D01*
X6819900Y-9596650D01*
X6819900Y-10545900D01*
X7619150Y-10545900D01*
X7777900Y-10387150D01*
X7777900Y-9946591D01*
X7681227Y-9713202D01*
X7502599Y-9534573D01*
X7269210Y-9437900D01*
X6978650Y-9437900D01*
X6819900Y-9596650D01*
X6565900Y-9596650D01*
X6430900Y-9461650D01*
X6430900Y-8910590D01*
X8167900Y-8910590D01*
X8167900Y-9201150D01*
X8326650Y-9359900D01*
X9275900Y-9359900D01*
X9275900Y-8560650D01*
X9117150Y-8401900D01*
X8676591Y-8401900D01*
X8443202Y-8498573D01*
X8264573Y-8677201D01*
X8167900Y-8910590D01*
X6430900Y-8910590D01*
X6430900Y-8332391D01*
X6781764Y-8328059D01*
X7031219Y-8431642D01*
X7621989Y-8432157D01*
X7907563Y-8314160D01*
X8739468Y-8303890D01*
X8784059Y-8295215D01*
X8826453Y-8267935D01*
X8854894Y-8226310D01*
X8864900Y-8176900D01*
X8864900Y-7443650D01*
X9798900Y-7443650D01*
X9798900Y-7884209D01*
X9895573Y-8117598D01*
X10074201Y-8296227D01*
X10307590Y-8392900D01*
X10598150Y-8392900D01*
X10756900Y-8234150D01*
X10756900Y-7284900D01*
X9957650Y-7284900D01*
X9798900Y-7443650D01*
X8864900Y-7443650D01*
X8864900Y-853900D01*
X12371453Y-853900D01*
X10364177Y-2861177D01*
G36*
X52356650Y-2376900D02*
X53005900Y-2376900D01*
X53005900Y-2354900D01*
X53259900Y-2354900D01*
X53259900Y-2376900D01*
X53279900Y-2376900D01*
X53279900Y-2626900D01*
X53259900Y-2626900D01*
X53259900Y-3228150D01*
X53418650Y-3386900D01*
X53559209Y-3386900D01*
X53670183Y-3340933D01*
X53681010Y-3348331D01*
X53865490Y-3385689D01*
X53858849Y-3395628D01*
X53802900Y-3676900D01*
X53802900Y-5986839D01*
X53731459Y-6032810D01*
X53683766Y-6102611D01*
X53646990Y-6045459D01*
X53434790Y-5900469D01*
X53182900Y-5849460D01*
X51982900Y-5849460D01*
X51747583Y-5893738D01*
X51531459Y-6032810D01*
X51460591Y-6136528D01*
X51401990Y-6045459D01*
X51242900Y-5936757D01*
X51242900Y-5074977D01*
X51347986Y-5031556D01*
X51766088Y-4614183D01*
X51992642Y-4068581D01*
X51993157Y-3477811D01*
X51767556Y-2931814D01*
X51621647Y-2785650D01*
X52197900Y-2785650D01*
X52197900Y-2878210D01*
X52294573Y-3111599D01*
X52473202Y-3290227D01*
X52706591Y-3386900D01*
X52847150Y-3386900D01*
X53005900Y-3228150D01*
X53005900Y-2626900D01*
X52356650Y-2626900D01*
X52197900Y-2785650D01*
X51621647Y-2785650D01*
X51350183Y-2513712D01*
X50804581Y-2287158D01*
X50213811Y-2286643D01*
X49667814Y-2512244D01*
X49249712Y-2929617D01*
X49229949Y-2977212D01*
X49022224Y-2910858D01*
X48819423Y-2687777D01*
X48751980Y-2476641D01*
X48196621Y-2275182D01*
X47606442Y-2301585D01*
X47183820Y-2476641D01*
X47103547Y-2727942D01*
X47108571Y-2732966D01*
X46970590Y-2819204D01*
X46926882Y-2865223D01*
X46898930Y-2915537D01*
X46672641Y-2987820D01*
X46471182Y-3543179D01*
X46497585Y-4133358D01*
X46672641Y-4555980D01*
X46914692Y-4633298D01*
X47106502Y-4825108D01*
X47183820Y-5067159D01*
X47739179Y-5268618D01*
X48329358Y-5242215D01*
X48751980Y-5067159D01*
X48832253Y-4815858D01*
X48765693Y-4749298D01*
X48984342Y-4608737D01*
X49011858Y-4636253D01*
X49229540Y-4566719D01*
X49248244Y-4611986D01*
X49665617Y-5030088D01*
X49772900Y-5074636D01*
X49772900Y-5849460D01*
X49737900Y-5849460D01*
X49502583Y-5893738D01*
X49286459Y-6032810D01*
X49239931Y-6100906D01*
X49097598Y-5958573D01*
X48864209Y-5861900D01*
X48423650Y-5861900D01*
X48264900Y-6020650D01*
X48264900Y-6819900D01*
X48284900Y-6819900D01*
X48284900Y-7073900D01*
X48264900Y-7073900D01*
X48264900Y-7873150D01*
X48423650Y-8031900D01*
X48864209Y-8031900D01*
X49097598Y-7935227D01*
X49238836Y-7793990D01*
X49273810Y-7848341D01*
X49486010Y-7993331D01*
X49737900Y-8044340D01*
X50937900Y-8044340D01*
X51173217Y-8000062D01*
X51389341Y-7860990D01*
X51460209Y-7757272D01*
X51518810Y-7848341D01*
X51731010Y-7993331D01*
X51982900Y-8044340D01*
X53182900Y-8044340D01*
X53418217Y-8000062D01*
X53634341Y-7860990D01*
X53682034Y-7791189D01*
X53718810Y-7848341D01*
X53931010Y-7993331D01*
X54182900Y-8044340D01*
X55382900Y-8044340D01*
X55618217Y-8000062D01*
X55834341Y-7860990D01*
X55908875Y-7751906D01*
X56073573Y-7916892D01*
X56417101Y-8059538D01*
X56789067Y-8059862D01*
X57132843Y-7917817D01*
X57290527Y-7760408D01*
X57309383Y-7806043D01*
X57572173Y-8069292D01*
X57915701Y-8211938D01*
X58287667Y-8212262D01*
X58415356Y-8159502D01*
X58907477Y-8651624D01*
X59131908Y-8801583D01*
X59145928Y-8810951D01*
X59427200Y-8866900D01*
X61202900Y-8866900D01*
X61202900Y-10506453D01*
X60459992Y-9763545D01*
X60460062Y-9682733D01*
X60318017Y-9338957D01*
X60055227Y-9075708D01*
X59711699Y-8933062D01*
X59339733Y-8932738D01*
X58995957Y-9074783D01*
X58732708Y-9337573D01*
X58590062Y-9681101D01*
X58589738Y-10053067D01*
X58731783Y-10396843D01*
X58994573Y-10660092D01*
X59338101Y-10802738D01*
X59420363Y-10802810D01*
X60186900Y-11569347D01*
X60186900Y-14058900D01*
X60236484Y-14308172D01*
X60242849Y-14340172D01*
X60402177Y-14578623D01*
X64464211Y-18640658D01*
X64573783Y-18905843D01*
X64836573Y-19169092D01*
X65180101Y-19311738D01*
X65552067Y-19312062D01*
X65895843Y-19170017D01*
X66159092Y-18907227D01*
X66301738Y-18563699D01*
X66302028Y-18230401D01*
X66371415Y-18201731D01*
X66411315Y-18161900D01*
X69787900Y-18161900D01*
X70222246Y-18075503D01*
X70590466Y-17829466D01*
X72390466Y-16029466D01*
X72636503Y-15661246D01*
X72649357Y-15596623D01*
X72722900Y-15226900D01*
X72722900Y-12950597D01*
X72911361Y-12762464D01*
X73122659Y-12253602D01*
X73123140Y-11702615D01*
X72912731Y-11193385D01*
X72523464Y-10803439D01*
X72014602Y-10592141D01*
X71463615Y-10591660D01*
X71010104Y-10779046D01*
X70912731Y-10543385D01*
X70897552Y-10528179D01*
X96001182Y-10528179D01*
X96027585Y-11118358D01*
X96202641Y-11540980D01*
X96453942Y-11621253D01*
X97318295Y-10756900D01*
X96453942Y-9892547D01*
X96202641Y-9972820D01*
X96001182Y-10528179D01*
X70897552Y-10528179D01*
X70872900Y-10503485D01*
X70872900Y-7161900D01*
X81013942Y-7161900D01*
X81052336Y-7200361D01*
X81561198Y-7411659D01*
X82112185Y-7412140D01*
X82621415Y-7201731D01*
X83011361Y-6812464D01*
X83222659Y-6303602D01*
X83223140Y-5752615D01*
X83012731Y-5243385D01*
X82623464Y-4853439D01*
X82372663Y-4749297D01*
X82373140Y-4202615D01*
X82162731Y-3693385D01*
X81773464Y-3303439D01*
X81264602Y-3092141D01*
X80713615Y-3091660D01*
X80204385Y-3302069D01*
X80164485Y-3341900D01*
X75111771Y-3341900D01*
X75023464Y-3253439D01*
X74514602Y-3042141D01*
X73963615Y-3041660D01*
X73454385Y-3252069D01*
X73064439Y-3641336D01*
X72853141Y-4150198D01*
X72852660Y-4701185D01*
X72931462Y-4891900D01*
X71672844Y-4891900D01*
X71673062Y-4641733D01*
X71531017Y-4297957D01*
X71268227Y-4034708D01*
X70924699Y-3892062D01*
X70552733Y-3891738D01*
X70208957Y-4033783D01*
X69945708Y-4296573D01*
X69906125Y-4391900D01*
X69537900Y-4391900D01*
X69256628Y-4447849D01*
X69018177Y-4607176D01*
X68218177Y-5407177D01*
X68058849Y-5645628D01*
X68002900Y-5926900D01*
X68002900Y-6222453D01*
X67928454Y-6296900D01*
X62672900Y-6296900D01*
X62672900Y-4909340D01*
X63104757Y-4909340D01*
X63167900Y-4921900D01*
X65527519Y-4921900D01*
X65544135Y-4938545D01*
X65961144Y-5111703D01*
X66412675Y-5112097D01*
X66829986Y-4939667D01*
X67149545Y-4620665D01*
X67322703Y-4203656D01*
X67323097Y-3752125D01*
X67150667Y-3334814D01*
X67025128Y-3209055D01*
X67172703Y-2853656D01*
X67173097Y-2402125D01*
X67106067Y-2239900D01*
X91439768Y-2239900D01*
X98140900Y-8941032D01*
X98140900Y-9410464D01*
X97726621Y-9260182D01*
X97136442Y-9286585D01*
X96713820Y-9461641D01*
X96633547Y-9712942D01*
X97497900Y-10577295D01*
X97512043Y-10563153D01*
X97691648Y-10742758D01*
X97677505Y-10756900D01*
X97691648Y-10771043D01*
X97512043Y-10950648D01*
X97497900Y-10936505D01*
X96633547Y-11800858D01*
X96703081Y-12018540D01*
X96657814Y-12037244D01*
X96486914Y-12207846D01*
X96283554Y-12248297D01*
X95921669Y-12490101D01*
X95915334Y-12494334D01*
X94085334Y-14324334D01*
X93839297Y-14692554D01*
X93752900Y-15126900D01*
X93752900Y-23876900D01*
X93839297Y-24311246D01*
X94063356Y-24646573D01*
X94085334Y-24679466D01*
X96752900Y-27347032D01*
X96752900Y-40649900D01*
X84872968Y-40649900D01*
X84873062Y-40541733D01*
X84806515Y-40380676D01*
X84880092Y-40307227D01*
X85022738Y-39963699D01*
X85022912Y-39763959D01*
X85280092Y-39507227D01*
X85369015Y-39293077D01*
X85666843Y-39170017D01*
X85930092Y-38907227D01*
X86039726Y-38643200D01*
X86216843Y-38570017D01*
X86480092Y-38307227D01*
X86622738Y-37963699D01*
X86623062Y-37591733D01*
X86481017Y-37247957D01*
X86218227Y-36984708D01*
X85874699Y-36842062D01*
X85792437Y-36841990D01*
X83262346Y-34311900D01*
X84739739Y-34311900D01*
X84703097Y-34400144D01*
X84702703Y-34851675D01*
X84875133Y-35268986D01*
X85194135Y-35588545D01*
X85611144Y-35761703D01*
X85791993Y-35761861D01*
X87547466Y-37517334D01*
X87818359Y-37698339D01*
X88137900Y-37761900D01*
X92267711Y-37761900D01*
X92394135Y-37888545D01*
X92811144Y-38061703D01*
X93262675Y-38062097D01*
X93679986Y-37889667D01*
X93999545Y-37570665D01*
X94172703Y-37153656D01*
X94173097Y-36702125D01*
X94107957Y-36544474D01*
X94214331Y-36388790D01*
X94265340Y-36136900D01*
X94265340Y-34936900D01*
X94221062Y-34701583D01*
X94202900Y-34673358D01*
X94202900Y-34405520D01*
X94214331Y-34388790D01*
X94265340Y-34136900D01*
X94265340Y-33138906D01*
X94357623Y-33046623D01*
X94516951Y-32808172D01*
X94524746Y-32768986D01*
X94572900Y-32526900D01*
X94572900Y-31526900D01*
X94516951Y-31245628D01*
X94473029Y-31179894D01*
X94473062Y-31141733D01*
X94331017Y-30797957D01*
X94068227Y-30534708D01*
X93724699Y-30392062D01*
X93380484Y-30391762D01*
X94300255Y-29471992D01*
X94381067Y-29472062D01*
X94724843Y-29330017D01*
X94988092Y-29067227D01*
X95130738Y-28723699D01*
X95131062Y-28351733D01*
X94989017Y-28007957D01*
X94726227Y-27744708D01*
X94382699Y-27602062D01*
X94010733Y-27601738D01*
X93666957Y-27743783D01*
X93403708Y-28006573D01*
X93261062Y-28350101D01*
X93260990Y-28432363D01*
X92940221Y-28753132D01*
X92694227Y-28506708D01*
X92350699Y-28364062D01*
X92268437Y-28363990D01*
X90186623Y-26282177D01*
X89948172Y-26122849D01*
X89666900Y-26066900D01*
X88409938Y-26066900D01*
X88391062Y-25966583D01*
X88251990Y-25750459D01*
X88039790Y-25605469D01*
X87787900Y-25554460D01*
X86887900Y-25554460D01*
X86660443Y-25597259D01*
X86607017Y-25467957D01*
X86344227Y-25204708D01*
X86000699Y-25062062D01*
X85628733Y-25061738D01*
X85284957Y-25203783D01*
X85021708Y-25466573D01*
X84879062Y-25810101D01*
X84878738Y-26182067D01*
X85020783Y-26525843D01*
X85283573Y-26789092D01*
X85332900Y-26809574D01*
X85332900Y-27441481D01*
X85275708Y-27498573D01*
X85133062Y-27842101D01*
X85132738Y-28214067D01*
X85266283Y-28537271D01*
X85133062Y-28858101D01*
X85132738Y-29230067D01*
X85274783Y-29573843D01*
X85407608Y-29706900D01*
X83650594Y-29706900D01*
X83672703Y-29653656D01*
X83673097Y-29202125D01*
X83500667Y-28784814D01*
X83331846Y-28615698D01*
X83447243Y-28568017D01*
X83710492Y-28305227D01*
X83853138Y-27961699D01*
X83853257Y-27824547D01*
X83902151Y-27751372D01*
X83909969Y-27712067D01*
X83958100Y-27470100D01*
X83958100Y-27419300D01*
X83902151Y-27138028D01*
X83742823Y-26899577D01*
X83504372Y-26740249D01*
X83223100Y-26684300D01*
X82972900Y-26734068D01*
X82972900Y-26697089D01*
X83099545Y-26570665D01*
X83272703Y-26153656D01*
X83273097Y-25702125D01*
X83100667Y-25284814D01*
X82781665Y-24965255D01*
X82364656Y-24792097D01*
X81913125Y-24791703D01*
X81495814Y-24964133D01*
X81176255Y-25283135D01*
X81003097Y-25700144D01*
X81002897Y-25928868D01*
X80649581Y-25782158D01*
X80058811Y-25781643D01*
X79512814Y-26007244D01*
X79094712Y-26424617D01*
X79083152Y-26452457D01*
X79072556Y-26426814D01*
X78655183Y-26008712D01*
X78109581Y-25782158D01*
X77518811Y-25781643D01*
X76996900Y-25997292D01*
X76996900Y-24591900D01*
X80022644Y-24591900D01*
X80145617Y-24715088D01*
X80691219Y-24941642D01*
X81281989Y-24942157D01*
X81827986Y-24716556D01*
X82246088Y-24299183D01*
X82472642Y-23753581D01*
X82473157Y-23162811D01*
X82247556Y-22616814D01*
X81830183Y-22198712D01*
X81802343Y-22187152D01*
X81827986Y-22176556D01*
X82246088Y-21759183D01*
X82472642Y-21213581D01*
X82473157Y-20622811D01*
X82247556Y-20076814D01*
X81830183Y-19658712D01*
X81284581Y-19432158D01*
X80693811Y-19431643D01*
X80147814Y-19657244D01*
X79729712Y-20074617D01*
X79503158Y-20620219D01*
X79502643Y-21210989D01*
X79728244Y-21756986D01*
X80145617Y-22175088D01*
X80173457Y-22186648D01*
X80147814Y-22197244D01*
X80022940Y-22321900D01*
X76872900Y-22321900D01*
X76872900Y-17926900D01*
X76786503Y-17492554D01*
X76673035Y-17322738D01*
X76673140Y-17202615D01*
X76462731Y-16693385D01*
X76073464Y-16303439D01*
X75564602Y-16092141D01*
X75013615Y-16091660D01*
X74504385Y-16302069D01*
X74114439Y-16691336D01*
X73903141Y-17200198D01*
X73902660Y-17751185D01*
X74089657Y-18203754D01*
X74071733Y-18203738D01*
X73727957Y-18345783D01*
X73464708Y-18608573D01*
X73322062Y-18952101D01*
X73321738Y-19324067D01*
X73463783Y-19667843D01*
X73726573Y-19931092D01*
X73902900Y-20004310D01*
X73902900Y-22613460D01*
X72937900Y-22613460D01*
X72702583Y-22657738D01*
X72486459Y-22796810D01*
X72364092Y-22975900D01*
X71803900Y-22975900D01*
X71522628Y-23031849D01*
X71284177Y-23191176D01*
X70518178Y-23957176D01*
X70518177Y-23957177D01*
X70358849Y-24195628D01*
X70302900Y-24476900D01*
X70302900Y-27489481D01*
X70245708Y-27546573D01*
X70187412Y-27686965D01*
X68757623Y-26257177D01*
X68519172Y-26097849D01*
X68237900Y-26041900D01*
X62392347Y-26041900D01*
X61422992Y-25072545D01*
X61423062Y-24991733D01*
X61281017Y-24647957D01*
X61018227Y-24384708D01*
X60674699Y-24242062D01*
X60302733Y-24241738D01*
X59958957Y-24383783D01*
X59695708Y-24646573D01*
X59553062Y-24990101D01*
X59552738Y-25362067D01*
X59694783Y-25705843D01*
X59957573Y-25969092D01*
X60301101Y-26111738D01*
X60383363Y-26111810D01*
X61568177Y-27296624D01*
X61792668Y-27446623D01*
X61806628Y-27455951D01*
X62087900Y-27511900D01*
X67933454Y-27511900D01*
X69763453Y-29341900D01*
X52637900Y-29341900D01*
X52536822Y-29362006D01*
X52531017Y-29347957D01*
X52268227Y-29084708D01*
X51924699Y-28942062D01*
X51552733Y-28941738D01*
X51208957Y-29083783D01*
X50945708Y-29346573D01*
X50803062Y-29690101D01*
X50802990Y-29772363D01*
X48972900Y-31602454D01*
X48972900Y-30281346D01*
X50911266Y-28342981D01*
X50966843Y-28320017D01*
X51230092Y-28057227D01*
X51372738Y-27713699D01*
X51373062Y-27341733D01*
X51231017Y-26997957D01*
X50968227Y-26734708D01*
X50624699Y-26592062D01*
X50252733Y-26591738D01*
X50008741Y-26692553D01*
X49881665Y-26565255D01*
X49464656Y-26392097D01*
X49209272Y-26391874D01*
X49203485Y-26390723D01*
X48932900Y-26336899D01*
X48932895Y-26336900D01*
X47899331Y-26336900D01*
X47837900Y-26324460D01*
X47237900Y-26324460D01*
X47002583Y-26368738D01*
X46978494Y-26384239D01*
X46864209Y-26336900D01*
X46723650Y-26336900D01*
X46564900Y-26495650D01*
X46564900Y-27096900D01*
X46584900Y-27096900D01*
X46584900Y-27346900D01*
X46564900Y-27346900D01*
X46564900Y-27948150D01*
X46652900Y-28036150D01*
X46652900Y-28430321D01*
X45103760Y-29979460D01*
X44657900Y-29979460D01*
X44422583Y-30023738D01*
X44206459Y-30162810D01*
X44158766Y-30232611D01*
X44121990Y-30175459D01*
X43909790Y-30030469D01*
X43657900Y-29979460D01*
X42457900Y-29979460D01*
X42222583Y-30023738D01*
X42006459Y-30162810D01*
X41884092Y-30341900D01*
X41494722Y-30341900D01*
X41374699Y-30292062D01*
X41362195Y-30292051D01*
X41942347Y-29711900D01*
X42191039Y-29711900D01*
X42401819Y-29852738D01*
X42406628Y-29855951D01*
X42687900Y-29911900D01*
X43337900Y-29911900D01*
X43619172Y-29855951D01*
X43857623Y-29696623D01*
X44968714Y-28585533D01*
X45010830Y-28522501D01*
X45016843Y-28520017D01*
X45280092Y-28257227D01*
X45422738Y-27913699D01*
X45423062Y-27541733D01*
X45408153Y-27505650D01*
X45502900Y-27505650D01*
X45502900Y-27598210D01*
X45599573Y-27831599D01*
X45778202Y-28010227D01*
X46011591Y-28106900D01*
X46152150Y-28106900D01*
X46310900Y-27948150D01*
X46310900Y-27346900D01*
X45661650Y-27346900D01*
X45502900Y-27505650D01*
X45408153Y-27505650D01*
X45281017Y-27197957D01*
X45018227Y-26934708D01*
X44803609Y-26845590D01*
X45502900Y-26845590D01*
X45502900Y-26938150D01*
X45661650Y-27096900D01*
X46310900Y-27096900D01*
X46310900Y-26495650D01*
X46152150Y-26336900D01*
X46011591Y-26336900D01*
X45778202Y-26433573D01*
X45599573Y-26612201D01*
X45502900Y-26845590D01*
X44803609Y-26845590D01*
X44674699Y-26792062D01*
X44302733Y-26791738D01*
X44025887Y-26906128D01*
X43873464Y-26753439D01*
X43364602Y-26542141D01*
X42813615Y-26541660D01*
X42304385Y-26752069D01*
X42214397Y-26841900D01*
X38222900Y-26841900D01*
X38222900Y-23692436D01*
X38321415Y-23651731D01*
X38711361Y-23262464D01*
X38922659Y-22753602D01*
X38923140Y-22202615D01*
X38853015Y-22032900D01*
X39851435Y-22032900D01*
X39802900Y-22276900D01*
X39802900Y-24389481D01*
X39745708Y-24446573D01*
X39603062Y-24790101D01*
X39602738Y-25162067D01*
X39744783Y-25505843D01*
X40007573Y-25769092D01*
X40351101Y-25911738D01*
X40723067Y-25912062D01*
X41066843Y-25770017D01*
X41330092Y-25507227D01*
X41472738Y-25163699D01*
X41473062Y-24791733D01*
X41331017Y-24447957D01*
X41272900Y-24389738D01*
X41272900Y-22581346D01*
X44492347Y-19361900D01*
X52037900Y-19361900D01*
X52319172Y-19305951D01*
X52557623Y-19146623D01*
X55442347Y-16261900D01*
X56510567Y-16261900D01*
X56453141Y-16400198D01*
X56452660Y-16951185D01*
X56663069Y-17460415D01*
X57052336Y-17850361D01*
X57500900Y-18036621D01*
X57500900Y-19697644D01*
X57377712Y-19820617D01*
X57151158Y-20366219D01*
X57150961Y-20591911D01*
X56952733Y-20591738D01*
X56831331Y-20641900D01*
X51787900Y-20641900D01*
X51545223Y-20690172D01*
X51506628Y-20697849D01*
X51268176Y-20857177D01*
X50733454Y-21391900D01*
X48837900Y-21391900D01*
X48556628Y-21447849D01*
X48318177Y-21607176D01*
X47783545Y-22141808D01*
X47702733Y-22141738D01*
X47358957Y-22283783D01*
X47095708Y-22546573D01*
X46956661Y-22881434D01*
X46708957Y-22983783D01*
X46445708Y-23246573D01*
X46303062Y-23590101D01*
X46302738Y-23962067D01*
X46444783Y-24305843D01*
X46707573Y-24569092D01*
X47051101Y-24711738D01*
X47423067Y-24712062D01*
X47766843Y-24570017D01*
X47825062Y-24511900D01*
X48337900Y-24511900D01*
X48619172Y-24455951D01*
X48857623Y-24296623D01*
X49692347Y-23461900D01*
X51287900Y-23461900D01*
X51569172Y-23405951D01*
X51807623Y-23246623D01*
X52142347Y-22911900D01*
X53882928Y-22911900D01*
X53708957Y-22983783D01*
X53445708Y-23246573D01*
X53303062Y-23590101D01*
X53302738Y-23962067D01*
X53444783Y-24305843D01*
X53707573Y-24569092D01*
X54051101Y-24711738D01*
X54423067Y-24712062D01*
X54766843Y-24570017D01*
X55030092Y-24307227D01*
X55172738Y-23963699D01*
X55172810Y-23881437D01*
X55542347Y-23511900D01*
X59850481Y-23511900D01*
X59907573Y-23569092D01*
X60251101Y-23711738D01*
X60623067Y-23712062D01*
X60966843Y-23570017D01*
X61230092Y-23307227D01*
X61372738Y-22963699D01*
X61373062Y-22591733D01*
X61231017Y-22247957D01*
X61131096Y-22147862D01*
X61469989Y-22148157D01*
X62015986Y-21922556D01*
X62434088Y-21505183D01*
X62660642Y-20959581D01*
X62661157Y-20368811D01*
X62435556Y-19822814D01*
X62018183Y-19404712D01*
X61472581Y-19178158D01*
X60881811Y-19177643D01*
X60672900Y-19263963D01*
X60672900Y-16976900D01*
X60616951Y-16695628D01*
X60601946Y-16673172D01*
X60457624Y-16457177D01*
X59007623Y-15007177D01*
X58769172Y-14847849D01*
X58487900Y-14791900D01*
X55137900Y-14791900D01*
X54856628Y-14847849D01*
X54618176Y-15007177D01*
X52979252Y-16646102D01*
X52768227Y-16434708D01*
X52424699Y-16292062D01*
X52052733Y-16291738D01*
X51708957Y-16433783D01*
X51445708Y-16696573D01*
X51303062Y-17040101D01*
X51302990Y-17122363D01*
X51233454Y-17191900D01*
X46552347Y-17191900D01*
X45312623Y-15952177D01*
X45074172Y-15792849D01*
X44792900Y-15736900D01*
X43522900Y-15736900D01*
X43241628Y-15792849D01*
X43003176Y-15952177D01*
X42749178Y-16206176D01*
X42749177Y-16206177D01*
X42589849Y-16444628D01*
X42533900Y-16725900D01*
X42533900Y-16802453D01*
X41640545Y-17695808D01*
X41559733Y-17695738D01*
X41215957Y-17837783D01*
X40952708Y-18100573D01*
X40810062Y-18444101D01*
X40809738Y-18816067D01*
X40849335Y-18911900D01*
X36156900Y-18911900D01*
X35875628Y-18967849D01*
X35688590Y-19092823D01*
X35590733Y-19092738D01*
X35246957Y-19234783D01*
X34983708Y-19497573D01*
X34841062Y-19841101D01*
X34840738Y-20213067D01*
X34982783Y-20556843D01*
X35245573Y-20820092D01*
X35589101Y-20962738D01*
X35844311Y-20962960D01*
X35730062Y-21238101D01*
X35729738Y-21610067D01*
X35871783Y-21953843D01*
X36134573Y-22217092D01*
X36153120Y-22224793D01*
X36153034Y-22322334D01*
X36039297Y-22492554D01*
X35952900Y-22926900D01*
X35952900Y-26841900D01*
X35561858Y-26841900D01*
X35523464Y-26803439D01*
X35083208Y-26620629D01*
X32098690Y-23636110D01*
X31930590Y-23523790D01*
X31811575Y-23444267D01*
X31737975Y-23429627D01*
X31472900Y-23376899D01*
X31472895Y-23376900D01*
X28669092Y-23376900D01*
X28561990Y-23210459D01*
X28349790Y-23065469D01*
X28097900Y-23014460D01*
X27197900Y-23014460D01*
X26962583Y-23058738D01*
X26746459Y-23197810D01*
X26601469Y-23410010D01*
X26550460Y-23661900D01*
X26550460Y-24691900D01*
X25542347Y-24691900D01*
X24769787Y-23919340D01*
X24902900Y-23919340D01*
X25138217Y-23875062D01*
X25354341Y-23735990D01*
X25499331Y-23523790D01*
X25550340Y-23271900D01*
X25550340Y-22371900D01*
X25506062Y-22136583D01*
X25366990Y-21920459D01*
X25154790Y-21775469D01*
X25136353Y-21771735D01*
X25222738Y-21563699D01*
X25222866Y-21416902D01*
X27933350Y-21416902D01*
X27997783Y-21572843D01*
X28260573Y-21836092D01*
X28604101Y-21978738D01*
X28976067Y-21979062D01*
X29319843Y-21837017D01*
X29428213Y-21728836D01*
X29679900Y-21778900D01*
X31914973Y-21778900D01*
X31934783Y-21826843D01*
X32197573Y-22090092D01*
X32541101Y-22232738D01*
X32913067Y-22233062D01*
X33256843Y-22091017D01*
X33520092Y-21828227D01*
X33662738Y-21484699D01*
X33663062Y-21112733D01*
X33521017Y-20768957D01*
X33258227Y-20505708D01*
X32958568Y-20381278D01*
X33027738Y-20214699D01*
X33028045Y-19861892D01*
X33331989Y-19862157D01*
X33877986Y-19636556D01*
X34296088Y-19219183D01*
X34522642Y-18673581D01*
X34523157Y-18082811D01*
X34297556Y-17536814D01*
X34135136Y-17374110D01*
X36207347Y-15301900D01*
X52285900Y-15301900D01*
X52567172Y-15245951D01*
X52805623Y-15086623D01*
X55384347Y-12507900D01*
X57511688Y-12507900D01*
X57687101Y-12580738D01*
X58059067Y-12581062D01*
X58402843Y-12439017D01*
X58666092Y-12176227D01*
X58808738Y-11832699D01*
X58809062Y-11460733D01*
X58667017Y-11116957D01*
X58404227Y-10853708D01*
X58060699Y-10711062D01*
X57688733Y-10710738D01*
X57344957Y-10852783D01*
X57159517Y-11037900D01*
X55079900Y-11037900D01*
X54798628Y-11093849D01*
X54560177Y-11253176D01*
X53048323Y-12765031D01*
X52918227Y-12634708D01*
X52574699Y-12492062D01*
X52202733Y-12491738D01*
X52053745Y-12553298D01*
X49022992Y-9522545D01*
X49023062Y-9441733D01*
X48881017Y-9097957D01*
X48618227Y-8834708D01*
X48274699Y-8692062D01*
X47902733Y-8691738D01*
X47635602Y-8802114D01*
X47618227Y-8784708D01*
X47274699Y-8642062D01*
X46902733Y-8641738D01*
X46564681Y-8781418D01*
X46418227Y-8634708D01*
X46074699Y-8492062D01*
X45702733Y-8491738D01*
X45358957Y-8633783D01*
X45140094Y-8852264D01*
X44874699Y-8742062D01*
X44502733Y-8741738D01*
X44158957Y-8883783D01*
X43895708Y-9146573D01*
X43753062Y-9490101D01*
X43752990Y-9572363D01*
X43118177Y-10207177D01*
X42958849Y-10445628D01*
X42902900Y-10726900D01*
X42902900Y-12889481D01*
X42845708Y-12946573D01*
X42703062Y-13290101D01*
X42702738Y-13662067D01*
X42772911Y-13831900D01*
X37873656Y-13831900D01*
X37922738Y-13713699D01*
X37923062Y-13341733D01*
X37781017Y-12997957D01*
X37518227Y-12734708D01*
X37174699Y-12592062D01*
X36802733Y-12591738D01*
X36655471Y-12652585D01*
X36610990Y-12583459D01*
X36542894Y-12536931D01*
X36685227Y-12394598D01*
X36781900Y-12161209D01*
X36781900Y-11820650D01*
X36623150Y-11661900D01*
X35648900Y-11661900D01*
X35648900Y-11681900D01*
X35394900Y-11681900D01*
X35394900Y-11661900D01*
X34420650Y-11661900D01*
X34261900Y-11820650D01*
X34261900Y-12043217D01*
X34119172Y-11947849D01*
X34108006Y-11945628D01*
X34000340Y-11924212D01*
X34000340Y-11161900D01*
X33956062Y-10926583D01*
X33944485Y-10908591D01*
X34261900Y-10908591D01*
X34261900Y-11249150D01*
X34420650Y-11407900D01*
X35394900Y-11407900D01*
X35394900Y-10558650D01*
X35648900Y-10558650D01*
X35648900Y-11407900D01*
X36623150Y-11407900D01*
X36759982Y-11271068D01*
X37007573Y-11519092D01*
X37351101Y-11661738D01*
X37452825Y-11661827D01*
X37452738Y-11762067D01*
X37594783Y-12105843D01*
X37857573Y-12369092D01*
X38201101Y-12511738D01*
X38573067Y-12512062D01*
X38916843Y-12370017D01*
X39180092Y-12107227D01*
X39322738Y-11763699D01*
X39323062Y-11391733D01*
X39181017Y-11047957D01*
X39122900Y-10989738D01*
X39122900Y-8712067D01*
X39902738Y-8712067D01*
X39904839Y-8717152D01*
X39902900Y-8726900D01*
X39902900Y-11676900D01*
X39956020Y-11943951D01*
X39958849Y-11958172D01*
X40002858Y-12024036D01*
X40002738Y-12162067D01*
X40144783Y-12505843D01*
X40407573Y-12769092D01*
X40751101Y-12911738D01*
X41123067Y-12912062D01*
X41466843Y-12770017D01*
X41730092Y-12507227D01*
X41872738Y-12163699D01*
X41873062Y-11791733D01*
X41804259Y-11625217D01*
X41816843Y-11620017D01*
X42080092Y-11357227D01*
X42222738Y-11013699D01*
X42222900Y-10828267D01*
X42237040Y-10757177D01*
X42272900Y-10576900D01*
X42272900Y-9531346D01*
X42342255Y-9461992D01*
X42423067Y-9462062D01*
X42766843Y-9320017D01*
X43030092Y-9057227D01*
X43172738Y-8713699D01*
X43173062Y-8341733D01*
X43031017Y-7997957D01*
X42768227Y-7734708D01*
X42424699Y-7592062D01*
X42052733Y-7591738D01*
X41708957Y-7733783D01*
X41537832Y-7904609D01*
X41368227Y-7734708D01*
X41024699Y-7592062D01*
X40652733Y-7591738D01*
X40308957Y-7733783D01*
X40045708Y-7996573D01*
X39903062Y-8340101D01*
X39902738Y-8712067D01*
X39122900Y-8712067D01*
X39122900Y-7426900D01*
X39084261Y-7232650D01*
X46902900Y-7232650D01*
X46902900Y-7523210D01*
X46999573Y-7756599D01*
X47178202Y-7935227D01*
X47411591Y-8031900D01*
X47852150Y-8031900D01*
X48010900Y-7873150D01*
X48010900Y-7073900D01*
X47061650Y-7073900D01*
X46902900Y-7232650D01*
X39084261Y-7232650D01*
X39066951Y-7145628D01*
X39000798Y-7046623D01*
X38907623Y-6907176D01*
X38371037Y-6370590D01*
X46902900Y-6370590D01*
X46902900Y-6661150D01*
X47061650Y-6819900D01*
X48010900Y-6819900D01*
X48010900Y-6020650D01*
X47852150Y-5861900D01*
X47411591Y-5861900D01*
X47178202Y-5958573D01*
X46999573Y-6137201D01*
X46902900Y-6370590D01*
X38371037Y-6370590D01*
X37622992Y-5622545D01*
X37623062Y-5541733D01*
X37481017Y-5197957D01*
X37218227Y-4934708D01*
X36874699Y-4792062D01*
X36502733Y-4791738D01*
X36158957Y-4933783D01*
X35895708Y-5196573D01*
X35753062Y-5540101D01*
X35752738Y-5912067D01*
X35894783Y-6255843D01*
X36157573Y-6519092D01*
X36501101Y-6661738D01*
X36583363Y-6661810D01*
X37463388Y-7541834D01*
X37352733Y-7541738D01*
X37008957Y-7683783D01*
X36745708Y-7946573D01*
X36603062Y-8290101D01*
X36602738Y-8662067D01*
X36744783Y-9005843D01*
X36802900Y-9064062D01*
X36802900Y-10139481D01*
X36745708Y-10196573D01*
X36603062Y-10540101D01*
X36603016Y-10592990D01*
X36506599Y-10496573D01*
X36273210Y-10399900D01*
X35807650Y-10399900D01*
X35648900Y-10558650D01*
X35394900Y-10558650D01*
X35236150Y-10399900D01*
X34770590Y-10399900D01*
X34537201Y-10496573D01*
X34358573Y-10675202D01*
X34261900Y-10908591D01*
X33944485Y-10908591D01*
X33816990Y-10710459D01*
X33604790Y-10565469D01*
X33352900Y-10514460D01*
X32102900Y-10514460D01*
X31867583Y-10558738D01*
X31691081Y-10672314D01*
X31681017Y-10647957D01*
X31418227Y-10384708D01*
X31074699Y-10242062D01*
X30702733Y-10241738D01*
X30358957Y-10383783D01*
X30095708Y-10646573D01*
X29953062Y-10990101D01*
X29953060Y-10991912D01*
X29752733Y-10991738D01*
X29556277Y-11072912D01*
X29468227Y-10984708D01*
X29124699Y-10842062D01*
X28752733Y-10841738D01*
X28746079Y-10844487D01*
X28674248Y-9012799D01*
X28719475Y-8967650D01*
X31642900Y-8967650D01*
X31642900Y-9408209D01*
X31739573Y-9641598D01*
X31918201Y-9820227D01*
X32151590Y-9916900D01*
X32442150Y-9916900D01*
X32600900Y-9758150D01*
X32600900Y-8808900D01*
X32854900Y-8808900D01*
X32854900Y-9758150D01*
X33013650Y-9916900D01*
X33304210Y-9916900D01*
X33537599Y-9820227D01*
X33716227Y-9641598D01*
X33812900Y-9408209D01*
X33812900Y-8967650D01*
X33654150Y-8808900D01*
X32854900Y-8808900D01*
X32600900Y-8808900D01*
X31801650Y-8808900D01*
X31642900Y-8967650D01*
X28719475Y-8967650D01*
X28830092Y-8857227D01*
X28972738Y-8513699D01*
X28973062Y-8141733D01*
X28940740Y-8063507D01*
X30642255Y-6361992D01*
X30723067Y-6362062D01*
X31066843Y-6220017D01*
X31330092Y-5957227D01*
X31472738Y-5613699D01*
X31473049Y-5256914D01*
X31751989Y-5257157D01*
X31992900Y-5157615D01*
X31992900Y-5310708D01*
X31826459Y-5417810D01*
X31681469Y-5630010D01*
X31630460Y-5881900D01*
X31630460Y-7081900D01*
X31674738Y-7317217D01*
X31813810Y-7533341D01*
X31881906Y-7579869D01*
X31739573Y-7722202D01*
X31642900Y-7955591D01*
X31642900Y-8396150D01*
X31801650Y-8554900D01*
X32600900Y-8554900D01*
X32600900Y-8534900D01*
X32854900Y-8534900D01*
X32854900Y-8554900D01*
X33654150Y-8554900D01*
X33812900Y-8396150D01*
X33812900Y-7955591D01*
X33716227Y-7722202D01*
X33574990Y-7580964D01*
X33629341Y-7545990D01*
X33774331Y-7333790D01*
X33825340Y-7081900D01*
X33825340Y-5881900D01*
X33781062Y-5646583D01*
X33641990Y-5430459D01*
X33512360Y-5341886D01*
X33628005Y-5226241D01*
X33701219Y-5256642D01*
X34291989Y-5257157D01*
X34837986Y-5031556D01*
X35256088Y-4614183D01*
X35482642Y-4068581D01*
X35483157Y-3477811D01*
X35269987Y-2961900D01*
X42702738Y-2961900D01*
X42702703Y-3001675D01*
X42875133Y-3418986D01*
X43194135Y-3738545D01*
X43611144Y-3911703D01*
X44062675Y-3912097D01*
X44479986Y-3739667D01*
X44799545Y-3420665D01*
X44972703Y-3003656D01*
X44973097Y-2552125D01*
X44844088Y-2239900D01*
X52219650Y-2239900D01*
X52356650Y-2376900D01*
X52356650Y-2376900D01*
G37*
X52356650Y-2376900D02*
X53005900Y-2376900D01*
X53005900Y-2354900D01*
X53259900Y-2354900D01*
X53259900Y-2376900D01*
X53279900Y-2376900D01*
X53279900Y-2626900D01*
X53259900Y-2626900D01*
X53259900Y-3228150D01*
X53418650Y-3386900D01*
X53559209Y-3386900D01*
X53670183Y-3340933D01*
X53681010Y-3348331D01*
X53865490Y-3385689D01*
X53858849Y-3395628D01*
X53802900Y-3676900D01*
X53802900Y-5986839D01*
X53731459Y-6032810D01*
X53683766Y-6102611D01*
X53646990Y-6045459D01*
X53434790Y-5900469D01*
X53182900Y-5849460D01*
X51982900Y-5849460D01*
X51747583Y-5893738D01*
X51531459Y-6032810D01*
X51460591Y-6136528D01*
X51401990Y-6045459D01*
X51242900Y-5936757D01*
X51242900Y-5074977D01*
X51347986Y-5031556D01*
X51766088Y-4614183D01*
X51992642Y-4068581D01*
X51993157Y-3477811D01*
X51767556Y-2931814D01*
X51621647Y-2785650D01*
X52197900Y-2785650D01*
X52197900Y-2878210D01*
X52294573Y-3111599D01*
X52473202Y-3290227D01*
X52706591Y-3386900D01*
X52847150Y-3386900D01*
X53005900Y-3228150D01*
X53005900Y-2626900D01*
X52356650Y-2626900D01*
X52197900Y-2785650D01*
X51621647Y-2785650D01*
X51350183Y-2513712D01*
X50804581Y-2287158D01*
X50213811Y-2286643D01*
X49667814Y-2512244D01*
X49249712Y-2929617D01*
X49229949Y-2977212D01*
X49022224Y-2910858D01*
X48819423Y-2687777D01*
X48751980Y-2476641D01*
X48196621Y-2275182D01*
X47606442Y-2301585D01*
X47183820Y-2476641D01*
X47103547Y-2727942D01*
X47108571Y-2732966D01*
X46970590Y-2819204D01*
X46926882Y-2865223D01*
X46898930Y-2915537D01*
X46672641Y-2987820D01*
X46471182Y-3543179D01*
X46497585Y-4133358D01*
X46672641Y-4555980D01*
X46914692Y-4633298D01*
X47106502Y-4825108D01*
X47183820Y-5067159D01*
X47739179Y-5268618D01*
X48329358Y-5242215D01*
X48751980Y-5067159D01*
X48832253Y-4815858D01*
X48765693Y-4749298D01*
X48984342Y-4608737D01*
X49011858Y-4636253D01*
X49229540Y-4566719D01*
X49248244Y-4611986D01*
X49665617Y-5030088D01*
X49772900Y-5074636D01*
X49772900Y-5849460D01*
X49737900Y-5849460D01*
X49502583Y-5893738D01*
X49286459Y-6032810D01*
X49239931Y-6100906D01*
X49097598Y-5958573D01*
X48864209Y-5861900D01*
X48423650Y-5861900D01*
X48264900Y-6020650D01*
X48264900Y-6819900D01*
X48284900Y-6819900D01*
X48284900Y-7073900D01*
X48264900Y-7073900D01*
X48264900Y-7873150D01*
X48423650Y-8031900D01*
X48864209Y-8031900D01*
X49097598Y-7935227D01*
X49238836Y-7793990D01*
X49273810Y-7848341D01*
X49486010Y-7993331D01*
X49737900Y-8044340D01*
X50937900Y-8044340D01*
X51173217Y-8000062D01*
X51389341Y-7860990D01*
X51460209Y-7757272D01*
X51518810Y-7848341D01*
X51731010Y-7993331D01*
X51982900Y-8044340D01*
X53182900Y-8044340D01*
X53418217Y-8000062D01*
X53634341Y-7860990D01*
X53682034Y-7791189D01*
X53718810Y-7848341D01*
X53931010Y-7993331D01*
X54182900Y-8044340D01*
X55382900Y-8044340D01*
X55618217Y-8000062D01*
X55834341Y-7860990D01*
X55908875Y-7751906D01*
X56073573Y-7916892D01*
X56417101Y-8059538D01*
X56789067Y-8059862D01*
X57132843Y-7917817D01*
X57290527Y-7760408D01*
X57309383Y-7806043D01*
X57572173Y-8069292D01*
X57915701Y-8211938D01*
X58287667Y-8212262D01*
X58415356Y-8159502D01*
X58907477Y-8651624D01*
X59131908Y-8801583D01*
X59145928Y-8810951D01*
X59427200Y-8866900D01*
X61202900Y-8866900D01*
X61202900Y-10506453D01*
X60459992Y-9763545D01*
X60460062Y-9682733D01*
X60318017Y-9338957D01*
X60055227Y-9075708D01*
X59711699Y-8933062D01*
X59339733Y-8932738D01*
X58995957Y-9074783D01*
X58732708Y-9337573D01*
X58590062Y-9681101D01*
X58589738Y-10053067D01*
X58731783Y-10396843D01*
X58994573Y-10660092D01*
X59338101Y-10802738D01*
X59420363Y-10802810D01*
X60186900Y-11569347D01*
X60186900Y-14058900D01*
X60236484Y-14308172D01*
X60242849Y-14340172D01*
X60402177Y-14578623D01*
X64464211Y-18640658D01*
X64573783Y-18905843D01*
X64836573Y-19169092D01*
X65180101Y-19311738D01*
X65552067Y-19312062D01*
X65895843Y-19170017D01*
X66159092Y-18907227D01*
X66301738Y-18563699D01*
X66302028Y-18230401D01*
X66371415Y-18201731D01*
X66411315Y-18161900D01*
X69787900Y-18161900D01*
X70222246Y-18075503D01*
X70590466Y-17829466D01*
X72390466Y-16029466D01*
X72636503Y-15661246D01*
X72649357Y-15596623D01*
X72722900Y-15226900D01*
X72722900Y-12950597D01*
X72911361Y-12762464D01*
X73122659Y-12253602D01*
X73123140Y-11702615D01*
X72912731Y-11193385D01*
X72523464Y-10803439D01*
X72014602Y-10592141D01*
X71463615Y-10591660D01*
X71010104Y-10779046D01*
X70912731Y-10543385D01*
X70897552Y-10528179D01*
X96001182Y-10528179D01*
X96027585Y-11118358D01*
X96202641Y-11540980D01*
X96453942Y-11621253D01*
X97318295Y-10756900D01*
X96453942Y-9892547D01*
X96202641Y-9972820D01*
X96001182Y-10528179D01*
X70897552Y-10528179D01*
X70872900Y-10503485D01*
X70872900Y-7161900D01*
X81013942Y-7161900D01*
X81052336Y-7200361D01*
X81561198Y-7411659D01*
X82112185Y-7412140D01*
X82621415Y-7201731D01*
X83011361Y-6812464D01*
X83222659Y-6303602D01*
X83223140Y-5752615D01*
X83012731Y-5243385D01*
X82623464Y-4853439D01*
X82372663Y-4749297D01*
X82373140Y-4202615D01*
X82162731Y-3693385D01*
X81773464Y-3303439D01*
X81264602Y-3092141D01*
X80713615Y-3091660D01*
X80204385Y-3302069D01*
X80164485Y-3341900D01*
X75111771Y-3341900D01*
X75023464Y-3253439D01*
X74514602Y-3042141D01*
X73963615Y-3041660D01*
X73454385Y-3252069D01*
X73064439Y-3641336D01*
X72853141Y-4150198D01*
X72852660Y-4701185D01*
X72931462Y-4891900D01*
X71672844Y-4891900D01*
X71673062Y-4641733D01*
X71531017Y-4297957D01*
X71268227Y-4034708D01*
X70924699Y-3892062D01*
X70552733Y-3891738D01*
X70208957Y-4033783D01*
X69945708Y-4296573D01*
X69906125Y-4391900D01*
X69537900Y-4391900D01*
X69256628Y-4447849D01*
X69018177Y-4607176D01*
X68218177Y-5407177D01*
X68058849Y-5645628D01*
X68002900Y-5926900D01*
X68002900Y-6222453D01*
X67928454Y-6296900D01*
X62672900Y-6296900D01*
X62672900Y-4909340D01*
X63104757Y-4909340D01*
X63167900Y-4921900D01*
X65527519Y-4921900D01*
X65544135Y-4938545D01*
X65961144Y-5111703D01*
X66412675Y-5112097D01*
X66829986Y-4939667D01*
X67149545Y-4620665D01*
X67322703Y-4203656D01*
X67323097Y-3752125D01*
X67150667Y-3334814D01*
X67025128Y-3209055D01*
X67172703Y-2853656D01*
X67173097Y-2402125D01*
X67106067Y-2239900D01*
X91439768Y-2239900D01*
X98140900Y-8941032D01*
X98140900Y-9410464D01*
X97726621Y-9260182D01*
X97136442Y-9286585D01*
X96713820Y-9461641D01*
X96633547Y-9712942D01*
X97497900Y-10577295D01*
X97512043Y-10563153D01*
X97691648Y-10742758D01*
X97677505Y-10756900D01*
X97691648Y-10771043D01*
X97512043Y-10950648D01*
X97497900Y-10936505D01*
X96633547Y-11800858D01*
X96703081Y-12018540D01*
X96657814Y-12037244D01*
X96486914Y-12207846D01*
X96283554Y-12248297D01*
X95921669Y-12490101D01*
X95915334Y-12494334D01*
X94085334Y-14324334D01*
X93839297Y-14692554D01*
X93752900Y-15126900D01*
X93752900Y-23876900D01*
X93839297Y-24311246D01*
X94063356Y-24646573D01*
X94085334Y-24679466D01*
X96752900Y-27347032D01*
X96752900Y-40649900D01*
X84872968Y-40649900D01*
X84873062Y-40541733D01*
X84806515Y-40380676D01*
X84880092Y-40307227D01*
X85022738Y-39963699D01*
X85022912Y-39763959D01*
X85280092Y-39507227D01*
X85369015Y-39293077D01*
X85666843Y-39170017D01*
X85930092Y-38907227D01*
X86039726Y-38643200D01*
X86216843Y-38570017D01*
X86480092Y-38307227D01*
X86622738Y-37963699D01*
X86623062Y-37591733D01*
X86481017Y-37247957D01*
X86218227Y-36984708D01*
X85874699Y-36842062D01*
X85792437Y-36841990D01*
X83262346Y-34311900D01*
X84739739Y-34311900D01*
X84703097Y-34400144D01*
X84702703Y-34851675D01*
X84875133Y-35268986D01*
X85194135Y-35588545D01*
X85611144Y-35761703D01*
X85791993Y-35761861D01*
X87547466Y-37517334D01*
X87818359Y-37698339D01*
X88137900Y-37761900D01*
X92267711Y-37761900D01*
X92394135Y-37888545D01*
X92811144Y-38061703D01*
X93262675Y-38062097D01*
X93679986Y-37889667D01*
X93999545Y-37570665D01*
X94172703Y-37153656D01*
X94173097Y-36702125D01*
X94107957Y-36544474D01*
X94214331Y-36388790D01*
X94265340Y-36136900D01*
X94265340Y-34936900D01*
X94221062Y-34701583D01*
X94202900Y-34673358D01*
X94202900Y-34405520D01*
X94214331Y-34388790D01*
X94265340Y-34136900D01*
X94265340Y-33138906D01*
X94357623Y-33046623D01*
X94516951Y-32808172D01*
X94524746Y-32768986D01*
X94572900Y-32526900D01*
X94572900Y-31526900D01*
X94516951Y-31245628D01*
X94473029Y-31179894D01*
X94473062Y-31141733D01*
X94331017Y-30797957D01*
X94068227Y-30534708D01*
X93724699Y-30392062D01*
X93380484Y-30391762D01*
X94300255Y-29471992D01*
X94381067Y-29472062D01*
X94724843Y-29330017D01*
X94988092Y-29067227D01*
X95130738Y-28723699D01*
X95131062Y-28351733D01*
X94989017Y-28007957D01*
X94726227Y-27744708D01*
X94382699Y-27602062D01*
X94010733Y-27601738D01*
X93666957Y-27743783D01*
X93403708Y-28006573D01*
X93261062Y-28350101D01*
X93260990Y-28432363D01*
X92940221Y-28753132D01*
X92694227Y-28506708D01*
X92350699Y-28364062D01*
X92268437Y-28363990D01*
X90186623Y-26282177D01*
X89948172Y-26122849D01*
X89666900Y-26066900D01*
X88409938Y-26066900D01*
X88391062Y-25966583D01*
X88251990Y-25750459D01*
X88039790Y-25605469D01*
X87787900Y-25554460D01*
X86887900Y-25554460D01*
X86660443Y-25597259D01*
X86607017Y-25467957D01*
X86344227Y-25204708D01*
X86000699Y-25062062D01*
X85628733Y-25061738D01*
X85284957Y-25203783D01*
X85021708Y-25466573D01*
X84879062Y-25810101D01*
X84878738Y-26182067D01*
X85020783Y-26525843D01*
X85283573Y-26789092D01*
X85332900Y-26809574D01*
X85332900Y-27441481D01*
X85275708Y-27498573D01*
X85133062Y-27842101D01*
X85132738Y-28214067D01*
X85266283Y-28537271D01*
X85133062Y-28858101D01*
X85132738Y-29230067D01*
X85274783Y-29573843D01*
X85407608Y-29706900D01*
X83650594Y-29706900D01*
X83672703Y-29653656D01*
X83673097Y-29202125D01*
X83500667Y-28784814D01*
X83331846Y-28615698D01*
X83447243Y-28568017D01*
X83710492Y-28305227D01*
X83853138Y-27961699D01*
X83853257Y-27824547D01*
X83902151Y-27751372D01*
X83909969Y-27712067D01*
X83958100Y-27470100D01*
X83958100Y-27419300D01*
X83902151Y-27138028D01*
X83742823Y-26899577D01*
X83504372Y-26740249D01*
X83223100Y-26684300D01*
X82972900Y-26734068D01*
X82972900Y-26697089D01*
X83099545Y-26570665D01*
X83272703Y-26153656D01*
X83273097Y-25702125D01*
X83100667Y-25284814D01*
X82781665Y-24965255D01*
X82364656Y-24792097D01*
X81913125Y-24791703D01*
X81495814Y-24964133D01*
X81176255Y-25283135D01*
X81003097Y-25700144D01*
X81002897Y-25928868D01*
X80649581Y-25782158D01*
X80058811Y-25781643D01*
X79512814Y-26007244D01*
X79094712Y-26424617D01*
X79083152Y-26452457D01*
X79072556Y-26426814D01*
X78655183Y-26008712D01*
X78109581Y-25782158D01*
X77518811Y-25781643D01*
X76996900Y-25997292D01*
X76996900Y-24591900D01*
X80022644Y-24591900D01*
X80145617Y-24715088D01*
X80691219Y-24941642D01*
X81281989Y-24942157D01*
X81827986Y-24716556D01*
X82246088Y-24299183D01*
X82472642Y-23753581D01*
X82473157Y-23162811D01*
X82247556Y-22616814D01*
X81830183Y-22198712D01*
X81802343Y-22187152D01*
X81827986Y-22176556D01*
X82246088Y-21759183D01*
X82472642Y-21213581D01*
X82473157Y-20622811D01*
X82247556Y-20076814D01*
X81830183Y-19658712D01*
X81284581Y-19432158D01*
X80693811Y-19431643D01*
X80147814Y-19657244D01*
X79729712Y-20074617D01*
X79503158Y-20620219D01*
X79502643Y-21210989D01*
X79728244Y-21756986D01*
X80145617Y-22175088D01*
X80173457Y-22186648D01*
X80147814Y-22197244D01*
X80022940Y-22321900D01*
X76872900Y-22321900D01*
X76872900Y-17926900D01*
X76786503Y-17492554D01*
X76673035Y-17322738D01*
X76673140Y-17202615D01*
X76462731Y-16693385D01*
X76073464Y-16303439D01*
X75564602Y-16092141D01*
X75013615Y-16091660D01*
X74504385Y-16302069D01*
X74114439Y-16691336D01*
X73903141Y-17200198D01*
X73902660Y-17751185D01*
X74089657Y-18203754D01*
X74071733Y-18203738D01*
X73727957Y-18345783D01*
X73464708Y-18608573D01*
X73322062Y-18952101D01*
X73321738Y-19324067D01*
X73463783Y-19667843D01*
X73726573Y-19931092D01*
X73902900Y-20004310D01*
X73902900Y-22613460D01*
X72937900Y-22613460D01*
X72702583Y-22657738D01*
X72486459Y-22796810D01*
X72364092Y-22975900D01*
X71803900Y-22975900D01*
X71522628Y-23031849D01*
X71284177Y-23191176D01*
X70518178Y-23957176D01*
X70518177Y-23957177D01*
X70358849Y-24195628D01*
X70302900Y-24476900D01*
X70302900Y-27489481D01*
X70245708Y-27546573D01*
X70187412Y-27686965D01*
X68757623Y-26257177D01*
X68519172Y-26097849D01*
X68237900Y-26041900D01*
X62392347Y-26041900D01*
X61422992Y-25072545D01*
X61423062Y-24991733D01*
X61281017Y-24647957D01*
X61018227Y-24384708D01*
X60674699Y-24242062D01*
X60302733Y-24241738D01*
X59958957Y-24383783D01*
X59695708Y-24646573D01*
X59553062Y-24990101D01*
X59552738Y-25362067D01*
X59694783Y-25705843D01*
X59957573Y-25969092D01*
X60301101Y-26111738D01*
X60383363Y-26111810D01*
X61568177Y-27296624D01*
X61792668Y-27446623D01*
X61806628Y-27455951D01*
X62087900Y-27511900D01*
X67933454Y-27511900D01*
X69763453Y-29341900D01*
X52637900Y-29341900D01*
X52536822Y-29362006D01*
X52531017Y-29347957D01*
X52268227Y-29084708D01*
X51924699Y-28942062D01*
X51552733Y-28941738D01*
X51208957Y-29083783D01*
X50945708Y-29346573D01*
X50803062Y-29690101D01*
X50802990Y-29772363D01*
X48972900Y-31602454D01*
X48972900Y-30281346D01*
X50911266Y-28342981D01*
X50966843Y-28320017D01*
X51230092Y-28057227D01*
X51372738Y-27713699D01*
X51373062Y-27341733D01*
X51231017Y-26997957D01*
X50968227Y-26734708D01*
X50624699Y-26592062D01*
X50252733Y-26591738D01*
X50008741Y-26692553D01*
X49881665Y-26565255D01*
X49464656Y-26392097D01*
X49209272Y-26391874D01*
X49203485Y-26390723D01*
X48932900Y-26336899D01*
X48932895Y-26336900D01*
X47899331Y-26336900D01*
X47837900Y-26324460D01*
X47237900Y-26324460D01*
X47002583Y-26368738D01*
X46978494Y-26384239D01*
X46864209Y-26336900D01*
X46723650Y-26336900D01*
X46564900Y-26495650D01*
X46564900Y-27096900D01*
X46584900Y-27096900D01*
X46584900Y-27346900D01*
X46564900Y-27346900D01*
X46564900Y-27948150D01*
X46652900Y-28036150D01*
X46652900Y-28430321D01*
X45103760Y-29979460D01*
X44657900Y-29979460D01*
X44422583Y-30023738D01*
X44206459Y-30162810D01*
X44158766Y-30232611D01*
X44121990Y-30175459D01*
X43909790Y-30030469D01*
X43657900Y-29979460D01*
X42457900Y-29979460D01*
X42222583Y-30023738D01*
X42006459Y-30162810D01*
X41884092Y-30341900D01*
X41494722Y-30341900D01*
X41374699Y-30292062D01*
X41362195Y-30292051D01*
X41942347Y-29711900D01*
X42191039Y-29711900D01*
X42401819Y-29852738D01*
X42406628Y-29855951D01*
X42687900Y-29911900D01*
X43337900Y-29911900D01*
X43619172Y-29855951D01*
X43857623Y-29696623D01*
X44968714Y-28585533D01*
X45010830Y-28522501D01*
X45016843Y-28520017D01*
X45280092Y-28257227D01*
X45422738Y-27913699D01*
X45423062Y-27541733D01*
X45408153Y-27505650D01*
X45502900Y-27505650D01*
X45502900Y-27598210D01*
X45599573Y-27831599D01*
X45778202Y-28010227D01*
X46011591Y-28106900D01*
X46152150Y-28106900D01*
X46310900Y-27948150D01*
X46310900Y-27346900D01*
X45661650Y-27346900D01*
X45502900Y-27505650D01*
X45408153Y-27505650D01*
X45281017Y-27197957D01*
X45018227Y-26934708D01*
X44803609Y-26845590D01*
X45502900Y-26845590D01*
X45502900Y-26938150D01*
X45661650Y-27096900D01*
X46310900Y-27096900D01*
X46310900Y-26495650D01*
X46152150Y-26336900D01*
X46011591Y-26336900D01*
X45778202Y-26433573D01*
X45599573Y-26612201D01*
X45502900Y-26845590D01*
X44803609Y-26845590D01*
X44674699Y-26792062D01*
X44302733Y-26791738D01*
X44025887Y-26906128D01*
X43873464Y-26753439D01*
X43364602Y-26542141D01*
X42813615Y-26541660D01*
X42304385Y-26752069D01*
X42214397Y-26841900D01*
X38222900Y-26841900D01*
X38222900Y-23692436D01*
X38321415Y-23651731D01*
X38711361Y-23262464D01*
X38922659Y-22753602D01*
X38923140Y-22202615D01*
X38853015Y-22032900D01*
X39851435Y-22032900D01*
X39802900Y-22276900D01*
X39802900Y-24389481D01*
X39745708Y-24446573D01*
X39603062Y-24790101D01*
X39602738Y-25162067D01*
X39744783Y-25505843D01*
X40007573Y-25769092D01*
X40351101Y-25911738D01*
X40723067Y-25912062D01*
X41066843Y-25770017D01*
X41330092Y-25507227D01*
X41472738Y-25163699D01*
X41473062Y-24791733D01*
X41331017Y-24447957D01*
X41272900Y-24389738D01*
X41272900Y-22581346D01*
X44492347Y-19361900D01*
X52037900Y-19361900D01*
X52319172Y-19305951D01*
X52557623Y-19146623D01*
X55442347Y-16261900D01*
X56510567Y-16261900D01*
X56453141Y-16400198D01*
X56452660Y-16951185D01*
X56663069Y-17460415D01*
X57052336Y-17850361D01*
X57500900Y-18036621D01*
X57500900Y-19697644D01*
X57377712Y-19820617D01*
X57151158Y-20366219D01*
X57150961Y-20591911D01*
X56952733Y-20591738D01*
X56831331Y-20641900D01*
X51787900Y-20641900D01*
X51545223Y-20690172D01*
X51506628Y-20697849D01*
X51268176Y-20857177D01*
X50733454Y-21391900D01*
X48837900Y-21391900D01*
X48556628Y-21447849D01*
X48318177Y-21607176D01*
X47783545Y-22141808D01*
X47702733Y-22141738D01*
X47358957Y-22283783D01*
X47095708Y-22546573D01*
X46956661Y-22881434D01*
X46708957Y-22983783D01*
X46445708Y-23246573D01*
X46303062Y-23590101D01*
X46302738Y-23962067D01*
X46444783Y-24305843D01*
X46707573Y-24569092D01*
X47051101Y-24711738D01*
X47423067Y-24712062D01*
X47766843Y-24570017D01*
X47825062Y-24511900D01*
X48337900Y-24511900D01*
X48619172Y-24455951D01*
X48857623Y-24296623D01*
X49692347Y-23461900D01*
X51287900Y-23461900D01*
X51569172Y-23405951D01*
X51807623Y-23246623D01*
X52142347Y-22911900D01*
X53882928Y-22911900D01*
X53708957Y-22983783D01*
X53445708Y-23246573D01*
X53303062Y-23590101D01*
X53302738Y-23962067D01*
X53444783Y-24305843D01*
X53707573Y-24569092D01*
X54051101Y-24711738D01*
X54423067Y-24712062D01*
X54766843Y-24570017D01*
X55030092Y-24307227D01*
X55172738Y-23963699D01*
X55172810Y-23881437D01*
X55542347Y-23511900D01*
X59850481Y-23511900D01*
X59907573Y-23569092D01*
X60251101Y-23711738D01*
X60623067Y-23712062D01*
X60966843Y-23570017D01*
X61230092Y-23307227D01*
X61372738Y-22963699D01*
X61373062Y-22591733D01*
X61231017Y-22247957D01*
X61131096Y-22147862D01*
X61469989Y-22148157D01*
X62015986Y-21922556D01*
X62434088Y-21505183D01*
X62660642Y-20959581D01*
X62661157Y-20368811D01*
X62435556Y-19822814D01*
X62018183Y-19404712D01*
X61472581Y-19178158D01*
X60881811Y-19177643D01*
X60672900Y-19263963D01*
X60672900Y-16976900D01*
X60616951Y-16695628D01*
X60601946Y-16673172D01*
X60457624Y-16457177D01*
X59007623Y-15007177D01*
X58769172Y-14847849D01*
X58487900Y-14791900D01*
X55137900Y-14791900D01*
X54856628Y-14847849D01*
X54618176Y-15007177D01*
X52979252Y-16646102D01*
X52768227Y-16434708D01*
X52424699Y-16292062D01*
X52052733Y-16291738D01*
X51708957Y-16433783D01*
X51445708Y-16696573D01*
X51303062Y-17040101D01*
X51302990Y-17122363D01*
X51233454Y-17191900D01*
X46552347Y-17191900D01*
X45312623Y-15952177D01*
X45074172Y-15792849D01*
X44792900Y-15736900D01*
X43522900Y-15736900D01*
X43241628Y-15792849D01*
X43003176Y-15952177D01*
X42749178Y-16206176D01*
X42749177Y-16206177D01*
X42589849Y-16444628D01*
X42533900Y-16725900D01*
X42533900Y-16802453D01*
X41640545Y-17695808D01*
X41559733Y-17695738D01*
X41215957Y-17837783D01*
X40952708Y-18100573D01*
X40810062Y-18444101D01*
X40809738Y-18816067D01*
X40849335Y-18911900D01*
X36156900Y-18911900D01*
X35875628Y-18967849D01*
X35688590Y-19092823D01*
X35590733Y-19092738D01*
X35246957Y-19234783D01*
X34983708Y-19497573D01*
X34841062Y-19841101D01*
X34840738Y-20213067D01*
X34982783Y-20556843D01*
X35245573Y-20820092D01*
X35589101Y-20962738D01*
X35844311Y-20962960D01*
X35730062Y-21238101D01*
X35729738Y-21610067D01*
X35871783Y-21953843D01*
X36134573Y-22217092D01*
X36153120Y-22224793D01*
X36153034Y-22322334D01*
X36039297Y-22492554D01*
X35952900Y-22926900D01*
X35952900Y-26841900D01*
X35561858Y-26841900D01*
X35523464Y-26803439D01*
X35083208Y-26620629D01*
X32098690Y-23636110D01*
X31930590Y-23523790D01*
X31811575Y-23444267D01*
X31737975Y-23429627D01*
X31472900Y-23376899D01*
X31472895Y-23376900D01*
X28669092Y-23376900D01*
X28561990Y-23210459D01*
X28349790Y-23065469D01*
X28097900Y-23014460D01*
X27197900Y-23014460D01*
X26962583Y-23058738D01*
X26746459Y-23197810D01*
X26601469Y-23410010D01*
X26550460Y-23661900D01*
X26550460Y-24691900D01*
X25542347Y-24691900D01*
X24769787Y-23919340D01*
X24902900Y-23919340D01*
X25138217Y-23875062D01*
X25354341Y-23735990D01*
X25499331Y-23523790D01*
X25550340Y-23271900D01*
X25550340Y-22371900D01*
X25506062Y-22136583D01*
X25366990Y-21920459D01*
X25154790Y-21775469D01*
X25136353Y-21771735D01*
X25222738Y-21563699D01*
X25222866Y-21416902D01*
X27933350Y-21416902D01*
X27997783Y-21572843D01*
X28260573Y-21836092D01*
X28604101Y-21978738D01*
X28976067Y-21979062D01*
X29319843Y-21837017D01*
X29428213Y-21728836D01*
X29679900Y-21778900D01*
X31914973Y-21778900D01*
X31934783Y-21826843D01*
X32197573Y-22090092D01*
X32541101Y-22232738D01*
X32913067Y-22233062D01*
X33256843Y-22091017D01*
X33520092Y-21828227D01*
X33662738Y-21484699D01*
X33663062Y-21112733D01*
X33521017Y-20768957D01*
X33258227Y-20505708D01*
X32958568Y-20381278D01*
X33027738Y-20214699D01*
X33028045Y-19861892D01*
X33331989Y-19862157D01*
X33877986Y-19636556D01*
X34296088Y-19219183D01*
X34522642Y-18673581D01*
X34523157Y-18082811D01*
X34297556Y-17536814D01*
X34135136Y-17374110D01*
X36207347Y-15301900D01*
X52285900Y-15301900D01*
X52567172Y-15245951D01*
X52805623Y-15086623D01*
X55384347Y-12507900D01*
X57511688Y-12507900D01*
X57687101Y-12580738D01*
X58059067Y-12581062D01*
X58402843Y-12439017D01*
X58666092Y-12176227D01*
X58808738Y-11832699D01*
X58809062Y-11460733D01*
X58667017Y-11116957D01*
X58404227Y-10853708D01*
X58060699Y-10711062D01*
X57688733Y-10710738D01*
X57344957Y-10852783D01*
X57159517Y-11037900D01*
X55079900Y-11037900D01*
X54798628Y-11093849D01*
X54560177Y-11253176D01*
X53048323Y-12765031D01*
X52918227Y-12634708D01*
X52574699Y-12492062D01*
X52202733Y-12491738D01*
X52053745Y-12553298D01*
X49022992Y-9522545D01*
X49023062Y-9441733D01*
X48881017Y-9097957D01*
X48618227Y-8834708D01*
X48274699Y-8692062D01*
X47902733Y-8691738D01*
X47635602Y-8802114D01*
X47618227Y-8784708D01*
X47274699Y-8642062D01*
X46902733Y-8641738D01*
X46564681Y-8781418D01*
X46418227Y-8634708D01*
X46074699Y-8492062D01*
X45702733Y-8491738D01*
X45358957Y-8633783D01*
X45140094Y-8852264D01*
X44874699Y-8742062D01*
X44502733Y-8741738D01*
X44158957Y-8883783D01*
X43895708Y-9146573D01*
X43753062Y-9490101D01*
X43752990Y-9572363D01*
X43118177Y-10207177D01*
X42958849Y-10445628D01*
X42902900Y-10726900D01*
X42902900Y-12889481D01*
X42845708Y-12946573D01*
X42703062Y-13290101D01*
X42702738Y-13662067D01*
X42772911Y-13831900D01*
X37873656Y-13831900D01*
X37922738Y-13713699D01*
X37923062Y-13341733D01*
X37781017Y-12997957D01*
X37518227Y-12734708D01*
X37174699Y-12592062D01*
X36802733Y-12591738D01*
X36655471Y-12652585D01*
X36610990Y-12583459D01*
X36542894Y-12536931D01*
X36685227Y-12394598D01*
X36781900Y-12161209D01*
X36781900Y-11820650D01*
X36623150Y-11661900D01*
X35648900Y-11661900D01*
X35648900Y-11681900D01*
X35394900Y-11681900D01*
X35394900Y-11661900D01*
X34420650Y-11661900D01*
X34261900Y-11820650D01*
X34261900Y-12043217D01*
X34119172Y-11947849D01*
X34108006Y-11945628D01*
X34000340Y-11924212D01*
X34000340Y-11161900D01*
X33956062Y-10926583D01*
X33944485Y-10908591D01*
X34261900Y-10908591D01*
X34261900Y-11249150D01*
X34420650Y-11407900D01*
X35394900Y-11407900D01*
X35394900Y-10558650D01*
X35648900Y-10558650D01*
X35648900Y-11407900D01*
X36623150Y-11407900D01*
X36759982Y-11271068D01*
X37007573Y-11519092D01*
X37351101Y-11661738D01*
X37452825Y-11661827D01*
X37452738Y-11762067D01*
X37594783Y-12105843D01*
X37857573Y-12369092D01*
X38201101Y-12511738D01*
X38573067Y-12512062D01*
X38916843Y-12370017D01*
X39180092Y-12107227D01*
X39322738Y-11763699D01*
X39323062Y-11391733D01*
X39181017Y-11047957D01*
X39122900Y-10989738D01*
X39122900Y-8712067D01*
X39902738Y-8712067D01*
X39904839Y-8717152D01*
X39902900Y-8726900D01*
X39902900Y-11676900D01*
X39956020Y-11943951D01*
X39958849Y-11958172D01*
X40002858Y-12024036D01*
X40002738Y-12162067D01*
X40144783Y-12505843D01*
X40407573Y-12769092D01*
X40751101Y-12911738D01*
X41123067Y-12912062D01*
X41466843Y-12770017D01*
X41730092Y-12507227D01*
X41872738Y-12163699D01*
X41873062Y-11791733D01*
X41804259Y-11625217D01*
X41816843Y-11620017D01*
X42080092Y-11357227D01*
X42222738Y-11013699D01*
X42222900Y-10828267D01*
X42237040Y-10757177D01*
X42272900Y-10576900D01*
X42272900Y-9531346D01*
X42342255Y-9461992D01*
X42423067Y-9462062D01*
X42766843Y-9320017D01*
X43030092Y-9057227D01*
X43172738Y-8713699D01*
X43173062Y-8341733D01*
X43031017Y-7997957D01*
X42768227Y-7734708D01*
X42424699Y-7592062D01*
X42052733Y-7591738D01*
X41708957Y-7733783D01*
X41537832Y-7904609D01*
X41368227Y-7734708D01*
X41024699Y-7592062D01*
X40652733Y-7591738D01*
X40308957Y-7733783D01*
X40045708Y-7996573D01*
X39903062Y-8340101D01*
X39902738Y-8712067D01*
X39122900Y-8712067D01*
X39122900Y-7426900D01*
X39084261Y-7232650D01*
X46902900Y-7232650D01*
X46902900Y-7523210D01*
X46999573Y-7756599D01*
X47178202Y-7935227D01*
X47411591Y-8031900D01*
X47852150Y-8031900D01*
X48010900Y-7873150D01*
X48010900Y-7073900D01*
X47061650Y-7073900D01*
X46902900Y-7232650D01*
X39084261Y-7232650D01*
X39066951Y-7145628D01*
X39000798Y-7046623D01*
X38907623Y-6907176D01*
X38371037Y-6370590D01*
X46902900Y-6370590D01*
X46902900Y-6661150D01*
X47061650Y-6819900D01*
X48010900Y-6819900D01*
X48010900Y-6020650D01*
X47852150Y-5861900D01*
X47411591Y-5861900D01*
X47178202Y-5958573D01*
X46999573Y-6137201D01*
X46902900Y-6370590D01*
X38371037Y-6370590D01*
X37622992Y-5622545D01*
X37623062Y-5541733D01*
X37481017Y-5197957D01*
X37218227Y-4934708D01*
X36874699Y-4792062D01*
X36502733Y-4791738D01*
X36158957Y-4933783D01*
X35895708Y-5196573D01*
X35753062Y-5540101D01*
X35752738Y-5912067D01*
X35894783Y-6255843D01*
X36157573Y-6519092D01*
X36501101Y-6661738D01*
X36583363Y-6661810D01*
X37463388Y-7541834D01*
X37352733Y-7541738D01*
X37008957Y-7683783D01*
X36745708Y-7946573D01*
X36603062Y-8290101D01*
X36602738Y-8662067D01*
X36744783Y-9005843D01*
X36802900Y-9064062D01*
X36802900Y-10139481D01*
X36745708Y-10196573D01*
X36603062Y-10540101D01*
X36603016Y-10592990D01*
X36506599Y-10496573D01*
X36273210Y-10399900D01*
X35807650Y-10399900D01*
X35648900Y-10558650D01*
X35394900Y-10558650D01*
X35236150Y-10399900D01*
X34770590Y-10399900D01*
X34537201Y-10496573D01*
X34358573Y-10675202D01*
X34261900Y-10908591D01*
X33944485Y-10908591D01*
X33816990Y-10710459D01*
X33604790Y-10565469D01*
X33352900Y-10514460D01*
X32102900Y-10514460D01*
X31867583Y-10558738D01*
X31691081Y-10672314D01*
X31681017Y-10647957D01*
X31418227Y-10384708D01*
X31074699Y-10242062D01*
X30702733Y-10241738D01*
X30358957Y-10383783D01*
X30095708Y-10646573D01*
X29953062Y-10990101D01*
X29953060Y-10991912D01*
X29752733Y-10991738D01*
X29556277Y-11072912D01*
X29468227Y-10984708D01*
X29124699Y-10842062D01*
X28752733Y-10841738D01*
X28746079Y-10844487D01*
X28674248Y-9012799D01*
X28719475Y-8967650D01*
X31642900Y-8967650D01*
X31642900Y-9408209D01*
X31739573Y-9641598D01*
X31918201Y-9820227D01*
X32151590Y-9916900D01*
X32442150Y-9916900D01*
X32600900Y-9758150D01*
X32600900Y-8808900D01*
X32854900Y-8808900D01*
X32854900Y-9758150D01*
X33013650Y-9916900D01*
X33304210Y-9916900D01*
X33537599Y-9820227D01*
X33716227Y-9641598D01*
X33812900Y-9408209D01*
X33812900Y-8967650D01*
X33654150Y-8808900D01*
X32854900Y-8808900D01*
X32600900Y-8808900D01*
X31801650Y-8808900D01*
X31642900Y-8967650D01*
X28719475Y-8967650D01*
X28830092Y-8857227D01*
X28972738Y-8513699D01*
X28973062Y-8141733D01*
X28940740Y-8063507D01*
X30642255Y-6361992D01*
X30723067Y-6362062D01*
X31066843Y-6220017D01*
X31330092Y-5957227D01*
X31472738Y-5613699D01*
X31473049Y-5256914D01*
X31751989Y-5257157D01*
X31992900Y-5157615D01*
X31992900Y-5310708D01*
X31826459Y-5417810D01*
X31681469Y-5630010D01*
X31630460Y-5881900D01*
X31630460Y-7081900D01*
X31674738Y-7317217D01*
X31813810Y-7533341D01*
X31881906Y-7579869D01*
X31739573Y-7722202D01*
X31642900Y-7955591D01*
X31642900Y-8396150D01*
X31801650Y-8554900D01*
X32600900Y-8554900D01*
X32600900Y-8534900D01*
X32854900Y-8534900D01*
X32854900Y-8554900D01*
X33654150Y-8554900D01*
X33812900Y-8396150D01*
X33812900Y-7955591D01*
X33716227Y-7722202D01*
X33574990Y-7580964D01*
X33629341Y-7545990D01*
X33774331Y-7333790D01*
X33825340Y-7081900D01*
X33825340Y-5881900D01*
X33781062Y-5646583D01*
X33641990Y-5430459D01*
X33512360Y-5341886D01*
X33628005Y-5226241D01*
X33701219Y-5256642D01*
X34291989Y-5257157D01*
X34837986Y-5031556D01*
X35256088Y-4614183D01*
X35482642Y-4068581D01*
X35483157Y-3477811D01*
X35269987Y-2961900D01*
X42702738Y-2961900D01*
X42702703Y-3001675D01*
X42875133Y-3418986D01*
X43194135Y-3738545D01*
X43611144Y-3911703D01*
X44062675Y-3912097D01*
X44479986Y-3739667D01*
X44799545Y-3420665D01*
X44972703Y-3003656D01*
X44973097Y-2552125D01*
X44844088Y-2239900D01*
X52219650Y-2239900D01*
X52356650Y-2376900D01*
G36*
X23702900Y-34681347D02*
X23702900Y-34789481D01*
X23645708Y-34846573D01*
X23503062Y-35190101D01*
X23502738Y-35562067D01*
X23562582Y-35706900D01*
X23281591Y-35706900D01*
X23048202Y-35803573D01*
X22869573Y-35982201D01*
X22772900Y-36215590D01*
X22772900Y-36506150D01*
X22931650Y-36664900D01*
X23880900Y-36664900D01*
X23880900Y-36644900D01*
X24134900Y-36644900D01*
X24134900Y-36664900D01*
X24154900Y-36664900D01*
X24154900Y-36918900D01*
X24134900Y-36918900D01*
X24134900Y-36938900D01*
X23880900Y-36938900D01*
X23880900Y-36918900D01*
X22931650Y-36918900D01*
X22772900Y-37077650D01*
X22772900Y-37368210D01*
X22782713Y-37391900D01*
X22332900Y-37391900D01*
X22051628Y-37447849D01*
X21813176Y-37607177D01*
X21185894Y-38234460D01*
X21069906Y-38234460D01*
X20779188Y-37943742D01*
X20969172Y-37905951D01*
X21207623Y-37746623D01*
X21657623Y-37296624D01*
X21816951Y-37058172D01*
X21833117Y-36976900D01*
X21859381Y-36844865D01*
X23157623Y-35546624D01*
X23316951Y-35308172D01*
X23327403Y-35255628D01*
X23372900Y-35026900D01*
X23372900Y-34351347D01*
X23702900Y-34681347D01*
X23702900Y-34681347D01*
G37*
X23702900Y-34681347D02*
X23702900Y-34789481D01*
X23645708Y-34846573D01*
X23503062Y-35190101D01*
X23502738Y-35562067D01*
X23562582Y-35706900D01*
X23281591Y-35706900D01*
X23048202Y-35803573D01*
X22869573Y-35982201D01*
X22772900Y-36215590D01*
X22772900Y-36506150D01*
X22931650Y-36664900D01*
X23880900Y-36664900D01*
X23880900Y-36644900D01*
X24134900Y-36644900D01*
X24134900Y-36664900D01*
X24154900Y-36664900D01*
X24154900Y-36918900D01*
X24134900Y-36918900D01*
X24134900Y-36938900D01*
X23880900Y-36938900D01*
X23880900Y-36918900D01*
X22931650Y-36918900D01*
X22772900Y-37077650D01*
X22772900Y-37368210D01*
X22782713Y-37391900D01*
X22332900Y-37391900D01*
X22051628Y-37447849D01*
X21813176Y-37607177D01*
X21185894Y-38234460D01*
X21069906Y-38234460D01*
X20779188Y-37943742D01*
X20969172Y-37905951D01*
X21207623Y-37746623D01*
X21657623Y-37296624D01*
X21816951Y-37058172D01*
X21833117Y-36976900D01*
X21859381Y-36844865D01*
X23157623Y-35546624D01*
X23316951Y-35308172D01*
X23327403Y-35255628D01*
X23372900Y-35026900D01*
X23372900Y-34351347D01*
X23702900Y-34681347D01*
G36*
X14140460Y-30671900D02*
X14153880Y-30743223D01*
X14152900Y-30745590D01*
X14152900Y-30825650D01*
X14173212Y-30845962D01*
X14184738Y-30907217D01*
X14309959Y-31101816D01*
X14249573Y-31162201D01*
X14172303Y-31348747D01*
X14152900Y-31368150D01*
X14152900Y-31475650D01*
X14172303Y-31495053D01*
X14249573Y-31681599D01*
X14314874Y-31746900D01*
X14249573Y-31812201D01*
X14172303Y-31998747D01*
X14152900Y-32018150D01*
X14152900Y-32125650D01*
X14172303Y-32145053D01*
X14191082Y-32190389D01*
X14074699Y-32142062D01*
X13702733Y-32141738D01*
X13358957Y-32283783D01*
X13095708Y-32546573D01*
X13056191Y-32641741D01*
X13052733Y-32641738D01*
X12708957Y-32783783D01*
X12445708Y-33046573D01*
X12303062Y-33390101D01*
X12302738Y-33762067D01*
X12444783Y-34105843D01*
X12707573Y-34369092D01*
X13051101Y-34511738D01*
X13423067Y-34512062D01*
X13617074Y-34431900D01*
X14152900Y-34431900D01*
X14152900Y-34473902D01*
X14297148Y-34473902D01*
X14152900Y-34618150D01*
X14152900Y-34698210D01*
X14249573Y-34931599D01*
X14428202Y-35110227D01*
X14661591Y-35206900D01*
X15252150Y-35206900D01*
X15410900Y-35048150D01*
X15410900Y-34569340D01*
X15664900Y-34569340D01*
X15664900Y-35048150D01*
X15823650Y-35206900D01*
X16414209Y-35206900D01*
X16647598Y-35110227D01*
X16826227Y-34931599D01*
X16922900Y-34698210D01*
X16922900Y-34618150D01*
X16778652Y-34473902D01*
X16922900Y-34473902D01*
X16922900Y-34431900D01*
X17303454Y-34431900D01*
X19182123Y-36310570D01*
X18945708Y-36546573D01*
X18803062Y-36890101D01*
X18802738Y-37262067D01*
X18918734Y-37542800D01*
X17861882Y-37542800D01*
X17747617Y-37266257D01*
X17484827Y-37003008D01*
X17141299Y-36860362D01*
X16769333Y-36860038D01*
X16425557Y-37002083D01*
X16162308Y-37264873D01*
X16019662Y-37608401D01*
X16019338Y-37980367D01*
X16108807Y-38196900D01*
X15163032Y-38196900D01*
X11673093Y-34706961D01*
X11673140Y-34652615D01*
X11462731Y-34143385D01*
X11364471Y-34044954D01*
X11666843Y-33920017D01*
X11930092Y-33657227D01*
X12072738Y-33313699D01*
X12073062Y-32941733D01*
X11931017Y-32597957D01*
X11677497Y-32343994D01*
X11929986Y-32239667D01*
X12249545Y-31920665D01*
X12422703Y-31503656D01*
X12423097Y-31052125D01*
X12323761Y-30811714D01*
X12762675Y-30812097D01*
X13179986Y-30639667D01*
X13187767Y-30631900D01*
X14140460Y-30631900D01*
X14140460Y-30671900D01*
X14140460Y-30671900D01*
G37*
X14140460Y-30671900D02*
X14153880Y-30743223D01*
X14152900Y-30745590D01*
X14152900Y-30825650D01*
X14173212Y-30845962D01*
X14184738Y-30907217D01*
X14309959Y-31101816D01*
X14249573Y-31162201D01*
X14172303Y-31348747D01*
X14152900Y-31368150D01*
X14152900Y-31475650D01*
X14172303Y-31495053D01*
X14249573Y-31681599D01*
X14314874Y-31746900D01*
X14249573Y-31812201D01*
X14172303Y-31998747D01*
X14152900Y-32018150D01*
X14152900Y-32125650D01*
X14172303Y-32145053D01*
X14191082Y-32190389D01*
X14074699Y-32142062D01*
X13702733Y-32141738D01*
X13358957Y-32283783D01*
X13095708Y-32546573D01*
X13056191Y-32641741D01*
X13052733Y-32641738D01*
X12708957Y-32783783D01*
X12445708Y-33046573D01*
X12303062Y-33390101D01*
X12302738Y-33762067D01*
X12444783Y-34105843D01*
X12707573Y-34369092D01*
X13051101Y-34511738D01*
X13423067Y-34512062D01*
X13617074Y-34431900D01*
X14152900Y-34431900D01*
X14152900Y-34473902D01*
X14297148Y-34473902D01*
X14152900Y-34618150D01*
X14152900Y-34698210D01*
X14249573Y-34931599D01*
X14428202Y-35110227D01*
X14661591Y-35206900D01*
X15252150Y-35206900D01*
X15410900Y-35048150D01*
X15410900Y-34569340D01*
X15664900Y-34569340D01*
X15664900Y-35048150D01*
X15823650Y-35206900D01*
X16414209Y-35206900D01*
X16647598Y-35110227D01*
X16826227Y-34931599D01*
X16922900Y-34698210D01*
X16922900Y-34618150D01*
X16778652Y-34473902D01*
X16922900Y-34473902D01*
X16922900Y-34431900D01*
X17303454Y-34431900D01*
X19182123Y-36310570D01*
X18945708Y-36546573D01*
X18803062Y-36890101D01*
X18802738Y-37262067D01*
X18918734Y-37542800D01*
X17861882Y-37542800D01*
X17747617Y-37266257D01*
X17484827Y-37003008D01*
X17141299Y-36860362D01*
X16769333Y-36860038D01*
X16425557Y-37002083D01*
X16162308Y-37264873D01*
X16019662Y-37608401D01*
X16019338Y-37980367D01*
X16108807Y-38196900D01*
X15163032Y-38196900D01*
X11673093Y-34706961D01*
X11673140Y-34652615D01*
X11462731Y-34143385D01*
X11364471Y-34044954D01*
X11666843Y-33920017D01*
X11930092Y-33657227D01*
X12072738Y-33313699D01*
X12073062Y-32941733D01*
X11931017Y-32597957D01*
X11677497Y-32343994D01*
X11929986Y-32239667D01*
X12249545Y-31920665D01*
X12422703Y-31503656D01*
X12423097Y-31052125D01*
X12323761Y-30811714D01*
X12762675Y-30812097D01*
X13179986Y-30639667D01*
X13187767Y-30631900D01*
X14140460Y-30631900D01*
X14140460Y-30671900D01*
G36*
X21564900Y-34398150D02*
X21584900Y-34418150D01*
X21584900Y-34459400D01*
X21564900Y-34459400D01*
X21564900Y-34493900D01*
X21310900Y-34493900D01*
X21310900Y-34459400D01*
X21249650Y-34459400D01*
X21310900Y-34398150D01*
X21310900Y-34199900D01*
X21564900Y-34199900D01*
X21564900Y-34398150D01*
X21564900Y-34398150D01*
G37*
X21564900Y-34398150D02*
X21584900Y-34418150D01*
X21584900Y-34459400D01*
X21564900Y-34459400D01*
X21564900Y-34493900D01*
X21310900Y-34493900D01*
X21310900Y-34459400D01*
X21249650Y-34459400D01*
X21310900Y-34398150D01*
X21310900Y-34199900D01*
X21564900Y-34199900D01*
X21564900Y-34398150D01*
G36*
X15664900Y-31893900D02*
X15410900Y-31893900D01*
X15410900Y-31599900D01*
X15664900Y-31599900D01*
X15664900Y-31893900D01*
X15664900Y-31893900D01*
G37*
X15664900Y-31893900D02*
X15410900Y-31893900D01*
X15410900Y-31599900D01*
X15664900Y-31599900D01*
X15664900Y-31893900D01*
G36*
X2783573Y-11632598D02*
X2924810Y-11773836D01*
X2870459Y-11808810D01*
X2754988Y-11977808D01*
X2728227Y-11913202D01*
X2586990Y-11771964D01*
X2641341Y-11736990D01*
X2756812Y-11567992D01*
X2783573Y-11632598D01*
X2783573Y-11632598D01*
G37*
X2783573Y-11632598D02*
X2924810Y-11773836D01*
X2870459Y-11808810D01*
X2754988Y-11977808D01*
X2728227Y-11913202D01*
X2586990Y-11771964D01*
X2641341Y-11736990D01*
X2756812Y-11567992D01*
X2783573Y-11632598D01*
G36*
X3942007Y-8446623D02*
X3985334Y-8511466D01*
X4160900Y-8687032D01*
X4160900Y-9437900D01*
X4057650Y-9437900D01*
X3898900Y-9596650D01*
X3898900Y-10545900D01*
X3918900Y-10545900D01*
X3918900Y-10799900D01*
X3898900Y-10799900D01*
X3898900Y-10819900D01*
X3644900Y-10819900D01*
X3644900Y-10799900D01*
X3624900Y-10799900D01*
X3624900Y-10545900D01*
X3644900Y-10545900D01*
X3644900Y-9596650D01*
X3486150Y-9437900D01*
X3195590Y-9437900D01*
X2962201Y-9534573D01*
X2783573Y-9713202D01*
X2755945Y-9779902D01*
X2674755Y-9653729D01*
X2675062Y-9301733D01*
X2533017Y-8957957D01*
X2270227Y-8694708D01*
X1926699Y-8552062D01*
X1554733Y-8551738D01*
X1210957Y-8693783D01*
X947708Y-8956573D01*
X805062Y-9300101D01*
X804750Y-9658145D01*
X753657Y-9732922D01*
X755318Y-8402459D01*
X1848440Y-8388964D01*
X1951219Y-8431642D01*
X2541989Y-8432157D01*
X2671103Y-8378808D01*
X3886667Y-8363801D01*
X3942007Y-8446623D01*
X3942007Y-8446623D01*
G37*
X3942007Y-8446623D02*
X3985334Y-8511466D01*
X4160900Y-8687032D01*
X4160900Y-9437900D01*
X4057650Y-9437900D01*
X3898900Y-9596650D01*
X3898900Y-10545900D01*
X3918900Y-10545900D01*
X3918900Y-10799900D01*
X3898900Y-10799900D01*
X3898900Y-10819900D01*
X3644900Y-10819900D01*
X3644900Y-10799900D01*
X3624900Y-10799900D01*
X3624900Y-10545900D01*
X3644900Y-10545900D01*
X3644900Y-9596650D01*
X3486150Y-9437900D01*
X3195590Y-9437900D01*
X2962201Y-9534573D01*
X2783573Y-9713202D01*
X2755945Y-9779902D01*
X2674755Y-9653729D01*
X2675062Y-9301733D01*
X2533017Y-8957957D01*
X2270227Y-8694708D01*
X1926699Y-8552062D01*
X1554733Y-8551738D01*
X1210957Y-8693783D01*
X947708Y-8956573D01*
X805062Y-9300101D01*
X804750Y-9658145D01*
X753657Y-9732922D01*
X755318Y-8402459D01*
X1848440Y-8388964D01*
X1951219Y-8431642D01*
X2541989Y-8432157D01*
X2671103Y-8378808D01*
X3886667Y-8363801D01*
X3942007Y-8446623D01*
G36*
X61832900Y-2263902D02*
X61870681Y-2263902D01*
X61856342Y-2334708D01*
X61832900Y-2358150D01*
X61832900Y-2388209D01*
X61841368Y-2408653D01*
X61820460Y-2511900D01*
X61820460Y-2761900D01*
X61840350Y-2867605D01*
X61832900Y-2885591D01*
X61832900Y-2915650D01*
X61853212Y-2935962D01*
X61853336Y-2936623D01*
X61746628Y-2957849D01*
X61508176Y-3117177D01*
X61418177Y-3207177D01*
X61258849Y-3445628D01*
X61202900Y-3726900D01*
X61202900Y-5142043D01*
X61142437Y-5141990D01*
X60672900Y-4672454D01*
X60672900Y-3376900D01*
X60616951Y-3095628D01*
X60574206Y-3031655D01*
X60457623Y-2857176D01*
X60217623Y-2617177D01*
X59979172Y-2457849D01*
X59697900Y-2401900D01*
X59494642Y-2401900D01*
X59490956Y-2382311D01*
X59515340Y-2261900D01*
X59515340Y-2239900D01*
X61832900Y-2239900D01*
X61832900Y-2263902D01*
X61832900Y-2263902D01*
G37*
X61832900Y-2263902D02*
X61870681Y-2263902D01*
X61856342Y-2334708D01*
X61832900Y-2358150D01*
X61832900Y-2388209D01*
X61841368Y-2408653D01*
X61820460Y-2511900D01*
X61820460Y-2761900D01*
X61840350Y-2867605D01*
X61832900Y-2885591D01*
X61832900Y-2915650D01*
X61853212Y-2935962D01*
X61853336Y-2936623D01*
X61746628Y-2957849D01*
X61508176Y-3117177D01*
X61418177Y-3207177D01*
X61258849Y-3445628D01*
X61202900Y-3726900D01*
X61202900Y-5142043D01*
X61142437Y-5141990D01*
X60672900Y-4672454D01*
X60672900Y-3376900D01*
X60616951Y-3095628D01*
X60574206Y-3031655D01*
X60457623Y-2857176D01*
X60217623Y-2617177D01*
X59979172Y-2457849D01*
X59697900Y-2401900D01*
X59494642Y-2401900D01*
X59490956Y-2382311D01*
X59515340Y-2261900D01*
X59515340Y-2239900D01*
X61832900Y-2239900D01*
X61832900Y-2263902D01*
M02*
