G04 #@! TF.FileFunction,Legend,Top*
%FSLAX46Y46*%
G04 Gerber Fmt 4.6, Leading zero omitted, Abs format (unit mm)*
G04 Created by KiCad (PCBNEW 4.0.0-rc1-stable) date 18.11.2015 07:04:15*
%MOMM*%
G01*
G04 APERTURE LIST*
%ADD10C,0.020000*%
%ADD11C,0.400000*%
%ADD12C,0.150000*%
G04 APERTURE END LIST*
D10*
D11*
X84152184Y-45134043D02*
X84409327Y-45005471D01*
X84923613Y-45005471D01*
X85180756Y-45134043D01*
X85309327Y-45391186D01*
X85309327Y-46419757D01*
X85180756Y-46676900D01*
X84923613Y-46805471D01*
X84409327Y-46805471D01*
X84152184Y-46676900D01*
X84023613Y-46419757D01*
X84023613Y-46162614D01*
X85309327Y-45905471D01*
X82995041Y-45134043D02*
X82737898Y-45005471D01*
X82223613Y-45005471D01*
X81966470Y-45134043D01*
X81837898Y-45391186D01*
X81837898Y-45519757D01*
X81966470Y-45776900D01*
X82223613Y-45905471D01*
X82609327Y-45905471D01*
X82866470Y-46034043D01*
X82995041Y-46291186D01*
X82995041Y-46419757D01*
X82866470Y-46676900D01*
X82609327Y-46805471D01*
X82223613Y-46805471D01*
X81966470Y-46676900D01*
X80680756Y-46805471D02*
X80680756Y-44105471D01*
X80680756Y-46676900D02*
X80423613Y-46805471D01*
X79909327Y-46805471D01*
X79652184Y-46676900D01*
X79523613Y-46548329D01*
X79395042Y-46291186D01*
X79395042Y-45519757D01*
X79523613Y-45262614D01*
X79652184Y-45134043D01*
X79909327Y-45005471D01*
X80423613Y-45005471D01*
X80680756Y-45134043D01*
X78237899Y-45005471D02*
X78237899Y-46805471D01*
X78237899Y-47705471D02*
X78366470Y-47576900D01*
X78237899Y-47448329D01*
X78109327Y-47576900D01*
X78237899Y-47705471D01*
X78237899Y-47448329D01*
X77337899Y-46805471D02*
X76309328Y-46805471D01*
X76952185Y-47705471D02*
X76952185Y-45391186D01*
X76823613Y-45134043D01*
X76566471Y-45005471D01*
X76309328Y-45005471D01*
X75409328Y-45262614D02*
X75280756Y-45134043D01*
X75409328Y-45005471D01*
X75537899Y-45134043D01*
X75409328Y-45262614D01*
X75409328Y-45005471D01*
X72966471Y-46805471D02*
X72966471Y-44619757D01*
X73095042Y-44362614D01*
X73223614Y-44234043D01*
X73480757Y-44105471D01*
X73866471Y-44105471D01*
X74123614Y-44234043D01*
X72966471Y-45134043D02*
X73223614Y-45005471D01*
X73737900Y-45005471D01*
X73995042Y-45134043D01*
X74123614Y-45262614D01*
X74252185Y-45519757D01*
X74252185Y-46291186D01*
X74123614Y-46548329D01*
X73995042Y-46676900D01*
X73737900Y-46805471D01*
X73223614Y-46805471D01*
X72966471Y-46676900D01*
X71680757Y-45005471D02*
X71680757Y-46805471D01*
X71680757Y-47705471D02*
X71809328Y-47576900D01*
X71680757Y-47448329D01*
X71552185Y-47576900D01*
X71680757Y-47705471D01*
X71680757Y-47448329D01*
X70780757Y-46805471D02*
X69752186Y-46805471D01*
X70395043Y-47705471D02*
X70395043Y-45391186D01*
X70266471Y-45134043D01*
X70009329Y-45005471D01*
X69752186Y-45005471D01*
X68852186Y-45005471D02*
X68852186Y-47705471D01*
X67695043Y-45005471D02*
X67695043Y-46419757D01*
X67823614Y-46676900D01*
X68080757Y-46805471D01*
X68466472Y-46805471D01*
X68723614Y-46676900D01*
X68852186Y-46548329D01*
X65252186Y-46805471D02*
X65252186Y-45005471D01*
X66409329Y-46805471D02*
X66409329Y-45391186D01*
X66280757Y-45134043D01*
X66023615Y-45005471D01*
X65637900Y-45005471D01*
X65380757Y-45134043D01*
X65252186Y-45262614D01*
X63966472Y-45005471D02*
X63966472Y-47705471D01*
X63966472Y-46676900D02*
X63709329Y-46805471D01*
X63195043Y-46805471D01*
X62937900Y-46676900D01*
X62809329Y-46548329D01*
X62680758Y-46291186D01*
X62680758Y-45519757D01*
X62809329Y-45262614D01*
X62937900Y-45134043D01*
X63195043Y-45005471D01*
X63709329Y-45005471D01*
X63966472Y-45134043D01*
X61523615Y-45262614D02*
X61395043Y-45134043D01*
X61523615Y-45005471D01*
X61652186Y-45134043D01*
X61523615Y-45262614D01*
X61523615Y-45005471D01*
X60237901Y-45005471D02*
X60237901Y-46805471D01*
X60237901Y-47705471D02*
X60366472Y-47576900D01*
X60237901Y-47448329D01*
X60109329Y-47576900D01*
X60237901Y-47705471D01*
X60237901Y-47448329D01*
X58566473Y-45005471D02*
X58823615Y-45134043D01*
X58952187Y-45262614D01*
X59080758Y-45519757D01*
X59080758Y-46291186D01*
X58952187Y-46548329D01*
X58823615Y-46676900D01*
X58566473Y-46805471D01*
X58180758Y-46805471D01*
X57923615Y-46676900D01*
X57795044Y-46548329D01*
X57666473Y-46291186D01*
X57666473Y-45519757D01*
X57795044Y-45262614D01*
X57923615Y-45134043D01*
X58180758Y-45005471D01*
X58566473Y-45005471D01*
D12*
X54809300Y-6342200D02*
X54809300Y-8242200D01*
X55909300Y-6342200D02*
X55909300Y-8242200D01*
X55359300Y-7242200D02*
X55359300Y-7692200D01*
X55609300Y-7192200D02*
X55109300Y-7192200D01*
X55359300Y-7192200D02*
X55609300Y-7442200D01*
X55609300Y-7442200D02*
X55109300Y-7442200D01*
X55109300Y-7442200D02*
X55359300Y-7192200D01*
X26462900Y-13212900D02*
X26462900Y-15112900D01*
X27562900Y-13212900D02*
X27562900Y-15112900D01*
X27012900Y-14112900D02*
X27012900Y-14562900D01*
X27262900Y-14062900D02*
X26762900Y-14062900D01*
X27012900Y-14062900D02*
X27262900Y-14312900D01*
X27262900Y-14312900D02*
X26762900Y-14312900D01*
X26762900Y-14312900D02*
X27012900Y-14062900D01*
X41212900Y-4001900D02*
X38212900Y-4001900D01*
X38212900Y-1001900D02*
X41212900Y-1001900D01*
X72732900Y-1866900D02*
X72732900Y-2120900D01*
X72732900Y-4152900D02*
X72732900Y-4406900D01*
X67652900Y-4406900D02*
X67652900Y-4279900D01*
X67652900Y-1866900D02*
X67652900Y-2120900D01*
X67652900Y-4279900D02*
X67652900Y-4152900D01*
X68287900Y-1866900D02*
X68287900Y-2120900D01*
X68287900Y-4406900D02*
X68287900Y-4152900D01*
X69684900Y-4406900D02*
X69684900Y-1866900D01*
X72732900Y-4406900D02*
X67652900Y-4406900D01*
X67652900Y-1866900D02*
X72732900Y-1866900D01*
X36339900Y-23224900D02*
X33571300Y-23224900D01*
X29735900Y-23224900D02*
X32504500Y-23224900D01*
X35527100Y-29828900D02*
X33571300Y-29828900D01*
X30548700Y-29828900D02*
X32504500Y-29828900D01*
X30537900Y-29826900D02*
X29737900Y-29026900D01*
X36337900Y-29026900D02*
X35537900Y-29826900D01*
X29737900Y-29026900D02*
X29737900Y-23226900D01*
X36337900Y-29026900D02*
X36337900Y-23226900D01*
X81241900Y-19138900D02*
X81241900Y-16370300D01*
X81241900Y-12534900D02*
X81241900Y-15303500D01*
X74637900Y-18326100D02*
X74637900Y-16370300D01*
X74637900Y-13347700D02*
X74637900Y-15303500D01*
X74639900Y-13336900D02*
X75439900Y-12536900D01*
X75439900Y-19136900D02*
X74639900Y-18336900D01*
X75439900Y-12536900D02*
X81239900Y-12536900D01*
X75439900Y-19136900D02*
X81239900Y-19136900D01*
X70573900Y-22948900D02*
X70573900Y-20180300D01*
X70573900Y-16344900D02*
X70573900Y-19113500D01*
X63969900Y-22136100D02*
X63969900Y-20180300D01*
X63969900Y-17157700D02*
X63969900Y-19113500D01*
X63971900Y-17146900D02*
X64771900Y-16346900D01*
X64771900Y-22946900D02*
X63971900Y-22146900D01*
X64771900Y-16346900D02*
X70571900Y-16346900D01*
X64771900Y-22946900D02*
X70571900Y-22946900D01*
X79590900Y-41363900D02*
X82359500Y-41363900D01*
X86194900Y-41363900D02*
X83426300Y-41363900D01*
X80403700Y-34759900D02*
X82359500Y-34759900D01*
X85382100Y-34759900D02*
X83426300Y-34759900D01*
X85392900Y-34761900D02*
X86192900Y-35561900D01*
X79592900Y-35561900D02*
X80392900Y-34761900D01*
X86192900Y-35561900D02*
X86192900Y-41361900D01*
X79592900Y-35561900D02*
X79592900Y-41361900D01*
X88099900Y-1739900D02*
X85331300Y-1739900D01*
X81495900Y-1739900D02*
X84264500Y-1739900D01*
X87287100Y-8343900D02*
X85331300Y-8343900D01*
X82308700Y-8343900D02*
X84264500Y-8343900D01*
X82297900Y-8341900D02*
X81497900Y-7541900D01*
X88097900Y-7541900D02*
X87297900Y-8341900D01*
X81497900Y-7541900D02*
X81497900Y-1741900D01*
X88097900Y-7541900D02*
X88097900Y-1741900D01*
X57086500Y-14135100D02*
X59270900Y-14135100D01*
X61683900Y-14135100D02*
X61023500Y-14135100D01*
X57086500Y-13398500D02*
X57086500Y-14135100D01*
X57086500Y-3771900D02*
X57086500Y-11671300D01*
X57086500Y368300D02*
X57086500Y-2527300D01*
X61683900Y-5753100D02*
X61683900Y-14135100D01*
X61683900Y368300D02*
X61683900Y-4508500D01*
X61697900Y363100D02*
X57097900Y363100D01*
X85432900Y-25361900D02*
X85178900Y-25361900D01*
X83146900Y-25361900D02*
X82892900Y-25361900D01*
X82892900Y-20281900D02*
X83019900Y-20281900D01*
X85432900Y-20281900D02*
X85178900Y-20281900D01*
X83019900Y-20281900D02*
X83146900Y-20281900D01*
X85432900Y-20916900D02*
X85178900Y-20916900D01*
X82892900Y-20916900D02*
X83146900Y-20916900D01*
X82892900Y-22313900D02*
X85432900Y-22313900D01*
X82892900Y-25361900D02*
X82892900Y-20281900D01*
X85432900Y-20281900D02*
X85432900Y-25361900D01*
X91401900Y-14566900D02*
X91401900Y-14820900D01*
X91401900Y-16852900D02*
X91401900Y-17106900D01*
X86321900Y-17106900D02*
X86321900Y-16979900D01*
X86321900Y-14566900D02*
X86321900Y-14820900D01*
X86321900Y-16979900D02*
X86321900Y-16852900D01*
X86956900Y-14566900D02*
X86956900Y-14820900D01*
X86956900Y-17106900D02*
X86956900Y-16852900D01*
X88353900Y-17106900D02*
X88353900Y-14566900D01*
X91401900Y-17106900D02*
X86321900Y-17106900D01*
X86321900Y-14566900D02*
X91401900Y-14566900D01*
X27812900Y-20856900D02*
X812900Y-20856900D01*
X27812900Y-48856900D02*
X27812900Y-20856900D01*
X812900Y-48856900D02*
X812900Y-20856900D01*
X27812900Y-48856900D02*
X812900Y-48856900D01*
X14018900Y-6557900D02*
X14018900Y-5557900D01*
X15368900Y-5557900D02*
X15368900Y-6557900D01*
X10208900Y-6557900D02*
X10208900Y-5557900D01*
X11558900Y-5557900D02*
X11558900Y-6557900D01*
X12113900Y-6557900D02*
X12113900Y-5557900D01*
X13463900Y-5557900D02*
X13463900Y-6557900D01*
X70827900Y-10351900D02*
X70827900Y-11351900D01*
X70827900Y-7351900D02*
X70827900Y-6351900D01*
X67327900Y-6351900D02*
X70827900Y-6351900D01*
X70827900Y-11351900D02*
X67327900Y-11351900D01*
X69227900Y-31476900D02*
G75*
G03X69227900Y-31476900I-100000J0D01*
G01*
X69377900Y-30826900D02*
X69377900Y-31326900D01*
X72277900Y-30826900D02*
X69377900Y-30826900D01*
X72277900Y-31326900D02*
X72277900Y-30826900D01*
X69377900Y-31326900D02*
X72277900Y-31326900D01*
X73327900Y-35196900D02*
X73327900Y-42196900D01*
X73327900Y-42196900D02*
X68327900Y-42196900D01*
X68327900Y-42196900D02*
X68327900Y-35196900D01*
X68327900Y-35196900D02*
X73327900Y-35196900D01*
X45117900Y-13891900D02*
X38117900Y-13891900D01*
X38117900Y-13891900D02*
X38117900Y-8891900D01*
X38117900Y-8891900D02*
X45117900Y-8891900D01*
X45117900Y-8891900D02*
X45117900Y-13891900D01*
X53372900Y-13891900D02*
X46372900Y-13891900D01*
X46372900Y-13891900D02*
X46372900Y-8891900D01*
X46372900Y-8891900D02*
X53372900Y-8891900D01*
X53372900Y-8891900D02*
X53372900Y-13891900D01*
X36862900Y-13891900D02*
X29862900Y-13891900D01*
X29862900Y-13891900D02*
X29862900Y-8891900D01*
X29862900Y-8891900D02*
X36862900Y-8891900D01*
X36862900Y-8891900D02*
X36862900Y-13891900D01*
X94817900Y-38966900D02*
X94817900Y-37466900D01*
X94817900Y-37466900D02*
X95817900Y-37466900D01*
X99317900Y-47466900D02*
X99317900Y-38966900D01*
X97317900Y-48716900D02*
X98067900Y-48716900D01*
X95567900Y-48716900D02*
X94817900Y-48716900D01*
X94817900Y-48716900D02*
X94817900Y-47966900D01*
X91647900Y-26671900D02*
X90647900Y-26671900D01*
X90647900Y-25321900D02*
X91647900Y-25321900D01*
X90647900Y-22781900D02*
X91647900Y-22781900D01*
X91647900Y-24131900D02*
X90647900Y-24131900D01*
X60532900Y-38101900D02*
X59532900Y-38101900D01*
X59532900Y-36751900D02*
X60532900Y-36751900D01*
X63882900Y-37561900D02*
X63882900Y-38561900D01*
X62532900Y-38561900D02*
X62532900Y-37561900D01*
X68533900Y-24893900D02*
X67533900Y-24893900D01*
X67533900Y-23543900D02*
X68533900Y-23543900D01*
X72692900Y-22432900D02*
X72692900Y-21432900D01*
X74042900Y-21432900D02*
X74042900Y-22432900D01*
X70914900Y-25988900D02*
X70914900Y-24988900D01*
X72264900Y-24988900D02*
X72264900Y-25988900D01*
X59532900Y-38656900D02*
X60532900Y-38656900D01*
X60532900Y-40006900D02*
X59532900Y-40006900D01*
X44832900Y-19146900D02*
X44832900Y-20146900D01*
X43482900Y-20146900D02*
X43482900Y-19146900D01*
X39752900Y-19146900D02*
X39752900Y-20146900D01*
X38402900Y-20146900D02*
X38402900Y-19146900D01*
X53087900Y-19146900D02*
X53087900Y-20146900D01*
X51737900Y-20146900D02*
X51737900Y-19146900D01*
X48007900Y-19146900D02*
X48007900Y-20146900D01*
X46657900Y-20146900D02*
X46657900Y-19146900D01*
X29687900Y-21401900D02*
X30687900Y-21401900D01*
X30687900Y-22751900D02*
X29687900Y-22751900D01*
X36512900Y-19326900D02*
X36512900Y-18326900D01*
X37862900Y-18326900D02*
X37862900Y-19326900D01*
X12079900Y-11835900D02*
X12079900Y-10185900D01*
X9179900Y-10185900D02*
X9179900Y-11835900D01*
X9179900Y-11835900D02*
X12079900Y-11835900D01*
X9179900Y-10185900D02*
X12079900Y-10185900D01*
X7700780Y-10195900D02*
X6050780Y-10195900D01*
X6050780Y-13095900D02*
X7700780Y-13095900D01*
X7700780Y-13095900D02*
X7700780Y-10195900D01*
X6050780Y-13095900D02*
X6050780Y-10195900D01*
X3199900Y-10195900D02*
X1549900Y-10195900D01*
X1549900Y-13095900D02*
X3199900Y-13095900D01*
X3199900Y-13095900D02*
X3199900Y-10195900D01*
X1549900Y-13095900D02*
X1549900Y-10195900D01*
X95052900Y-7601900D02*
X96802900Y-7601900D01*
X96802900Y-7601900D02*
X96802900Y-5101900D01*
X89302900Y-5101900D02*
X89302900Y-7601900D01*
X89302900Y-7601900D02*
X91052900Y-7601900D01*
X95302900Y-1601900D02*
X90802900Y-1601900D01*
X88357900Y-41241900D02*
X88857900Y-41241900D01*
X88857900Y-40191900D02*
X88357900Y-40191900D01*
X88857900Y-38921900D02*
X88357900Y-38921900D01*
X88357900Y-39971900D02*
X88857900Y-39971900D01*
X85567900Y-32186900D02*
X85567900Y-27186900D01*
X85567900Y-27186900D02*
X89567900Y-27186900D01*
X89567900Y-27186900D02*
X89567900Y-32186900D01*
X89567900Y-32186900D02*
X85567900Y-32186900D01*
X23922900Y-13212900D02*
X23922900Y-15112900D01*
X25022900Y-13212900D02*
X25022900Y-15112900D01*
X24472900Y-14112900D02*
X24472900Y-14562900D01*
X24722900Y-14062900D02*
X24222900Y-14062900D01*
X24472900Y-14062900D02*
X24722900Y-14312900D01*
X24722900Y-14312900D02*
X24222900Y-14312900D01*
X24222900Y-14312900D02*
X24472900Y-14062900D01*
X45012900Y-2276900D02*
X45012900Y-2776900D01*
X45962900Y-2776900D02*
X45962900Y-2276900D01*
X87722900Y-34091900D02*
X88222900Y-34091900D01*
X88222900Y-33141900D02*
X87722900Y-33141900D01*
X60887900Y-41751900D02*
X61387900Y-41751900D01*
X61387900Y-40801900D02*
X60887900Y-40801900D01*
X67558900Y-30826900D02*
X67558900Y-31326900D01*
X68508900Y-31326900D02*
X68508900Y-30826900D01*
D10*
X76112900Y-30441900D02*
G75*
G03X76112900Y-30441900I-840000J0D01*
G01*
X78652900Y-30441900D02*
G75*
G03X78652900Y-30441900I-840000J0D01*
G01*
X81192900Y-30441900D02*
G75*
G03X81192900Y-30441900I-840000J0D01*
G01*
X11342900Y-47586900D02*
G75*
G03X11342900Y-47586900I-840000J0D01*
G01*
X13882900Y-47586900D02*
G75*
G03X13882900Y-47586900I-840000J0D01*
G01*
X16422900Y-47586900D02*
G75*
G03X16422900Y-47586900I-840000J0D01*
G01*
X18962900Y-47586900D02*
G75*
G03X18962900Y-47586900I-840000J0D01*
G01*
X22772900Y-9486900D02*
G75*
G03X22772900Y-9486900I-840000J0D01*
G01*
X22772900Y-6946900D02*
G75*
G03X22772900Y-6946900I-840000J0D01*
G01*
X22772900Y-4406900D02*
G75*
G03X22772900Y-4406900I-840000J0D01*
G01*
X22772900Y-1866900D02*
G75*
G03X22772900Y-1866900I-840000J0D01*
G01*
X25312900Y-9486900D02*
G75*
G03X25312900Y-9486900I-840000J0D01*
G01*
X25312900Y-6946900D02*
G75*
G03X25312900Y-6946900I-840000J0D01*
G01*
X25312900Y-4406900D02*
G75*
G03X25312900Y-4406900I-840000J0D01*
G01*
X25312900Y-1866900D02*
G75*
G03X25312900Y-1866900I-840000J0D01*
G01*
X27852900Y-9486900D02*
G75*
G03X27852900Y-9486900I-840000J0D01*
G01*
X27852900Y-6946900D02*
G75*
G03X27852900Y-6946900I-840000J0D01*
G01*
X27852900Y-4406900D02*
G75*
G03X27852900Y-4406900I-840000J0D01*
G01*
X27852900Y-1866900D02*
G75*
G03X27852900Y-1866900I-840000J0D01*
G01*
X3087900Y-6946900D02*
G75*
G03X3087900Y-6946900I-840000J0D01*
G01*
X3087900Y-4406900D02*
G75*
G03X3087900Y-4406900I-840000J0D01*
G01*
X3087900Y-1866900D02*
G75*
G03X3087900Y-1866900I-840000J0D01*
G01*
X19597900Y-9486900D02*
G75*
G03X19597900Y-9486900I-840000J0D01*
G01*
X19597900Y-6946900D02*
G75*
G03X19597900Y-6946900I-840000J0D01*
G01*
X19597900Y-4406900D02*
G75*
G03X19597900Y-4406900I-840000J0D01*
G01*
X19597900Y-1866900D02*
G75*
G03X19597900Y-1866900I-840000J0D01*
G01*
X5627900Y-6946900D02*
G75*
G03X5627900Y-6946900I-840000J0D01*
G01*
X5627900Y-4406900D02*
G75*
G03X5627900Y-4406900I-840000J0D01*
G01*
X5627900Y-1866900D02*
G75*
G03X5627900Y-1866900I-840000J0D01*
G01*
X8167900Y-6946900D02*
G75*
G03X8167900Y-6946900I-840000J0D01*
G01*
X8167900Y-4406900D02*
G75*
G03X8167900Y-4406900I-840000J0D01*
G01*
X8167900Y-1866900D02*
G75*
G03X8167900Y-1866900I-840000J0D01*
G01*
X98337900Y-10756900D02*
G75*
G03X98337900Y-10756900I-840000J0D01*
G01*
X98337900Y-13296900D02*
G75*
G03X98337900Y-13296900I-840000J0D01*
G01*
X98337900Y-15836900D02*
G75*
G03X98337900Y-15836900I-840000J0D01*
G01*
X98337900Y-18376900D02*
G75*
G03X98337900Y-18376900I-840000J0D01*
G01*
X98337900Y-20916900D02*
G75*
G03X98337900Y-20916900I-840000J0D01*
G01*
X69889900Y-13804900D02*
G75*
G03X69889900Y-13804900I-840000J0D01*
G01*
X67349900Y-13804900D02*
G75*
G03X67349900Y-13804900I-840000J0D01*
G01*
X48807900Y-3771900D02*
G75*
G03X48807900Y-3771900I-840000J0D01*
G01*
X51347900Y-3771900D02*
G75*
G03X51347900Y-3771900I-840000J0D01*
G01*
X32297900Y-38061900D02*
G75*
G03X32297900Y-38061900I-840000J0D01*
G01*
X34837900Y-38061900D02*
G75*
G03X34837900Y-38061900I-840000J0D01*
G01*
X34837900Y-41236900D02*
G75*
G03X34837900Y-41236900I-840000J0D01*
G01*
X32297900Y-41236900D02*
G75*
G03X32297900Y-41236900I-840000J0D01*
G01*
X81192900Y-27266900D02*
G75*
G03X81192900Y-27266900I-840000J0D01*
G01*
X78652900Y-27266900D02*
G75*
G03X78652900Y-27266900I-840000J0D01*
G01*
X59475900Y-20662900D02*
G75*
G03X59475900Y-20662900I-840000J0D01*
G01*
X62015900Y-20662900D02*
G75*
G03X62015900Y-20662900I-840000J0D01*
G01*
X81827900Y-23456900D02*
G75*
G03X81827900Y-23456900I-840000J0D01*
G01*
X81827900Y-20916900D02*
G75*
G03X81827900Y-20916900I-840000J0D01*
G01*
X32297900Y-3771900D02*
G75*
G03X32297900Y-3771900I-840000J0D01*
G01*
X34837900Y-3771900D02*
G75*
G03X34837900Y-3771900I-840000J0D01*
G01*
X28797900Y-18376900D02*
G75*
G03X28797900Y-18376900I-840000J0D01*
G01*
X31337900Y-18376900D02*
G75*
G03X31337900Y-18376900I-840000J0D01*
G01*
X33877900Y-18376900D02*
G75*
G03X33877900Y-18376900I-840000J0D01*
G01*
X25312900Y-18376900D02*
G75*
G03X25312900Y-18376900I-840000J0D01*
G01*
X22772900Y-18376900D02*
G75*
G03X22772900Y-18376900I-840000J0D01*
G01*
X3087900Y-16471900D02*
G75*
G03X3087900Y-16471900I-840000J0D01*
G01*
X3087900Y-19011900D02*
G75*
G03X3087900Y-19011900I-840000J0D01*
G01*
X6262900Y-16471900D02*
G75*
G03X6262900Y-16471900I-840000J0D01*
G01*
X6262900Y-19011900D02*
G75*
G03X6262900Y-19011900I-840000J0D01*
G01*
X9437900Y-16471900D02*
G75*
G03X9437900Y-16471900I-840000J0D01*
G01*
X9437900Y-19011900D02*
G75*
G03X9437900Y-19011900I-840000J0D01*
G01*
X14517900Y-12661900D02*
G75*
G03X14517900Y-12661900I-840000J0D01*
G01*
X17057900Y-12661900D02*
G75*
G03X17057900Y-12661900I-840000J0D01*
G01*
X19597900Y-12661900D02*
G75*
G03X19597900Y-12661900I-840000J0D01*
G01*
X14517900Y-15836900D02*
G75*
G03X14517900Y-15836900I-840000J0D01*
G01*
X17057900Y-15836900D02*
G75*
G03X17057900Y-15836900I-840000J0D01*
G01*
X19597900Y-15836900D02*
G75*
G03X19597900Y-15836900I-840000J0D01*
G01*
X14517900Y-19011900D02*
G75*
G03X14517900Y-19011900I-840000J0D01*
G01*
X17057900Y-19011900D02*
G75*
G03X17057900Y-19011900I-840000J0D01*
G01*
X19597900Y-19011900D02*
G75*
G03X19597900Y-19011900I-840000J0D01*
G01*
D12*
X66416181Y-11406095D02*
X65416181Y-11406095D01*
X65416181Y-11168000D01*
X65463800Y-11025142D01*
X65559038Y-10929904D01*
X65654276Y-10882285D01*
X65844752Y-10834666D01*
X65987610Y-10834666D01*
X66178086Y-10882285D01*
X66273324Y-10929904D01*
X66368562Y-11025142D01*
X66416181Y-11168000D01*
X66416181Y-11406095D01*
X65511419Y-10453714D02*
X65463800Y-10406095D01*
X65416181Y-10310857D01*
X65416181Y-10072761D01*
X65463800Y-9977523D01*
X65511419Y-9929904D01*
X65606657Y-9882285D01*
X65701895Y-9882285D01*
X65844752Y-9929904D01*
X66416181Y-10501333D01*
X66416181Y-9882285D01*
X53402053Y-5633981D02*
X52925862Y-5633981D01*
X52925862Y-4633981D01*
X53735386Y-5110171D02*
X54068720Y-5110171D01*
X54211577Y-5633981D02*
X53735386Y-5633981D01*
X53735386Y-4633981D01*
X54211577Y-4633981D01*
X54640148Y-5633981D02*
X54640148Y-4633981D01*
X54878243Y-4633981D01*
X55021101Y-4681600D01*
X55116339Y-4776838D01*
X55163958Y-4872076D01*
X55211577Y-5062552D01*
X55211577Y-5205410D01*
X55163958Y-5395886D01*
X55116339Y-5491124D01*
X55021101Y-5586362D01*
X54878243Y-5633981D01*
X54640148Y-5633981D01*
X56116339Y-4633981D02*
X55640148Y-4633981D01*
X55592529Y-5110171D01*
X55640148Y-5062552D01*
X55735386Y-5014933D01*
X55973482Y-5014933D01*
X56068720Y-5062552D01*
X56116339Y-5110171D01*
X56163958Y-5205410D01*
X56163958Y-5443505D01*
X56116339Y-5538743D01*
X56068720Y-5586362D01*
X55973482Y-5633981D01*
X55735386Y-5633981D01*
X55640148Y-5586362D01*
X55592529Y-5538743D01*
X76543377Y-31594281D02*
X76543377Y-32308567D01*
X76495757Y-32451424D01*
X76400519Y-32546662D01*
X76257662Y-32594281D01*
X76162424Y-32594281D01*
X77019567Y-32594281D02*
X77019567Y-31594281D01*
X77400520Y-31594281D01*
X77495758Y-31641900D01*
X77543377Y-31689519D01*
X77590996Y-31784757D01*
X77590996Y-31927614D01*
X77543377Y-32022852D01*
X77495758Y-32070471D01*
X77400520Y-32118090D01*
X77019567Y-32118090D01*
X78543377Y-32594281D02*
X77971948Y-32594281D01*
X78257662Y-32594281D02*
X78257662Y-31594281D01*
X78162424Y-31737138D01*
X78067186Y-31832376D01*
X77971948Y-31879995D01*
X78876710Y-31594281D02*
X79495758Y-31594281D01*
X79162424Y-31975233D01*
X79305282Y-31975233D01*
X79400520Y-32022852D01*
X79448139Y-32070471D01*
X79495758Y-32165710D01*
X79495758Y-32403805D01*
X79448139Y-32499043D01*
X79400520Y-32546662D01*
X79305282Y-32594281D01*
X79019567Y-32594281D01*
X78924329Y-32546662D01*
X78876710Y-32499043D01*
X28735281Y-15482747D02*
X28735281Y-15958938D01*
X27735281Y-15958938D01*
X28211471Y-15149414D02*
X28211471Y-14816080D01*
X28735281Y-14673223D02*
X28735281Y-15149414D01*
X27735281Y-15149414D01*
X27735281Y-14673223D01*
X28735281Y-14244652D02*
X27735281Y-14244652D01*
X27735281Y-14006557D01*
X27782900Y-13863699D01*
X27878138Y-13768461D01*
X27973376Y-13720842D01*
X28163852Y-13673223D01*
X28306710Y-13673223D01*
X28497186Y-13720842D01*
X28592424Y-13768461D01*
X28687662Y-13863699D01*
X28735281Y-14006557D01*
X28735281Y-14244652D01*
X28735281Y-12720842D02*
X28735281Y-13292271D01*
X28735281Y-13006557D02*
X27735281Y-13006557D01*
X27878138Y-13101795D01*
X27973376Y-13197033D01*
X28020995Y-13292271D01*
X38736710Y-5494281D02*
X38736710Y-4494281D01*
X39784329Y-5399043D02*
X39736710Y-5446662D01*
X39593853Y-5494281D01*
X39498615Y-5494281D01*
X39355757Y-5446662D01*
X39260519Y-5351424D01*
X39212900Y-5256186D01*
X39165281Y-5065710D01*
X39165281Y-4922852D01*
X39212900Y-4732376D01*
X39260519Y-4637138D01*
X39355757Y-4541900D01*
X39498615Y-4494281D01*
X39593853Y-4494281D01*
X39736710Y-4541900D01*
X39784329Y-4589519D01*
X40165281Y-4589519D02*
X40212900Y-4541900D01*
X40308138Y-4494281D01*
X40546234Y-4494281D01*
X40641472Y-4541900D01*
X40689091Y-4589519D01*
X40736710Y-4684757D01*
X40736710Y-4779995D01*
X40689091Y-4922852D01*
X40117662Y-5494281D01*
X40736710Y-5494281D01*
X69299805Y-1479281D02*
X69299805Y-479281D01*
X69537900Y-479281D01*
X69680758Y-526900D01*
X69775996Y-622138D01*
X69823615Y-717376D01*
X69871234Y-907852D01*
X69871234Y-1050710D01*
X69823615Y-1241186D01*
X69775996Y-1336424D01*
X69680758Y-1431662D01*
X69537900Y-1479281D01*
X69299805Y-1479281D01*
X70775996Y-479281D02*
X70299805Y-479281D01*
X70252186Y-955471D01*
X70299805Y-907852D01*
X70395043Y-860233D01*
X70633139Y-860233D01*
X70728377Y-907852D01*
X70775996Y-955471D01*
X70823615Y-1050710D01*
X70823615Y-1288805D01*
X70775996Y-1384043D01*
X70728377Y-1431662D01*
X70633139Y-1479281D01*
X70395043Y-1479281D01*
X70299805Y-1431662D01*
X70252186Y-1384043D01*
X36271234Y-30534043D02*
X36223615Y-30581662D01*
X36080758Y-30629281D01*
X35985520Y-30629281D01*
X35842662Y-30581662D01*
X35747424Y-30486424D01*
X35699805Y-30391186D01*
X35652186Y-30200710D01*
X35652186Y-30057852D01*
X35699805Y-29867376D01*
X35747424Y-29772138D01*
X35842662Y-29676900D01*
X35985520Y-29629281D01*
X36080758Y-29629281D01*
X36223615Y-29676900D01*
X36271234Y-29724519D01*
X37223615Y-30629281D02*
X36652186Y-30629281D01*
X36937900Y-30629281D02*
X36937900Y-29629281D01*
X36842662Y-29772138D01*
X36747424Y-29867376D01*
X36652186Y-29914995D01*
X73995043Y-17743566D02*
X74042662Y-17791185D01*
X74090281Y-17934042D01*
X74090281Y-18029280D01*
X74042662Y-18172138D01*
X73947424Y-18267376D01*
X73852186Y-18314995D01*
X73661710Y-18362614D01*
X73518852Y-18362614D01*
X73328376Y-18314995D01*
X73233138Y-18267376D01*
X73137900Y-18172138D01*
X73090281Y-18029280D01*
X73090281Y-17934042D01*
X73137900Y-17791185D01*
X73185519Y-17743566D01*
X73090281Y-16838804D02*
X73090281Y-17314995D01*
X73566471Y-17362614D01*
X73518852Y-17314995D01*
X73471233Y-17219757D01*
X73471233Y-16981661D01*
X73518852Y-16886423D01*
X73566471Y-16838804D01*
X73661710Y-16791185D01*
X73899805Y-16791185D01*
X73995043Y-16838804D01*
X74042662Y-16886423D01*
X74090281Y-16981661D01*
X74090281Y-17219757D01*
X74042662Y-17314995D01*
X73995043Y-17362614D01*
X63371234Y-23634043D02*
X63323615Y-23681662D01*
X63180758Y-23729281D01*
X63085520Y-23729281D01*
X62942662Y-23681662D01*
X62847424Y-23586424D01*
X62799805Y-23491186D01*
X62752186Y-23300710D01*
X62752186Y-23157852D01*
X62799805Y-22967376D01*
X62847424Y-22872138D01*
X62942662Y-22776900D01*
X63085520Y-22729281D01*
X63180758Y-22729281D01*
X63323615Y-22776900D01*
X63371234Y-22824519D01*
X63704567Y-22729281D02*
X64371234Y-22729281D01*
X63942662Y-23729281D01*
X77395043Y-37084043D02*
X77347424Y-37131662D01*
X77204567Y-37179281D01*
X77109329Y-37179281D01*
X76966471Y-37131662D01*
X76871233Y-37036424D01*
X76823614Y-36941186D01*
X76775995Y-36750710D01*
X76775995Y-36607852D01*
X76823614Y-36417376D01*
X76871233Y-36322138D01*
X76966471Y-36226900D01*
X77109329Y-36179281D01*
X77204567Y-36179281D01*
X77347424Y-36226900D01*
X77395043Y-36274519D01*
X78347424Y-37179281D02*
X77775995Y-37179281D01*
X78061709Y-37179281D02*
X78061709Y-36179281D01*
X77966471Y-36322138D01*
X77871233Y-36417376D01*
X77775995Y-36464995D01*
X78966471Y-36179281D02*
X79061710Y-36179281D01*
X79156948Y-36226900D01*
X79204567Y-36274519D01*
X79252186Y-36369757D01*
X79299805Y-36560233D01*
X79299805Y-36798329D01*
X79252186Y-36988805D01*
X79204567Y-37084043D01*
X79156948Y-37131662D01*
X79061710Y-37179281D01*
X78966471Y-37179281D01*
X78871233Y-37131662D01*
X78823614Y-37084043D01*
X78775995Y-36988805D01*
X78728376Y-36798329D01*
X78728376Y-36560233D01*
X78775995Y-36369757D01*
X78823614Y-36274519D01*
X78871233Y-36226900D01*
X78966471Y-36179281D01*
X88095043Y-9184043D02*
X88047424Y-9231662D01*
X87904567Y-9279281D01*
X87809329Y-9279281D01*
X87666471Y-9231662D01*
X87571233Y-9136424D01*
X87523614Y-9041186D01*
X87475995Y-8850710D01*
X87475995Y-8707852D01*
X87523614Y-8517376D01*
X87571233Y-8422138D01*
X87666471Y-8326900D01*
X87809329Y-8279281D01*
X87904567Y-8279281D01*
X88047424Y-8326900D01*
X88095043Y-8374519D01*
X89047424Y-9279281D02*
X88475995Y-9279281D01*
X88761709Y-9279281D02*
X88761709Y-8279281D01*
X88666471Y-8422138D01*
X88571233Y-8517376D01*
X88475995Y-8564995D01*
X89904567Y-8612614D02*
X89904567Y-9279281D01*
X89666471Y-8231662D02*
X89428376Y-8945948D01*
X90047424Y-8945948D01*
X55149805Y-11229281D02*
X55149805Y-10229281D01*
X55530758Y-10229281D01*
X55625996Y-10276900D01*
X55673615Y-10324519D01*
X55721234Y-10419757D01*
X55721234Y-10562614D01*
X55673615Y-10657852D01*
X55625996Y-10705471D01*
X55530758Y-10753090D01*
X55149805Y-10753090D01*
X56673615Y-11229281D02*
X56102186Y-11229281D01*
X56387900Y-11229281D02*
X56387900Y-10229281D01*
X56292662Y-10372138D01*
X56197424Y-10467376D01*
X56102186Y-10514995D01*
X83802805Y-19262281D02*
X83802805Y-18262281D01*
X84040900Y-18262281D01*
X84183758Y-18309900D01*
X84278996Y-18405138D01*
X84326615Y-18500376D01*
X84374234Y-18690852D01*
X84374234Y-18833710D01*
X84326615Y-19024186D01*
X84278996Y-19119424D01*
X84183758Y-19214662D01*
X84040900Y-19262281D01*
X83802805Y-19262281D01*
X84707567Y-18262281D02*
X85326615Y-18262281D01*
X84993281Y-18643233D01*
X85136139Y-18643233D01*
X85231377Y-18690852D01*
X85278996Y-18738471D01*
X85326615Y-18833710D01*
X85326615Y-19071805D01*
X85278996Y-19167043D01*
X85231377Y-19214662D01*
X85136139Y-19262281D01*
X84850424Y-19262281D01*
X84755186Y-19214662D01*
X84707567Y-19167043D01*
X88123805Y-13749281D02*
X88123805Y-12749281D01*
X88361900Y-12749281D01*
X88504758Y-12796900D01*
X88599996Y-12892138D01*
X88647615Y-12987376D01*
X88695234Y-13177852D01*
X88695234Y-13320710D01*
X88647615Y-13511186D01*
X88599996Y-13606424D01*
X88504758Y-13701662D01*
X88361900Y-13749281D01*
X88123805Y-13749281D01*
X89647615Y-13749281D02*
X89076186Y-13749281D01*
X89361900Y-13749281D02*
X89361900Y-12749281D01*
X89266662Y-12892138D01*
X89171424Y-12987376D01*
X89076186Y-13034995D01*
X12860519Y-45499281D02*
X12860519Y-44499281D01*
X13289090Y-44594519D02*
X13336709Y-44546900D01*
X13431947Y-44499281D01*
X13670043Y-44499281D01*
X13765281Y-44546900D01*
X13812900Y-44594519D01*
X13860519Y-44689757D01*
X13860519Y-44784995D01*
X13812900Y-44927852D01*
X13241471Y-45499281D01*
X13860519Y-45499281D01*
X14860519Y-45404043D02*
X14812900Y-45451662D01*
X14670043Y-45499281D01*
X14574805Y-45499281D01*
X14431947Y-45451662D01*
X14336709Y-45356424D01*
X14289090Y-45261186D01*
X14241471Y-45070710D01*
X14241471Y-44927852D01*
X14289090Y-44737376D01*
X14336709Y-44642138D01*
X14431947Y-44546900D01*
X14574805Y-44499281D01*
X14670043Y-44499281D01*
X14812900Y-44546900D01*
X14860519Y-44594519D01*
X15812900Y-45499281D02*
X15241471Y-45499281D01*
X15527185Y-45499281D02*
X15527185Y-44499281D01*
X15431947Y-44642138D01*
X15336709Y-44737376D01*
X15241471Y-44784995D01*
X14146281Y-3557424D02*
X15146281Y-3224091D01*
X14146281Y-2890757D01*
X15146281Y-1985995D02*
X14670090Y-2319329D01*
X15146281Y-2557424D02*
X14146281Y-2557424D01*
X14146281Y-2176471D01*
X14193900Y-2081233D01*
X14241519Y-2033614D01*
X14336757Y-1985995D01*
X14479614Y-1985995D01*
X14574852Y-2033614D01*
X14622471Y-2081233D01*
X14670090Y-2176471D01*
X14670090Y-2557424D01*
X14146281Y-1652662D02*
X14146281Y-985995D01*
X15146281Y-1414567D01*
X10336281Y-3557424D02*
X11336281Y-3224091D01*
X10336281Y-2890757D01*
X11336281Y-1985995D02*
X10860090Y-2319329D01*
X11336281Y-2557424D02*
X10336281Y-2557424D01*
X10336281Y-2176471D01*
X10383900Y-2081233D01*
X10431519Y-2033614D01*
X10526757Y-1985995D01*
X10669614Y-1985995D01*
X10764852Y-2033614D01*
X10812471Y-2081233D01*
X10860090Y-2176471D01*
X10860090Y-2557424D01*
X10336281Y-1128852D02*
X10336281Y-1319329D01*
X10383900Y-1414567D01*
X10431519Y-1462186D01*
X10574376Y-1557424D01*
X10764852Y-1605043D01*
X11145805Y-1605043D01*
X11241043Y-1557424D01*
X11288662Y-1509805D01*
X11336281Y-1414567D01*
X11336281Y-1224090D01*
X11288662Y-1128852D01*
X11241043Y-1081233D01*
X11145805Y-1033614D01*
X10907710Y-1033614D01*
X10812471Y-1081233D01*
X10764852Y-1128852D01*
X10717233Y-1224090D01*
X10717233Y-1414567D01*
X10764852Y-1509805D01*
X10812471Y-1557424D01*
X10907710Y-1605043D01*
X12241281Y-3557424D02*
X13241281Y-3224091D01*
X12241281Y-2890757D01*
X13241281Y-1985995D02*
X12765090Y-2319329D01*
X13241281Y-2557424D02*
X12241281Y-2557424D01*
X12241281Y-2176471D01*
X12288900Y-2081233D01*
X12336519Y-2033614D01*
X12431757Y-1985995D01*
X12574614Y-1985995D01*
X12669852Y-2033614D01*
X12717471Y-2081233D01*
X12765090Y-2176471D01*
X12765090Y-2557424D01*
X12241281Y-1081233D02*
X12241281Y-1557424D01*
X12717471Y-1605043D01*
X12669852Y-1557424D01*
X12622233Y-1462186D01*
X12622233Y-1224090D01*
X12669852Y-1128852D01*
X12717471Y-1081233D01*
X12812710Y-1033614D01*
X13050805Y-1033614D01*
X13146043Y-1081233D01*
X13193662Y-1128852D01*
X13241281Y-1224090D01*
X13241281Y-1462186D01*
X13193662Y-1557424D01*
X13146043Y-1605043D01*
X68565995Y-4804281D02*
X68565995Y-5613805D01*
X68613614Y-5709043D01*
X68661233Y-5756662D01*
X68756471Y-5804281D01*
X68946948Y-5804281D01*
X69042186Y-5756662D01*
X69089805Y-5709043D01*
X69137424Y-5613805D01*
X69137424Y-4804281D01*
X69565995Y-4899519D02*
X69613614Y-4851900D01*
X69708852Y-4804281D01*
X69946948Y-4804281D01*
X70042186Y-4851900D01*
X70089805Y-4899519D01*
X70137424Y-4994757D01*
X70137424Y-5089995D01*
X70089805Y-5232852D01*
X69518376Y-5804281D01*
X70137424Y-5804281D01*
X72605995Y-30529281D02*
X72605995Y-31338805D01*
X72653614Y-31434043D01*
X72701233Y-31481662D01*
X72796471Y-31529281D01*
X72986948Y-31529281D01*
X73082186Y-31481662D01*
X73129805Y-31434043D01*
X73177424Y-31338805D01*
X73177424Y-30529281D01*
X74177424Y-31529281D02*
X73605995Y-31529281D01*
X73891709Y-31529281D02*
X73891709Y-30529281D01*
X73796471Y-30672138D01*
X73701233Y-30767376D01*
X73605995Y-30814995D01*
X65204567Y-39231662D02*
X65347424Y-39279281D01*
X65585520Y-39279281D01*
X65680758Y-39231662D01*
X65728377Y-39184043D01*
X65775996Y-39088805D01*
X65775996Y-38993567D01*
X65728377Y-38898329D01*
X65680758Y-38850710D01*
X65585520Y-38803090D01*
X65395043Y-38755471D01*
X65299805Y-38707852D01*
X65252186Y-38660233D01*
X65204567Y-38564995D01*
X65204567Y-38469757D01*
X65252186Y-38374519D01*
X65299805Y-38326900D01*
X65395043Y-38279281D01*
X65633139Y-38279281D01*
X65775996Y-38326900D01*
X66109329Y-38279281D02*
X66347424Y-39279281D01*
X66537901Y-38564995D01*
X66728377Y-39279281D01*
X66966472Y-38279281D01*
X67775996Y-38612614D02*
X67775996Y-39279281D01*
X67537900Y-38231662D02*
X67299805Y-38945948D01*
X67918853Y-38945948D01*
X42022662Y-17170233D02*
X42070281Y-17027376D01*
X42070281Y-16789280D01*
X42022662Y-16694042D01*
X41975043Y-16646423D01*
X41879805Y-16598804D01*
X41784567Y-16598804D01*
X41689329Y-16646423D01*
X41641710Y-16694042D01*
X41594090Y-16789280D01*
X41546471Y-16979757D01*
X41498852Y-17074995D01*
X41451233Y-17122614D01*
X41355995Y-17170233D01*
X41260757Y-17170233D01*
X41165519Y-17122614D01*
X41117900Y-17074995D01*
X41070281Y-16979757D01*
X41070281Y-16741661D01*
X41117900Y-16598804D01*
X41070281Y-16265471D02*
X42070281Y-16027376D01*
X41355995Y-15836899D01*
X42070281Y-15646423D01*
X41070281Y-15408328D01*
X41070281Y-15122614D02*
X41070281Y-14503566D01*
X41451233Y-14836900D01*
X41451233Y-14694042D01*
X41498852Y-14598804D01*
X41546471Y-14551185D01*
X41641710Y-14503566D01*
X41879805Y-14503566D01*
X41975043Y-14551185D01*
X42022662Y-14598804D01*
X42070281Y-14694042D01*
X42070281Y-14979757D01*
X42022662Y-15074995D01*
X41975043Y-15122614D01*
X50277662Y-17170233D02*
X50325281Y-17027376D01*
X50325281Y-16789280D01*
X50277662Y-16694042D01*
X50230043Y-16646423D01*
X50134805Y-16598804D01*
X50039567Y-16598804D01*
X49944329Y-16646423D01*
X49896710Y-16694042D01*
X49849090Y-16789280D01*
X49801471Y-16979757D01*
X49753852Y-17074995D01*
X49706233Y-17122614D01*
X49610995Y-17170233D01*
X49515757Y-17170233D01*
X49420519Y-17122614D01*
X49372900Y-17074995D01*
X49325281Y-16979757D01*
X49325281Y-16741661D01*
X49372900Y-16598804D01*
X49325281Y-16265471D02*
X50325281Y-16027376D01*
X49610995Y-15836899D01*
X50325281Y-15646423D01*
X49325281Y-15408328D01*
X49420519Y-15074995D02*
X49372900Y-15027376D01*
X49325281Y-14932138D01*
X49325281Y-14694042D01*
X49372900Y-14598804D01*
X49420519Y-14551185D01*
X49515757Y-14503566D01*
X49610995Y-14503566D01*
X49753852Y-14551185D01*
X50325281Y-15122614D01*
X50325281Y-14503566D01*
X33767662Y-17170233D02*
X33815281Y-17027376D01*
X33815281Y-16789280D01*
X33767662Y-16694042D01*
X33720043Y-16646423D01*
X33624805Y-16598804D01*
X33529567Y-16598804D01*
X33434329Y-16646423D01*
X33386710Y-16694042D01*
X33339090Y-16789280D01*
X33291471Y-16979757D01*
X33243852Y-17074995D01*
X33196233Y-17122614D01*
X33100995Y-17170233D01*
X33005757Y-17170233D01*
X32910519Y-17122614D01*
X32862900Y-17074995D01*
X32815281Y-16979757D01*
X32815281Y-16741661D01*
X32862900Y-16598804D01*
X32815281Y-16265471D02*
X33815281Y-16027376D01*
X33100995Y-15836899D01*
X33815281Y-15646423D01*
X32815281Y-15408328D01*
X33815281Y-14503566D02*
X33815281Y-15074995D01*
X33815281Y-14789281D02*
X32815281Y-14789281D01*
X32958138Y-14884519D01*
X33053376Y-14979757D01*
X33100995Y-15074995D01*
X94222662Y-37978805D02*
X94270281Y-37835948D01*
X94270281Y-37597852D01*
X94222662Y-37502614D01*
X94175043Y-37454995D01*
X94079805Y-37407376D01*
X93984567Y-37407376D01*
X93889329Y-37454995D01*
X93841710Y-37502614D01*
X93794090Y-37597852D01*
X93746471Y-37788329D01*
X93698852Y-37883567D01*
X93651233Y-37931186D01*
X93555995Y-37978805D01*
X93460757Y-37978805D01*
X93365519Y-37931186D01*
X93317900Y-37883567D01*
X93270281Y-37788329D01*
X93270281Y-37550233D01*
X93317900Y-37407376D01*
X94270281Y-36978805D02*
X93270281Y-36978805D01*
X93270281Y-36740710D01*
X93317900Y-36597852D01*
X93413138Y-36502614D01*
X93508376Y-36454995D01*
X93698852Y-36407376D01*
X93841710Y-36407376D01*
X94032186Y-36454995D01*
X94127424Y-36502614D01*
X94222662Y-36597852D01*
X94270281Y-36740710D01*
X94270281Y-36978805D01*
X94270281Y-35454995D02*
X94270281Y-36026424D01*
X94270281Y-35740710D02*
X93270281Y-35740710D01*
X93413138Y-35835948D01*
X93508376Y-35931186D01*
X93555995Y-36026424D01*
X86695043Y-26449281D02*
X86361709Y-25973090D01*
X86123614Y-26449281D02*
X86123614Y-25449281D01*
X86504567Y-25449281D01*
X86599805Y-25496900D01*
X86647424Y-25544519D01*
X86695043Y-25639757D01*
X86695043Y-25782614D01*
X86647424Y-25877852D01*
X86599805Y-25925471D01*
X86504567Y-25973090D01*
X86123614Y-25973090D01*
X87028376Y-25449281D02*
X87647424Y-25449281D01*
X87314090Y-25830233D01*
X87456948Y-25830233D01*
X87552186Y-25877852D01*
X87599805Y-25925471D01*
X87647424Y-26020710D01*
X87647424Y-26258805D01*
X87599805Y-26354043D01*
X87552186Y-26401662D01*
X87456948Y-26449281D01*
X87171233Y-26449281D01*
X87075995Y-26401662D01*
X87028376Y-26354043D01*
X88504567Y-25782614D02*
X88504567Y-26449281D01*
X88266471Y-25401662D02*
X88028376Y-26115948D01*
X88647424Y-26115948D01*
X86695043Y-23909281D02*
X86361709Y-23433090D01*
X86123614Y-23909281D02*
X86123614Y-22909281D01*
X86504567Y-22909281D01*
X86599805Y-22956900D01*
X86647424Y-23004519D01*
X86695043Y-23099757D01*
X86695043Y-23242614D01*
X86647424Y-23337852D01*
X86599805Y-23385471D01*
X86504567Y-23433090D01*
X86123614Y-23433090D01*
X87028376Y-22909281D02*
X87647424Y-22909281D01*
X87314090Y-23290233D01*
X87456948Y-23290233D01*
X87552186Y-23337852D01*
X87599805Y-23385471D01*
X87647424Y-23480710D01*
X87647424Y-23718805D01*
X87599805Y-23814043D01*
X87552186Y-23861662D01*
X87456948Y-23909281D01*
X87171233Y-23909281D01*
X87075995Y-23861662D01*
X87028376Y-23814043D01*
X88028376Y-23004519D02*
X88075995Y-22956900D01*
X88171233Y-22909281D01*
X88409329Y-22909281D01*
X88504567Y-22956900D01*
X88552186Y-23004519D01*
X88599805Y-23099757D01*
X88599805Y-23194995D01*
X88552186Y-23337852D01*
X87980757Y-23909281D01*
X88599805Y-23909281D01*
X59095043Y-36329281D02*
X58761709Y-35853090D01*
X58523614Y-36329281D02*
X58523614Y-35329281D01*
X58904567Y-35329281D01*
X58999805Y-35376900D01*
X59047424Y-35424519D01*
X59095043Y-35519757D01*
X59095043Y-35662614D01*
X59047424Y-35757852D01*
X58999805Y-35805471D01*
X58904567Y-35853090D01*
X58523614Y-35853090D01*
X60047424Y-36329281D02*
X59475995Y-36329281D01*
X59761709Y-36329281D02*
X59761709Y-35329281D01*
X59666471Y-35472138D01*
X59571233Y-35567376D01*
X59475995Y-35614995D01*
X60523614Y-36329281D02*
X60714090Y-36329281D01*
X60809329Y-36281662D01*
X60856948Y-36234043D01*
X60952186Y-36091186D01*
X60999805Y-35900710D01*
X60999805Y-35519757D01*
X60952186Y-35424519D01*
X60904567Y-35376900D01*
X60809329Y-35329281D01*
X60618852Y-35329281D01*
X60523614Y-35376900D01*
X60475995Y-35424519D01*
X60428376Y-35519757D01*
X60428376Y-35757852D01*
X60475995Y-35853090D01*
X60523614Y-35900710D01*
X60618852Y-35948329D01*
X60809329Y-35948329D01*
X60904567Y-35900710D01*
X60952186Y-35853090D01*
X60999805Y-35757852D01*
X62565043Y-35339281D02*
X62231709Y-34863090D01*
X61993614Y-35339281D02*
X61993614Y-34339281D01*
X62374567Y-34339281D01*
X62469805Y-34386900D01*
X62517424Y-34434519D01*
X62565043Y-34529757D01*
X62565043Y-34672614D01*
X62517424Y-34767852D01*
X62469805Y-34815471D01*
X62374567Y-34863090D01*
X61993614Y-34863090D01*
X63517424Y-35339281D02*
X62945995Y-35339281D01*
X63231709Y-35339281D02*
X63231709Y-34339281D01*
X63136471Y-34482138D01*
X63041233Y-34577376D01*
X62945995Y-34624995D01*
X64088852Y-34767852D02*
X63993614Y-34720233D01*
X63945995Y-34672614D01*
X63898376Y-34577376D01*
X63898376Y-34529757D01*
X63945995Y-34434519D01*
X63993614Y-34386900D01*
X64088852Y-34339281D01*
X64279329Y-34339281D01*
X64374567Y-34386900D01*
X64422186Y-34434519D01*
X64469805Y-34529757D01*
X64469805Y-34577376D01*
X64422186Y-34672614D01*
X64374567Y-34720233D01*
X64279329Y-34767852D01*
X64088852Y-34767852D01*
X63993614Y-34815471D01*
X63945995Y-34863090D01*
X63898376Y-34958329D01*
X63898376Y-35148805D01*
X63945995Y-35244043D01*
X63993614Y-35291662D01*
X64088852Y-35339281D01*
X64279329Y-35339281D01*
X64374567Y-35291662D01*
X64422186Y-35244043D01*
X64469805Y-35148805D01*
X64469805Y-34958329D01*
X64422186Y-34863090D01*
X64374567Y-34815471D01*
X64279329Y-34767852D01*
X67391043Y-26449281D02*
X67057709Y-25973090D01*
X66819614Y-26449281D02*
X66819614Y-25449281D01*
X67200567Y-25449281D01*
X67295805Y-25496900D01*
X67343424Y-25544519D01*
X67391043Y-25639757D01*
X67391043Y-25782614D01*
X67343424Y-25877852D01*
X67295805Y-25925471D01*
X67200567Y-25973090D01*
X66819614Y-25973090D01*
X68343424Y-26449281D02*
X67771995Y-26449281D01*
X68057709Y-26449281D02*
X68057709Y-25449281D01*
X67962471Y-25592138D01*
X67867233Y-25687376D01*
X67771995Y-25734995D01*
X68676757Y-25449281D02*
X69343424Y-25449281D01*
X68914852Y-26449281D01*
X75720281Y-22575757D02*
X75244090Y-22909091D01*
X75720281Y-23147186D02*
X74720281Y-23147186D01*
X74720281Y-22766233D01*
X74767900Y-22670995D01*
X74815519Y-22623376D01*
X74910757Y-22575757D01*
X75053614Y-22575757D01*
X75148852Y-22623376D01*
X75196471Y-22670995D01*
X75244090Y-22766233D01*
X75244090Y-23147186D01*
X75720281Y-21623376D02*
X75720281Y-22194805D01*
X75720281Y-21909091D02*
X74720281Y-21909091D01*
X74863138Y-22004329D01*
X74958376Y-22099567D01*
X75005995Y-22194805D01*
X74720281Y-20766233D02*
X74720281Y-20956710D01*
X74767900Y-21051948D01*
X74815519Y-21099567D01*
X74958376Y-21194805D01*
X75148852Y-21242424D01*
X75529805Y-21242424D01*
X75625043Y-21194805D01*
X75672662Y-21147186D01*
X75720281Y-21051948D01*
X75720281Y-20861471D01*
X75672662Y-20766233D01*
X75625043Y-20718614D01*
X75529805Y-20670995D01*
X75291710Y-20670995D01*
X75196471Y-20718614D01*
X75148852Y-20766233D01*
X75101233Y-20861471D01*
X75101233Y-21051948D01*
X75148852Y-21147186D01*
X75196471Y-21194805D01*
X75291710Y-21242424D01*
X73942281Y-26131757D02*
X73466090Y-26465091D01*
X73942281Y-26703186D02*
X72942281Y-26703186D01*
X72942281Y-26322233D01*
X72989900Y-26226995D01*
X73037519Y-26179376D01*
X73132757Y-26131757D01*
X73275614Y-26131757D01*
X73370852Y-26179376D01*
X73418471Y-26226995D01*
X73466090Y-26322233D01*
X73466090Y-26703186D01*
X73942281Y-25179376D02*
X73942281Y-25750805D01*
X73942281Y-25465091D02*
X72942281Y-25465091D01*
X73085138Y-25560329D01*
X73180376Y-25655567D01*
X73227995Y-25750805D01*
X73275614Y-24322233D02*
X73942281Y-24322233D01*
X72894662Y-24560329D02*
X73608948Y-24798424D01*
X73608948Y-24179376D01*
X57345043Y-41229281D02*
X57011709Y-40753090D01*
X56773614Y-41229281D02*
X56773614Y-40229281D01*
X57154567Y-40229281D01*
X57249805Y-40276900D01*
X57297424Y-40324519D01*
X57345043Y-40419757D01*
X57345043Y-40562614D01*
X57297424Y-40657852D01*
X57249805Y-40705471D01*
X57154567Y-40753090D01*
X56773614Y-40753090D01*
X58297424Y-41229281D02*
X57725995Y-41229281D01*
X58011709Y-41229281D02*
X58011709Y-40229281D01*
X57916471Y-40372138D01*
X57821233Y-40467376D01*
X57725995Y-40514995D01*
X58630757Y-40229281D02*
X59249805Y-40229281D01*
X58916471Y-40610233D01*
X59059329Y-40610233D01*
X59154567Y-40657852D01*
X59202186Y-40705471D01*
X59249805Y-40800710D01*
X59249805Y-41038805D01*
X59202186Y-41134043D01*
X59154567Y-41181662D01*
X59059329Y-41229281D01*
X58773614Y-41229281D01*
X58678376Y-41181662D01*
X58630757Y-41134043D01*
X42710281Y-20289757D02*
X42234090Y-20623091D01*
X42710281Y-20861186D02*
X41710281Y-20861186D01*
X41710281Y-20480233D01*
X41757900Y-20384995D01*
X41805519Y-20337376D01*
X41900757Y-20289757D01*
X42043614Y-20289757D01*
X42138852Y-20337376D01*
X42186471Y-20384995D01*
X42234090Y-20480233D01*
X42234090Y-20861186D01*
X42710281Y-19337376D02*
X42710281Y-19908805D01*
X42710281Y-19623091D02*
X41710281Y-19623091D01*
X41853138Y-19718329D01*
X41948376Y-19813567D01*
X41995995Y-19908805D01*
X42710281Y-18384995D02*
X42710281Y-18956424D01*
X42710281Y-18670710D02*
X41710281Y-18670710D01*
X41853138Y-18765948D01*
X41948376Y-18861186D01*
X41995995Y-18956424D01*
X41435281Y-20289757D02*
X40959090Y-20623091D01*
X41435281Y-20861186D02*
X40435281Y-20861186D01*
X40435281Y-20480233D01*
X40482900Y-20384995D01*
X40530519Y-20337376D01*
X40625757Y-20289757D01*
X40768614Y-20289757D01*
X40863852Y-20337376D01*
X40911471Y-20384995D01*
X40959090Y-20480233D01*
X40959090Y-20861186D01*
X41435281Y-19337376D02*
X41435281Y-19908805D01*
X41435281Y-19623091D02*
X40435281Y-19623091D01*
X40578138Y-19718329D01*
X40673376Y-19813567D01*
X40720995Y-19908805D01*
X40435281Y-18718329D02*
X40435281Y-18623090D01*
X40482900Y-18527852D01*
X40530519Y-18480233D01*
X40625757Y-18432614D01*
X40816233Y-18384995D01*
X41054329Y-18384995D01*
X41244805Y-18432614D01*
X41340043Y-18480233D01*
X41387662Y-18527852D01*
X41435281Y-18623090D01*
X41435281Y-18718329D01*
X41387662Y-18813567D01*
X41340043Y-18861186D01*
X41244805Y-18908805D01*
X41054329Y-18956424D01*
X40816233Y-18956424D01*
X40625757Y-18908805D01*
X40530519Y-18861186D01*
X40482900Y-18813567D01*
X40435281Y-18718329D01*
X50965281Y-19813566D02*
X50489090Y-20146900D01*
X50965281Y-20384995D02*
X49965281Y-20384995D01*
X49965281Y-20004042D01*
X50012900Y-19908804D01*
X50060519Y-19861185D01*
X50155757Y-19813566D01*
X50298614Y-19813566D01*
X50393852Y-19861185D01*
X50441471Y-19908804D01*
X50489090Y-20004042D01*
X50489090Y-20384995D01*
X49965281Y-19480233D02*
X49965281Y-18813566D01*
X50965281Y-19242138D01*
X49690281Y-19813566D02*
X49214090Y-20146900D01*
X49690281Y-20384995D02*
X48690281Y-20384995D01*
X48690281Y-20004042D01*
X48737900Y-19908804D01*
X48785519Y-19861185D01*
X48880757Y-19813566D01*
X49023614Y-19813566D01*
X49118852Y-19861185D01*
X49166471Y-19908804D01*
X49214090Y-20004042D01*
X49214090Y-20384995D01*
X48690281Y-18908804D02*
X48690281Y-19384995D01*
X49166471Y-19432614D01*
X49118852Y-19384995D01*
X49071233Y-19289757D01*
X49071233Y-19051661D01*
X49118852Y-18956423D01*
X49166471Y-18908804D01*
X49261710Y-18861185D01*
X49499805Y-18861185D01*
X49595043Y-18908804D01*
X49642662Y-18956423D01*
X49690281Y-19051661D01*
X49690281Y-19289757D01*
X49642662Y-19384995D01*
X49595043Y-19432614D01*
X30021234Y-20624281D02*
X29687900Y-20148090D01*
X29449805Y-20624281D02*
X29449805Y-19624281D01*
X29830758Y-19624281D01*
X29925996Y-19671900D01*
X29973615Y-19719519D01*
X30021234Y-19814757D01*
X30021234Y-19957614D01*
X29973615Y-20052852D01*
X29925996Y-20100471D01*
X29830758Y-20148090D01*
X29449805Y-20148090D01*
X30878377Y-19957614D02*
X30878377Y-20624281D01*
X30640281Y-19576662D02*
X30402186Y-20290948D01*
X31021234Y-20290948D01*
X35735281Y-18993566D02*
X35259090Y-19326900D01*
X35735281Y-19564995D02*
X34735281Y-19564995D01*
X34735281Y-19184042D01*
X34782900Y-19088804D01*
X34830519Y-19041185D01*
X34925757Y-18993566D01*
X35068614Y-18993566D01*
X35163852Y-19041185D01*
X35211471Y-19088804D01*
X35259090Y-19184042D01*
X35259090Y-19564995D01*
X34830519Y-18612614D02*
X34782900Y-18564995D01*
X34735281Y-18469757D01*
X34735281Y-18231661D01*
X34782900Y-18136423D01*
X34830519Y-18088804D01*
X34925757Y-18041185D01*
X35020995Y-18041185D01*
X35163852Y-18088804D01*
X35735281Y-18660233D01*
X35735281Y-18041185D01*
X81146662Y-10288519D02*
X81051424Y-10240900D01*
X80956186Y-10145662D01*
X80813329Y-10002805D01*
X80718090Y-9955186D01*
X80622852Y-9955186D01*
X80670471Y-10193281D02*
X80575233Y-10145662D01*
X80479995Y-10050424D01*
X80432376Y-9859948D01*
X80432376Y-9526614D01*
X80479995Y-9336138D01*
X80575233Y-9240900D01*
X80670471Y-9193281D01*
X80860948Y-9193281D01*
X80956186Y-9240900D01*
X81051424Y-9336138D01*
X81099043Y-9526614D01*
X81099043Y-9859948D01*
X81051424Y-10050424D01*
X80956186Y-10145662D01*
X80860948Y-10193281D01*
X80670471Y-10193281D01*
X82003805Y-9193281D02*
X81527614Y-9193281D01*
X81479995Y-9669471D01*
X81527614Y-9621852D01*
X81622852Y-9574233D01*
X81860948Y-9574233D01*
X81956186Y-9621852D01*
X82003805Y-9669471D01*
X82051424Y-9764710D01*
X82051424Y-10002805D01*
X82003805Y-10098043D01*
X81956186Y-10145662D01*
X81860948Y-10193281D01*
X81622852Y-10193281D01*
X81527614Y-10145662D01*
X81479995Y-10098043D01*
X13074662Y-10542519D02*
X12979424Y-10494900D01*
X12884186Y-10399662D01*
X12741329Y-10256805D01*
X12646090Y-10209186D01*
X12550852Y-10209186D01*
X12598471Y-10447281D02*
X12503233Y-10399662D01*
X12407995Y-10304424D01*
X12360376Y-10113948D01*
X12360376Y-9780614D01*
X12407995Y-9590138D01*
X12503233Y-9494900D01*
X12598471Y-9447281D01*
X12788948Y-9447281D01*
X12884186Y-9494900D01*
X12979424Y-9590138D01*
X13027043Y-9780614D01*
X13027043Y-10113948D01*
X12979424Y-10304424D01*
X12884186Y-10399662D01*
X12788948Y-10447281D01*
X12598471Y-10447281D01*
X13360376Y-9447281D02*
X13979424Y-9447281D01*
X13646090Y-9828233D01*
X13788948Y-9828233D01*
X13884186Y-9875852D01*
X13931805Y-9923471D01*
X13979424Y-10018710D01*
X13979424Y-10256805D01*
X13931805Y-10352043D01*
X13884186Y-10399662D01*
X13788948Y-10447281D01*
X13503233Y-10447281D01*
X13407995Y-10399662D01*
X13360376Y-10352043D01*
X5843519Y-13138138D02*
X5795900Y-13233376D01*
X5700662Y-13328614D01*
X5557805Y-13471471D01*
X5510186Y-13566710D01*
X5510186Y-13661948D01*
X5748281Y-13614329D02*
X5700662Y-13709567D01*
X5605424Y-13804805D01*
X5414948Y-13852424D01*
X5081614Y-13852424D01*
X4891138Y-13804805D01*
X4795900Y-13709567D01*
X4748281Y-13614329D01*
X4748281Y-13423852D01*
X4795900Y-13328614D01*
X4891138Y-13233376D01*
X5081614Y-13185757D01*
X5414948Y-13185757D01*
X5605424Y-13233376D01*
X5700662Y-13328614D01*
X5748281Y-13423852D01*
X5748281Y-13614329D01*
X4843519Y-12804805D02*
X4795900Y-12757186D01*
X4748281Y-12661948D01*
X4748281Y-12423852D01*
X4795900Y-12328614D01*
X4843519Y-12280995D01*
X4938757Y-12233376D01*
X5033995Y-12233376D01*
X5176852Y-12280995D01*
X5748281Y-12852424D01*
X5748281Y-12233376D01*
X1271519Y-10217138D02*
X1223900Y-10312376D01*
X1128662Y-10407614D01*
X985805Y-10550471D01*
X938186Y-10645710D01*
X938186Y-10740948D01*
X1176281Y-10693329D02*
X1128662Y-10788567D01*
X1033424Y-10883805D01*
X842948Y-10931424D01*
X509614Y-10931424D01*
X319138Y-10883805D01*
X223900Y-10788567D01*
X176281Y-10693329D01*
X176281Y-10502852D01*
X223900Y-10407614D01*
X319138Y-10312376D01*
X509614Y-10264757D01*
X842948Y-10264757D01*
X1033424Y-10312376D01*
X1128662Y-10407614D01*
X1176281Y-10502852D01*
X1176281Y-10693329D01*
X1176281Y-9312376D02*
X1176281Y-9883805D01*
X1176281Y-9598091D02*
X176281Y-9598091D01*
X319138Y-9693329D01*
X414376Y-9788567D01*
X461995Y-9883805D01*
X91838614Y-12304281D02*
X91838614Y-11304281D01*
X92219567Y-11304281D01*
X92314805Y-11351900D01*
X92362424Y-11399519D01*
X92410043Y-11494757D01*
X92410043Y-11637614D01*
X92362424Y-11732852D01*
X92314805Y-11780471D01*
X92219567Y-11828090D01*
X91838614Y-11828090D01*
X93362424Y-12304281D02*
X92790995Y-12304281D01*
X93076709Y-12304281D02*
X93076709Y-11304281D01*
X92981471Y-11447138D01*
X92886233Y-11542376D01*
X92790995Y-11589995D01*
X94314805Y-12304281D02*
X93743376Y-12304281D01*
X94029090Y-12304281D02*
X94029090Y-11304281D01*
X93933852Y-11447138D01*
X93838614Y-11542376D01*
X93743376Y-11589995D01*
X20718614Y-11844281D02*
X20718614Y-10844281D01*
X21099567Y-10844281D01*
X21194805Y-10891900D01*
X21242424Y-10939519D01*
X21290043Y-11034757D01*
X21290043Y-11177614D01*
X21242424Y-11272852D01*
X21194805Y-11320471D01*
X21099567Y-11368090D01*
X20718614Y-11368090D01*
X22242424Y-11844281D02*
X21670995Y-11844281D01*
X21956709Y-11844281D02*
X21956709Y-10844281D01*
X21861471Y-10987138D01*
X21766233Y-11082376D01*
X21670995Y-11129995D01*
X22861471Y-10844281D02*
X22956710Y-10844281D01*
X23051948Y-10891900D01*
X23099567Y-10939519D01*
X23147186Y-11034757D01*
X23194805Y-11225233D01*
X23194805Y-11463329D01*
X23147186Y-11653805D01*
X23099567Y-11749043D01*
X23051948Y-11796662D01*
X22956710Y-11844281D01*
X22861471Y-11844281D01*
X22766233Y-11796662D01*
X22718614Y-11749043D01*
X22670995Y-11653805D01*
X22623376Y-11463329D01*
X22623376Y-11225233D01*
X22670995Y-11034757D01*
X22718614Y-10939519D01*
X22766233Y-10891900D01*
X22861471Y-10844281D01*
X23734805Y-11844281D02*
X23734805Y-10844281D01*
X24115758Y-10844281D01*
X24210996Y-10891900D01*
X24258615Y-10939519D01*
X24306234Y-11034757D01*
X24306234Y-11177614D01*
X24258615Y-11272852D01*
X24210996Y-11320471D01*
X24115758Y-11368090D01*
X23734805Y-11368090D01*
X24782424Y-11844281D02*
X24972900Y-11844281D01*
X25068139Y-11796662D01*
X25115758Y-11749043D01*
X25210996Y-11606186D01*
X25258615Y-11415710D01*
X25258615Y-11034757D01*
X25210996Y-10939519D01*
X25163377Y-10891900D01*
X25068139Y-10844281D01*
X24877662Y-10844281D01*
X24782424Y-10891900D01*
X24734805Y-10939519D01*
X24687186Y-11034757D01*
X24687186Y-11272852D01*
X24734805Y-11368090D01*
X24782424Y-11415710D01*
X24877662Y-11463329D01*
X25068139Y-11463329D01*
X25163377Y-11415710D01*
X25210996Y-11368090D01*
X25258615Y-11272852D01*
X29370281Y-7684995D02*
X28370281Y-7684995D01*
X28370281Y-7304042D01*
X28417900Y-7208804D01*
X28465519Y-7161185D01*
X28560757Y-7113566D01*
X28703614Y-7113566D01*
X28798852Y-7161185D01*
X28846471Y-7208804D01*
X28894090Y-7304042D01*
X28894090Y-7684995D01*
X28798852Y-6542138D02*
X28751233Y-6637376D01*
X28703614Y-6684995D01*
X28608376Y-6732614D01*
X28560757Y-6732614D01*
X28465519Y-6684995D01*
X28417900Y-6637376D01*
X28370281Y-6542138D01*
X28370281Y-6351661D01*
X28417900Y-6256423D01*
X28465519Y-6208804D01*
X28560757Y-6161185D01*
X28608376Y-6161185D01*
X28703614Y-6208804D01*
X28751233Y-6256423D01*
X28798852Y-6351661D01*
X28798852Y-6542138D01*
X28846471Y-6637376D01*
X28894090Y-6684995D01*
X28989329Y-6732614D01*
X29179805Y-6732614D01*
X29275043Y-6684995D01*
X29322662Y-6637376D01*
X29370281Y-6542138D01*
X29370281Y-6351661D01*
X29322662Y-6256423D01*
X29275043Y-6208804D01*
X29179805Y-6161185D01*
X28989329Y-6161185D01*
X28894090Y-6208804D01*
X28846471Y-6256423D01*
X28798852Y-6351661D01*
X1509805Y-9304281D02*
X1509805Y-8304281D01*
X1890758Y-8304281D01*
X1985996Y-8351900D01*
X2033615Y-8399519D01*
X2081234Y-8494757D01*
X2081234Y-8637614D01*
X2033615Y-8732852D01*
X1985996Y-8780471D01*
X1890758Y-8828090D01*
X1509805Y-8828090D01*
X2414567Y-8304281D02*
X3081234Y-8304281D01*
X2652662Y-9304281D01*
X17305281Y-7684995D02*
X16305281Y-7684995D01*
X16305281Y-7304042D01*
X16352900Y-7208804D01*
X16400519Y-7161185D01*
X16495757Y-7113566D01*
X16638614Y-7113566D01*
X16733852Y-7161185D01*
X16781471Y-7208804D01*
X16829090Y-7304042D01*
X16829090Y-7684995D01*
X16305281Y-6256423D02*
X16305281Y-6446900D01*
X16352900Y-6542138D01*
X16400519Y-6589757D01*
X16543376Y-6684995D01*
X16733852Y-6732614D01*
X17114805Y-6732614D01*
X17210043Y-6684995D01*
X17257662Y-6637376D01*
X17305281Y-6542138D01*
X17305281Y-6351661D01*
X17257662Y-6256423D01*
X17210043Y-6208804D01*
X17114805Y-6161185D01*
X16876710Y-6161185D01*
X16781471Y-6208804D01*
X16733852Y-6256423D01*
X16686233Y-6351661D01*
X16686233Y-6542138D01*
X16733852Y-6637376D01*
X16781471Y-6684995D01*
X16876710Y-6732614D01*
X4049805Y-9304281D02*
X4049805Y-8304281D01*
X4430758Y-8304281D01*
X4525996Y-8351900D01*
X4573615Y-8399519D01*
X4621234Y-8494757D01*
X4621234Y-8637614D01*
X4573615Y-8732852D01*
X4525996Y-8780471D01*
X4430758Y-8828090D01*
X4049805Y-8828090D01*
X5525996Y-8304281D02*
X5049805Y-8304281D01*
X5002186Y-8780471D01*
X5049805Y-8732852D01*
X5145043Y-8685233D01*
X5383139Y-8685233D01*
X5478377Y-8732852D01*
X5525996Y-8780471D01*
X5573615Y-8875710D01*
X5573615Y-9113805D01*
X5525996Y-9209043D01*
X5478377Y-9256662D01*
X5383139Y-9304281D01*
X5145043Y-9304281D01*
X5049805Y-9256662D01*
X5002186Y-9209043D01*
X6589805Y-9304281D02*
X6589805Y-8304281D01*
X6970758Y-8304281D01*
X7065996Y-8351900D01*
X7113615Y-8399519D01*
X7161234Y-8494757D01*
X7161234Y-8637614D01*
X7113615Y-8732852D01*
X7065996Y-8780471D01*
X6970758Y-8828090D01*
X6589805Y-8828090D01*
X8018377Y-8637614D02*
X8018377Y-9304281D01*
X7780281Y-8256662D02*
X7542186Y-8970948D01*
X8161234Y-8970948D01*
X96045281Y-17844995D02*
X95045281Y-17844995D01*
X95045281Y-17464042D01*
X95092900Y-17368804D01*
X95140519Y-17321185D01*
X95235757Y-17273566D01*
X95378614Y-17273566D01*
X95473852Y-17321185D01*
X95521471Y-17368804D01*
X95569090Y-17464042D01*
X95569090Y-17844995D01*
X95045281Y-16940233D02*
X95045281Y-16321185D01*
X95426233Y-16654519D01*
X95426233Y-16511661D01*
X95473852Y-16416423D01*
X95521471Y-16368804D01*
X95616710Y-16321185D01*
X95854805Y-16321185D01*
X95950043Y-16368804D01*
X95997662Y-16416423D01*
X96045281Y-16511661D01*
X96045281Y-16797376D01*
X95997662Y-16892614D01*
X95950043Y-16940233D01*
X94170281Y-29174995D02*
X93170281Y-29174995D01*
X93170281Y-28794042D01*
X93217900Y-28698804D01*
X93265519Y-28651185D01*
X93360757Y-28603566D01*
X93503614Y-28603566D01*
X93598852Y-28651185D01*
X93646471Y-28698804D01*
X93694090Y-28794042D01*
X93694090Y-29174995D01*
X93265519Y-28222614D02*
X93217900Y-28174995D01*
X93170281Y-28079757D01*
X93170281Y-27841661D01*
X93217900Y-27746423D01*
X93265519Y-27698804D01*
X93360757Y-27651185D01*
X93455995Y-27651185D01*
X93598852Y-27698804D01*
X94170281Y-28270233D01*
X94170281Y-27651185D01*
X58136281Y-30481566D02*
X58136281Y-30957757D01*
X57136281Y-30957757D01*
X58136281Y-29624423D02*
X58136281Y-30195852D01*
X58136281Y-29910138D02*
X57136281Y-29910138D01*
X57279138Y-30005376D01*
X57374376Y-30100614D01*
X57421995Y-30195852D01*
X87298377Y-41969281D02*
X87298377Y-42683567D01*
X87250757Y-42826424D01*
X87155519Y-42921662D01*
X87012662Y-42969281D01*
X86917424Y-42969281D01*
X87774567Y-42969281D02*
X87774567Y-41969281D01*
X88155520Y-41969281D01*
X88250758Y-42016900D01*
X88298377Y-42064519D01*
X88345996Y-42159757D01*
X88345996Y-42302614D01*
X88298377Y-42397852D01*
X88250758Y-42445471D01*
X88155520Y-42493090D01*
X87774567Y-42493090D01*
X89298377Y-42969281D02*
X88726948Y-42969281D01*
X89012662Y-42969281D02*
X89012662Y-41969281D01*
X88917424Y-42112138D01*
X88822186Y-42207376D01*
X88726948Y-42254995D01*
X89774567Y-42969281D02*
X89965043Y-42969281D01*
X90060282Y-42921662D01*
X90107901Y-42874043D01*
X90203139Y-42731186D01*
X90250758Y-42540710D01*
X90250758Y-42159757D01*
X90203139Y-42064519D01*
X90155520Y-42016900D01*
X90060282Y-41969281D01*
X89869805Y-41969281D01*
X89774567Y-42016900D01*
X89726948Y-42064519D01*
X89679329Y-42159757D01*
X89679329Y-42397852D01*
X89726948Y-42493090D01*
X89774567Y-42540710D01*
X89869805Y-42588329D01*
X90060282Y-42588329D01*
X90155520Y-42540710D01*
X90203139Y-42493090D01*
X90250758Y-42397852D01*
X87298377Y-37099281D02*
X87298377Y-37813567D01*
X87250757Y-37956424D01*
X87155519Y-38051662D01*
X87012662Y-38099281D01*
X86917424Y-38099281D01*
X87774567Y-38099281D02*
X87774567Y-37099281D01*
X88155520Y-37099281D01*
X88250758Y-37146900D01*
X88298377Y-37194519D01*
X88345996Y-37289757D01*
X88345996Y-37432614D01*
X88298377Y-37527852D01*
X88250758Y-37575471D01*
X88155520Y-37623090D01*
X87774567Y-37623090D01*
X89298377Y-38099281D02*
X88726948Y-38099281D01*
X89012662Y-38099281D02*
X89012662Y-37099281D01*
X88917424Y-37242138D01*
X88822186Y-37337376D01*
X88726948Y-37384995D01*
X89869805Y-37527852D02*
X89774567Y-37480233D01*
X89726948Y-37432614D01*
X89679329Y-37337376D01*
X89679329Y-37289757D01*
X89726948Y-37194519D01*
X89774567Y-37146900D01*
X89869805Y-37099281D01*
X90060282Y-37099281D01*
X90155520Y-37146900D01*
X90203139Y-37194519D01*
X90250758Y-37289757D01*
X90250758Y-37337376D01*
X90203139Y-37432614D01*
X90155520Y-37480233D01*
X90060282Y-37527852D01*
X89869805Y-37527852D01*
X89774567Y-37575471D01*
X89726948Y-37623090D01*
X89679329Y-37718329D01*
X89679329Y-37908805D01*
X89726948Y-38004043D01*
X89774567Y-38051662D01*
X89869805Y-38099281D01*
X90060282Y-38099281D01*
X90155520Y-38051662D01*
X90203139Y-38004043D01*
X90250758Y-37908805D01*
X90250758Y-37718329D01*
X90203139Y-37623090D01*
X90155520Y-37575471D01*
X90060282Y-37527852D01*
X71042377Y-13257281D02*
X71042377Y-13971567D01*
X70994757Y-14114424D01*
X70899519Y-14209662D01*
X70756662Y-14257281D01*
X70661424Y-14257281D01*
X71518567Y-14257281D02*
X71518567Y-13257281D01*
X71899520Y-13257281D01*
X71994758Y-13304900D01*
X72042377Y-13352519D01*
X72089996Y-13447757D01*
X72089996Y-13590614D01*
X72042377Y-13685852D01*
X71994758Y-13733471D01*
X71899520Y-13781090D01*
X71518567Y-13781090D01*
X73042377Y-14257281D02*
X72470948Y-14257281D01*
X72756662Y-14257281D02*
X72756662Y-13257281D01*
X72661424Y-13400138D01*
X72566186Y-13495376D01*
X72470948Y-13542995D01*
X73375710Y-13257281D02*
X74042377Y-13257281D01*
X73613805Y-14257281D01*
X47928377Y-684281D02*
X47928377Y-1398567D01*
X47880757Y-1541424D01*
X47785519Y-1636662D01*
X47642662Y-1684281D01*
X47547424Y-1684281D01*
X48404567Y-1684281D02*
X48404567Y-684281D01*
X48785520Y-684281D01*
X48880758Y-731900D01*
X48928377Y-779519D01*
X48975996Y-874757D01*
X48975996Y-1017614D01*
X48928377Y-1112852D01*
X48880758Y-1160471D01*
X48785520Y-1208090D01*
X48404567Y-1208090D01*
X49928377Y-1684281D02*
X49356948Y-1684281D01*
X49642662Y-1684281D02*
X49642662Y-684281D01*
X49547424Y-827138D01*
X49452186Y-922376D01*
X49356948Y-969995D01*
X50785520Y-684281D02*
X50595043Y-684281D01*
X50499805Y-731900D01*
X50452186Y-779519D01*
X50356948Y-922376D01*
X50309329Y-1112852D01*
X50309329Y-1493805D01*
X50356948Y-1589043D01*
X50404567Y-1636662D01*
X50499805Y-1684281D01*
X50690282Y-1684281D01*
X50785520Y-1636662D01*
X50833139Y-1589043D01*
X50880758Y-1493805D01*
X50880758Y-1255710D01*
X50833139Y-1160471D01*
X50785520Y-1112852D01*
X50690282Y-1065233D01*
X50499805Y-1065233D01*
X50404567Y-1112852D01*
X50356948Y-1160471D01*
X50309329Y-1255710D01*
X31418377Y-34974281D02*
X31418377Y-35688567D01*
X31370757Y-35831424D01*
X31275519Y-35926662D01*
X31132662Y-35974281D01*
X31037424Y-35974281D01*
X31894567Y-35974281D02*
X31894567Y-34974281D01*
X32275520Y-34974281D01*
X32370758Y-35021900D01*
X32418377Y-35069519D01*
X32465996Y-35164757D01*
X32465996Y-35307614D01*
X32418377Y-35402852D01*
X32370758Y-35450471D01*
X32275520Y-35498090D01*
X31894567Y-35498090D01*
X33418377Y-35974281D02*
X32846948Y-35974281D01*
X33132662Y-35974281D02*
X33132662Y-34974281D01*
X33037424Y-35117138D01*
X32942186Y-35212376D01*
X32846948Y-35259995D01*
X34323139Y-34974281D02*
X33846948Y-34974281D01*
X33799329Y-35450471D01*
X33846948Y-35402852D01*
X33942186Y-35355233D01*
X34180282Y-35355233D01*
X34275520Y-35402852D01*
X34323139Y-35450471D01*
X34370758Y-35545710D01*
X34370758Y-35783805D01*
X34323139Y-35879043D01*
X34275520Y-35926662D01*
X34180282Y-35974281D01*
X33942186Y-35974281D01*
X33846948Y-35926662D01*
X33799329Y-35879043D01*
X31418377Y-43229281D02*
X31418377Y-43943567D01*
X31370757Y-44086424D01*
X31275519Y-44181662D01*
X31132662Y-44229281D01*
X31037424Y-44229281D01*
X31894567Y-44229281D02*
X31894567Y-43229281D01*
X32275520Y-43229281D01*
X32370758Y-43276900D01*
X32418377Y-43324519D01*
X32465996Y-43419757D01*
X32465996Y-43562614D01*
X32418377Y-43657852D01*
X32370758Y-43705471D01*
X32275520Y-43753090D01*
X31894567Y-43753090D01*
X33418377Y-44229281D02*
X32846948Y-44229281D01*
X33132662Y-44229281D02*
X33132662Y-43229281D01*
X33037424Y-43372138D01*
X32942186Y-43467376D01*
X32846948Y-43514995D01*
X34275520Y-43562614D02*
X34275520Y-44229281D01*
X34037424Y-43181662D02*
X33799329Y-43895948D01*
X34418377Y-43895948D01*
X82040281Y-29041423D02*
X82754567Y-29041423D01*
X82897424Y-29089043D01*
X82992662Y-29184281D01*
X83040281Y-29327138D01*
X83040281Y-29422376D01*
X83040281Y-28565233D02*
X82040281Y-28565233D01*
X82040281Y-28184280D01*
X82087900Y-28089042D01*
X82135519Y-28041423D01*
X82230757Y-27993804D01*
X82373614Y-27993804D01*
X82468852Y-28041423D01*
X82516471Y-28089042D01*
X82564090Y-28184280D01*
X82564090Y-28565233D01*
X83040281Y-27041423D02*
X83040281Y-27612852D01*
X83040281Y-27327138D02*
X82040281Y-27327138D01*
X82183138Y-27422376D01*
X82278376Y-27517614D01*
X82325995Y-27612852D01*
X82135519Y-26660471D02*
X82087900Y-26612852D01*
X82040281Y-26517614D01*
X82040281Y-26279518D01*
X82087900Y-26184280D01*
X82135519Y-26136661D01*
X82230757Y-26089042D01*
X82325995Y-26089042D01*
X82468852Y-26136661D01*
X83040281Y-26708090D01*
X83040281Y-26089042D01*
X58596377Y-22020281D02*
X58596377Y-22734567D01*
X58548757Y-22877424D01*
X58453519Y-22972662D01*
X58310662Y-23020281D01*
X58215424Y-23020281D01*
X59072567Y-23020281D02*
X59072567Y-22020281D01*
X59453520Y-22020281D01*
X59548758Y-22067900D01*
X59596377Y-22115519D01*
X59643996Y-22210757D01*
X59643996Y-22353614D01*
X59596377Y-22448852D01*
X59548758Y-22496471D01*
X59453520Y-22544090D01*
X59072567Y-22544090D01*
X60596377Y-23020281D02*
X60024948Y-23020281D01*
X60310662Y-23020281D02*
X60310662Y-22020281D01*
X60215424Y-22163138D01*
X60120186Y-22258376D01*
X60024948Y-22305995D01*
X61548758Y-23020281D02*
X60977329Y-23020281D01*
X61263043Y-23020281D02*
X61263043Y-22020281D01*
X61167805Y-22163138D01*
X61072567Y-22258376D01*
X60977329Y-22305995D01*
X77900281Y-23496423D02*
X78614567Y-23496423D01*
X78757424Y-23544043D01*
X78852662Y-23639281D01*
X78900281Y-23782138D01*
X78900281Y-23877376D01*
X78900281Y-23020233D02*
X77900281Y-23020233D01*
X77900281Y-22639280D01*
X77947900Y-22544042D01*
X77995519Y-22496423D01*
X78090757Y-22448804D01*
X78233614Y-22448804D01*
X78328852Y-22496423D01*
X78376471Y-22544042D01*
X78424090Y-22639280D01*
X78424090Y-23020233D01*
X78900281Y-21496423D02*
X78900281Y-22067852D01*
X78900281Y-21782138D02*
X77900281Y-21782138D01*
X78043138Y-21877376D01*
X78138376Y-21972614D01*
X78185995Y-22067852D01*
X77900281Y-20877376D02*
X77900281Y-20782137D01*
X77947900Y-20686899D01*
X77995519Y-20639280D01*
X78090757Y-20591661D01*
X78281233Y-20544042D01*
X78519329Y-20544042D01*
X78709805Y-20591661D01*
X78805043Y-20639280D01*
X78852662Y-20686899D01*
X78900281Y-20782137D01*
X78900281Y-20877376D01*
X78852662Y-20972614D01*
X78805043Y-21020233D01*
X78709805Y-21067852D01*
X78519329Y-21115471D01*
X78281233Y-21115471D01*
X78090757Y-21067852D01*
X77995519Y-21020233D01*
X77947900Y-20972614D01*
X77900281Y-20877376D01*
X31894567Y-1319281D02*
X31894567Y-2033567D01*
X31846947Y-2176424D01*
X31751709Y-2271662D01*
X31608852Y-2319281D01*
X31513614Y-2319281D01*
X32370757Y-2319281D02*
X32370757Y-1319281D01*
X32751710Y-1319281D01*
X32846948Y-1366900D01*
X32894567Y-1414519D01*
X32942186Y-1509757D01*
X32942186Y-1652614D01*
X32894567Y-1747852D01*
X32846948Y-1795471D01*
X32751710Y-1843090D01*
X32370757Y-1843090D01*
X33418376Y-2319281D02*
X33608852Y-2319281D01*
X33704091Y-2271662D01*
X33751710Y-2224043D01*
X33846948Y-2081186D01*
X33894567Y-1890710D01*
X33894567Y-1509757D01*
X33846948Y-1414519D01*
X33799329Y-1366900D01*
X33704091Y-1319281D01*
X33513614Y-1319281D01*
X33418376Y-1366900D01*
X33370757Y-1414519D01*
X33323138Y-1509757D01*
X33323138Y-1747852D01*
X33370757Y-1843090D01*
X33418376Y-1890710D01*
X33513614Y-1938329D01*
X33704091Y-1938329D01*
X33799329Y-1890710D01*
X33846948Y-1843090D01*
X33894567Y-1747852D01*
X27304567Y-15979281D02*
X27304567Y-16693567D01*
X27256947Y-16836424D01*
X27161709Y-16931662D01*
X27018852Y-16979281D01*
X26923614Y-16979281D01*
X27780757Y-16979281D02*
X27780757Y-15979281D01*
X28161710Y-15979281D01*
X28256948Y-16026900D01*
X28304567Y-16074519D01*
X28352186Y-16169757D01*
X28352186Y-16312614D01*
X28304567Y-16407852D01*
X28256948Y-16455471D01*
X28161710Y-16503090D01*
X27780757Y-16503090D01*
X28923614Y-16407852D02*
X28828376Y-16360233D01*
X28780757Y-16312614D01*
X28733138Y-16217376D01*
X28733138Y-16169757D01*
X28780757Y-16074519D01*
X28828376Y-16026900D01*
X28923614Y-15979281D01*
X29114091Y-15979281D01*
X29209329Y-16026900D01*
X29256948Y-16074519D01*
X29304567Y-16169757D01*
X29304567Y-16217376D01*
X29256948Y-16312614D01*
X29209329Y-16360233D01*
X29114091Y-16407852D01*
X28923614Y-16407852D01*
X28828376Y-16455471D01*
X28780757Y-16503090D01*
X28733138Y-16598329D01*
X28733138Y-16788805D01*
X28780757Y-16884043D01*
X28828376Y-16931662D01*
X28923614Y-16979281D01*
X29114091Y-16979281D01*
X29209329Y-16931662D01*
X29256948Y-16884043D01*
X29304567Y-16788805D01*
X29304567Y-16598329D01*
X29256948Y-16503090D01*
X29209329Y-16455471D01*
X29114091Y-16407852D01*
X22369567Y-19607281D02*
X22369567Y-20321567D01*
X22321947Y-20464424D01*
X22226709Y-20559662D01*
X22083852Y-20607281D01*
X21988614Y-20607281D01*
X22845757Y-20607281D02*
X22845757Y-19607281D01*
X23226710Y-19607281D01*
X23321948Y-19654900D01*
X23369567Y-19702519D01*
X23417186Y-19797757D01*
X23417186Y-19940614D01*
X23369567Y-20035852D01*
X23321948Y-20083471D01*
X23226710Y-20131090D01*
X22845757Y-20131090D01*
X23750519Y-19607281D02*
X24417186Y-19607281D01*
X23988614Y-20607281D01*
X1414567Y-13765281D02*
X1414567Y-14479567D01*
X1366947Y-14622424D01*
X1271709Y-14717662D01*
X1128852Y-14765281D01*
X1033614Y-14765281D01*
X1890757Y-14765281D02*
X1890757Y-13765281D01*
X2271710Y-13765281D01*
X2366948Y-13812900D01*
X2414567Y-13860519D01*
X2462186Y-13955757D01*
X2462186Y-14098614D01*
X2414567Y-14193852D01*
X2366948Y-14241471D01*
X2271710Y-14289090D01*
X1890757Y-14289090D01*
X3319329Y-13765281D02*
X3128852Y-13765281D01*
X3033614Y-13812900D01*
X2985995Y-13860519D01*
X2890757Y-14003376D01*
X2843138Y-14193852D01*
X2843138Y-14574805D01*
X2890757Y-14670043D01*
X2938376Y-14717662D01*
X3033614Y-14765281D01*
X3224091Y-14765281D01*
X3319329Y-14717662D01*
X3366948Y-14670043D01*
X3414567Y-14574805D01*
X3414567Y-14336710D01*
X3366948Y-14241471D01*
X3319329Y-14193852D01*
X3224091Y-14146233D01*
X3033614Y-14146233D01*
X2938376Y-14193852D01*
X2890757Y-14241471D01*
X2843138Y-14336710D01*
X4462567Y-13765281D02*
X4462567Y-14479567D01*
X4414947Y-14622424D01*
X4319709Y-14717662D01*
X4176852Y-14765281D01*
X4081614Y-14765281D01*
X4938757Y-14765281D02*
X4938757Y-13765281D01*
X5319710Y-13765281D01*
X5414948Y-13812900D01*
X5462567Y-13860519D01*
X5510186Y-13955757D01*
X5510186Y-14098614D01*
X5462567Y-14193852D01*
X5414948Y-14241471D01*
X5319710Y-14289090D01*
X4938757Y-14289090D01*
X6414948Y-13765281D02*
X5938757Y-13765281D01*
X5891138Y-14241471D01*
X5938757Y-14193852D01*
X6033995Y-14146233D01*
X6272091Y-14146233D01*
X6367329Y-14193852D01*
X6414948Y-14241471D01*
X6462567Y-14336710D01*
X6462567Y-14574805D01*
X6414948Y-14670043D01*
X6367329Y-14717662D01*
X6272091Y-14765281D01*
X6033995Y-14765281D01*
X5938757Y-14717662D01*
X5891138Y-14670043D01*
X7764567Y-13765281D02*
X7764567Y-14479567D01*
X7716947Y-14622424D01*
X7621709Y-14717662D01*
X7478852Y-14765281D01*
X7383614Y-14765281D01*
X8240757Y-14765281D02*
X8240757Y-13765281D01*
X8621710Y-13765281D01*
X8716948Y-13812900D01*
X8764567Y-13860519D01*
X8812186Y-13955757D01*
X8812186Y-14098614D01*
X8764567Y-14193852D01*
X8716948Y-14241471D01*
X8621710Y-14289090D01*
X8240757Y-14289090D01*
X9669329Y-14098614D02*
X9669329Y-14765281D01*
X9431233Y-13717662D02*
X9193138Y-14431948D01*
X9812186Y-14431948D01*
X15543281Y-10955233D02*
X16257567Y-10955233D01*
X16400424Y-11002853D01*
X16495662Y-11098091D01*
X16543281Y-11240948D01*
X16543281Y-11336186D01*
X16543281Y-10479043D02*
X15543281Y-10479043D01*
X15543281Y-10098090D01*
X15590900Y-10002852D01*
X15638519Y-9955233D01*
X15733757Y-9907614D01*
X15876614Y-9907614D01*
X15971852Y-9955233D01*
X16019471Y-10002852D01*
X16067090Y-10098090D01*
X16067090Y-10479043D01*
X15543281Y-9574281D02*
X15543281Y-8955233D01*
X15924233Y-9288567D01*
X15924233Y-9145709D01*
X15971852Y-9050471D01*
X16019471Y-9002852D01*
X16114710Y-8955233D01*
X16352805Y-8955233D01*
X16448043Y-9002852D01*
X16495662Y-9050471D01*
X16543281Y-9145709D01*
X16543281Y-9431424D01*
X16495662Y-9526662D01*
X16448043Y-9574281D01*
X10971281Y-16670233D02*
X11685567Y-16670233D01*
X11828424Y-16717853D01*
X11923662Y-16813091D01*
X11971281Y-16955948D01*
X11971281Y-17051186D01*
X11971281Y-16194043D02*
X10971281Y-16194043D01*
X10971281Y-15813090D01*
X11018900Y-15717852D01*
X11066519Y-15670233D01*
X11161757Y-15622614D01*
X11304614Y-15622614D01*
X11399852Y-15670233D01*
X11447471Y-15717852D01*
X11495090Y-15813090D01*
X11495090Y-16194043D01*
X11066519Y-15241662D02*
X11018900Y-15194043D01*
X10971281Y-15098805D01*
X10971281Y-14860709D01*
X11018900Y-14765471D01*
X11066519Y-14717852D01*
X11161757Y-14670233D01*
X11256995Y-14670233D01*
X11399852Y-14717852D01*
X11971281Y-15289281D01*
X11971281Y-14670233D01*
X10971281Y-19845233D02*
X11685567Y-19845233D01*
X11828424Y-19892853D01*
X11923662Y-19988091D01*
X11971281Y-20130948D01*
X11971281Y-20226186D01*
X11971281Y-19369043D02*
X10971281Y-19369043D01*
X10971281Y-18988090D01*
X11018900Y-18892852D01*
X11066519Y-18845233D01*
X11161757Y-18797614D01*
X11304614Y-18797614D01*
X11399852Y-18845233D01*
X11447471Y-18892852D01*
X11495090Y-18988090D01*
X11495090Y-19369043D01*
X11971281Y-17845233D02*
X11971281Y-18416662D01*
X11971281Y-18130948D02*
X10971281Y-18130948D01*
X11114138Y-18226186D01*
X11209376Y-18321424D01*
X11256995Y-18416662D01*
X84161710Y-33429281D02*
X84161710Y-32429281D01*
X85209329Y-33334043D02*
X85161710Y-33381662D01*
X85018853Y-33429281D01*
X84923615Y-33429281D01*
X84780757Y-33381662D01*
X84685519Y-33286424D01*
X84637900Y-33191186D01*
X84590281Y-33000710D01*
X84590281Y-32857852D01*
X84637900Y-32667376D01*
X84685519Y-32572138D01*
X84780757Y-32476900D01*
X84923615Y-32429281D01*
X85018853Y-32429281D01*
X85161710Y-32476900D01*
X85209329Y-32524519D01*
X85542662Y-32429281D02*
X86161710Y-32429281D01*
X85828376Y-32810233D01*
X85971234Y-32810233D01*
X86066472Y-32857852D01*
X86114091Y-32905471D01*
X86161710Y-33000710D01*
X86161710Y-33238805D01*
X86114091Y-33334043D01*
X86066472Y-33381662D01*
X85971234Y-33429281D01*
X85685519Y-33429281D01*
X85590281Y-33381662D01*
X85542662Y-33334043D01*
X55449910Y-25623781D02*
X55449910Y-24623781D01*
X56497529Y-25528543D02*
X56449910Y-25576162D01*
X56307053Y-25623781D01*
X56211815Y-25623781D01*
X56068957Y-25576162D01*
X55973719Y-25480924D01*
X55926100Y-25385686D01*
X55878481Y-25195210D01*
X55878481Y-25052352D01*
X55926100Y-24861876D01*
X55973719Y-24766638D01*
X56068957Y-24671400D01*
X56211815Y-24623781D01*
X56307053Y-24623781D01*
X56449910Y-24671400D01*
X56497529Y-24719019D01*
X57449910Y-25623781D02*
X56878481Y-25623781D01*
X57164195Y-25623781D02*
X57164195Y-24623781D01*
X57068957Y-24766638D01*
X56973719Y-24861876D01*
X56878481Y-24909495D01*
X23226853Y-16797281D02*
X22750662Y-16797281D01*
X22750662Y-15797281D01*
X23560186Y-16273471D02*
X23893520Y-16273471D01*
X24036377Y-16797281D02*
X23560186Y-16797281D01*
X23560186Y-15797281D01*
X24036377Y-15797281D01*
X24464948Y-16797281D02*
X24464948Y-15797281D01*
X24703043Y-15797281D01*
X24845901Y-15844900D01*
X24941139Y-15940138D01*
X24988758Y-16035376D01*
X25036377Y-16225852D01*
X25036377Y-16368710D01*
X24988758Y-16559186D01*
X24941139Y-16654424D01*
X24845901Y-16749662D01*
X24703043Y-16797281D01*
X24464948Y-16797281D01*
X25417329Y-15892519D02*
X25464948Y-15844900D01*
X25560186Y-15797281D01*
X25798282Y-15797281D01*
X25893520Y-15844900D01*
X25941139Y-15892519D01*
X25988758Y-15987757D01*
X25988758Y-16082995D01*
X25941139Y-16225852D01*
X25369710Y-16797281D01*
X25988758Y-16797281D01*
X44145043Y-3169757D02*
X44192662Y-3217376D01*
X44240281Y-3360233D01*
X44240281Y-3455471D01*
X44192662Y-3598329D01*
X44097424Y-3693567D01*
X44002186Y-3741186D01*
X43811710Y-3788805D01*
X43668852Y-3788805D01*
X43478376Y-3741186D01*
X43383138Y-3693567D01*
X43287900Y-3598329D01*
X43240281Y-3455471D01*
X43240281Y-3360233D01*
X43287900Y-3217376D01*
X43335519Y-3169757D01*
X44240281Y-2217376D02*
X44240281Y-2788805D01*
X44240281Y-2503091D02*
X43240281Y-2503091D01*
X43383138Y-2598329D01*
X43478376Y-2693567D01*
X43525995Y-2788805D01*
X44240281Y-1264995D02*
X44240281Y-1836424D01*
X44240281Y-1550710D02*
X43240281Y-1550710D01*
X43383138Y-1645948D01*
X43478376Y-1741186D01*
X43525995Y-1836424D01*
X87806234Y-35674043D02*
X87758615Y-35721662D01*
X87615758Y-35769281D01*
X87520520Y-35769281D01*
X87377662Y-35721662D01*
X87282424Y-35626424D01*
X87234805Y-35531186D01*
X87187186Y-35340710D01*
X87187186Y-35197852D01*
X87234805Y-35007376D01*
X87282424Y-34912138D01*
X87377662Y-34816900D01*
X87520520Y-34769281D01*
X87615758Y-34769281D01*
X87758615Y-34816900D01*
X87806234Y-34864519D01*
X88282424Y-35769281D02*
X88472900Y-35769281D01*
X88568139Y-35721662D01*
X88615758Y-35674043D01*
X88710996Y-35531186D01*
X88758615Y-35340710D01*
X88758615Y-34959757D01*
X88710996Y-34864519D01*
X88663377Y-34816900D01*
X88568139Y-34769281D01*
X88377662Y-34769281D01*
X88282424Y-34816900D01*
X88234805Y-34864519D01*
X88187186Y-34959757D01*
X88187186Y-35197852D01*
X88234805Y-35293090D01*
X88282424Y-35340710D01*
X88377662Y-35388329D01*
X88568139Y-35388329D01*
X88663377Y-35340710D01*
X88710996Y-35293090D01*
X88758615Y-35197852D01*
X60971234Y-43334043D02*
X60923615Y-43381662D01*
X60780758Y-43429281D01*
X60685520Y-43429281D01*
X60542662Y-43381662D01*
X60447424Y-43286424D01*
X60399805Y-43191186D01*
X60352186Y-43000710D01*
X60352186Y-42857852D01*
X60399805Y-42667376D01*
X60447424Y-42572138D01*
X60542662Y-42476900D01*
X60685520Y-42429281D01*
X60780758Y-42429281D01*
X60923615Y-42476900D01*
X60971234Y-42524519D01*
X61542662Y-42857852D02*
X61447424Y-42810233D01*
X61399805Y-42762614D01*
X61352186Y-42667376D01*
X61352186Y-42619757D01*
X61399805Y-42524519D01*
X61447424Y-42476900D01*
X61542662Y-42429281D01*
X61733139Y-42429281D01*
X61828377Y-42476900D01*
X61875996Y-42524519D01*
X61923615Y-42619757D01*
X61923615Y-42667376D01*
X61875996Y-42762614D01*
X61828377Y-42810233D01*
X61733139Y-42857852D01*
X61542662Y-42857852D01*
X61447424Y-42905471D01*
X61399805Y-42953090D01*
X61352186Y-43048329D01*
X61352186Y-43238805D01*
X61399805Y-43334043D01*
X61447424Y-43381662D01*
X61542662Y-43429281D01*
X61733139Y-43429281D01*
X61828377Y-43381662D01*
X61875996Y-43334043D01*
X61923615Y-43238805D01*
X61923615Y-43048329D01*
X61875996Y-42953090D01*
X61828377Y-42905471D01*
X61733139Y-42857852D01*
X66691043Y-31243566D02*
X66738662Y-31291185D01*
X66786281Y-31434042D01*
X66786281Y-31529280D01*
X66738662Y-31672138D01*
X66643424Y-31767376D01*
X66548186Y-31814995D01*
X66357710Y-31862614D01*
X66214852Y-31862614D01*
X66024376Y-31814995D01*
X65929138Y-31767376D01*
X65833900Y-31672138D01*
X65786281Y-31529280D01*
X65786281Y-31434042D01*
X65833900Y-31291185D01*
X65881519Y-31243566D01*
X65786281Y-30386423D02*
X65786281Y-30576900D01*
X65833900Y-30672138D01*
X65881519Y-30719757D01*
X66024376Y-30814995D01*
X66214852Y-30862614D01*
X66595805Y-30862614D01*
X66691043Y-30814995D01*
X66738662Y-30767376D01*
X66786281Y-30672138D01*
X66786281Y-30481661D01*
X66738662Y-30386423D01*
X66691043Y-30338804D01*
X66595805Y-30291185D01*
X66357710Y-30291185D01*
X66262471Y-30338804D01*
X66214852Y-30386423D01*
X66167233Y-30481661D01*
X66167233Y-30672138D01*
X66214852Y-30767376D01*
X66262471Y-30814995D01*
X66357710Y-30862614D01*
X54252905Y-16174981D02*
X54252905Y-15174981D01*
X54491000Y-15174981D01*
X54633858Y-15222600D01*
X54729096Y-15317838D01*
X54776715Y-15413076D01*
X54824334Y-15603552D01*
X54824334Y-15746410D01*
X54776715Y-15936886D01*
X54729096Y-16032124D01*
X54633858Y-16127362D01*
X54491000Y-16174981D01*
X54252905Y-16174981D01*
X55681477Y-15508314D02*
X55681477Y-16174981D01*
X55443381Y-15127362D02*
X55205286Y-15841648D01*
X55824334Y-15841648D01*
M02*
