M48
;DRILL file {KiCad 4.0.0-rc1-stable} date 18.11.2015 07:04:21
;FORMAT={2:4/ absolute / inch / suppress leading zeros}
FMAT,2
INCH,TZ
T1C0.016
T2C0.024
T3C0.031
T4C0.047
%
G90
G05
M72
T1
X685Y-3735
X2205Y-12855
X2625Y-15740
X4385Y-13042
X4542Y-10601
X5212Y-13219
X5385Y-8835
X5468Y-13022
X5861Y-1231
X6675Y-14880
X6885Y-4144
X7416Y-14125
X7692Y-10759
X7771Y-14597
X7948Y-11605
X8046Y-14381
X8315Y-6475
X8440Y-13829
X8657Y-8495
X8775Y-10700
X8873Y-15503
X9090Y-12018
X9149Y-6113
X9562Y-8416
X9621Y-13928
X9661Y-4991
X9885Y-6485
X10113Y-14991
X10350Y-13613
X10350Y-14164
X10586Y-12038
X10665Y-13534
X11035Y-5035
X11039Y-3278
X11335Y-8285
X11393Y-4637
X11432Y-5503
X11787Y-4696
X12023Y-2137
X12161Y-4400
X12377Y-5266
X12635Y-7885
X12885Y-8385
X13460Y-5936
X13499Y-11605
X13932Y-11585
X14085Y-7885
X14424Y-14558
X14435Y-8435
X14444Y-2255
X14503Y-12786
X14562Y-5326
X14602Y-15463
X14779Y-3337
X14779Y-4223
X15113Y-4558
X15960Y-9833
X16078Y-3357
X16117Y-4715
X16135Y-8035
X16196Y-16231
X16216Y-12294
X16235Y-13042
X16245Y-15485
X16255Y-4263
X16435Y-7335
X16511Y-15227
X16629Y-3357
X16767Y-14164
X17075Y-15785
X17180Y-5306
X17298Y-6763
X17416Y-15385
X17515Y-10916
X17594Y-3810
X18066Y-3711
X18105Y-4381
X18539Y-3770
X18598Y-9361
X18696Y-5247
X18716Y-13042
X18854Y-9085
X18932Y-3790
X19739Y-13042
X19857Y-10837
X19956Y-14105
X20369Y-11763
X20428Y-12412
X20566Y-6782
X20625Y-5286
X20881Y-15365
X21137Y-15050
X21354Y-9361
X22285Y-2805
X22357Y-13455
X22456Y-12314
X22495Y-8475
X22731Y-12550
X22751Y-8711
X22785Y-4585
X22875Y-2865
X22928Y-12944
X23435Y-3885
X23485Y-2185
X23539Y-8633
X23585Y-15935
X23794Y-8967
X23814Y-9912
X24031Y-2392
X24035Y-2735
X24326Y-14204
X24385Y-13633
X25735Y-7235
X27850Y-1900
X27968Y-11054
X29095Y-12085
X29145Y-9725
X29175Y-10045
X29185Y-11695
X29195Y-10985
X29208Y-11329
X29235Y-7535
X29235Y-12365
X29385Y-10285
X29535Y-11385
X30865Y-14395
X31085Y-11505
X32035Y-11235
X32318Y-12826
X32645Y-10935
X33046Y-16034
X33105Y-15660
X33263Y-15345
X33519Y-15109
X33735Y-14873
X33785Y-10235
X33885Y-11035
X33885Y-11435
X34785Y-11935
X36058Y-14204
X36285Y-11535
X36668Y-12609
X36826Y-12333
X37085Y-11235
X37574Y-13141
T2
X1452Y-3593
X2692Y-9341
X4444Y-12314
X4503Y-5522
X4936Y-11684
X16609Y-11763
X16826Y-1861
X17259Y-1093
X17928Y-8515
X19385Y-10837
X19916Y-8239
X20389Y-936
X23952Y-1015
X25999Y-1034
X26058Y-1566
X28913Y-12648
X32338Y-10207
X32495Y-11585
X33794Y-13633
X36629Y-14538
T3
X2085Y-5535
X3105Y-3534
X4050Y-13751
X6393Y-3081
X6570Y-16950
X9857Y-11133
X12055Y-11730
X13676Y-11015
X13735Y-9774
X14779Y-8849
X16435Y-5235
X16435Y-6285
X16964Y-10995
X19523Y-11940
X22771Y-6566
X25822Y-6704
X26485Y-8085
X26585Y-2335
X27456Y-4459
X28243Y-4715
X29228Y-1743
X29641Y-6881
X31885Y-1763
X32220Y-2373
X32385Y-1135
X33027Y-6329
X33184Y-16802
X34109Y-3731
X37885Y-14135
X38381Y-16704
T4
X885Y-735
X885Y-1735
X885Y-2735
X885Y-6485
X885Y-7485
X1885Y-735
X1885Y-1735
X1885Y-2735
X2135Y-6485
X2135Y-7485
X2885Y-735
X2885Y-1735
X2885Y-2735
X3385Y-6485
X3385Y-7485
X4135Y-18735
X5135Y-18735
X5385Y-4985
X5385Y-6235
X5385Y-7485
X6135Y-18735
X6385Y-4985
X6385Y-6235
X6385Y-7485
X7135Y-18735
X7385Y-735
X7385Y-1735
X7385Y-2735
X7385Y-3735
X7385Y-4985
X7385Y-6235
X7385Y-7485
X8635Y-735
X8635Y-1735
X8635Y-2735
X8635Y-3735
X8635Y-7235
X9635Y-735
X9635Y-1735
X9635Y-2735
X9635Y-3735
X9635Y-7235
X10635Y-735
X10635Y-1735
X10635Y-2735
X10635Y-3735
X11007Y-7235
X12007Y-7235
X12385Y-1485
X12385Y-14985
X12385Y-16235
X13007Y-7235
X13385Y-1485
X13385Y-14985
X13385Y-16235
X18885Y-1485
X19885Y-1485
X23085Y-8135
X24085Y-8135
X26185Y-5435
X27185Y-5435
X29635Y-11985
X30635Y-10735
X30635Y-11985
X31635Y-10735
X31635Y-11985
X31885Y-8235
X31885Y-9235
X38385Y-4235
X38385Y-5235
X38385Y-6235
X38385Y-7235
X38385Y-8235
T0
M30
