G04 #@! TF.FileFunction,Soldermask,Bot*
%FSLAX46Y46*%
G04 Gerber Fmt 4.6, Leading zero omitted, Abs format (unit mm)*
G04 Created by KiCad (PCBNEW 4.0.0-rc1-stable) date 18.11.2015 07:04:15*
%MOMM*%
G01*
G04 APERTURE LIST*
%ADD10C,0.020000*%
%ADD11R,1.300000X1.900000*%
%ADD12C,2.100000*%
%ADD13R,1.300000X1.600000*%
%ADD14R,0.700000X1.600000*%
%ADD15R,1.200100X1.200100*%
%ADD16R,1.600000X1.300000*%
%ADD17R,1.800000X0.650000*%
%ADD18R,1.900000X0.850000*%
%ADD19R,0.900000X1.000000*%
%ADD20R,1.000000X0.900000*%
%ADD21R,1.650000X1.400000*%
G04 APERTURE END LIST*
D10*
D11*
X5244100Y-34570500D03*
X1944100Y-34570500D03*
X5244100Y-39470500D03*
X1944100Y-39470500D03*
X5231400Y-25871000D03*
X1931400Y-25871000D03*
X5231400Y-30771000D03*
X1931400Y-30771000D03*
D12*
X75272900Y-30441900D03*
X77812900Y-30441900D03*
X80352900Y-30441900D03*
D13*
X26631900Y-14142900D03*
X26631900Y-11942900D03*
D14*
X92467900Y-35536900D03*
X92967900Y-35536900D03*
X93467900Y-35536900D03*
X92467900Y-33536900D03*
X92967900Y-33536900D03*
X93467900Y-33536900D03*
D12*
X10502900Y-47586900D03*
X13042900Y-47586900D03*
X15582900Y-47586900D03*
X18122900Y-47586900D03*
D13*
X14693900Y-7157900D03*
X14693900Y-4957900D03*
X1739900Y-10672900D03*
X1739900Y-12872900D03*
X12788900Y-4957900D03*
X12788900Y-7157900D03*
X10883900Y-4957900D03*
X10883900Y-7157900D03*
D15*
X8282900Y-22456140D03*
X10182900Y-22456140D03*
X9232900Y-24455120D03*
D16*
X45257900Y-31076900D03*
X43057900Y-31076900D03*
D13*
X87337900Y-26801900D03*
X87337900Y-29001900D03*
D16*
X21127900Y-39331900D03*
X18927900Y-39331900D03*
X26207900Y-36791900D03*
X24007900Y-36791900D03*
X52582900Y-6946900D03*
X54782900Y-6946900D03*
D13*
X9867900Y-30611900D03*
X9867900Y-32811900D03*
D16*
X24007900Y-39331900D03*
X26207900Y-39331900D03*
X48137900Y-6946900D03*
X50337900Y-6946900D03*
D13*
X10121900Y-11180900D03*
X10121900Y-13380900D03*
X27647900Y-24261900D03*
X27647900Y-26461900D03*
X6692900Y-12872900D03*
X6692900Y-10672900D03*
D16*
X15412900Y-25996900D03*
X13212900Y-25996900D03*
D13*
X59397900Y-37891900D03*
X59397900Y-35691900D03*
D16*
X9402900Y-9486900D03*
X11602900Y-9486900D03*
X22102900Y-22821900D03*
X24302900Y-22821900D03*
D13*
X3771900Y-12872900D03*
X3771900Y-10672900D03*
D16*
X13847900Y-9486900D03*
X16047900Y-9486900D03*
X75737900Y-23710900D03*
X73537900Y-23710900D03*
X30357900Y-15836900D03*
X32557900Y-15836900D03*
D13*
X32727900Y-6481900D03*
X32727900Y-8681900D03*
D15*
X19707900Y-26362660D03*
X17807900Y-26362660D03*
X18757900Y-24363680D03*
D12*
X21932900Y-9486900D03*
X21932900Y-6946900D03*
X21932900Y-4406900D03*
X21932900Y-1866900D03*
X24472900Y-9486900D03*
X24472900Y-6946900D03*
X24472900Y-4406900D03*
X24472900Y-1866900D03*
X27012900Y-9486900D03*
X27012900Y-6946900D03*
X27012900Y-4406900D03*
X27012900Y-1866900D03*
X2247900Y-6946900D03*
X2247900Y-4406900D03*
X2247900Y-1866900D03*
X18757900Y-9486900D03*
X18757900Y-6946900D03*
X18757900Y-4406900D03*
X18757900Y-1866900D03*
X4787900Y-6946900D03*
X4787900Y-4406900D03*
X4787900Y-1866900D03*
X7327900Y-6946900D03*
X7327900Y-4406900D03*
X7327900Y-1866900D03*
X97497900Y-10756900D03*
X97497900Y-13296900D03*
X97497900Y-15836900D03*
X97497900Y-18376900D03*
X97497900Y-20916900D03*
X69049900Y-13804900D03*
X66509900Y-13804900D03*
X47967900Y-3771900D03*
X50507900Y-3771900D03*
X31457900Y-38061900D03*
X33997900Y-38061900D03*
X33997900Y-41236900D03*
X31457900Y-41236900D03*
X80352900Y-27266900D03*
X77812900Y-27266900D03*
X58635900Y-20662900D03*
X61175900Y-20662900D03*
X80987900Y-23456900D03*
X80987900Y-20916900D03*
X31457900Y-3771900D03*
X33997900Y-3771900D03*
X27957900Y-18376900D03*
X30497900Y-18376900D03*
X33037900Y-18376900D03*
X24472900Y-18376900D03*
X21932900Y-18376900D03*
X2247900Y-16471900D03*
X2247900Y-19011900D03*
X5422900Y-16471900D03*
X5422900Y-19011900D03*
X8597900Y-16471900D03*
X8597900Y-19011900D03*
X13677900Y-12661900D03*
X16217900Y-12661900D03*
X18757900Y-12661900D03*
X13677900Y-15836900D03*
X16217900Y-15836900D03*
X18757900Y-15836900D03*
X13677900Y-19011900D03*
X16217900Y-19011900D03*
X18757900Y-19011900D03*
D17*
X58167900Y-3636900D03*
X58167900Y-4136900D03*
X58167900Y-3136900D03*
X58167900Y-2636900D03*
X58167900Y-2136900D03*
X63167900Y-2136900D03*
X63167900Y-2636900D03*
X63167900Y-3136900D03*
X63167900Y-3636900D03*
X63167900Y-4136900D03*
D18*
X21437900Y-29796900D03*
X21437900Y-30446900D03*
X21437900Y-31096900D03*
X21437900Y-31746900D03*
X21437900Y-32396900D03*
X21437900Y-33046900D03*
X21437900Y-33696900D03*
X21437900Y-34346900D03*
X15537900Y-34346900D03*
X15537900Y-33696900D03*
X15537900Y-33046900D03*
X15537900Y-32396900D03*
X15537900Y-31746900D03*
X15537900Y-31096900D03*
X15537900Y-30446900D03*
X15537900Y-29796900D03*
D19*
X61937900Y-7031900D03*
X61937900Y-8131900D03*
D20*
X53132900Y-2501900D03*
X54232900Y-2501900D03*
D21*
X35521900Y-11534900D03*
X35521900Y-13534900D03*
X32727900Y-11661900D03*
X32727900Y-13661900D03*
D20*
X46437900Y-27221900D03*
X47537900Y-27221900D03*
M02*
