G04 #@! TF.FileFunction,Copper,L1,Top,Signal*
%FSLAX46Y46*%
G04 Gerber Fmt 4.6, Leading zero omitted, Abs format (unit mm)*
G04 Created by KiCad (PCBNEW 4.0.0-rc1-stable) date 18.11.2015 07:04:15*
%MOMM*%
G01*
G04 APERTURE LIST*
%ADD10C,0.020000*%
%ADD11R,2.540000X2.540000*%
%ADD12R,1.270000X1.270000*%
%ADD13R,0.797560X0.797560*%
%ADD14C,1.700000*%
%ADD15R,1.300000X0.300000*%
%ADD16R,2.500000X1.800000*%
%ADD17R,0.800000X3.200000*%
%ADD18R,3.200000X0.800000*%
%ADD19R,2.800000X1.000000*%
%ADD20R,2.800000X1.500000*%
%ADD21R,1.500000X2.800000*%
%ADD22R,1.800000X2.500000*%
%ADD23R,0.900000X1.200000*%
%ADD24R,1.500000X1.000000*%
%ADD25R,2.200000X2.200000*%
%ADD26R,2.400000X1.000000*%
%ADD27R,0.650000X1.060000*%
%ADD28R,2.100000X1.400000*%
%ADD29R,1.400000X2.100000*%
%ADD30R,1.200000X1.150000*%
%ADD31R,3.000000X0.700000*%
%ADD32R,1.200000X1.450000*%
%ADD33R,0.700000X1.000000*%
%ADD34R,0.900000X1.450000*%
%ADD35R,1.200000X0.900000*%
%ADD36R,3.657600X2.032000*%
%ADD37R,1.016000X2.032000*%
%ADD38R,1.000000X0.700000*%
%ADD39R,1.500000X3.400000*%
%ADD40R,1.000000X4.000000*%
%ADD41R,1.350000X0.400000*%
%ADD42R,1.600000X2.100000*%
%ADD43R,1.900000X1.800000*%
%ADD44R,5.700000X1.600000*%
%ADD45R,0.400000X0.600000*%
%ADD46R,1.500000X0.400000*%
%ADD47O,1.100000X2.400000*%
%ADD48R,2.400000X1.100000*%
%ADD49O,2.400000X1.100000*%
%ADD50R,0.500000X0.600000*%
%ADD51R,0.600000X0.500000*%
%ADD52C,0.600000*%
%ADD53C,1.500000*%
%ADD54C,1.000000*%
%ADD55C,0.200000*%
%ADD56C,1.000000*%
%ADD57C,0.400000*%
%ADD58C,0.300000*%
%ADD59C,0.500000*%
%ADD60C,0.254000*%
G04 APERTURE END LIST*
D10*
D11*
X63423800Y-11938000D03*
D12*
X63423800Y-9268000D03*
D13*
X55359300Y-8191500D03*
X55359300Y-6692900D03*
D14*
X75272900Y-30441900D03*
X77812900Y-30441900D03*
X80352900Y-30441900D03*
D13*
X27012900Y-15062200D03*
X27012900Y-13563600D03*
D15*
X41912900Y-3481900D03*
X41912900Y-2821900D03*
X41912900Y-2181900D03*
X41912900Y-1521900D03*
X37512900Y-2821900D03*
X37512900Y-2181900D03*
X37512900Y-1521900D03*
X37512900Y-3481900D03*
D16*
X72092900Y-3136900D03*
X68292900Y-3136900D03*
D17*
X33037900Y-23826900D03*
X33037900Y-29226900D03*
D18*
X80639900Y-15836900D03*
X75239900Y-15836900D03*
X69971900Y-19646900D03*
X64571900Y-19646900D03*
D17*
X82892900Y-40761900D03*
X82892900Y-35361900D03*
X84797900Y-2341900D03*
X84797900Y-7741900D03*
D19*
X55697900Y-3136900D03*
X63097900Y-5136900D03*
D20*
X55697900Y-12536900D03*
D21*
X60147900Y-15536900D03*
D22*
X84162900Y-24721900D03*
X84162900Y-20921900D03*
D16*
X90761900Y-15836900D03*
X86961900Y-15836900D03*
D14*
X10502900Y-47586900D03*
X13042900Y-47586900D03*
X15582900Y-47586900D03*
X18122900Y-47586900D03*
D23*
X14693900Y-4957900D03*
X14693900Y-7157900D03*
X10883900Y-4957900D03*
X10883900Y-7157900D03*
X12788900Y-4957900D03*
X12788900Y-7157900D03*
D24*
X66977900Y-7351900D03*
D10*
G36*
X67727900Y-8751900D02*
X68627900Y-7751900D01*
X68627900Y-9951900D01*
X67727900Y-8951900D01*
X67727900Y-8751900D01*
X67727900Y-8751900D01*
G37*
G36*
X70827900Y-7751900D02*
X71727900Y-8751900D01*
X71727900Y-8951900D01*
X70827900Y-9951900D01*
X70827900Y-7751900D01*
X70827900Y-7751900D01*
G37*
D25*
X69727900Y-8851900D03*
D26*
X67427900Y-8851900D03*
D24*
X66977900Y-10351900D03*
D27*
X69877900Y-32176900D03*
X70827900Y-32176900D03*
X71777900Y-32176900D03*
X71777900Y-29976900D03*
X69877900Y-29976900D03*
X70827900Y-29976900D03*
D28*
X66777900Y-40946900D03*
X74877900Y-40946900D03*
X66777900Y-36446900D03*
X74877900Y-36446900D03*
D29*
X39367900Y-7341900D03*
X39367900Y-15441900D03*
X43867900Y-7341900D03*
X43867900Y-15441900D03*
X47622900Y-7341900D03*
X47622900Y-15441900D03*
X52122900Y-7341900D03*
X52122900Y-15441900D03*
X31112900Y-7341900D03*
X31112900Y-15441900D03*
X35612900Y-7341900D03*
X35612900Y-15441900D03*
D30*
X98957900Y-48366900D03*
D31*
X94317900Y-41816900D03*
X94317900Y-39616900D03*
X94317900Y-40716900D03*
X94317900Y-42916900D03*
X94317900Y-44016900D03*
X94317900Y-45116900D03*
X94317900Y-46216900D03*
X94317900Y-47316900D03*
D30*
X96367900Y-48366900D03*
D32*
X96807900Y-37891900D03*
D33*
X97957900Y-37666900D03*
D34*
X99257900Y-37891900D03*
D35*
X90047900Y-25996900D03*
X92247900Y-25996900D03*
X92247900Y-23456900D03*
X90047900Y-23456900D03*
X58932900Y-37426900D03*
X61132900Y-37426900D03*
D23*
X63207900Y-39161900D03*
X63207900Y-36961900D03*
D35*
X66933900Y-24218900D03*
X69133900Y-24218900D03*
D23*
X73367900Y-20832900D03*
X73367900Y-23032900D03*
X71589900Y-24388900D03*
X71589900Y-26588900D03*
D35*
X61132900Y-39331900D03*
X58932900Y-39331900D03*
D23*
X44157900Y-20746900D03*
X44157900Y-18546900D03*
X39077900Y-20746900D03*
X39077900Y-18546900D03*
X52412900Y-20746900D03*
X52412900Y-18546900D03*
X47332900Y-20746900D03*
X47332900Y-18546900D03*
D35*
X31287900Y-22076900D03*
X29087900Y-22076900D03*
D23*
X37187900Y-17726900D03*
X37187900Y-19926900D03*
D36*
X77177900Y-3009900D03*
D37*
X77177900Y-9613900D03*
X79463900Y-9613900D03*
X74891900Y-9613900D03*
D33*
X10629900Y-9460900D03*
X9679900Y-12560900D03*
X11579900Y-12560900D03*
D38*
X5325780Y-11645900D03*
X8425780Y-12595900D03*
X8425780Y-10695900D03*
X824900Y-11645900D03*
X3924900Y-12595900D03*
X3924900Y-10695900D03*
D39*
X96402900Y-3101900D03*
D40*
X92052900Y-8851900D03*
X94052900Y-8851900D03*
D39*
X89702900Y-3101900D03*
D14*
X21932900Y-9486900D03*
X21932900Y-6946900D03*
X21932900Y-4406900D03*
X21932900Y-1866900D03*
X24472900Y-9486900D03*
X24472900Y-6946900D03*
X24472900Y-4406900D03*
X24472900Y-1866900D03*
X27012900Y-9486900D03*
X27012900Y-6946900D03*
X27012900Y-4406900D03*
X27012900Y-1866900D03*
X2247900Y-6946900D03*
X2247900Y-4406900D03*
X2247900Y-1866900D03*
X18757900Y-9486900D03*
X18757900Y-6946900D03*
X18757900Y-4406900D03*
X18757900Y-1866900D03*
X4787900Y-6946900D03*
X4787900Y-4406900D03*
X4787900Y-1866900D03*
X7327900Y-6946900D03*
X7327900Y-4406900D03*
X7327900Y-1866900D03*
X97497900Y-10756900D03*
X97497900Y-13296900D03*
X97497900Y-15836900D03*
X97497900Y-18376900D03*
X97497900Y-20916900D03*
D41*
X95542900Y-27136900D03*
X95542900Y-27786900D03*
X95542900Y-29736900D03*
X95542900Y-29086900D03*
D42*
X95692900Y-31536900D03*
X95692900Y-25336900D03*
D43*
X98217900Y-29586900D03*
X98217900Y-27286900D03*
X98217900Y-32236900D03*
X98217900Y-24636900D03*
D41*
X95542900Y-28436900D03*
D44*
X61683900Y-32664900D03*
X61683900Y-27964900D03*
D45*
X89057900Y-40716900D03*
X88157900Y-40716900D03*
X88157900Y-39446900D03*
X89057900Y-39446900D03*
D14*
X69049900Y-13804900D03*
X66509900Y-13804900D03*
X47967900Y-3771900D03*
X50507900Y-3771900D03*
X31457900Y-38061900D03*
X33997900Y-38061900D03*
X33997900Y-41236900D03*
X31457900Y-41236900D03*
X80352900Y-27266900D03*
X77812900Y-27266900D03*
X58635900Y-20662900D03*
X61175900Y-20662900D03*
X80987900Y-23456900D03*
X80987900Y-20916900D03*
X31457900Y-3771900D03*
X33997900Y-3771900D03*
X27957900Y-18376900D03*
X30497900Y-18376900D03*
X33037900Y-18376900D03*
X24472900Y-18376900D03*
X21932900Y-18376900D03*
X2247900Y-16471900D03*
X2247900Y-19011900D03*
X5422900Y-16471900D03*
X5422900Y-19011900D03*
X8597900Y-16471900D03*
X8597900Y-19011900D03*
X13677900Y-12661900D03*
X16217900Y-12661900D03*
X18757900Y-12661900D03*
X13677900Y-15836900D03*
X16217900Y-15836900D03*
X18757900Y-15836900D03*
X13677900Y-19011900D03*
X16217900Y-19011900D03*
X18757900Y-19011900D03*
D46*
X84592900Y-27791900D03*
X84592900Y-29061900D03*
X84592900Y-30331900D03*
X84592900Y-31601900D03*
X90542900Y-27791900D03*
X90542900Y-29061900D03*
X90542900Y-30331900D03*
X90542900Y-31601900D03*
D47*
X51997900Y-25471900D03*
X49997900Y-25471900D03*
X47997900Y-25471900D03*
X45997900Y-25471900D03*
X43997900Y-25471900D03*
X41997900Y-25471900D03*
D48*
X54987900Y-41221900D03*
D49*
X54987900Y-39221900D03*
X54987900Y-37221900D03*
X54987900Y-35221900D03*
X54987900Y-33221900D03*
X54987900Y-31221900D03*
X54987900Y-29221900D03*
X54987900Y-27221900D03*
X38987900Y-27221900D03*
X38987900Y-29221900D03*
X38987900Y-31221900D03*
X38987900Y-33221900D03*
X38987900Y-35221900D03*
X38987900Y-37221900D03*
X38987900Y-39221900D03*
X38987900Y-41221900D03*
D13*
X24472900Y-15062200D03*
X24472900Y-13563600D03*
D50*
X45487900Y-3076900D03*
X45487900Y-1976900D03*
D51*
X88522900Y-33616900D03*
X87422900Y-33616900D03*
X61687900Y-41276900D03*
X60587900Y-41276900D03*
D50*
X68033900Y-31626900D03*
X68033900Y-30526900D03*
D11*
X55067200Y-19939000D03*
D12*
X55067200Y-17269000D03*
D52*
X74129900Y-29705300D03*
X74256900Y-31407100D03*
X73901300Y-30695900D03*
X75018900Y-28917900D03*
X78955900Y-29222700D03*
X81368900Y-28536900D03*
X82918300Y-27774900D03*
X74028300Y-24701500D03*
X74637900Y-26123900D03*
X74104500Y-25514300D03*
D53*
X67525900Y-5930900D03*
X82257900Y-2882900D03*
D52*
X93137900Y-32026900D03*
X95437900Y-33376900D03*
D54*
X60837900Y-2576900D03*
X51787900Y-2376900D03*
D53*
X83887900Y-16076900D03*
X86637900Y-9476900D03*
X67271900Y-20535900D03*
D54*
X42737900Y-4726900D03*
D53*
X7887900Y-8976900D03*
D54*
X3687900Y-9126900D03*
X11437900Y-14026900D03*
D53*
X49587900Y-30326900D03*
D54*
X50587900Y-20926900D03*
X45537900Y-21626900D03*
D53*
X25037900Y-28276900D03*
D52*
X18837900Y-35876900D03*
X21437900Y-35126900D03*
D54*
X42187900Y-29876900D03*
D53*
X16237900Y-7826900D03*
X41744900Y-15963900D03*
X41744900Y-13296900D03*
X34887900Y-24826900D03*
X96227900Y-35902900D03*
X84287900Y-42676900D03*
X16687800Y-43053000D03*
X65587900Y-17026900D03*
X97487900Y-42426900D03*
D54*
X43837900Y-2776900D03*
D53*
X43087900Y-27926900D03*
D54*
X49237900Y-27526900D03*
D53*
X34737900Y-27976900D03*
X37537900Y-22476900D03*
D54*
X12537900Y-29676900D03*
X11287900Y-31276900D03*
X6837900Y-23726900D03*
D53*
X10287900Y-34926900D03*
D52*
X41937900Y-38676900D03*
X44237900Y-39076900D03*
D53*
X71737900Y-11976900D03*
D52*
X61787900Y-36076900D03*
X61037900Y-6076900D03*
X6667500Y-39979600D03*
X5600700Y-32651700D03*
D53*
X30619700Y-29794200D03*
D52*
X37537900Y-8476900D03*
X30887900Y-11176900D03*
X37537900Y-10726900D03*
X31437900Y-13376900D03*
X36987900Y-13526900D03*
D54*
X73437900Y-32126900D03*
D53*
X75287900Y-17476900D03*
D52*
X59905900Y-40474900D03*
D54*
X82137900Y-25926900D03*
X82537900Y-29426900D03*
X85837900Y-34626900D03*
X93037900Y-36926900D03*
D52*
X70737900Y-4826900D03*
X58102500Y-7277100D03*
D53*
X81837900Y-6026900D03*
X69737900Y-11326900D03*
D54*
X66037900Y-2626900D03*
D52*
X42237900Y-8526900D03*
X41287900Y-10826900D03*
X61048900Y-6946900D03*
X59651900Y-5549900D03*
D53*
X80987900Y-4476900D03*
X74237900Y-4426900D03*
D52*
X22537900Y-39376900D03*
X16954500Y-37795200D03*
X26287900Y-34576900D03*
X74155300Y-27901900D03*
X54237900Y-23776900D03*
X60437900Y-22776900D03*
X60487900Y-25176900D03*
X82087900Y-32576900D03*
X91587900Y-36076900D03*
X50137900Y-33126900D03*
X47537900Y-33126900D03*
X50437900Y-27526900D03*
X50687900Y-35826900D03*
X56787900Y-34176900D03*
X84087900Y-39776900D03*
X85687900Y-37776900D03*
X57037900Y-31276900D03*
X57137900Y-21526900D03*
X47887900Y-23076900D03*
X85137900Y-38376900D03*
X57737900Y-31876900D03*
X57787900Y-22126900D03*
X47237900Y-23776900D03*
X83937900Y-40726900D03*
X53687900Y-38226900D03*
X44487900Y-27726900D03*
X42587900Y-35976900D03*
X84487900Y-38976900D03*
X58237900Y-32876900D03*
X59787900Y-21926900D03*
X40537900Y-24976900D03*
X21987900Y-21576900D03*
X51887900Y-31526900D03*
X53037900Y-39026900D03*
X34287900Y-29476900D03*
X14887900Y-3126900D03*
X36837900Y-32476900D03*
X51737900Y-29876900D03*
X35387900Y-29426900D03*
X19537900Y-27326900D03*
X20187900Y-29476900D03*
X24437900Y-35376900D03*
X41187900Y-31226900D03*
X23087900Y-30526900D03*
X22287900Y-27176900D03*
X26887900Y-30576900D03*
X11537900Y-26926900D03*
X13887900Y-33076900D03*
X36637900Y-36976900D03*
X41237900Y-33126900D03*
X27087900Y-34376900D03*
X41262300Y-39331900D03*
X43370500Y-40093900D03*
X78397100Y-36563300D03*
X37087900Y-39276900D03*
X41137900Y-41226900D03*
X74187900Y-28776900D03*
X45987900Y-11126900D03*
X45887900Y-9426900D03*
X85813900Y-25996900D03*
X86067900Y-28028900D03*
X86067900Y-29044900D03*
X88353900Y-30314900D03*
X94195900Y-28536900D03*
X92163900Y-29298900D03*
X93537900Y-31326900D03*
X19737900Y-37076900D03*
X25687900Y-38076900D03*
X13237900Y-33576900D03*
X11137900Y-33126900D03*
X20437900Y-36526900D03*
D54*
X66187900Y-3976900D03*
D52*
X30537900Y-5426900D03*
X28037900Y-8326900D03*
X28937900Y-11776900D03*
X29037900Y-13976900D03*
X28790900Y-21043900D03*
X48087900Y-9626900D03*
X52387900Y-13426900D03*
X41744900Y-18630900D03*
X52237900Y-17226900D03*
X40982900Y-20408900D03*
X32727900Y-21297900D03*
X36664900Y-21424900D03*
X44687900Y-9676900D03*
X43637900Y-13476900D03*
X43937900Y-17176900D03*
X21120100Y-16446500D03*
X25107900Y-16471900D03*
X35775900Y-20027900D03*
X32092900Y-20027900D03*
X24287900Y-21376900D03*
X17487900Y-10526900D03*
X13677900Y-22440900D03*
X26287900Y-35976900D03*
D53*
X5295900Y-14058900D03*
D52*
X1739900Y-9486900D03*
X34187900Y-15076900D03*
X29937900Y-11926900D03*
X38387900Y-11576900D03*
X36687900Y-5726900D03*
X47487900Y-13326900D03*
X47087900Y-9576900D03*
X71037900Y-28076900D03*
X40937900Y-11976900D03*
X40837900Y-8526900D03*
X61937900Y-34626900D03*
D53*
X57837900Y-16676900D03*
D52*
X56603900Y-7124700D03*
X23237900Y-15526900D03*
X28028900Y-12788900D03*
X24537900Y-12676900D03*
X65366900Y-18376900D03*
X74256900Y-19138900D03*
X57873900Y-11645900D03*
X59524900Y-9867900D03*
D55*
X74206100Y-29629100D02*
X74129900Y-29705300D01*
X74155300Y-31407100D02*
X73901300Y-31153100D01*
X73901300Y-31153100D02*
X73901300Y-30695900D01*
X74256900Y-31407100D02*
X74155300Y-31407100D01*
X73901300Y-29933900D02*
X74129900Y-29705300D01*
X73901300Y-30695900D02*
X73901300Y-29933900D01*
X74231500Y-29705300D02*
X75018900Y-28917900D01*
X74129900Y-29705300D02*
X74231500Y-29705300D01*
X78651100Y-28917900D02*
X78955900Y-29222700D01*
X81368900Y-28536900D02*
X82130900Y-27774900D01*
X82130900Y-27774900D02*
X82918300Y-27774900D01*
X75018900Y-28917900D02*
X78651100Y-28917900D01*
D56*
X11579900Y-12468900D02*
X11579900Y-12560900D01*
X9806900Y-10695900D02*
X11579900Y-12468900D01*
X8425780Y-10695900D02*
X9806900Y-10695900D01*
X7012900Y-10695900D02*
X8425780Y-10695900D01*
X6565900Y-10248900D02*
X7012900Y-10695900D01*
X4279900Y-10248900D02*
X6565900Y-10248900D01*
X3924900Y-10603900D02*
X4279900Y-10248900D01*
X3924900Y-10695900D02*
X3924900Y-10603900D01*
X4787900Y-1866900D02*
X7327900Y-1866900D01*
X2247900Y-1866900D02*
X4787900Y-1866900D01*
X94052900Y-9851900D02*
X94052900Y-8851900D01*
X94957900Y-10756900D02*
X94052900Y-9851900D01*
X97497900Y-10756900D02*
X94957900Y-10756900D01*
X84797900Y-3898900D02*
X84797900Y-2341900D01*
X94052900Y-6803900D02*
X93179900Y-5930900D01*
X93179900Y-5930900D02*
X86829900Y-5930900D01*
X86829900Y-5930900D02*
X84797900Y-3898900D01*
X94052900Y-8851900D02*
X94052900Y-6803900D01*
X98217900Y-22144900D02*
X98217900Y-24636900D01*
X97497900Y-21424900D02*
X98217900Y-22144900D01*
X97497900Y-20916900D02*
X97497900Y-21424900D01*
X96392900Y-24636900D02*
X95692900Y-25336900D01*
X98217900Y-24636900D02*
X96392900Y-24636900D01*
X98217900Y-24636900D02*
X98217900Y-27286900D01*
X98217900Y-29586900D02*
X98217900Y-32236900D01*
X98217900Y-27286900D02*
X98217900Y-29586900D01*
X96392900Y-32236900D02*
X95692900Y-31536900D01*
X98217900Y-32236900D02*
X96392900Y-32236900D01*
X98217900Y-33320900D02*
X97957900Y-33580900D01*
X97957900Y-33580900D02*
X97957900Y-37666900D01*
X98217900Y-32236900D02*
X98217900Y-33320900D01*
X99032900Y-37666900D02*
X99257900Y-37891900D01*
X97957900Y-37666900D02*
X99032900Y-37666900D01*
X97032900Y-37666900D02*
X96807900Y-37891900D01*
X97957900Y-37666900D02*
X97032900Y-37666900D01*
X99257900Y-48066900D02*
X98957900Y-48366900D01*
X99257900Y-45300900D02*
X99257900Y-48066900D01*
X99257900Y-37891900D02*
X99257900Y-45300900D01*
X98957900Y-48366900D02*
X96367900Y-48366900D01*
X99257900Y-45116900D02*
X99275900Y-45134900D01*
X99275900Y-45134900D02*
X99275900Y-45300900D01*
X99275900Y-45300900D02*
X99257900Y-45300900D01*
X94317900Y-45116900D02*
X99257900Y-45116900D01*
X82257900Y-2882900D02*
X82798900Y-2341900D01*
X82798900Y-2341900D02*
X84797900Y-2341900D01*
X66977900Y-6478900D02*
X67525900Y-5930900D01*
X66977900Y-7351900D02*
X66977900Y-6478900D01*
D55*
X98067900Y-27136900D02*
X98217900Y-27286900D01*
X95542900Y-27136900D02*
X98067900Y-27136900D01*
X92712900Y-31601900D02*
X93137900Y-32026900D01*
X90542900Y-31601900D02*
X92712900Y-31601900D01*
X95437900Y-33376900D02*
X95692900Y-33121900D01*
X95692900Y-33121900D02*
X95692900Y-31536900D01*
D57*
X90537900Y-31601900D02*
X88522900Y-33616900D01*
X90542900Y-31601900D02*
X90537900Y-31601900D01*
X82892900Y-39371900D02*
X82892900Y-40761900D01*
X88522900Y-33741900D02*
X82892900Y-39371900D01*
X88522900Y-33616900D02*
X88522900Y-33741900D01*
D58*
X60837900Y-2576900D02*
X62337900Y-4076900D01*
X62337900Y-4076900D02*
X64837900Y-4076900D01*
X64837900Y-4076900D02*
X66691900Y-5930900D01*
X66691900Y-5930900D02*
X67525900Y-5930900D01*
X51787900Y-2376900D02*
X51787900Y-1176900D01*
X51787900Y-1176900D02*
X51937900Y-1026900D01*
X51937900Y-1026900D02*
X59287900Y-1026900D01*
X59287900Y-1026900D02*
X60837900Y-2576900D01*
D56*
X83647900Y-15836900D02*
X80639900Y-15836900D01*
X83647900Y-15836900D02*
X83887900Y-16076900D01*
X88287900Y-9476900D02*
X86637900Y-9476900D01*
X90787900Y-11976900D02*
X88287900Y-9476900D01*
X93037900Y-11976900D02*
X90787900Y-11976900D01*
X94052900Y-10961900D02*
X93037900Y-11976900D01*
X94052900Y-8851900D02*
X94052900Y-10961900D01*
X98617900Y-10756900D02*
X99287900Y-11426900D01*
X99287900Y-11426900D02*
X99287900Y-19126900D01*
X99287900Y-19126900D02*
X97497900Y-20916900D01*
X97497900Y-10756900D02*
X98617900Y-10756900D01*
D59*
X69877900Y-31536900D02*
X70337900Y-31076900D01*
X70337900Y-31076900D02*
X72437900Y-31076900D01*
X72437900Y-31076900D02*
X73337900Y-30176900D01*
X69877900Y-32176900D02*
X69877900Y-31536900D01*
X68037900Y-21580900D02*
X69971900Y-19646900D01*
X68037900Y-25026900D02*
X68037900Y-21580900D01*
X68487900Y-25476900D02*
X68037900Y-25026900D01*
X72637900Y-25476900D02*
X68487900Y-25476900D01*
X73337900Y-26176900D02*
X72637900Y-25476900D01*
X73337900Y-30176900D02*
X73337900Y-26176900D01*
X70198900Y-19419900D02*
X69971900Y-19646900D01*
D56*
X74231900Y-20832900D02*
X73367900Y-20832900D01*
X79227900Y-15836900D02*
X74231900Y-20832900D01*
X80639900Y-15836900D02*
X79227900Y-15836900D01*
X71157900Y-20832900D02*
X69971900Y-19646900D01*
X73367900Y-20832900D02*
X71157900Y-20832900D01*
X68257900Y-19646900D02*
X67271900Y-20535900D01*
X69971900Y-19646900D02*
X68257900Y-19646900D01*
D58*
X40387900Y-2181900D02*
X41912900Y-2181900D01*
X37512900Y-2181900D02*
X40387900Y-2181900D01*
X46172900Y-1976900D02*
X47967900Y-3771900D01*
X45487900Y-1976900D02*
X46172900Y-1976900D01*
X40387900Y-3776900D02*
X41337900Y-4726900D01*
X41337900Y-4726900D02*
X42737900Y-4726900D01*
X40387900Y-2181900D02*
X40387900Y-3776900D01*
D56*
X6565900Y-10248900D02*
X7116900Y-10248900D01*
X8425780Y-9514780D02*
X7887900Y-8976900D01*
X8425780Y-10695900D02*
X8425780Y-9514780D01*
D58*
X3687900Y-9126900D02*
X4279900Y-9718900D01*
X4279900Y-9718900D02*
X4279900Y-10248900D01*
X11579900Y-13884900D02*
X11437900Y-14026900D01*
X11579900Y-12560900D02*
X11579900Y-13884900D01*
D56*
X40132900Y-27221900D02*
X38987900Y-27221900D01*
X42137900Y-29226900D02*
X40132900Y-27221900D01*
X42387900Y-29476900D02*
X42137900Y-29226900D01*
X42587900Y-29676900D02*
X42387900Y-29476900D01*
X49587900Y-30326900D02*
X49537900Y-30376900D01*
X49537900Y-30376900D02*
X43287900Y-30376900D01*
X43287900Y-30376900D02*
X42587900Y-29676900D01*
X34762900Y-25551900D02*
X33037900Y-23826900D01*
X36432900Y-27221900D02*
X34762900Y-25551900D01*
X38987900Y-27221900D02*
X36432900Y-27221900D01*
D59*
X41787900Y-29226900D02*
X42137900Y-29226900D01*
X50587900Y-20926900D02*
X50767900Y-20746900D01*
X50767900Y-20746900D02*
X52412900Y-20746900D01*
X45537900Y-21626900D02*
X44657900Y-20746900D01*
X44657900Y-20746900D02*
X44157900Y-20746900D01*
X33037900Y-23826900D02*
X33037900Y-22961900D01*
D56*
X33037900Y-23826900D02*
X33037900Y-25126900D01*
X33037900Y-23826900D02*
X33037900Y-24276900D01*
X29137900Y-28276900D02*
X25037900Y-28276900D01*
X33037900Y-24376900D02*
X29137900Y-28276900D01*
X33037900Y-23826900D02*
X33037900Y-24376900D01*
D55*
X19487900Y-35226900D02*
X18837900Y-35876900D01*
X21337900Y-35226900D02*
X19487900Y-35226900D01*
X21437900Y-35126900D02*
X21337900Y-35226900D01*
D59*
X42187900Y-29876900D02*
X42387900Y-29676900D01*
X42387900Y-29676900D02*
X42587900Y-29676900D01*
D55*
X74877900Y-40946900D02*
X66777900Y-40946900D01*
X75062900Y-40761900D02*
X74877900Y-40946900D01*
X82892900Y-40761900D02*
X75062900Y-40761900D01*
X66447900Y-41276900D02*
X66777900Y-40946900D01*
X61687900Y-41276900D02*
X66447900Y-41276900D01*
X66777900Y-40516900D02*
X66777900Y-40946900D01*
X62337900Y-38126900D02*
X64387900Y-38126900D01*
X64387900Y-38126900D02*
X66777900Y-40516900D01*
X61132900Y-39331900D02*
X62337900Y-38126900D01*
D56*
X14693900Y-7157900D02*
X12788900Y-7157900D01*
X12788900Y-7157900D02*
X10883900Y-7157900D01*
X16237900Y-7826900D02*
X15568900Y-7157900D01*
X15568900Y-7157900D02*
X14693900Y-7157900D01*
X82892900Y-40761900D02*
X82892900Y-41281900D01*
X31287900Y-22076900D02*
X33037900Y-23826900D01*
X41744900Y-15963900D02*
X41744900Y-13296900D01*
X34762900Y-25551900D02*
X34762900Y-24951900D01*
X34762900Y-24951900D02*
X34887900Y-24826900D01*
X96227900Y-35902900D02*
X96807900Y-36482900D01*
X96807900Y-36482900D02*
X96807900Y-37891900D01*
X82892900Y-41281900D02*
X84287900Y-42676900D01*
X16687800Y-43053000D02*
X18122900Y-44488100D01*
X18122900Y-44488100D02*
X18122900Y-47586900D01*
X55333900Y-22809200D02*
X55333900Y-22567900D01*
X55956200Y-21945600D02*
X55956200Y-20608600D01*
X55333900Y-22567900D02*
X55956200Y-21945600D01*
X55956200Y-20608600D02*
X55067200Y-19939000D01*
X63715900Y-13487400D02*
X62357000Y-13487400D01*
X61925200Y-11252200D02*
X61772800Y-11099800D01*
X61925200Y-13055600D02*
X61925200Y-11252200D01*
X62357000Y-13487400D02*
X61925200Y-13055600D01*
X55067200Y-19939000D02*
X55930800Y-19075400D01*
X55930800Y-19075400D02*
X57489400Y-19075400D01*
X55067200Y-19939000D02*
X55067200Y-20548600D01*
X55067200Y-20548600D02*
X53492400Y-22123400D01*
X63715900Y-13164900D02*
X63715900Y-13487400D01*
X63715900Y-13487400D02*
X63715900Y-15948900D01*
X64509900Y-15948900D02*
X63715900Y-15948900D01*
X65587900Y-17026900D02*
X64509900Y-15948900D01*
X63715900Y-15948900D02*
X61037900Y-18626900D01*
X61037900Y-18626900D02*
X57937900Y-18626900D01*
X57937900Y-18626900D02*
X57489400Y-19075400D01*
X57489400Y-19075400D02*
X55333900Y-21230900D01*
X55333900Y-21230900D02*
X55333900Y-21546900D01*
X55333900Y-21546900D02*
X55333900Y-22809200D01*
X55333900Y-22809200D02*
X55333900Y-26875900D01*
X54867900Y-21546900D02*
X53437900Y-22976900D01*
X55333900Y-21546900D02*
X54867900Y-21546900D01*
X53437900Y-22976900D02*
X49562900Y-22976900D01*
X29171900Y-1866900D02*
X27012900Y-1866900D01*
X29784900Y-2479900D02*
X29171900Y-1866900D01*
X31076900Y-3771900D02*
X29784900Y-2479900D01*
X31457900Y-3771900D02*
X31076900Y-3771900D01*
X21932900Y-1866900D02*
X18757900Y-1866900D01*
X24472900Y-1866900D02*
X21932900Y-1866900D01*
X27012900Y-1866900D02*
X24472900Y-1866900D01*
X4787900Y-4406900D02*
X2247900Y-4406900D01*
X7327900Y-4406900D02*
X4787900Y-4406900D01*
X55333900Y-26875900D02*
X54987900Y-27221900D01*
X86307900Y-13296900D02*
X84637900Y-11626900D01*
X84637900Y-11626900D02*
X72087900Y-11626900D01*
X72087900Y-11626900D02*
X71737900Y-11976900D01*
X96237900Y-13296900D02*
X87357900Y-13296900D01*
X97497900Y-13296900D02*
X96237900Y-13296900D01*
X87357900Y-13296900D02*
X86307900Y-13296900D01*
X97487900Y-42426900D02*
X96997900Y-42916900D01*
X96997900Y-42916900D02*
X94317900Y-42916900D01*
X49562900Y-22976900D02*
X47332900Y-20746900D01*
X46557900Y-20746900D02*
X45787900Y-19976900D01*
X45787900Y-19976900D02*
X45787900Y-13676900D01*
X45787900Y-13676900D02*
X41787900Y-9676900D01*
X41787900Y-9676900D02*
X29637900Y-9676900D01*
X29637900Y-9676900D02*
X29137900Y-9176900D01*
X29137900Y-9176900D02*
X29137900Y-3126900D01*
X29137900Y-3126900D02*
X29784900Y-2479900D01*
X47332900Y-20746900D02*
X46557900Y-20746900D01*
X7857900Y-4406900D02*
X7327900Y-4406900D01*
X10397900Y-1866900D02*
X7857900Y-4406900D01*
X18757900Y-1866900D02*
X10397900Y-1866900D01*
D58*
X33707900Y-1521900D02*
X31457900Y-3771900D01*
X37512900Y-1521900D02*
X33707900Y-1521900D01*
X43837900Y-2776900D02*
X43792900Y-2821900D01*
X43792900Y-2821900D02*
X41912900Y-2821900D01*
X45187900Y-2776900D02*
X45487900Y-3076900D01*
X43837900Y-2776900D02*
X45187900Y-2776900D01*
D56*
X43937900Y-28776900D02*
X43087900Y-27926900D01*
X49387900Y-28776900D02*
X49137900Y-28776900D01*
X49137900Y-28776900D02*
X43937900Y-28776900D01*
X51987900Y-28776900D02*
X49387900Y-28776900D01*
X53542900Y-27221900D02*
X51987900Y-28776900D01*
X54987900Y-27221900D02*
X53542900Y-27221900D01*
D59*
X49237900Y-27526900D02*
X49387900Y-27676900D01*
X49387900Y-27676900D02*
X49387900Y-28776900D01*
D56*
X34287900Y-27976900D02*
X33037900Y-29226900D01*
X34737900Y-27976900D02*
X34287900Y-27976900D01*
X37537900Y-22286900D02*
X39077900Y-20746900D01*
X37537900Y-22476900D02*
X37537900Y-22286900D01*
X37537900Y-22476900D02*
X37537900Y-22381900D01*
D57*
X12537900Y-29676900D02*
X11287900Y-30926900D01*
X11287900Y-30926900D02*
X11287900Y-31276900D01*
X6837900Y-27176900D02*
X6837900Y-23726900D01*
X6837900Y-27326900D02*
X6837900Y-27176900D01*
X10787900Y-31276900D02*
X6837900Y-27326900D01*
X11287900Y-31276900D02*
X10787900Y-31276900D01*
D56*
X6616200Y-31255200D02*
X5787900Y-30426900D01*
X10287900Y-34926900D02*
X6616200Y-31255200D01*
X5787900Y-30426900D02*
X5787900Y-28226900D01*
X5787900Y-28226900D02*
X6837900Y-27176900D01*
D55*
X61252900Y-36961900D02*
X63207900Y-36961900D01*
X61132900Y-37081900D02*
X61252900Y-36961900D01*
X61132900Y-37426900D02*
X61132900Y-37081900D01*
X61132900Y-37426900D02*
X61132900Y-36731900D01*
X43837900Y-38676900D02*
X41937900Y-38676900D01*
X44237900Y-39076900D02*
X43837900Y-38676900D01*
X61132900Y-36731900D02*
X61787900Y-36076900D01*
X70837900Y-11976900D02*
X70337900Y-12476900D01*
X70337900Y-12476900D02*
X68387900Y-12476900D01*
X68387900Y-12476900D02*
X67787900Y-13076900D01*
X67787900Y-13076900D02*
X67787900Y-14826900D01*
X67787900Y-14826900D02*
X66887900Y-15726900D01*
X66887900Y-15726900D02*
X66037900Y-15726900D01*
X71737900Y-11976900D02*
X70837900Y-11976900D01*
X97017900Y-13296900D02*
X96337900Y-13976900D01*
X97497900Y-13296900D02*
X97017900Y-13296900D01*
X96237900Y-13676900D02*
X96237900Y-13296900D01*
X96617900Y-13296900D02*
X96237900Y-13676900D01*
X96767900Y-13296900D02*
X96617900Y-13296900D01*
X96087900Y-13976900D02*
X96767900Y-13296900D01*
X97107900Y-13296900D02*
X96387900Y-12576900D01*
X97497900Y-13296900D02*
X97107900Y-13296900D01*
X96857900Y-13296900D02*
X96237900Y-12676900D01*
X97497900Y-13296900D02*
X96857900Y-13296900D01*
X38257900Y-19926900D02*
X39077900Y-20746900D01*
X37187900Y-19926900D02*
X38257900Y-19926900D01*
X61775900Y-13164900D02*
X60589400Y-11978400D01*
X60589400Y-11978400D02*
X60137900Y-11526900D01*
X63715900Y-13164900D02*
X61775900Y-13164900D01*
X60137900Y-7661500D02*
X60502800Y-8026400D01*
D56*
X60515500Y-8928100D02*
X60718700Y-8928100D01*
X60502800Y-8915400D02*
X60502800Y-8026400D01*
X60515500Y-8928100D02*
X60502800Y-8915400D01*
D55*
X60137900Y-6976900D02*
X61037900Y-6076900D01*
X60137900Y-6976900D02*
X60137900Y-7661500D01*
X6667500Y-39979600D02*
X6718300Y-39928800D01*
X6718300Y-39928800D02*
X7442200Y-39928800D01*
X7442200Y-39928800D02*
X10287900Y-37083100D01*
X10287900Y-37083100D02*
X10287900Y-34926900D01*
X5600700Y-32651700D02*
X6616200Y-31636200D01*
X6616200Y-31636200D02*
X6616200Y-31255200D01*
D56*
X30619700Y-29794200D02*
X31187000Y-29226900D01*
X31187000Y-29226900D02*
X33037900Y-29226900D01*
D55*
X37512900Y-8451900D02*
X37537900Y-8476900D01*
X37137900Y-11176900D02*
X30887900Y-11176900D01*
X37537900Y-10776900D02*
X37137900Y-11176900D01*
X37512900Y-3481900D02*
X37512900Y-8451900D01*
X37537900Y-10726900D02*
X37537900Y-10776900D01*
X31437900Y-13376900D02*
X31587900Y-13526900D01*
X31587900Y-13526900D02*
X36987900Y-13526900D01*
D59*
X73437900Y-32126900D02*
X73387900Y-32176900D01*
D56*
X84051900Y-12926900D02*
X86961900Y-15836900D01*
X77787900Y-12926900D02*
X84051900Y-12926900D01*
X75239900Y-15474900D02*
X77787900Y-12926900D01*
X75239900Y-15836900D02*
X75239900Y-15474900D01*
X73207900Y-13804900D02*
X75239900Y-15836900D01*
X69049900Y-13804900D02*
X73207900Y-13804900D01*
X75287900Y-17476900D02*
X75239900Y-17428900D01*
X75239900Y-17428900D02*
X75239900Y-15836900D01*
D59*
X73387900Y-32176900D02*
X71777900Y-32176900D01*
X62295900Y-33276900D02*
X61683900Y-32664900D01*
X70827900Y-32886900D02*
X70437900Y-33276900D01*
X67637900Y-33276900D02*
X62295900Y-33276900D01*
X70437900Y-33276900D02*
X67637900Y-33276900D01*
X70827900Y-32176900D02*
X70827900Y-32886900D01*
X68033900Y-32880900D02*
X67637900Y-33276900D01*
X68033900Y-31626900D02*
X68033900Y-32880900D01*
X68033900Y-29980900D02*
X68037900Y-29976900D01*
X68037900Y-29976900D02*
X69877900Y-29976900D01*
X68033900Y-30526900D02*
X68033900Y-29980900D01*
D55*
X66933900Y-22008900D02*
X64571900Y-19646900D01*
X66933900Y-24218900D02*
X66933900Y-22008900D01*
D56*
X61683900Y-21170900D02*
X61175900Y-20662900D01*
X61683900Y-27964900D02*
X61683900Y-21170900D01*
X63555900Y-20662900D02*
X64571900Y-19646900D01*
X61175900Y-20662900D02*
X63555900Y-20662900D01*
D55*
X60532900Y-41221900D02*
X60587900Y-41276900D01*
X59905900Y-41221900D02*
X60532900Y-41221900D01*
X54987900Y-41221900D02*
X59905900Y-41221900D01*
X59905900Y-41221900D02*
X59905900Y-40474900D01*
X62191900Y-40474900D02*
X59905900Y-40474900D01*
X63207900Y-39458900D02*
X62191900Y-40474900D01*
X63207900Y-39161900D02*
X63207900Y-39458900D01*
X84592900Y-32649900D02*
X85559900Y-33616900D01*
X85559900Y-33616900D02*
X87422900Y-33616900D01*
X84592900Y-31601900D02*
X84592900Y-32649900D01*
X87422900Y-30229900D02*
X88590900Y-29061900D01*
X88590900Y-29061900D02*
X90542900Y-29061900D01*
X87422900Y-33616900D02*
X87422900Y-30229900D01*
X91130900Y-29061900D02*
X90542900Y-29061900D01*
X90047900Y-25996900D02*
X90385900Y-25996900D01*
X90131900Y-26080900D02*
X90047900Y-25996900D01*
X91655900Y-27266900D02*
X90639900Y-27266900D01*
X90639900Y-27266900D02*
X90131900Y-26758900D01*
X90131900Y-26758900D02*
X90131900Y-26080900D01*
X91909900Y-27520900D02*
X91909900Y-28282900D01*
X91130900Y-29061900D02*
X91909900Y-28282900D01*
X91909900Y-27520900D02*
X91655900Y-27266900D01*
D57*
X83342900Y-24721900D02*
X82137900Y-25926900D01*
X84162900Y-24721900D02*
X83342900Y-24721900D01*
X85837900Y-34626900D02*
X85737900Y-34526900D01*
X85737900Y-34526900D02*
X85037900Y-34526900D01*
X83637900Y-33126900D02*
X82937900Y-32426900D01*
X85037900Y-34526900D02*
X83637900Y-33126900D01*
X82937900Y-32426900D02*
X82937900Y-30726900D01*
X82937900Y-30726900D02*
X83332900Y-30331900D01*
X83332900Y-30331900D02*
X83437900Y-30331900D01*
X83437900Y-30326900D02*
X83437900Y-30331900D01*
X82537900Y-29426900D02*
X83437900Y-30326900D01*
D55*
X95542900Y-29736900D02*
X95027900Y-29736900D01*
D57*
X94827900Y-29736900D02*
X94337900Y-30226900D01*
X94337900Y-30226900D02*
X94337900Y-36426900D01*
X94337900Y-36426900D02*
X93837900Y-36926900D01*
X93837900Y-36926900D02*
X93037900Y-36926900D01*
X83437900Y-30331900D02*
X84592900Y-30331900D01*
X95542900Y-29736900D02*
X94827900Y-29736900D01*
X83237900Y-33126900D02*
X82892900Y-33471900D01*
X82892900Y-33471900D02*
X82892900Y-35361900D01*
X83637900Y-33126900D02*
X83237900Y-33126900D01*
D55*
X74891900Y-8980900D02*
X70737900Y-4826900D01*
X74891900Y-9613900D02*
X74891900Y-8980900D01*
X55384700Y-8204200D02*
X57175400Y-8204200D01*
X57175400Y-8204200D02*
X58102500Y-7277100D01*
D56*
X91180900Y-7741900D02*
X84797900Y-7741900D01*
X92052900Y-8613900D02*
X91180900Y-7741900D01*
X92052900Y-8851900D02*
X92052900Y-8613900D01*
X69727900Y-5338900D02*
X69727900Y-8851900D01*
X83552900Y-7741900D02*
X81837900Y-6026900D01*
X69737900Y-11326900D02*
X69727900Y-11316900D01*
X69727900Y-11316900D02*
X69727900Y-8851900D01*
X84797900Y-7741900D02*
X83552900Y-7741900D01*
X71277900Y-8851900D02*
X69727900Y-8851900D01*
X69727900Y-8851900D02*
X67427900Y-8851900D01*
D55*
X67427900Y-8851900D02*
X66412900Y-8851900D01*
D56*
X68292900Y-3903900D02*
X69727900Y-5338900D01*
X68292900Y-3136900D02*
X68292900Y-3903900D01*
D58*
X66547900Y-3136900D02*
X66037900Y-2626900D01*
X68292900Y-3136900D02*
X66547900Y-3136900D01*
D55*
X33545900Y-18884900D02*
X33037900Y-18376900D01*
X39402900Y-12717900D02*
X38061900Y-14058900D01*
X38061900Y-14058900D02*
X38061900Y-18503900D01*
X38061900Y-18503900D02*
X37680900Y-18884900D01*
X37680900Y-18884900D02*
X33545900Y-18884900D01*
X56787900Y-10326900D02*
X58987900Y-8126900D01*
X44037900Y-10326900D02*
X56787900Y-10326900D01*
X42237900Y-8526900D02*
X44037900Y-10326900D01*
X41237900Y-10826900D02*
X41287900Y-10826900D01*
X39402900Y-12661900D02*
X41237900Y-10826900D01*
X61478900Y-7376900D02*
X61048900Y-6946900D01*
X66412900Y-8851900D02*
X64937900Y-7376900D01*
X64937900Y-7376900D02*
X61478900Y-7376900D01*
X58987900Y-6213900D02*
X58987900Y-8126900D01*
X59651900Y-5549900D02*
X58987900Y-6213900D01*
X39402900Y-12661900D02*
X39402900Y-12717900D01*
D56*
X97497900Y-15836900D02*
X90761900Y-15836900D01*
X80992900Y-20921900D02*
X80987900Y-20916900D01*
X84162900Y-20921900D02*
X80992900Y-20921900D01*
X79463900Y-9613900D02*
X79463900Y-6000900D01*
X79463900Y-6000900D02*
X80987900Y-4476900D01*
D57*
X72747900Y-3136900D02*
X72092900Y-3136900D01*
D56*
X72947900Y-3136900D02*
X72092900Y-3136900D01*
X74237900Y-4426900D02*
X72947900Y-3136900D01*
D55*
X10502900Y-46431200D02*
X16954500Y-39979600D01*
X16954500Y-39979600D02*
X16954500Y-37795200D01*
X10502900Y-47586900D02*
X10502900Y-46431200D01*
X13042900Y-45034200D02*
X17487900Y-40589200D01*
X17487900Y-40589200D02*
X17487900Y-39426900D01*
X17487900Y-39426900D02*
X17487900Y-38326900D01*
X17487900Y-38326900D02*
X20037900Y-35776900D01*
X20037900Y-35776900D02*
X22687900Y-35776900D01*
X22687900Y-35776900D02*
X23887900Y-34576900D01*
X23887900Y-34576900D02*
X25687900Y-34576900D01*
X25687900Y-34576900D02*
X25737900Y-34526900D01*
X26237900Y-34526900D02*
X25737900Y-34526900D01*
X26287900Y-34576900D02*
X26237900Y-34526900D01*
X13042900Y-47586900D02*
X13042900Y-45034200D01*
X51997900Y-25471900D02*
X52542900Y-25471900D01*
X74155300Y-27901900D02*
X74887900Y-27169300D01*
X74887900Y-27169300D02*
X74887900Y-26876900D01*
X77837900Y-25526900D02*
X78358900Y-25526900D01*
X80892900Y-29076900D02*
X82087900Y-30271900D01*
X82087900Y-30271900D02*
X82087900Y-30576900D01*
X54237900Y-23776900D02*
X52542900Y-25471900D01*
X60437900Y-22776900D02*
X60487900Y-22826900D01*
X60487900Y-22826900D02*
X60487900Y-25176900D01*
X74887900Y-26876900D02*
X76237900Y-25526900D01*
X76237900Y-25526900D02*
X77837900Y-25526900D01*
X79887900Y-29076900D02*
X80587900Y-29076900D01*
X82087900Y-30576900D02*
X82087900Y-32576900D01*
X91587900Y-36076900D02*
X92137900Y-36626900D01*
X92137900Y-36626900D02*
X92137900Y-37426900D01*
X92137900Y-37426900D02*
X93387900Y-38676900D01*
X93387900Y-38676900D02*
X95787900Y-38676900D01*
X95787900Y-38676900D02*
X96437900Y-39326900D01*
X96437900Y-39326900D02*
X96437900Y-41526900D01*
X96437900Y-41526900D02*
X96147900Y-41816900D01*
X94317900Y-41816900D02*
X96147900Y-41816900D01*
X80587900Y-29076900D02*
X80892900Y-29076900D01*
X79082900Y-28271900D02*
X79887900Y-29076900D01*
X79082900Y-26250900D02*
X79082900Y-28271900D01*
X78358900Y-25526900D02*
X79082900Y-26250900D01*
X50137900Y-33126900D02*
X49937900Y-33326900D01*
X49937900Y-33326900D02*
X47737900Y-33326900D01*
X47737900Y-33326900D02*
X47537900Y-33126900D01*
X50437900Y-27526900D02*
X49997900Y-27086900D01*
X49997900Y-27086900D02*
X49997900Y-25471900D01*
X94317900Y-46216900D02*
X90527900Y-46216900D01*
X51037900Y-36176900D02*
X50687900Y-35826900D01*
X56337900Y-36176900D02*
X51037900Y-36176900D01*
X56837900Y-35676900D02*
X56337900Y-36176900D01*
X56837900Y-34226900D02*
X56837900Y-35676900D01*
X56787900Y-34176900D02*
X56837900Y-34226900D01*
X90527900Y-46216900D02*
X84087900Y-39776900D01*
X87357900Y-39446900D02*
X85687900Y-37776900D01*
X57037900Y-31276900D02*
X56837900Y-31076900D01*
X56837900Y-31076900D02*
X56837900Y-21826900D01*
X56837900Y-21826900D02*
X57137900Y-21526900D01*
X47887900Y-23076900D02*
X47997900Y-23186900D01*
X47997900Y-23186900D02*
X47997900Y-25471900D01*
X88157900Y-39446900D02*
X87357900Y-39446900D01*
X45997900Y-25016900D02*
X45997900Y-25471900D01*
X87477900Y-40716900D02*
X85137900Y-38376900D01*
X57737900Y-31876900D02*
X57787900Y-31826900D01*
X57787900Y-31826900D02*
X57787900Y-22126900D01*
X47237900Y-23776900D02*
X45997900Y-25016900D01*
X88157900Y-40716900D02*
X87477900Y-40716900D01*
X83937900Y-40726900D02*
X90527900Y-47316900D01*
X90527900Y-47316900D02*
X91147900Y-47316900D01*
X44587900Y-35976900D02*
X46837900Y-38226900D01*
X46837900Y-38226900D02*
X53687900Y-38226900D01*
X91147900Y-47316900D02*
X94317900Y-47316900D01*
X43997900Y-25471900D02*
X43997900Y-27236900D01*
X43997900Y-27236900D02*
X44487900Y-27726900D01*
X42587900Y-35976900D02*
X44587900Y-35976900D01*
X89527900Y-44016900D02*
X84487900Y-38976900D01*
X58237900Y-32876900D02*
X58387900Y-32726900D01*
X58387900Y-32726900D02*
X58387900Y-30676900D01*
X58387900Y-30676900D02*
X58337900Y-30626900D01*
X58337900Y-30626900D02*
X58337900Y-23376900D01*
X58337900Y-23376900D02*
X59787900Y-21926900D01*
X40537900Y-24976900D02*
X41032900Y-25471900D01*
X41032900Y-25471900D02*
X41997900Y-25471900D01*
X94317900Y-44016900D02*
X89527900Y-44016900D01*
X55097900Y-39331900D02*
X54987900Y-39221900D01*
X58932900Y-39331900D02*
X55097900Y-39331900D01*
X21932900Y-21521900D02*
X21987900Y-21576900D01*
X21932900Y-18376900D02*
X21932900Y-21521900D01*
X53037900Y-39026900D02*
X53232900Y-39221900D01*
X53232900Y-39221900D02*
X54987900Y-39221900D01*
X40287900Y-30276900D02*
X41337900Y-30276900D01*
X34287900Y-29476900D02*
X35087900Y-30276900D01*
X35087900Y-30276900D02*
X40042902Y-30276900D01*
X40042902Y-30276900D02*
X40287900Y-30276900D01*
X42587900Y-31526900D02*
X48837900Y-31526900D01*
X41337900Y-30276900D02*
X42587900Y-31526900D01*
X48837900Y-31526900D02*
X51887900Y-31526900D01*
X55192900Y-37426900D02*
X54987900Y-37221900D01*
X58932900Y-37426900D02*
X55192900Y-37426900D01*
X10737894Y-23758270D02*
X20739370Y-33759746D01*
X20739370Y-33759746D02*
X34570746Y-33759746D01*
X34570746Y-33759746D02*
X37287900Y-36476900D01*
X37287900Y-36476900D02*
X37287900Y-37576900D01*
X37287900Y-37576900D02*
X37887900Y-38176900D01*
X37887900Y-38176900D02*
X40037900Y-38176900D01*
X40037900Y-38176900D02*
X40587900Y-37626900D01*
X40587900Y-37626900D02*
X40587900Y-36026900D01*
X40587900Y-36026900D02*
X41392900Y-35221900D01*
X41392900Y-35221900D02*
X54987900Y-35221900D01*
X2247900Y-19011900D02*
X3272900Y-19011900D01*
X10737894Y-21926894D02*
X10737894Y-22326900D01*
X9737902Y-20926902D02*
X10737894Y-21926894D01*
X5187902Y-20926902D02*
X9737902Y-20926902D01*
X3272900Y-19011900D02*
X5187902Y-20926902D01*
X10737894Y-22326900D02*
X10737894Y-23758270D01*
X20337900Y-6026900D02*
X20337900Y-10376900D01*
X20337900Y-10376900D02*
X19487900Y-11226900D01*
X19487900Y-11226900D02*
X17652900Y-11226900D01*
X17652900Y-11226900D02*
X16217900Y-12661900D01*
X21932900Y-4431900D02*
X20337900Y-6026900D01*
X21932900Y-4406900D02*
X21932900Y-4431900D01*
X16217900Y-12661900D02*
X15902900Y-12661900D01*
X11937900Y-23258276D02*
X21206526Y-32526902D01*
X21206526Y-32526902D02*
X35937902Y-32526902D01*
X35937902Y-32526902D02*
X37637900Y-34226900D01*
X37637900Y-34226900D02*
X52337900Y-34226900D01*
X52337900Y-34226900D02*
X53342900Y-33221900D01*
X53342900Y-33221900D02*
X54987900Y-33221900D01*
X15902900Y-12661900D02*
X14337900Y-14226900D01*
X11937900Y-15476900D02*
X11937900Y-22326900D01*
X13187900Y-14226900D02*
X11937900Y-15476900D01*
X14337900Y-14226900D02*
X13187900Y-14226900D01*
X11937900Y-22326900D02*
X11937900Y-23258276D01*
X25787900Y-5976900D02*
X25787900Y-10326900D01*
X25787900Y-10326900D02*
X23537900Y-12576900D01*
X23537900Y-12576900D02*
X21687900Y-12576900D01*
X21687900Y-12576900D02*
X20237900Y-14026900D01*
X20237900Y-14026900D02*
X20237900Y-16726900D01*
X20237900Y-16726900D02*
X19637900Y-17326900D01*
X19637900Y-17326900D02*
X17902900Y-17326900D01*
X17902900Y-17326900D02*
X16217900Y-19011900D01*
X27012900Y-4751900D02*
X25787900Y-5976900D01*
X27012900Y-4406900D02*
X27012900Y-4751900D01*
X16217900Y-19011900D02*
X15852900Y-19011900D01*
X16217900Y-19011900D02*
X15452904Y-19011900D01*
X12737904Y-22926904D02*
X21487900Y-31676900D01*
X21487900Y-31676900D02*
X37087900Y-31676900D01*
X37087900Y-31676900D02*
X37637900Y-32226900D01*
X37637900Y-32226900D02*
X52187900Y-32226900D01*
X52187900Y-32226900D02*
X53192900Y-31221900D01*
X53192900Y-31221900D02*
X54987900Y-31221900D01*
X15452904Y-19011900D02*
X12737904Y-21726900D01*
X12737904Y-21726900D02*
X12737904Y-22326900D01*
X12737904Y-22326900D02*
X12737904Y-22926904D01*
X23387900Y-3126900D02*
X14887900Y-3126900D01*
X24472900Y-4211900D02*
X23387900Y-3126900D01*
X24472900Y-4406900D02*
X24472900Y-4211900D01*
X16217900Y-15546900D02*
X16217900Y-15836900D01*
X23237900Y-6176900D02*
X23237900Y-10176900D01*
X23237900Y-10176900D02*
X19037900Y-14376900D01*
X19037900Y-14376900D02*
X17387900Y-14376900D01*
X17387900Y-14376900D02*
X16217900Y-15546900D01*
X24472900Y-4941900D02*
X23237900Y-6176900D01*
X24472900Y-4406900D02*
X24472900Y-4941900D01*
X16217900Y-15836900D02*
X15727900Y-15836900D01*
X54242900Y-29221900D02*
X54987900Y-29221900D01*
X12387900Y-18426902D02*
X12337902Y-18476900D01*
X12337902Y-18476900D02*
X12337902Y-22326900D01*
X13937900Y-17626900D02*
X15727900Y-15836900D01*
X13187900Y-17626900D02*
X12387900Y-18426900D01*
X13937900Y-17626900D02*
X13187900Y-17626900D01*
X12387900Y-18426900D02*
X12387900Y-18426902D01*
X36487900Y-32126900D02*
X36837900Y-32476900D01*
X21372212Y-32126900D02*
X36487900Y-32126900D01*
X12337902Y-23092590D02*
X21372212Y-32126900D01*
X12337902Y-22326900D02*
X12337902Y-23092590D01*
X53042900Y-29221900D02*
X52387900Y-29876900D01*
X52387900Y-29876900D02*
X51737900Y-29876900D01*
X54987900Y-29221900D02*
X53042900Y-29221900D01*
X35592900Y-29221900D02*
X35387900Y-29426900D01*
X38987900Y-29221900D02*
X35592900Y-29221900D01*
X19537900Y-27326900D02*
X20187900Y-27976900D01*
X20187900Y-27976900D02*
X20187900Y-29476900D01*
X24437900Y-35376900D02*
X24537900Y-35276900D01*
X24537900Y-35276900D02*
X33537900Y-35276900D01*
X33537900Y-35276900D02*
X33997900Y-35736900D01*
X33997900Y-35736900D02*
X33997900Y-38061900D01*
X41182900Y-31221900D02*
X41187900Y-31226900D01*
X38987900Y-31221900D02*
X41182900Y-31221900D01*
X23782900Y-31221900D02*
X23087900Y-30526900D01*
X38987900Y-31221900D02*
X23782900Y-31221900D01*
X22287900Y-27176900D02*
X25687900Y-30576900D01*
X25687900Y-30576900D02*
X26887900Y-30576900D01*
X13587900Y-28976900D02*
X11537900Y-26926900D01*
X13587900Y-32776900D02*
X13587900Y-28976900D01*
X13887900Y-33076900D02*
X13587900Y-32776900D01*
X36637900Y-36976900D02*
X34987900Y-35326900D01*
X34987900Y-35326900D02*
X34987900Y-35126900D01*
X34287900Y-34426900D02*
X34987900Y-35126900D01*
X41237900Y-33126900D02*
X41142900Y-33221900D01*
X41142900Y-33221900D02*
X38987900Y-33221900D01*
X34020748Y-34159748D02*
X34287900Y-34426900D01*
X27305052Y-34159748D02*
X34020748Y-34159748D01*
X27087900Y-34376900D02*
X27305052Y-34159748D01*
X8597900Y-19011900D02*
X8972900Y-19011900D01*
X37982900Y-35221900D02*
X38987900Y-35221900D01*
X11537898Y-23426898D02*
X21037904Y-32926904D01*
X21037904Y-32926904D02*
X35687904Y-32926904D01*
X35687904Y-32926904D02*
X37982900Y-35221900D01*
X8972900Y-19011900D02*
X11537898Y-21576898D01*
X11537898Y-21576898D02*
X11537898Y-22326900D01*
X11537898Y-22326900D02*
X11537898Y-23426898D01*
X5422900Y-19011900D02*
X6122900Y-19011900D01*
X11137896Y-23592584D02*
X20905056Y-33359744D01*
X20905056Y-33359744D02*
X35125744Y-33359744D01*
X35125744Y-33359744D02*
X38987900Y-37221900D01*
X6122900Y-19011900D02*
X7637900Y-20526900D01*
X7637900Y-20526900D02*
X9922212Y-20526900D01*
X9922212Y-20526900D02*
X11137896Y-21742584D01*
X11137896Y-21742584D02*
X11137896Y-22326900D01*
X11137896Y-22326900D02*
X11137896Y-23592584D01*
X77812900Y-30441900D02*
X77304900Y-30441900D01*
X41262300Y-39331900D02*
X42024300Y-40093900D01*
X42024300Y-40093900D02*
X43370500Y-40093900D01*
X78397100Y-36563300D02*
X78524100Y-36436300D01*
X78524100Y-36436300D02*
X78524100Y-31153100D01*
X78524100Y-31153100D02*
X77812900Y-30441900D01*
X38987900Y-39221900D02*
X37142900Y-39221900D01*
X37087900Y-39276900D02*
X37142900Y-39221900D01*
X41137900Y-41226900D02*
X41132900Y-41221900D01*
X41132900Y-41221900D02*
X38987900Y-41221900D01*
X77177900Y-27266900D02*
X75697900Y-27266900D01*
X75697900Y-27266900D02*
X74187900Y-28776900D01*
X61027900Y-5136900D02*
X59687900Y-6476900D01*
X59687900Y-6476900D02*
X59687900Y-8546900D01*
X59687900Y-8546900D02*
X55697900Y-12536900D01*
X63097900Y-5136900D02*
X61027900Y-5136900D01*
X47397900Y-12536900D02*
X45987900Y-11126900D01*
X45887900Y-9426900D02*
X45737900Y-9276900D01*
X45737900Y-9276900D02*
X45737900Y-6226900D01*
X45737900Y-6226900D02*
X42992900Y-3481900D01*
X42992900Y-3481900D02*
X41912900Y-3481900D01*
X55697900Y-12536900D02*
X47397900Y-12536900D01*
X43642900Y-1521900D02*
X44187900Y-976900D01*
X44187900Y-976900D02*
X47987900Y-976900D01*
X47987900Y-976900D02*
X49237900Y-2226900D01*
X49237900Y-2226900D02*
X49237900Y-5176900D01*
X49237900Y-5176900D02*
X49437900Y-5376900D01*
X49437900Y-5376900D02*
X54787900Y-5376900D01*
X54787900Y-5376900D02*
X55697900Y-4466900D01*
X55697900Y-4466900D02*
X55697900Y-3136900D01*
X41912900Y-1521900D02*
X43642900Y-1521900D01*
X34947900Y-2821900D02*
X33997900Y-3771900D01*
X37512900Y-2821900D02*
X34947900Y-2821900D01*
X88353900Y-23456900D02*
X85813900Y-25996900D01*
X86067900Y-28028900D02*
X85830900Y-27791900D01*
X85830900Y-27791900D02*
X84592900Y-27791900D01*
X90047900Y-23456900D02*
X88353900Y-23456900D01*
X86050900Y-29061900D02*
X86067900Y-29044900D01*
X84592900Y-29061900D02*
X86050900Y-29061900D01*
X80225900Y-26758900D02*
X79717900Y-27266900D01*
X86846900Y-27791900D02*
X85813900Y-26758900D01*
X85813900Y-26758900D02*
X80225900Y-26758900D01*
X90542900Y-27791900D02*
X86846900Y-27791900D01*
X90542900Y-30331900D02*
X88370900Y-30331900D01*
X88370900Y-30331900D02*
X88353900Y-30314900D01*
X94095900Y-28436900D02*
X92247900Y-26588900D01*
X92247900Y-26588900D02*
X92247900Y-25996900D01*
X94703900Y-28436900D02*
X94095900Y-28436900D01*
X95542900Y-28436900D02*
X94703900Y-28436900D01*
X92247900Y-23456900D02*
X92247900Y-25996900D01*
X94295900Y-28436900D02*
X94195900Y-28536900D01*
X94703900Y-28436900D02*
X94295900Y-28436900D01*
X93275900Y-29964900D02*
X93179900Y-30060900D01*
X93941900Y-29298900D02*
X93275900Y-29964900D01*
X94449900Y-29298900D02*
X93941900Y-29298900D01*
X94661900Y-29086900D02*
X94449900Y-29298900D01*
X95542900Y-29086900D02*
X94661900Y-29086900D01*
X92925900Y-30060900D02*
X92163900Y-29298900D01*
X93137900Y-30060900D02*
X92925900Y-30060900D01*
X93179900Y-30060900D02*
X93137900Y-30060900D01*
X93137900Y-30060900D02*
X93179900Y-30060900D01*
X93275900Y-29964900D02*
X93375900Y-29964900D01*
X93537900Y-30126900D02*
X93375900Y-29964900D01*
X93537900Y-30126900D02*
X93537900Y-31326900D01*
X19737900Y-37076900D02*
X20037900Y-37376900D01*
X20037900Y-37376900D02*
X20987900Y-37376900D01*
X20987900Y-37376900D02*
X21137900Y-37526900D01*
X25687900Y-38076900D02*
X25337900Y-37726900D01*
X25337900Y-37726900D02*
X21737900Y-37726900D01*
X21337900Y-37726900D02*
X21737900Y-37726900D01*
X21137900Y-37526900D02*
X21337900Y-37726900D01*
X13237900Y-33576900D02*
X12787900Y-33126900D01*
X12787900Y-33126900D02*
X11137900Y-33126900D01*
X20687900Y-36776900D02*
X20437900Y-36526900D01*
X27037900Y-36776900D02*
X20687900Y-36776900D01*
X31457900Y-41196900D02*
X27037900Y-36776900D01*
X31457900Y-41236900D02*
X31457900Y-41196900D01*
D58*
X77177900Y-3009900D02*
X76420900Y-3009900D01*
X64837900Y-2776900D02*
X66037900Y-3976900D01*
X66037900Y-3976900D02*
X66187900Y-3976900D01*
X76420900Y-3009900D02*
X74637900Y-1226900D01*
X65937900Y-1226900D02*
X64837900Y-2326900D01*
X74637900Y-1226900D02*
X65937900Y-1226900D01*
X64837900Y-2326900D02*
X64837900Y-2776900D01*
D56*
X77177900Y-9613900D02*
X77177900Y-3009900D01*
D55*
X30502900Y-15441900D02*
X31112900Y-15441900D01*
X31112900Y-6001900D02*
X30537900Y-5426900D01*
X28037900Y-8326900D02*
X28237900Y-8526900D01*
X28237900Y-8526900D02*
X28237900Y-11076900D01*
X28237900Y-11076900D02*
X28937900Y-11776900D01*
X29037900Y-13976900D02*
X30502900Y-15441900D01*
X31112900Y-7341900D02*
X31112900Y-6001900D01*
X30822900Y-15731900D02*
X31112900Y-15441900D01*
X31838900Y-16167900D02*
X31112900Y-15441900D01*
X31838900Y-19265900D02*
X31838900Y-16167900D01*
X29087900Y-22016900D02*
X31838900Y-19265900D01*
X29087900Y-22076900D02*
X29087900Y-22016900D01*
X28790900Y-21043900D02*
X29087900Y-21340900D01*
X29087900Y-21340900D02*
X29087900Y-22076900D01*
X19152900Y-19011900D02*
X18757900Y-19011900D01*
X19011900Y-19011900D02*
X18757900Y-19011900D01*
X27012900Y-15582900D02*
X25488900Y-17106900D01*
X25488900Y-17106900D02*
X20916900Y-17106900D01*
X20916900Y-17106900D02*
X19011900Y-19011900D01*
X27012900Y-14935200D02*
X27012900Y-15582900D01*
X52122900Y-17111900D02*
X52122900Y-15441900D01*
X52237900Y-17226900D02*
X52122900Y-17111900D01*
X52237900Y-18371900D02*
X52412900Y-18546900D01*
X52237900Y-17226900D02*
X52237900Y-18371900D01*
X50372900Y-7341900D02*
X48087900Y-9626900D01*
X52387900Y-13426900D02*
X52122900Y-13691900D01*
X52122900Y-13691900D02*
X52122900Y-15441900D01*
X52122900Y-7341900D02*
X50372900Y-7341900D01*
X40982900Y-20408900D02*
X41744900Y-19646900D01*
X41744900Y-19646900D02*
X41744900Y-18630900D01*
X36537900Y-21297900D02*
X32727900Y-21297900D01*
X36664900Y-21424900D02*
X36537900Y-21297900D01*
X43867900Y-8856900D02*
X44687900Y-9676900D01*
X43637900Y-13476900D02*
X43867900Y-13706900D01*
X43867900Y-13706900D02*
X43867900Y-15441900D01*
X43867900Y-7341900D02*
X43867900Y-8856900D01*
X44157900Y-17396900D02*
X44157900Y-18546900D01*
X43937900Y-17176900D02*
X44157900Y-17396900D01*
X43937900Y-15511900D02*
X43867900Y-15441900D01*
X43937900Y-17176900D02*
X43937900Y-15511900D01*
X21120100Y-16446500D02*
X21221700Y-16344900D01*
X21221700Y-16344900D02*
X23583900Y-16344900D01*
X23583900Y-16344900D02*
X23710900Y-16471900D01*
X23710900Y-16471900D02*
X25107900Y-16471900D01*
X32092900Y-20027900D02*
X35775900Y-20027900D01*
X9679900Y-12884900D02*
X9679900Y-12560900D01*
X9679900Y-12984900D02*
X9679900Y-12560900D01*
X8597900Y-14066900D02*
X9679900Y-12984900D01*
X8597900Y-16471900D02*
X8597900Y-14066900D01*
X5422900Y-16041900D02*
X5422900Y-16471900D01*
X8425780Y-13039020D02*
X5422900Y-16041900D01*
X8425780Y-12595900D02*
X8425780Y-13039020D01*
X3924900Y-13989900D02*
X3924900Y-12595900D01*
X2247900Y-15666900D02*
X3924900Y-13989900D01*
X2247900Y-16471900D02*
X2247900Y-15666900D01*
X15244900Y-4406900D02*
X14693900Y-4957900D01*
X18757900Y-4406900D02*
X15244900Y-4406900D01*
X18757900Y-4406900D02*
X18757900Y-4806900D01*
X24287900Y-21376900D02*
X24472900Y-21191900D01*
X24472900Y-21191900D02*
X24472900Y-18376900D01*
X25742900Y-18376900D02*
X27266900Y-16852900D01*
X27266900Y-16852900D02*
X28973900Y-16852900D01*
X28973900Y-16852900D02*
X30497900Y-18376900D01*
X24472900Y-18376900D02*
X25742900Y-18376900D01*
X17487900Y-6076900D02*
X17487900Y-10526900D01*
X17487900Y-6076900D02*
X18757900Y-4806900D01*
X27647900Y-17741900D02*
X27647900Y-17816900D01*
X27957900Y-21749900D02*
X26758900Y-22948900D01*
X26758900Y-22948900D02*
X14185900Y-22948900D01*
X14185900Y-22948900D02*
X13677900Y-22440900D01*
X27957900Y-18376900D02*
X27957900Y-21749900D01*
X26287900Y-35976900D02*
X26337900Y-35926900D01*
X26337900Y-35926900D02*
X28337900Y-35926900D01*
X28337900Y-35926900D02*
X29937900Y-37526900D01*
X29937900Y-37526900D02*
X29937900Y-38576900D01*
X29937900Y-38576900D02*
X30837900Y-39476900D01*
X30837900Y-39476900D02*
X33887900Y-39476900D01*
X33887900Y-39476900D02*
X33997900Y-39586900D01*
X33997900Y-39586900D02*
X33997900Y-41236900D01*
X94147900Y-39446900D02*
X94317900Y-39616900D01*
X89057900Y-39446900D02*
X94147900Y-39446900D01*
X94317900Y-40716900D02*
X89057900Y-40716900D01*
D56*
X8343900Y-6946900D02*
X7327900Y-6946900D01*
X8470900Y-7073900D02*
X8343900Y-6946900D01*
X10629900Y-9232900D02*
X8470900Y-7073900D01*
X10629900Y-9460900D02*
X10629900Y-9232900D01*
D55*
X10586900Y-4957900D02*
X8470900Y-7073900D01*
X10883900Y-4957900D02*
X10586900Y-4957900D01*
D56*
X5325780Y-14029020D02*
X5295900Y-14058900D01*
X5325780Y-11645900D02*
X5325780Y-14029020D01*
D55*
X6057900Y-5676900D02*
X4787900Y-6946900D01*
X8343900Y-5676900D02*
X6057900Y-5676900D01*
X10121900Y-3898900D02*
X8343900Y-5676900D01*
X11645900Y-3898900D02*
X10121900Y-3898900D01*
X12704900Y-4957900D02*
X11645900Y-3898900D01*
X12788900Y-4957900D02*
X12704900Y-4957900D01*
D56*
X824900Y-8369900D02*
X2247900Y-6946900D01*
X824900Y-9486900D02*
X824900Y-8369900D01*
X824900Y-11645900D02*
X824900Y-9486900D01*
D55*
X977900Y-9486900D02*
X824900Y-9486900D01*
X824900Y-9486900D02*
X977900Y-9486900D01*
X1739900Y-9486900D02*
X824900Y-9486900D01*
X34552900Y-15441900D02*
X35612900Y-15441900D01*
X34187900Y-15076900D02*
X34552900Y-15441900D01*
X38037900Y-11926900D02*
X29937900Y-11926900D01*
X38387900Y-11576900D02*
X38037900Y-11926900D01*
X35612900Y-6801900D02*
X36687900Y-5726900D01*
X35612900Y-7341900D02*
X35612900Y-6801900D01*
X35902900Y-15731900D02*
X35612900Y-15441900D01*
X37187900Y-17016900D02*
X35612900Y-15441900D01*
X37187900Y-17726900D02*
X37187900Y-17016900D01*
X47332900Y-15731900D02*
X47622900Y-15441900D01*
X47332900Y-18546900D02*
X47332900Y-15731900D01*
X47622900Y-13461900D02*
X47487900Y-13326900D01*
X47087900Y-9576900D02*
X47622900Y-9041900D01*
X47622900Y-9041900D02*
X47622900Y-7341900D01*
X47622900Y-15441900D02*
X47622900Y-13461900D01*
X70827900Y-29976900D02*
X70827900Y-28286900D01*
X70827900Y-28286900D02*
X71037900Y-28076900D01*
X39367900Y-13546900D02*
X39367900Y-15441900D01*
X40937900Y-11976900D02*
X39367900Y-13546900D01*
X39652900Y-7341900D02*
X40837900Y-8526900D01*
X39367900Y-7341900D02*
X39652900Y-7341900D01*
X39077900Y-15731900D02*
X39367900Y-15441900D01*
X39077900Y-18546900D02*
X39077900Y-15731900D01*
X69303900Y-24388900D02*
X69133900Y-24218900D01*
X71589900Y-24388900D02*
X69303900Y-24388900D01*
X72945900Y-23032900D02*
X71589900Y-24388900D01*
X73367900Y-23032900D02*
X72945900Y-23032900D01*
X71777900Y-26776900D02*
X71589900Y-26588900D01*
X71777900Y-29976900D02*
X71777900Y-26776900D01*
X74877900Y-36446900D02*
X66777900Y-36446900D01*
X64087900Y-34626900D02*
X61937900Y-34626900D01*
X65907900Y-36446900D02*
X64087900Y-34626900D01*
X66777900Y-36446900D02*
X65907900Y-36446900D01*
D56*
X57837900Y-16676900D02*
X56767900Y-17746900D01*
X56767900Y-17746900D02*
X55333900Y-17746900D01*
D55*
X56184800Y-6705600D02*
X55384700Y-6705600D01*
X56603900Y-7124700D02*
X56184800Y-6705600D01*
X23237900Y-15526900D02*
X23448600Y-15316200D01*
X23448600Y-15316200D02*
X24472900Y-15316200D01*
X27381200Y-13436600D02*
X27012900Y-13436600D01*
X28028900Y-12788900D02*
X27381200Y-13436600D01*
X24472900Y-12741900D02*
X24537900Y-12676900D01*
X24472900Y-13817600D02*
X24472900Y-12741900D01*
X73494900Y-18376900D02*
X65366900Y-18376900D01*
X74256900Y-19138900D02*
X73494900Y-18376900D01*
X57873900Y-11518900D02*
X57873900Y-11645900D01*
X59524900Y-9867900D02*
X57873900Y-11518900D01*
D56*
X63423800Y-9268000D02*
X64487600Y-9268000D01*
X65571500Y-10351900D02*
X66977900Y-10351900D01*
X64487600Y-9268000D02*
X65571500Y-10351900D01*
D60*
G36*
X2725133Y-9768986D02*
X2918319Y-9962510D01*
X2828469Y-10094010D01*
X2777460Y-10345900D01*
X2777460Y-11045900D01*
X2821738Y-11281217D01*
X2960810Y-11497341D01*
X3173010Y-11642331D01*
X3186097Y-11644981D01*
X2973459Y-11781810D01*
X2828469Y-11994010D01*
X2777460Y-12245900D01*
X2777460Y-12945900D01*
X2821738Y-13181217D01*
X2960810Y-13397341D01*
X3173010Y-13542331D01*
X3189900Y-13545751D01*
X3189900Y-13685453D01*
X1842872Y-15032482D01*
X1407814Y-15212244D01*
X989712Y-15629617D01*
X763158Y-16175219D01*
X762643Y-16765989D01*
X988244Y-17311986D01*
X1405617Y-17730088D01*
X1433457Y-17741648D01*
X1407814Y-17752244D01*
X989712Y-18169617D01*
X763158Y-18715219D01*
X762643Y-19305989D01*
X988244Y-19851986D01*
X1405617Y-20270088D01*
X1951219Y-20496642D01*
X2541989Y-20497157D01*
X3087986Y-20271556D01*
X3290725Y-20069171D01*
X4668179Y-21446626D01*
X4885598Y-21591900D01*
X4906630Y-21605953D01*
X5187902Y-21661902D01*
X9433456Y-21661902D01*
X10002894Y-22231341D01*
X10002894Y-23758270D01*
X10038511Y-23937327D01*
X10058843Y-24039542D01*
X10218171Y-24277993D01*
X20219647Y-34279469D01*
X20458098Y-34438797D01*
X20725062Y-34491900D01*
X19487900Y-34491900D01*
X19206628Y-34547849D01*
X18968177Y-34707176D01*
X18733545Y-34941808D01*
X18652733Y-34941738D01*
X18308957Y-35083783D01*
X18045708Y-35346573D01*
X17903062Y-35690101D01*
X17902738Y-36062067D01*
X18044783Y-36405843D01*
X18207005Y-36568348D01*
X17628461Y-37146893D01*
X17484827Y-37003008D01*
X17141299Y-36860362D01*
X16769333Y-36860038D01*
X16425557Y-37002083D01*
X16162308Y-37264873D01*
X16019662Y-37608401D01*
X16019338Y-37980367D01*
X16161383Y-38324143D01*
X16219500Y-38382362D01*
X16219500Y-39675153D01*
X15244753Y-40649900D01*
X747900Y-40649900D01*
X747900Y-33312067D01*
X10202738Y-33312067D01*
X10344783Y-33655843D01*
X10607573Y-33919092D01*
X10951101Y-34061738D01*
X11323067Y-34062062D01*
X11666843Y-33920017D01*
X11725062Y-33861900D01*
X12343988Y-33861900D01*
X12444783Y-34105843D01*
X12707573Y-34369092D01*
X13051101Y-34511738D01*
X13423067Y-34512062D01*
X13766843Y-34370017D01*
X14030092Y-34107227D01*
X14069609Y-34012059D01*
X14073067Y-34012062D01*
X14416843Y-33870017D01*
X14680092Y-33607227D01*
X14822738Y-33263699D01*
X14823062Y-32891733D01*
X14681017Y-32547957D01*
X14418227Y-32284708D01*
X14322900Y-32245125D01*
X14322900Y-28976900D01*
X14266951Y-28695628D01*
X14261119Y-28686900D01*
X14107624Y-28457177D01*
X12472992Y-26822545D01*
X12473062Y-26741733D01*
X12331017Y-26397957D01*
X12068227Y-26134708D01*
X11724699Y-25992062D01*
X11352733Y-25991738D01*
X11008957Y-26133783D01*
X10745708Y-26396573D01*
X10603062Y-26740101D01*
X10602738Y-27112067D01*
X10744783Y-27455843D01*
X11007573Y-27719092D01*
X11351101Y-27861738D01*
X11433363Y-27861810D01*
X12852900Y-29281347D01*
X12852900Y-32404829D01*
X12787900Y-32391900D01*
X11725319Y-32391900D01*
X11668227Y-32334708D01*
X11324699Y-32192062D01*
X10952733Y-32191738D01*
X10608957Y-32333783D01*
X10345708Y-32596573D01*
X10203062Y-32940101D01*
X10202738Y-33312067D01*
X747900Y-33312067D01*
X747900Y-14344314D01*
X749870Y-12765976D01*
X824900Y-12780900D01*
X1259246Y-12694503D01*
X1340096Y-12640481D01*
X1560217Y-12599062D01*
X1776341Y-12459990D01*
X1921331Y-12247790D01*
X1972340Y-11995900D01*
X1972340Y-11295900D01*
X1959900Y-11229787D01*
X1959900Y-10407669D01*
X2268843Y-10280017D01*
X2532092Y-10017227D01*
X2674738Y-9673699D01*
X2674761Y-9647077D01*
X2725133Y-9768986D01*
X2725133Y-9768986D01*
G37*
X2725133Y-9768986D02*
X2918319Y-9962510D01*
X2828469Y-10094010D01*
X2777460Y-10345900D01*
X2777460Y-11045900D01*
X2821738Y-11281217D01*
X2960810Y-11497341D01*
X3173010Y-11642331D01*
X3186097Y-11644981D01*
X2973459Y-11781810D01*
X2828469Y-11994010D01*
X2777460Y-12245900D01*
X2777460Y-12945900D01*
X2821738Y-13181217D01*
X2960810Y-13397341D01*
X3173010Y-13542331D01*
X3189900Y-13545751D01*
X3189900Y-13685453D01*
X1842872Y-15032482D01*
X1407814Y-15212244D01*
X989712Y-15629617D01*
X763158Y-16175219D01*
X762643Y-16765989D01*
X988244Y-17311986D01*
X1405617Y-17730088D01*
X1433457Y-17741648D01*
X1407814Y-17752244D01*
X989712Y-18169617D01*
X763158Y-18715219D01*
X762643Y-19305989D01*
X988244Y-19851986D01*
X1405617Y-20270088D01*
X1951219Y-20496642D01*
X2541989Y-20497157D01*
X3087986Y-20271556D01*
X3290725Y-20069171D01*
X4668179Y-21446626D01*
X4885598Y-21591900D01*
X4906630Y-21605953D01*
X5187902Y-21661902D01*
X9433456Y-21661902D01*
X10002894Y-22231341D01*
X10002894Y-23758270D01*
X10038511Y-23937327D01*
X10058843Y-24039542D01*
X10218171Y-24277993D01*
X20219647Y-34279469D01*
X20458098Y-34438797D01*
X20725062Y-34491900D01*
X19487900Y-34491900D01*
X19206628Y-34547849D01*
X18968177Y-34707176D01*
X18733545Y-34941808D01*
X18652733Y-34941738D01*
X18308957Y-35083783D01*
X18045708Y-35346573D01*
X17903062Y-35690101D01*
X17902738Y-36062067D01*
X18044783Y-36405843D01*
X18207005Y-36568348D01*
X17628461Y-37146893D01*
X17484827Y-37003008D01*
X17141299Y-36860362D01*
X16769333Y-36860038D01*
X16425557Y-37002083D01*
X16162308Y-37264873D01*
X16019662Y-37608401D01*
X16019338Y-37980367D01*
X16161383Y-38324143D01*
X16219500Y-38382362D01*
X16219500Y-39675153D01*
X15244753Y-40649900D01*
X747900Y-40649900D01*
X747900Y-33312067D01*
X10202738Y-33312067D01*
X10344783Y-33655843D01*
X10607573Y-33919092D01*
X10951101Y-34061738D01*
X11323067Y-34062062D01*
X11666843Y-33920017D01*
X11725062Y-33861900D01*
X12343988Y-33861900D01*
X12444783Y-34105843D01*
X12707573Y-34369092D01*
X13051101Y-34511738D01*
X13423067Y-34512062D01*
X13766843Y-34370017D01*
X14030092Y-34107227D01*
X14069609Y-34012059D01*
X14073067Y-34012062D01*
X14416843Y-33870017D01*
X14680092Y-33607227D01*
X14822738Y-33263699D01*
X14823062Y-32891733D01*
X14681017Y-32547957D01*
X14418227Y-32284708D01*
X14322900Y-32245125D01*
X14322900Y-28976900D01*
X14266951Y-28695628D01*
X14261119Y-28686900D01*
X14107624Y-28457177D01*
X12472992Y-26822545D01*
X12473062Y-26741733D01*
X12331017Y-26397957D01*
X12068227Y-26134708D01*
X11724699Y-25992062D01*
X11352733Y-25991738D01*
X11008957Y-26133783D01*
X10745708Y-26396573D01*
X10603062Y-26740101D01*
X10602738Y-27112067D01*
X10744783Y-27455843D01*
X11007573Y-27719092D01*
X11351101Y-27861738D01*
X11433363Y-27861810D01*
X12852900Y-29281347D01*
X12852900Y-32404829D01*
X12787900Y-32391900D01*
X11725319Y-32391900D01*
X11668227Y-32334708D01*
X11324699Y-32192062D01*
X10952733Y-32191738D01*
X10608957Y-32333783D01*
X10345708Y-32596573D01*
X10203062Y-32940101D01*
X10202738Y-33312067D01*
X747900Y-33312067D01*
X747900Y-14344314D01*
X749870Y-12765976D01*
X824900Y-12780900D01*
X1259246Y-12694503D01*
X1340096Y-12640481D01*
X1560217Y-12599062D01*
X1776341Y-12459990D01*
X1921331Y-12247790D01*
X1972340Y-11995900D01*
X1972340Y-11295900D01*
X1959900Y-11229787D01*
X1959900Y-10407669D01*
X2268843Y-10280017D01*
X2532092Y-10017227D01*
X2674738Y-9673699D01*
X2674761Y-9647077D01*
X2725133Y-9768986D01*
G36*
X41652738Y-36162067D02*
X41794783Y-36505843D01*
X42057573Y-36769092D01*
X42401101Y-36911738D01*
X42773067Y-36912062D01*
X43116843Y-36770017D01*
X43175062Y-36711900D01*
X44283454Y-36711900D01*
X46318177Y-38746624D01*
X46502849Y-38870017D01*
X46556628Y-38905951D01*
X46837900Y-38961900D01*
X52102956Y-38961900D01*
X52102738Y-39212067D01*
X52244783Y-39555843D01*
X52507573Y-39819092D01*
X52851101Y-39961738D01*
X53223067Y-39962062D01*
X53235560Y-39956900D01*
X53395258Y-39956900D01*
X53464028Y-40059822D01*
X53514269Y-40093392D01*
X53336459Y-40207810D01*
X53191469Y-40420010D01*
X53144915Y-40649900D01*
X44136974Y-40649900D01*
X44162692Y-40624227D01*
X44305338Y-40280699D01*
X44305662Y-39908733D01*
X44163617Y-39564957D01*
X43900827Y-39301708D01*
X43557299Y-39159062D01*
X43185333Y-39158738D01*
X42841557Y-39300783D01*
X42783338Y-39358900D01*
X42328747Y-39358900D01*
X42197392Y-39227545D01*
X42197462Y-39146733D01*
X42055417Y-38802957D01*
X41792627Y-38539708D01*
X41449099Y-38397062D01*
X41077133Y-38396738D01*
X40733357Y-38538783D01*
X40662483Y-38609534D01*
X40655365Y-38598881D01*
X41107623Y-38146624D01*
X41266951Y-37908173D01*
X41287040Y-37807177D01*
X41322900Y-37626900D01*
X41322900Y-36331346D01*
X41652878Y-36001369D01*
X41652738Y-36162067D01*
X41652738Y-36162067D01*
G37*
X41652738Y-36162067D02*
X41794783Y-36505843D01*
X42057573Y-36769092D01*
X42401101Y-36911738D01*
X42773067Y-36912062D01*
X43116843Y-36770017D01*
X43175062Y-36711900D01*
X44283454Y-36711900D01*
X46318177Y-38746624D01*
X46502849Y-38870017D01*
X46556628Y-38905951D01*
X46837900Y-38961900D01*
X52102956Y-38961900D01*
X52102738Y-39212067D01*
X52244783Y-39555843D01*
X52507573Y-39819092D01*
X52851101Y-39961738D01*
X53223067Y-39962062D01*
X53235560Y-39956900D01*
X53395258Y-39956900D01*
X53464028Y-40059822D01*
X53514269Y-40093392D01*
X53336459Y-40207810D01*
X53191469Y-40420010D01*
X53144915Y-40649900D01*
X44136974Y-40649900D01*
X44162692Y-40624227D01*
X44305338Y-40280699D01*
X44305662Y-39908733D01*
X44163617Y-39564957D01*
X43900827Y-39301708D01*
X43557299Y-39159062D01*
X43185333Y-39158738D01*
X42841557Y-39300783D01*
X42783338Y-39358900D01*
X42328747Y-39358900D01*
X42197392Y-39227545D01*
X42197462Y-39146733D01*
X42055417Y-38802957D01*
X41792627Y-38539708D01*
X41449099Y-38397062D01*
X41077133Y-38396738D01*
X40733357Y-38538783D01*
X40662483Y-38609534D01*
X40655365Y-38598881D01*
X41107623Y-38146624D01*
X41266951Y-37908173D01*
X41287040Y-37807177D01*
X41322900Y-37626900D01*
X41322900Y-36331346D01*
X41652878Y-36001369D01*
X41652738Y-36162067D01*
G36*
X76553244Y-31281986D02*
X76970617Y-31700088D01*
X77516219Y-31926642D01*
X77789100Y-31926880D01*
X77789100Y-35849102D01*
X77604908Y-36032973D01*
X77462262Y-36376501D01*
X77461938Y-36748467D01*
X77603983Y-37092243D01*
X77866773Y-37355492D01*
X78210301Y-37498138D01*
X78582267Y-37498462D01*
X78926043Y-37356417D01*
X79189292Y-37093627D01*
X79331938Y-36750099D01*
X79332262Y-36378133D01*
X79259100Y-36201067D01*
X79259100Y-31448132D01*
X79510617Y-31700088D01*
X80056219Y-31926642D01*
X80646989Y-31927157D01*
X81192986Y-31701556D01*
X81352900Y-31541921D01*
X81352900Y-31989481D01*
X81295708Y-32046573D01*
X81153062Y-32390101D01*
X81152738Y-32762067D01*
X81294783Y-33105843D01*
X81557573Y-33369092D01*
X81896573Y-33509858D01*
X81896469Y-33510010D01*
X81845460Y-33761900D01*
X81845460Y-36961900D01*
X81889738Y-37197217D01*
X82028810Y-37413341D01*
X82241010Y-37558331D01*
X82492900Y-37609340D01*
X83292900Y-37609340D01*
X83516704Y-37567228D01*
X82569472Y-38514460D01*
X82492900Y-38514460D01*
X82257583Y-38558738D01*
X82041459Y-38697810D01*
X81896469Y-38910010D01*
X81845460Y-39161900D01*
X81845460Y-40026900D01*
X76533944Y-40026900D01*
X76531062Y-40011583D01*
X76391990Y-39795459D01*
X76179790Y-39650469D01*
X75927900Y-39599460D01*
X73827900Y-39599460D01*
X73592583Y-39643738D01*
X73376459Y-39782810D01*
X73231469Y-39995010D01*
X73187548Y-40211900D01*
X68468754Y-40211900D01*
X68431062Y-40011583D01*
X68291990Y-39795459D01*
X68079790Y-39650469D01*
X67827900Y-39599460D01*
X66899907Y-39599460D01*
X64907623Y-37607177D01*
X64669172Y-37447849D01*
X64640079Y-37442062D01*
X64387900Y-37391900D01*
X64292900Y-37391900D01*
X64292900Y-37247650D01*
X64134150Y-37088900D01*
X63334900Y-37088900D01*
X63334900Y-37108900D01*
X63080900Y-37108900D01*
X63080900Y-37088900D01*
X63060900Y-37088900D01*
X63060900Y-36834900D01*
X63080900Y-36834900D01*
X63080900Y-35885650D01*
X63334900Y-35885650D01*
X63334900Y-36834900D01*
X64134150Y-36834900D01*
X64292900Y-36676150D01*
X64292900Y-36235591D01*
X64196227Y-36002202D01*
X64017599Y-35823573D01*
X63784210Y-35726900D01*
X63493650Y-35726900D01*
X63334900Y-35885650D01*
X63080900Y-35885650D01*
X62922150Y-35726900D01*
X62631590Y-35726900D01*
X62398201Y-35823573D01*
X62219573Y-36002202D01*
X62122900Y-36235591D01*
X62122900Y-36468875D01*
X62092598Y-36438573D01*
X61859209Y-36341900D01*
X61418650Y-36341900D01*
X61259900Y-36500650D01*
X61259900Y-37299900D01*
X61279900Y-37299900D01*
X61279900Y-37553900D01*
X61259900Y-37553900D01*
X61259900Y-37573900D01*
X61005900Y-37573900D01*
X61005900Y-37553900D01*
X60985900Y-37553900D01*
X60985900Y-37299900D01*
X61005900Y-37299900D01*
X61005900Y-36500650D01*
X60847150Y-36341900D01*
X60406591Y-36341900D01*
X60173202Y-36438573D01*
X60031964Y-36579810D01*
X59996990Y-36525459D01*
X59784790Y-36380469D01*
X59532900Y-36329460D01*
X58332900Y-36329460D01*
X58097583Y-36373738D01*
X57881459Y-36512810D01*
X57759092Y-36691900D01*
X56862346Y-36691900D01*
X57357624Y-36196623D01*
X57516951Y-35958172D01*
X57523171Y-35926900D01*
X57572900Y-35676900D01*
X57572900Y-34714406D01*
X57580092Y-34707227D01*
X57722738Y-34363699D01*
X57723062Y-33991733D01*
X57581017Y-33647957D01*
X57318227Y-33384708D01*
X56974699Y-33242062D01*
X56854860Y-33241958D01*
X56858850Y-33221900D01*
X56768647Y-32768420D01*
X56511772Y-32383978D01*
X56269204Y-32221900D01*
X56503702Y-32065214D01*
X56507573Y-32069092D01*
X56851101Y-32211738D01*
X56864585Y-32211750D01*
X56944783Y-32405843D01*
X57207573Y-32669092D01*
X57303046Y-32708736D01*
X57302738Y-33062067D01*
X57444783Y-33405843D01*
X57707573Y-33669092D01*
X58051101Y-33811738D01*
X58302641Y-33811957D01*
X58369810Y-33916341D01*
X58582010Y-34061331D01*
X58833900Y-34112340D01*
X61139161Y-34112340D01*
X61003062Y-34440101D01*
X61002738Y-34812067D01*
X61144783Y-35155843D01*
X61407573Y-35419092D01*
X61751101Y-35561738D01*
X62123067Y-35562062D01*
X62466843Y-35420017D01*
X62525062Y-35361900D01*
X63783454Y-35361900D01*
X65080460Y-36658907D01*
X65080460Y-37146900D01*
X65124738Y-37382217D01*
X65263810Y-37598341D01*
X65476010Y-37743331D01*
X65727900Y-37794340D01*
X67827900Y-37794340D01*
X68063217Y-37750062D01*
X68279341Y-37610990D01*
X68424331Y-37398790D01*
X68468252Y-37181900D01*
X73187046Y-37181900D01*
X73224738Y-37382217D01*
X73363810Y-37598341D01*
X73576010Y-37743331D01*
X73827900Y-37794340D01*
X75927900Y-37794340D01*
X76163217Y-37750062D01*
X76379341Y-37610990D01*
X76524331Y-37398790D01*
X76575340Y-37146900D01*
X76575340Y-35746900D01*
X76531062Y-35511583D01*
X76391990Y-35295459D01*
X76179790Y-35150469D01*
X75927900Y-35099460D01*
X73827900Y-35099460D01*
X73592583Y-35143738D01*
X73376459Y-35282810D01*
X73231469Y-35495010D01*
X73187548Y-35711900D01*
X68468754Y-35711900D01*
X68431062Y-35511583D01*
X68291990Y-35295459D01*
X68079790Y-35150469D01*
X67827900Y-35099460D01*
X65727900Y-35099460D01*
X65620176Y-35119730D01*
X64662346Y-34161900D01*
X67637895Y-34161900D01*
X67637900Y-34161901D01*
X67637905Y-34161900D01*
X70437895Y-34161900D01*
X70437900Y-34161901D01*
X70759361Y-34097957D01*
X70776575Y-34094533D01*
X71063690Y-33902690D01*
X71453687Y-33512692D01*
X71453690Y-33512690D01*
X71559495Y-33354340D01*
X72102900Y-33354340D01*
X72338217Y-33310062D01*
X72554341Y-33170990D01*
X72628879Y-33061900D01*
X72767536Y-33061900D01*
X72794135Y-33088545D01*
X73211144Y-33261703D01*
X73662675Y-33262097D01*
X74079986Y-33089667D01*
X74399545Y-32770665D01*
X74572703Y-32353656D01*
X74572760Y-32288261D01*
X74785843Y-32200217D01*
X75049092Y-31937427D01*
X75053542Y-31926709D01*
X75566989Y-31927157D01*
X76112986Y-31701556D01*
X76531088Y-31284183D01*
X76542648Y-31256343D01*
X76553244Y-31281986D01*
X76553244Y-31281986D01*
G37*
X76553244Y-31281986D02*
X76970617Y-31700088D01*
X77516219Y-31926642D01*
X77789100Y-31926880D01*
X77789100Y-35849102D01*
X77604908Y-36032973D01*
X77462262Y-36376501D01*
X77461938Y-36748467D01*
X77603983Y-37092243D01*
X77866773Y-37355492D01*
X78210301Y-37498138D01*
X78582267Y-37498462D01*
X78926043Y-37356417D01*
X79189292Y-37093627D01*
X79331938Y-36750099D01*
X79332262Y-36378133D01*
X79259100Y-36201067D01*
X79259100Y-31448132D01*
X79510617Y-31700088D01*
X80056219Y-31926642D01*
X80646989Y-31927157D01*
X81192986Y-31701556D01*
X81352900Y-31541921D01*
X81352900Y-31989481D01*
X81295708Y-32046573D01*
X81153062Y-32390101D01*
X81152738Y-32762067D01*
X81294783Y-33105843D01*
X81557573Y-33369092D01*
X81896573Y-33509858D01*
X81896469Y-33510010D01*
X81845460Y-33761900D01*
X81845460Y-36961900D01*
X81889738Y-37197217D01*
X82028810Y-37413341D01*
X82241010Y-37558331D01*
X82492900Y-37609340D01*
X83292900Y-37609340D01*
X83516704Y-37567228D01*
X82569472Y-38514460D01*
X82492900Y-38514460D01*
X82257583Y-38558738D01*
X82041459Y-38697810D01*
X81896469Y-38910010D01*
X81845460Y-39161900D01*
X81845460Y-40026900D01*
X76533944Y-40026900D01*
X76531062Y-40011583D01*
X76391990Y-39795459D01*
X76179790Y-39650469D01*
X75927900Y-39599460D01*
X73827900Y-39599460D01*
X73592583Y-39643738D01*
X73376459Y-39782810D01*
X73231469Y-39995010D01*
X73187548Y-40211900D01*
X68468754Y-40211900D01*
X68431062Y-40011583D01*
X68291990Y-39795459D01*
X68079790Y-39650469D01*
X67827900Y-39599460D01*
X66899907Y-39599460D01*
X64907623Y-37607177D01*
X64669172Y-37447849D01*
X64640079Y-37442062D01*
X64387900Y-37391900D01*
X64292900Y-37391900D01*
X64292900Y-37247650D01*
X64134150Y-37088900D01*
X63334900Y-37088900D01*
X63334900Y-37108900D01*
X63080900Y-37108900D01*
X63080900Y-37088900D01*
X63060900Y-37088900D01*
X63060900Y-36834900D01*
X63080900Y-36834900D01*
X63080900Y-35885650D01*
X63334900Y-35885650D01*
X63334900Y-36834900D01*
X64134150Y-36834900D01*
X64292900Y-36676150D01*
X64292900Y-36235591D01*
X64196227Y-36002202D01*
X64017599Y-35823573D01*
X63784210Y-35726900D01*
X63493650Y-35726900D01*
X63334900Y-35885650D01*
X63080900Y-35885650D01*
X62922150Y-35726900D01*
X62631590Y-35726900D01*
X62398201Y-35823573D01*
X62219573Y-36002202D01*
X62122900Y-36235591D01*
X62122900Y-36468875D01*
X62092598Y-36438573D01*
X61859209Y-36341900D01*
X61418650Y-36341900D01*
X61259900Y-36500650D01*
X61259900Y-37299900D01*
X61279900Y-37299900D01*
X61279900Y-37553900D01*
X61259900Y-37553900D01*
X61259900Y-37573900D01*
X61005900Y-37573900D01*
X61005900Y-37553900D01*
X60985900Y-37553900D01*
X60985900Y-37299900D01*
X61005900Y-37299900D01*
X61005900Y-36500650D01*
X60847150Y-36341900D01*
X60406591Y-36341900D01*
X60173202Y-36438573D01*
X60031964Y-36579810D01*
X59996990Y-36525459D01*
X59784790Y-36380469D01*
X59532900Y-36329460D01*
X58332900Y-36329460D01*
X58097583Y-36373738D01*
X57881459Y-36512810D01*
X57759092Y-36691900D01*
X56862346Y-36691900D01*
X57357624Y-36196623D01*
X57516951Y-35958172D01*
X57523171Y-35926900D01*
X57572900Y-35676900D01*
X57572900Y-34714406D01*
X57580092Y-34707227D01*
X57722738Y-34363699D01*
X57723062Y-33991733D01*
X57581017Y-33647957D01*
X57318227Y-33384708D01*
X56974699Y-33242062D01*
X56854860Y-33241958D01*
X56858850Y-33221900D01*
X56768647Y-32768420D01*
X56511772Y-32383978D01*
X56269204Y-32221900D01*
X56503702Y-32065214D01*
X56507573Y-32069092D01*
X56851101Y-32211738D01*
X56864585Y-32211750D01*
X56944783Y-32405843D01*
X57207573Y-32669092D01*
X57303046Y-32708736D01*
X57302738Y-33062067D01*
X57444783Y-33405843D01*
X57707573Y-33669092D01*
X58051101Y-33811738D01*
X58302641Y-33811957D01*
X58369810Y-33916341D01*
X58582010Y-34061331D01*
X58833900Y-34112340D01*
X61139161Y-34112340D01*
X61003062Y-34440101D01*
X61002738Y-34812067D01*
X61144783Y-35155843D01*
X61407573Y-35419092D01*
X61751101Y-35561738D01*
X62123067Y-35562062D01*
X62466843Y-35420017D01*
X62525062Y-35361900D01*
X63783454Y-35361900D01*
X65080460Y-36658907D01*
X65080460Y-37146900D01*
X65124738Y-37382217D01*
X65263810Y-37598341D01*
X65476010Y-37743331D01*
X65727900Y-37794340D01*
X67827900Y-37794340D01*
X68063217Y-37750062D01*
X68279341Y-37610990D01*
X68424331Y-37398790D01*
X68468252Y-37181900D01*
X73187046Y-37181900D01*
X73224738Y-37382217D01*
X73363810Y-37598341D01*
X73576010Y-37743331D01*
X73827900Y-37794340D01*
X75927900Y-37794340D01*
X76163217Y-37750062D01*
X76379341Y-37610990D01*
X76524331Y-37398790D01*
X76575340Y-37146900D01*
X76575340Y-35746900D01*
X76531062Y-35511583D01*
X76391990Y-35295459D01*
X76179790Y-35150469D01*
X75927900Y-35099460D01*
X73827900Y-35099460D01*
X73592583Y-35143738D01*
X73376459Y-35282810D01*
X73231469Y-35495010D01*
X73187548Y-35711900D01*
X68468754Y-35711900D01*
X68431062Y-35511583D01*
X68291990Y-35295459D01*
X68079790Y-35150469D01*
X67827900Y-35099460D01*
X65727900Y-35099460D01*
X65620176Y-35119730D01*
X64662346Y-34161900D01*
X67637895Y-34161900D01*
X67637900Y-34161901D01*
X67637905Y-34161900D01*
X70437895Y-34161900D01*
X70437900Y-34161901D01*
X70759361Y-34097957D01*
X70776575Y-34094533D01*
X71063690Y-33902690D01*
X71453687Y-33512692D01*
X71453690Y-33512690D01*
X71559495Y-33354340D01*
X72102900Y-33354340D01*
X72338217Y-33310062D01*
X72554341Y-33170990D01*
X72628879Y-33061900D01*
X72767536Y-33061900D01*
X72794135Y-33088545D01*
X73211144Y-33261703D01*
X73662675Y-33262097D01*
X74079986Y-33089667D01*
X74399545Y-32770665D01*
X74572703Y-32353656D01*
X74572760Y-32288261D01*
X74785843Y-32200217D01*
X75049092Y-31937427D01*
X75053542Y-31926709D01*
X75566989Y-31927157D01*
X76112986Y-31701556D01*
X76531088Y-31284183D01*
X76542648Y-31256343D01*
X76553244Y-31281986D01*
G36*
X35630334Y-28024466D02*
X35998555Y-28270504D01*
X36432900Y-28356900D01*
X37504553Y-28356900D01*
X37464028Y-28383978D01*
X37395258Y-28486900D01*
X35592900Y-28486900D01*
X35566983Y-28492055D01*
X35202733Y-28491738D01*
X34858957Y-28633783D01*
X34810964Y-28681692D01*
X34474699Y-28542062D01*
X34102733Y-28541738D01*
X34072900Y-28554065D01*
X34072900Y-27500590D01*
X33976227Y-27267201D01*
X33797598Y-27088573D01*
X33564209Y-26991900D01*
X33323650Y-26991900D01*
X33164900Y-27150650D01*
X33164900Y-29099900D01*
X33184900Y-29099900D01*
X33184900Y-29353900D01*
X33164900Y-29353900D01*
X33164900Y-29373900D01*
X32910900Y-29373900D01*
X32910900Y-29353900D01*
X32161650Y-29353900D01*
X32002900Y-29512650D01*
X32002900Y-30486900D01*
X27822979Y-30486900D01*
X27823062Y-30391733D01*
X27681017Y-30047957D01*
X27418227Y-29784708D01*
X27074699Y-29642062D01*
X26702733Y-29641738D01*
X26358957Y-29783783D01*
X26300738Y-29841900D01*
X25992347Y-29841900D01*
X25666279Y-29515832D01*
X25821415Y-29451731D01*
X25861315Y-29411900D01*
X29137900Y-29411900D01*
X29572246Y-29325503D01*
X29940466Y-29079466D01*
X31519342Y-27500590D01*
X32002900Y-27500590D01*
X32002900Y-28941150D01*
X32161650Y-29099900D01*
X32910900Y-29099900D01*
X32910900Y-27150650D01*
X32752150Y-26991900D01*
X32511591Y-26991900D01*
X32278202Y-27088573D01*
X32099573Y-27267201D01*
X32002900Y-27500590D01*
X31519342Y-27500590D01*
X32804465Y-26215467D01*
X33037900Y-26261900D01*
X33472246Y-26175503D01*
X33657553Y-26051685D01*
X35630334Y-28024466D01*
X35630334Y-28024466D01*
G37*
X35630334Y-28024466D02*
X35998555Y-28270504D01*
X36432900Y-28356900D01*
X37504553Y-28356900D01*
X37464028Y-28383978D01*
X37395258Y-28486900D01*
X35592900Y-28486900D01*
X35566983Y-28492055D01*
X35202733Y-28491738D01*
X34858957Y-28633783D01*
X34810964Y-28681692D01*
X34474699Y-28542062D01*
X34102733Y-28541738D01*
X34072900Y-28554065D01*
X34072900Y-27500590D01*
X33976227Y-27267201D01*
X33797598Y-27088573D01*
X33564209Y-26991900D01*
X33323650Y-26991900D01*
X33164900Y-27150650D01*
X33164900Y-29099900D01*
X33184900Y-29099900D01*
X33184900Y-29353900D01*
X33164900Y-29353900D01*
X33164900Y-29373900D01*
X32910900Y-29373900D01*
X32910900Y-29353900D01*
X32161650Y-29353900D01*
X32002900Y-29512650D01*
X32002900Y-30486900D01*
X27822979Y-30486900D01*
X27823062Y-30391733D01*
X27681017Y-30047957D01*
X27418227Y-29784708D01*
X27074699Y-29642062D01*
X26702733Y-29641738D01*
X26358957Y-29783783D01*
X26300738Y-29841900D01*
X25992347Y-29841900D01*
X25666279Y-29515832D01*
X25821415Y-29451731D01*
X25861315Y-29411900D01*
X29137900Y-29411900D01*
X29572246Y-29325503D01*
X29940466Y-29079466D01*
X31519342Y-27500590D01*
X32002900Y-27500590D01*
X32002900Y-28941150D01*
X32161650Y-29099900D01*
X32910900Y-29099900D01*
X32910900Y-27150650D01*
X32752150Y-26991900D01*
X32511591Y-26991900D01*
X32278202Y-27088573D01*
X32099573Y-27267201D01*
X32002900Y-27500590D01*
X31519342Y-27500590D01*
X32804465Y-26215467D01*
X33037900Y-26261900D01*
X33472246Y-26175503D01*
X33657553Y-26051685D01*
X35630334Y-28024466D01*
G36*
X60518573Y-7739092D02*
X60862101Y-7881738D01*
X60944363Y-7881810D01*
X60959177Y-7896624D01*
X61187725Y-8049334D01*
X61197628Y-8055951D01*
X61478900Y-8111900D01*
X62425955Y-8111900D01*
X62337359Y-8168910D01*
X62192369Y-8381110D01*
X62141360Y-8633000D01*
X62141360Y-9903000D01*
X62165821Y-10033000D01*
X62027490Y-10033000D01*
X61794101Y-10129673D01*
X61615473Y-10308302D01*
X61518800Y-10541691D01*
X61518800Y-11652250D01*
X61677550Y-11811000D01*
X63296800Y-11811000D01*
X63296800Y-11791000D01*
X63550800Y-11791000D01*
X63550800Y-11811000D01*
X65170050Y-11811000D01*
X65328800Y-11652250D01*
X65328800Y-11438624D01*
X65571500Y-11486900D01*
X66166469Y-11486900D01*
X66227900Y-11499340D01*
X67727900Y-11499340D01*
X67963217Y-11455062D01*
X68179341Y-11315990D01*
X68324331Y-11103790D01*
X68375340Y-10851900D01*
X68375340Y-10547873D01*
X68376010Y-10548331D01*
X68493363Y-10572096D01*
X68546555Y-10584406D01*
X68353141Y-11050198D01*
X68352660Y-11601185D01*
X68563069Y-12110415D01*
X68771947Y-12319657D01*
X68755811Y-12319643D01*
X68209814Y-12545244D01*
X67791712Y-12962617D01*
X67780152Y-12990457D01*
X67769556Y-12964814D01*
X67352183Y-12546712D01*
X66806581Y-12320158D01*
X66215811Y-12319643D01*
X65669814Y-12545244D01*
X65328800Y-12885663D01*
X65328800Y-12223750D01*
X65170050Y-12065000D01*
X63550800Y-12065000D01*
X63550800Y-13684250D01*
X63709550Y-13843000D01*
X64820110Y-13843000D01*
X65024940Y-13758156D01*
X65024643Y-14098989D01*
X65250244Y-14644986D01*
X65667617Y-15063088D01*
X66213219Y-15289642D01*
X66803989Y-15290157D01*
X67349986Y-15064556D01*
X67768088Y-14647183D01*
X67779648Y-14619343D01*
X67790244Y-14644986D01*
X68207617Y-15063088D01*
X68753219Y-15289642D01*
X69343989Y-15290157D01*
X69889986Y-15064556D01*
X70014860Y-14939900D01*
X72737768Y-14939900D01*
X73033265Y-15235397D01*
X72992460Y-15436900D01*
X72992460Y-16236900D01*
X73036738Y-16472217D01*
X73175810Y-16688341D01*
X73388010Y-16833331D01*
X73639900Y-16884340D01*
X74034297Y-16884340D01*
X73903141Y-17200198D01*
X73902660Y-17751185D01*
X73920457Y-17794257D01*
X73776172Y-17697849D01*
X73494900Y-17641900D01*
X65954319Y-17641900D01*
X65897227Y-17584708D01*
X65553699Y-17442062D01*
X65181733Y-17441738D01*
X64837957Y-17583783D01*
X64574708Y-17846573D01*
X64432062Y-18190101D01*
X64431757Y-18539776D01*
X64137555Y-18598297D01*
X64135814Y-18599460D01*
X62971900Y-18599460D01*
X62736583Y-18643738D01*
X62520459Y-18782810D01*
X62375469Y-18995010D01*
X62324460Y-19246900D01*
X62324460Y-19527900D01*
X62141156Y-19527900D01*
X62018183Y-19404712D01*
X61472581Y-19178158D01*
X60881811Y-19177643D01*
X60335814Y-19403244D01*
X59917712Y-19820617D01*
X59906152Y-19848457D01*
X59895556Y-19822814D01*
X59478183Y-19404712D01*
X58932581Y-19178158D01*
X58341811Y-19177643D01*
X57795814Y-19403244D01*
X57377712Y-19820617D01*
X57151158Y-20366219D01*
X57150961Y-20591911D01*
X56972200Y-20591755D01*
X56972200Y-20224750D01*
X56813450Y-20066000D01*
X55194200Y-20066000D01*
X55194200Y-21685250D01*
X55352950Y-21844000D01*
X56102900Y-21844000D01*
X56102900Y-26142611D01*
X55764900Y-26036900D01*
X55114900Y-26036900D01*
X55114900Y-27094900D01*
X55134900Y-27094900D01*
X55134900Y-27348900D01*
X55114900Y-27348900D01*
X55114900Y-27368900D01*
X54860900Y-27368900D01*
X54860900Y-27348900D01*
X53319539Y-27348900D01*
X53194097Y-27531644D01*
X53194502Y-27558046D01*
X53410176Y-27970018D01*
X53709472Y-28219978D01*
X53464028Y-28383978D01*
X53395258Y-28486900D01*
X53042900Y-28486900D01*
X52765006Y-28542177D01*
X52761628Y-28542849D01*
X52523177Y-28702176D01*
X52178079Y-29047275D01*
X51924699Y-28942062D01*
X51552733Y-28941738D01*
X51208957Y-29083783D01*
X50945708Y-29346573D01*
X50813232Y-29665608D01*
X50762731Y-29543385D01*
X50373464Y-29153439D01*
X49864602Y-28942141D01*
X49313615Y-28941660D01*
X48804385Y-29152069D01*
X48714397Y-29241900D01*
X43758033Y-29241900D01*
X43390466Y-28874334D01*
X41824488Y-27308356D01*
X41997900Y-27342850D01*
X42451380Y-27252647D01*
X42835822Y-26995772D01*
X42997900Y-26753204D01*
X43159978Y-26995772D01*
X43262900Y-27064542D01*
X43262900Y-27236900D01*
X43315226Y-27499957D01*
X43318849Y-27518172D01*
X43478177Y-27756623D01*
X43552808Y-27831255D01*
X43552738Y-27912067D01*
X43694783Y-28255843D01*
X43957573Y-28519092D01*
X44301101Y-28661738D01*
X44673067Y-28662062D01*
X45016843Y-28520017D01*
X45280092Y-28257227D01*
X45422738Y-27913699D01*
X45423062Y-27541733D01*
X45281017Y-27197957D01*
X45018227Y-26934708D01*
X44907379Y-26888680D01*
X44997900Y-26753204D01*
X45159978Y-26995772D01*
X45544420Y-27252647D01*
X45997900Y-27342850D01*
X46451380Y-27252647D01*
X46835822Y-26995772D01*
X46997900Y-26753204D01*
X47159978Y-26995772D01*
X47544420Y-27252647D01*
X47997900Y-27342850D01*
X48451380Y-27252647D01*
X48835822Y-26995772D01*
X48997900Y-26753204D01*
X49159978Y-26995772D01*
X49262900Y-27064542D01*
X49262900Y-27086900D01*
X49312253Y-27335010D01*
X49318849Y-27368172D01*
X49478177Y-27606623D01*
X49502808Y-27631254D01*
X49502738Y-27712067D01*
X49644783Y-28055843D01*
X49907573Y-28319092D01*
X50251101Y-28461738D01*
X50623067Y-28462062D01*
X50966843Y-28320017D01*
X51230092Y-28057227D01*
X51372738Y-27713699D01*
X51373062Y-27341733D01*
X51256862Y-27060508D01*
X51544420Y-27252647D01*
X51997900Y-27342850D01*
X52451380Y-27252647D01*
X52835822Y-26995772D01*
X52891692Y-26912156D01*
X53194097Y-26912156D01*
X53319539Y-27094900D01*
X54860900Y-27094900D01*
X54860900Y-26036900D01*
X54210900Y-26036900D01*
X53767087Y-26175704D01*
X53410176Y-26473782D01*
X53194502Y-26885754D01*
X53194097Y-26912156D01*
X52891692Y-26912156D01*
X53092697Y-26611330D01*
X53182900Y-26157850D01*
X53182900Y-25871346D01*
X54342254Y-24711992D01*
X54423067Y-24712062D01*
X54766843Y-24570017D01*
X55030092Y-24307227D01*
X55172738Y-23963699D01*
X55173062Y-23591733D01*
X55031017Y-23247957D01*
X54768227Y-22984708D01*
X54424699Y-22842062D01*
X54052733Y-22841738D01*
X53708957Y-22983783D01*
X53445708Y-23246573D01*
X53303062Y-23590101D01*
X53302990Y-23672364D01*
X52912528Y-24062826D01*
X52835822Y-23948028D01*
X52451380Y-23691153D01*
X51997900Y-23600950D01*
X51544420Y-23691153D01*
X51159978Y-23948028D01*
X50997900Y-24190596D01*
X50835822Y-23948028D01*
X50451380Y-23691153D01*
X49997900Y-23600950D01*
X49544420Y-23691153D01*
X49159978Y-23948028D01*
X48997900Y-24190596D01*
X48835822Y-23948028D01*
X48732900Y-23879258D01*
X48732900Y-23480052D01*
X48822738Y-23263699D01*
X48823062Y-22891733D01*
X48681017Y-22547957D01*
X48418227Y-22284708D01*
X48074699Y-22142062D01*
X47702733Y-22141738D01*
X47358957Y-22283783D01*
X47095708Y-22546573D01*
X46956661Y-22881434D01*
X46708957Y-22983783D01*
X46445708Y-23246573D01*
X46303062Y-23590101D01*
X46303000Y-23661638D01*
X45997900Y-23600950D01*
X45544420Y-23691153D01*
X45159978Y-23948028D01*
X44997900Y-24190596D01*
X44835822Y-23948028D01*
X44451380Y-23691153D01*
X43997900Y-23600950D01*
X43544420Y-23691153D01*
X43159978Y-23948028D01*
X42997900Y-24190596D01*
X42835822Y-23948028D01*
X42451380Y-23691153D01*
X41997900Y-23600950D01*
X41544420Y-23691153D01*
X41159978Y-23948028D01*
X41016254Y-24163127D01*
X40724699Y-24042062D01*
X40352733Y-24041738D01*
X40008957Y-24183783D01*
X39745708Y-24446573D01*
X39603062Y-24790101D01*
X39602738Y-25162067D01*
X39744783Y-25505843D01*
X40007573Y-25769092D01*
X40351101Y-25911738D01*
X40433363Y-25911810D01*
X40513177Y-25991624D01*
X40734439Y-26139466D01*
X40751628Y-26150951D01*
X40813995Y-26163357D01*
X40854098Y-26364966D01*
X40567246Y-26173297D01*
X40132900Y-26086900D01*
X39925216Y-26086900D01*
X39673850Y-26036900D01*
X38301950Y-26036900D01*
X38050584Y-26086900D01*
X36903032Y-26086900D01*
X36169109Y-25352977D01*
X36272659Y-25103602D01*
X36273140Y-24552615D01*
X36062731Y-24043385D01*
X35673464Y-23653439D01*
X35164602Y-23442141D01*
X34613615Y-23441660D01*
X34361828Y-23545696D01*
X34085340Y-23269208D01*
X34085340Y-22226900D01*
X34048836Y-22032900D01*
X35950702Y-22032900D01*
X36134573Y-22217092D01*
X36478101Y-22359738D01*
X36850067Y-22360062D01*
X37193843Y-22218017D01*
X37457092Y-21955227D01*
X37599738Y-21611699D01*
X37600062Y-21239733D01*
X37567902Y-21161900D01*
X37764210Y-21161900D01*
X37992900Y-21067173D01*
X37992900Y-21473209D01*
X38089573Y-21706598D01*
X38268201Y-21885227D01*
X38501590Y-21981900D01*
X38792150Y-21981900D01*
X38950900Y-21823150D01*
X38950900Y-20873900D01*
X38930900Y-20873900D01*
X38930900Y-20619900D01*
X38950900Y-20619900D01*
X38950900Y-20599900D01*
X39204900Y-20599900D01*
X39204900Y-20619900D01*
X39224900Y-20619900D01*
X39224900Y-20873900D01*
X39204900Y-20873900D01*
X39204900Y-21823150D01*
X39363650Y-21981900D01*
X39654210Y-21981900D01*
X39887599Y-21885227D01*
X40066227Y-21706598D01*
X40162900Y-21473209D01*
X40162900Y-21032650D01*
X40004152Y-20873902D01*
X40162900Y-20873902D01*
X40162900Y-20872781D01*
X40189783Y-20937843D01*
X40452573Y-21201092D01*
X40796101Y-21343738D01*
X41168067Y-21344062D01*
X41511843Y-21202017D01*
X41775092Y-20939227D01*
X41917738Y-20595699D01*
X41917810Y-20513437D01*
X42264624Y-20166623D01*
X42423951Y-19928172D01*
X42479900Y-19646900D01*
X42479900Y-19218319D01*
X42537092Y-19161227D01*
X42679738Y-18817699D01*
X42680062Y-18445733D01*
X42538017Y-18101957D01*
X42275227Y-17838708D01*
X41931699Y-17696062D01*
X41559733Y-17695738D01*
X41215957Y-17837783D01*
X40952708Y-18100573D01*
X40810062Y-18444101D01*
X40809738Y-18816067D01*
X40951783Y-19159843D01*
X41009900Y-19218062D01*
X41009900Y-19342453D01*
X40878545Y-19473808D01*
X40797733Y-19473738D01*
X40453957Y-19615783D01*
X40190708Y-19878573D01*
X40147338Y-19983020D01*
X40066227Y-19787202D01*
X39924990Y-19645964D01*
X39979341Y-19610990D01*
X40124331Y-19398790D01*
X40175340Y-19146900D01*
X40175340Y-17946900D01*
X40131062Y-17711583D01*
X39991990Y-17495459D01*
X39812900Y-17373092D01*
X39812900Y-17139340D01*
X40067900Y-17139340D01*
X40303217Y-17095062D01*
X40519341Y-16955990D01*
X40624558Y-16801999D01*
X40959336Y-17137361D01*
X41468198Y-17348659D01*
X42019185Y-17349140D01*
X42528415Y-17138731D01*
X42715883Y-16951590D01*
X42916010Y-17088331D01*
X43002961Y-17105939D01*
X43002738Y-17362067D01*
X43129440Y-17668709D01*
X43111469Y-17695010D01*
X43060460Y-17946900D01*
X43060460Y-19146900D01*
X43104738Y-19382217D01*
X43243810Y-19598341D01*
X43313611Y-19646034D01*
X43256459Y-19682810D01*
X43111469Y-19895010D01*
X43060460Y-20146900D01*
X43060460Y-21346900D01*
X43104738Y-21582217D01*
X43243810Y-21798341D01*
X43456010Y-21943331D01*
X43707900Y-21994340D01*
X44461651Y-21994340D01*
X44575133Y-22268986D01*
X44894135Y-22588545D01*
X45311144Y-22761703D01*
X45762675Y-22762097D01*
X46179986Y-22589667D01*
X46499545Y-22270665D01*
X46639577Y-21933432D01*
X46756590Y-21981900D01*
X47047150Y-21981900D01*
X47205900Y-21823150D01*
X47205900Y-20873900D01*
X47459900Y-20873900D01*
X47459900Y-21823150D01*
X47618650Y-21981900D01*
X47909210Y-21981900D01*
X48142599Y-21885227D01*
X48321227Y-21706598D01*
X48417900Y-21473209D01*
X48417900Y-21032650D01*
X48259150Y-20873900D01*
X47459900Y-20873900D01*
X47205900Y-20873900D01*
X47185900Y-20873900D01*
X47185900Y-20619900D01*
X47205900Y-20619900D01*
X47205900Y-20599900D01*
X47459900Y-20599900D01*
X47459900Y-20619900D01*
X48259150Y-20619900D01*
X48417900Y-20461150D01*
X48417900Y-20020591D01*
X48321227Y-19787202D01*
X48179990Y-19645964D01*
X48234341Y-19610990D01*
X48379331Y-19398790D01*
X48430340Y-19146900D01*
X48430340Y-17946900D01*
X48386062Y-17711583D01*
X48246990Y-17495459D01*
X48067900Y-17373092D01*
X48067900Y-17139340D01*
X48322900Y-17139340D01*
X48558217Y-17095062D01*
X48774341Y-16955990D01*
X48919331Y-16743790D01*
X48970340Y-16491900D01*
X48970340Y-14391900D01*
X48926062Y-14156583D01*
X48786990Y-13940459D01*
X48574790Y-13795469D01*
X48357900Y-13751548D01*
X48357900Y-13669845D01*
X48422738Y-13513699D01*
X48422949Y-13271900D01*
X51453034Y-13271900D01*
X51452925Y-13397044D01*
X51443849Y-13410628D01*
X51387900Y-13691900D01*
X51387900Y-13751046D01*
X51187583Y-13788738D01*
X50971459Y-13927810D01*
X50826469Y-14140010D01*
X50775460Y-14391900D01*
X50775460Y-16491900D01*
X50819738Y-16727217D01*
X50958810Y-16943341D01*
X51171010Y-17088331D01*
X51302997Y-17115059D01*
X51302738Y-17412067D01*
X51399608Y-17646510D01*
X51366469Y-17695010D01*
X51315460Y-17946900D01*
X51315460Y-19146900D01*
X51359738Y-19382217D01*
X51498810Y-19598341D01*
X51568611Y-19646034D01*
X51511459Y-19682810D01*
X51389092Y-19861900D01*
X50982760Y-19861900D01*
X50814656Y-19792097D01*
X50363125Y-19791703D01*
X49945814Y-19964133D01*
X49626255Y-20283135D01*
X49453097Y-20700144D01*
X49452703Y-21151675D01*
X49625133Y-21568986D01*
X49944135Y-21888545D01*
X50361144Y-22061703D01*
X50812675Y-22062097D01*
X51229986Y-21889667D01*
X51429449Y-21690551D01*
X51498810Y-21798341D01*
X51711010Y-21943331D01*
X51962900Y-21994340D01*
X52862900Y-21994340D01*
X53098217Y-21950062D01*
X53314341Y-21810990D01*
X53390176Y-21700002D01*
X53437501Y-21747327D01*
X53670890Y-21844000D01*
X54781450Y-21844000D01*
X54940200Y-21685250D01*
X54940200Y-20066000D01*
X54920200Y-20066000D01*
X54920200Y-19812000D01*
X54940200Y-19812000D01*
X54940200Y-19792000D01*
X55194200Y-19792000D01*
X55194200Y-19812000D01*
X56813450Y-19812000D01*
X56972200Y-19653250D01*
X56972200Y-18841262D01*
X57202246Y-18795503D01*
X57570466Y-18549466D01*
X58057840Y-18062093D01*
X58112185Y-18062140D01*
X58621415Y-17851731D01*
X59011361Y-17462464D01*
X59018197Y-17446000D01*
X59146010Y-17533331D01*
X59397900Y-17584340D01*
X60897900Y-17584340D01*
X61133217Y-17540062D01*
X61349341Y-17400990D01*
X61494331Y-17188790D01*
X61545340Y-16936900D01*
X61545340Y-14136900D01*
X61501062Y-13901583D01*
X61361990Y-13685459D01*
X61149790Y-13540469D01*
X60897900Y-13489460D01*
X59397900Y-13489460D01*
X59162583Y-13533738D01*
X58946459Y-13672810D01*
X58801469Y-13885010D01*
X58750460Y-14136900D01*
X58750460Y-15630657D01*
X58623464Y-15503439D01*
X58114602Y-15292141D01*
X57563615Y-15291660D01*
X57054385Y-15502069D01*
X56664439Y-15891336D01*
X56453141Y-16400198D01*
X56453092Y-16456576D01*
X56337925Y-16571742D01*
X56305362Y-16398683D01*
X56166290Y-16182559D01*
X55954090Y-16037569D01*
X55702200Y-15986560D01*
X54432200Y-15986560D01*
X54196883Y-16030838D01*
X53980759Y-16169910D01*
X53835769Y-16382110D01*
X53784760Y-16634000D01*
X53784760Y-17904000D01*
X53809221Y-18034000D01*
X53670890Y-18034000D01*
X53510340Y-18100502D01*
X53510340Y-17946900D01*
X53466062Y-17711583D01*
X53326990Y-17495459D01*
X53172759Y-17390077D01*
X53173062Y-17041733D01*
X53166347Y-17025482D01*
X53274341Y-16955990D01*
X53419331Y-16743790D01*
X53470340Y-16491900D01*
X53470340Y-14391900D01*
X53426062Y-14156583D01*
X53286990Y-13940459D01*
X53209142Y-13887268D01*
X53322738Y-13613699D01*
X53323036Y-13271900D01*
X53650460Y-13271900D01*
X53650460Y-13286900D01*
X53694738Y-13522217D01*
X53833810Y-13738341D01*
X54046010Y-13883331D01*
X54297900Y-13934340D01*
X57097900Y-13934340D01*
X57333217Y-13890062D01*
X57549341Y-13750990D01*
X57694331Y-13538790D01*
X57745340Y-13286900D01*
X57745340Y-12580789D01*
X58059067Y-12581062D01*
X58402843Y-12439017D01*
X58618485Y-12223750D01*
X61518800Y-12223750D01*
X61518800Y-13334309D01*
X61615473Y-13567698D01*
X61794101Y-13746327D01*
X62027490Y-13843000D01*
X63138050Y-13843000D01*
X63296800Y-13684250D01*
X63296800Y-12065000D01*
X61677550Y-12065000D01*
X61518800Y-12223750D01*
X58618485Y-12223750D01*
X58666092Y-12176227D01*
X58808738Y-11832699D01*
X58808920Y-11623326D01*
X59629255Y-10802992D01*
X59710067Y-10803062D01*
X60053843Y-10661017D01*
X60317092Y-10398227D01*
X60459738Y-10054699D01*
X60460062Y-9682733D01*
X60318017Y-9338957D01*
X60126820Y-9147427D01*
X60207623Y-9066624D01*
X60366951Y-8828172D01*
X60370929Y-8808172D01*
X60422900Y-8546900D01*
X60422900Y-7643252D01*
X60518573Y-7739092D01*
X60518573Y-7739092D01*
G37*
X60518573Y-7739092D02*
X60862101Y-7881738D01*
X60944363Y-7881810D01*
X60959177Y-7896624D01*
X61187725Y-8049334D01*
X61197628Y-8055951D01*
X61478900Y-8111900D01*
X62425955Y-8111900D01*
X62337359Y-8168910D01*
X62192369Y-8381110D01*
X62141360Y-8633000D01*
X62141360Y-9903000D01*
X62165821Y-10033000D01*
X62027490Y-10033000D01*
X61794101Y-10129673D01*
X61615473Y-10308302D01*
X61518800Y-10541691D01*
X61518800Y-11652250D01*
X61677550Y-11811000D01*
X63296800Y-11811000D01*
X63296800Y-11791000D01*
X63550800Y-11791000D01*
X63550800Y-11811000D01*
X65170050Y-11811000D01*
X65328800Y-11652250D01*
X65328800Y-11438624D01*
X65571500Y-11486900D01*
X66166469Y-11486900D01*
X66227900Y-11499340D01*
X67727900Y-11499340D01*
X67963217Y-11455062D01*
X68179341Y-11315990D01*
X68324331Y-11103790D01*
X68375340Y-10851900D01*
X68375340Y-10547873D01*
X68376010Y-10548331D01*
X68493363Y-10572096D01*
X68546555Y-10584406D01*
X68353141Y-11050198D01*
X68352660Y-11601185D01*
X68563069Y-12110415D01*
X68771947Y-12319657D01*
X68755811Y-12319643D01*
X68209814Y-12545244D01*
X67791712Y-12962617D01*
X67780152Y-12990457D01*
X67769556Y-12964814D01*
X67352183Y-12546712D01*
X66806581Y-12320158D01*
X66215811Y-12319643D01*
X65669814Y-12545244D01*
X65328800Y-12885663D01*
X65328800Y-12223750D01*
X65170050Y-12065000D01*
X63550800Y-12065000D01*
X63550800Y-13684250D01*
X63709550Y-13843000D01*
X64820110Y-13843000D01*
X65024940Y-13758156D01*
X65024643Y-14098989D01*
X65250244Y-14644986D01*
X65667617Y-15063088D01*
X66213219Y-15289642D01*
X66803989Y-15290157D01*
X67349986Y-15064556D01*
X67768088Y-14647183D01*
X67779648Y-14619343D01*
X67790244Y-14644986D01*
X68207617Y-15063088D01*
X68753219Y-15289642D01*
X69343989Y-15290157D01*
X69889986Y-15064556D01*
X70014860Y-14939900D01*
X72737768Y-14939900D01*
X73033265Y-15235397D01*
X72992460Y-15436900D01*
X72992460Y-16236900D01*
X73036738Y-16472217D01*
X73175810Y-16688341D01*
X73388010Y-16833331D01*
X73639900Y-16884340D01*
X74034297Y-16884340D01*
X73903141Y-17200198D01*
X73902660Y-17751185D01*
X73920457Y-17794257D01*
X73776172Y-17697849D01*
X73494900Y-17641900D01*
X65954319Y-17641900D01*
X65897227Y-17584708D01*
X65553699Y-17442062D01*
X65181733Y-17441738D01*
X64837957Y-17583783D01*
X64574708Y-17846573D01*
X64432062Y-18190101D01*
X64431757Y-18539776D01*
X64137555Y-18598297D01*
X64135814Y-18599460D01*
X62971900Y-18599460D01*
X62736583Y-18643738D01*
X62520459Y-18782810D01*
X62375469Y-18995010D01*
X62324460Y-19246900D01*
X62324460Y-19527900D01*
X62141156Y-19527900D01*
X62018183Y-19404712D01*
X61472581Y-19178158D01*
X60881811Y-19177643D01*
X60335814Y-19403244D01*
X59917712Y-19820617D01*
X59906152Y-19848457D01*
X59895556Y-19822814D01*
X59478183Y-19404712D01*
X58932581Y-19178158D01*
X58341811Y-19177643D01*
X57795814Y-19403244D01*
X57377712Y-19820617D01*
X57151158Y-20366219D01*
X57150961Y-20591911D01*
X56972200Y-20591755D01*
X56972200Y-20224750D01*
X56813450Y-20066000D01*
X55194200Y-20066000D01*
X55194200Y-21685250D01*
X55352950Y-21844000D01*
X56102900Y-21844000D01*
X56102900Y-26142611D01*
X55764900Y-26036900D01*
X55114900Y-26036900D01*
X55114900Y-27094900D01*
X55134900Y-27094900D01*
X55134900Y-27348900D01*
X55114900Y-27348900D01*
X55114900Y-27368900D01*
X54860900Y-27368900D01*
X54860900Y-27348900D01*
X53319539Y-27348900D01*
X53194097Y-27531644D01*
X53194502Y-27558046D01*
X53410176Y-27970018D01*
X53709472Y-28219978D01*
X53464028Y-28383978D01*
X53395258Y-28486900D01*
X53042900Y-28486900D01*
X52765006Y-28542177D01*
X52761628Y-28542849D01*
X52523177Y-28702176D01*
X52178079Y-29047275D01*
X51924699Y-28942062D01*
X51552733Y-28941738D01*
X51208957Y-29083783D01*
X50945708Y-29346573D01*
X50813232Y-29665608D01*
X50762731Y-29543385D01*
X50373464Y-29153439D01*
X49864602Y-28942141D01*
X49313615Y-28941660D01*
X48804385Y-29152069D01*
X48714397Y-29241900D01*
X43758033Y-29241900D01*
X43390466Y-28874334D01*
X41824488Y-27308356D01*
X41997900Y-27342850D01*
X42451380Y-27252647D01*
X42835822Y-26995772D01*
X42997900Y-26753204D01*
X43159978Y-26995772D01*
X43262900Y-27064542D01*
X43262900Y-27236900D01*
X43315226Y-27499957D01*
X43318849Y-27518172D01*
X43478177Y-27756623D01*
X43552808Y-27831255D01*
X43552738Y-27912067D01*
X43694783Y-28255843D01*
X43957573Y-28519092D01*
X44301101Y-28661738D01*
X44673067Y-28662062D01*
X45016843Y-28520017D01*
X45280092Y-28257227D01*
X45422738Y-27913699D01*
X45423062Y-27541733D01*
X45281017Y-27197957D01*
X45018227Y-26934708D01*
X44907379Y-26888680D01*
X44997900Y-26753204D01*
X45159978Y-26995772D01*
X45544420Y-27252647D01*
X45997900Y-27342850D01*
X46451380Y-27252647D01*
X46835822Y-26995772D01*
X46997900Y-26753204D01*
X47159978Y-26995772D01*
X47544420Y-27252647D01*
X47997900Y-27342850D01*
X48451380Y-27252647D01*
X48835822Y-26995772D01*
X48997900Y-26753204D01*
X49159978Y-26995772D01*
X49262900Y-27064542D01*
X49262900Y-27086900D01*
X49312253Y-27335010D01*
X49318849Y-27368172D01*
X49478177Y-27606623D01*
X49502808Y-27631254D01*
X49502738Y-27712067D01*
X49644783Y-28055843D01*
X49907573Y-28319092D01*
X50251101Y-28461738D01*
X50623067Y-28462062D01*
X50966843Y-28320017D01*
X51230092Y-28057227D01*
X51372738Y-27713699D01*
X51373062Y-27341733D01*
X51256862Y-27060508D01*
X51544420Y-27252647D01*
X51997900Y-27342850D01*
X52451380Y-27252647D01*
X52835822Y-26995772D01*
X52891692Y-26912156D01*
X53194097Y-26912156D01*
X53319539Y-27094900D01*
X54860900Y-27094900D01*
X54860900Y-26036900D01*
X54210900Y-26036900D01*
X53767087Y-26175704D01*
X53410176Y-26473782D01*
X53194502Y-26885754D01*
X53194097Y-26912156D01*
X52891692Y-26912156D01*
X53092697Y-26611330D01*
X53182900Y-26157850D01*
X53182900Y-25871346D01*
X54342254Y-24711992D01*
X54423067Y-24712062D01*
X54766843Y-24570017D01*
X55030092Y-24307227D01*
X55172738Y-23963699D01*
X55173062Y-23591733D01*
X55031017Y-23247957D01*
X54768227Y-22984708D01*
X54424699Y-22842062D01*
X54052733Y-22841738D01*
X53708957Y-22983783D01*
X53445708Y-23246573D01*
X53303062Y-23590101D01*
X53302990Y-23672364D01*
X52912528Y-24062826D01*
X52835822Y-23948028D01*
X52451380Y-23691153D01*
X51997900Y-23600950D01*
X51544420Y-23691153D01*
X51159978Y-23948028D01*
X50997900Y-24190596D01*
X50835822Y-23948028D01*
X50451380Y-23691153D01*
X49997900Y-23600950D01*
X49544420Y-23691153D01*
X49159978Y-23948028D01*
X48997900Y-24190596D01*
X48835822Y-23948028D01*
X48732900Y-23879258D01*
X48732900Y-23480052D01*
X48822738Y-23263699D01*
X48823062Y-22891733D01*
X48681017Y-22547957D01*
X48418227Y-22284708D01*
X48074699Y-22142062D01*
X47702733Y-22141738D01*
X47358957Y-22283783D01*
X47095708Y-22546573D01*
X46956661Y-22881434D01*
X46708957Y-22983783D01*
X46445708Y-23246573D01*
X46303062Y-23590101D01*
X46303000Y-23661638D01*
X45997900Y-23600950D01*
X45544420Y-23691153D01*
X45159978Y-23948028D01*
X44997900Y-24190596D01*
X44835822Y-23948028D01*
X44451380Y-23691153D01*
X43997900Y-23600950D01*
X43544420Y-23691153D01*
X43159978Y-23948028D01*
X42997900Y-24190596D01*
X42835822Y-23948028D01*
X42451380Y-23691153D01*
X41997900Y-23600950D01*
X41544420Y-23691153D01*
X41159978Y-23948028D01*
X41016254Y-24163127D01*
X40724699Y-24042062D01*
X40352733Y-24041738D01*
X40008957Y-24183783D01*
X39745708Y-24446573D01*
X39603062Y-24790101D01*
X39602738Y-25162067D01*
X39744783Y-25505843D01*
X40007573Y-25769092D01*
X40351101Y-25911738D01*
X40433363Y-25911810D01*
X40513177Y-25991624D01*
X40734439Y-26139466D01*
X40751628Y-26150951D01*
X40813995Y-26163357D01*
X40854098Y-26364966D01*
X40567246Y-26173297D01*
X40132900Y-26086900D01*
X39925216Y-26086900D01*
X39673850Y-26036900D01*
X38301950Y-26036900D01*
X38050584Y-26086900D01*
X36903032Y-26086900D01*
X36169109Y-25352977D01*
X36272659Y-25103602D01*
X36273140Y-24552615D01*
X36062731Y-24043385D01*
X35673464Y-23653439D01*
X35164602Y-23442141D01*
X34613615Y-23441660D01*
X34361828Y-23545696D01*
X34085340Y-23269208D01*
X34085340Y-22226900D01*
X34048836Y-22032900D01*
X35950702Y-22032900D01*
X36134573Y-22217092D01*
X36478101Y-22359738D01*
X36850067Y-22360062D01*
X37193843Y-22218017D01*
X37457092Y-21955227D01*
X37599738Y-21611699D01*
X37600062Y-21239733D01*
X37567902Y-21161900D01*
X37764210Y-21161900D01*
X37992900Y-21067173D01*
X37992900Y-21473209D01*
X38089573Y-21706598D01*
X38268201Y-21885227D01*
X38501590Y-21981900D01*
X38792150Y-21981900D01*
X38950900Y-21823150D01*
X38950900Y-20873900D01*
X38930900Y-20873900D01*
X38930900Y-20619900D01*
X38950900Y-20619900D01*
X38950900Y-20599900D01*
X39204900Y-20599900D01*
X39204900Y-20619900D01*
X39224900Y-20619900D01*
X39224900Y-20873900D01*
X39204900Y-20873900D01*
X39204900Y-21823150D01*
X39363650Y-21981900D01*
X39654210Y-21981900D01*
X39887599Y-21885227D01*
X40066227Y-21706598D01*
X40162900Y-21473209D01*
X40162900Y-21032650D01*
X40004152Y-20873902D01*
X40162900Y-20873902D01*
X40162900Y-20872781D01*
X40189783Y-20937843D01*
X40452573Y-21201092D01*
X40796101Y-21343738D01*
X41168067Y-21344062D01*
X41511843Y-21202017D01*
X41775092Y-20939227D01*
X41917738Y-20595699D01*
X41917810Y-20513437D01*
X42264624Y-20166623D01*
X42423951Y-19928172D01*
X42479900Y-19646900D01*
X42479900Y-19218319D01*
X42537092Y-19161227D01*
X42679738Y-18817699D01*
X42680062Y-18445733D01*
X42538017Y-18101957D01*
X42275227Y-17838708D01*
X41931699Y-17696062D01*
X41559733Y-17695738D01*
X41215957Y-17837783D01*
X40952708Y-18100573D01*
X40810062Y-18444101D01*
X40809738Y-18816067D01*
X40951783Y-19159843D01*
X41009900Y-19218062D01*
X41009900Y-19342453D01*
X40878545Y-19473808D01*
X40797733Y-19473738D01*
X40453957Y-19615783D01*
X40190708Y-19878573D01*
X40147338Y-19983020D01*
X40066227Y-19787202D01*
X39924990Y-19645964D01*
X39979341Y-19610990D01*
X40124331Y-19398790D01*
X40175340Y-19146900D01*
X40175340Y-17946900D01*
X40131062Y-17711583D01*
X39991990Y-17495459D01*
X39812900Y-17373092D01*
X39812900Y-17139340D01*
X40067900Y-17139340D01*
X40303217Y-17095062D01*
X40519341Y-16955990D01*
X40624558Y-16801999D01*
X40959336Y-17137361D01*
X41468198Y-17348659D01*
X42019185Y-17349140D01*
X42528415Y-17138731D01*
X42715883Y-16951590D01*
X42916010Y-17088331D01*
X43002961Y-17105939D01*
X43002738Y-17362067D01*
X43129440Y-17668709D01*
X43111469Y-17695010D01*
X43060460Y-17946900D01*
X43060460Y-19146900D01*
X43104738Y-19382217D01*
X43243810Y-19598341D01*
X43313611Y-19646034D01*
X43256459Y-19682810D01*
X43111469Y-19895010D01*
X43060460Y-20146900D01*
X43060460Y-21346900D01*
X43104738Y-21582217D01*
X43243810Y-21798341D01*
X43456010Y-21943331D01*
X43707900Y-21994340D01*
X44461651Y-21994340D01*
X44575133Y-22268986D01*
X44894135Y-22588545D01*
X45311144Y-22761703D01*
X45762675Y-22762097D01*
X46179986Y-22589667D01*
X46499545Y-22270665D01*
X46639577Y-21933432D01*
X46756590Y-21981900D01*
X47047150Y-21981900D01*
X47205900Y-21823150D01*
X47205900Y-20873900D01*
X47459900Y-20873900D01*
X47459900Y-21823150D01*
X47618650Y-21981900D01*
X47909210Y-21981900D01*
X48142599Y-21885227D01*
X48321227Y-21706598D01*
X48417900Y-21473209D01*
X48417900Y-21032650D01*
X48259150Y-20873900D01*
X47459900Y-20873900D01*
X47205900Y-20873900D01*
X47185900Y-20873900D01*
X47185900Y-20619900D01*
X47205900Y-20619900D01*
X47205900Y-20599900D01*
X47459900Y-20599900D01*
X47459900Y-20619900D01*
X48259150Y-20619900D01*
X48417900Y-20461150D01*
X48417900Y-20020591D01*
X48321227Y-19787202D01*
X48179990Y-19645964D01*
X48234341Y-19610990D01*
X48379331Y-19398790D01*
X48430340Y-19146900D01*
X48430340Y-17946900D01*
X48386062Y-17711583D01*
X48246990Y-17495459D01*
X48067900Y-17373092D01*
X48067900Y-17139340D01*
X48322900Y-17139340D01*
X48558217Y-17095062D01*
X48774341Y-16955990D01*
X48919331Y-16743790D01*
X48970340Y-16491900D01*
X48970340Y-14391900D01*
X48926062Y-14156583D01*
X48786990Y-13940459D01*
X48574790Y-13795469D01*
X48357900Y-13751548D01*
X48357900Y-13669845D01*
X48422738Y-13513699D01*
X48422949Y-13271900D01*
X51453034Y-13271900D01*
X51452925Y-13397044D01*
X51443849Y-13410628D01*
X51387900Y-13691900D01*
X51387900Y-13751046D01*
X51187583Y-13788738D01*
X50971459Y-13927810D01*
X50826469Y-14140010D01*
X50775460Y-14391900D01*
X50775460Y-16491900D01*
X50819738Y-16727217D01*
X50958810Y-16943341D01*
X51171010Y-17088331D01*
X51302997Y-17115059D01*
X51302738Y-17412067D01*
X51399608Y-17646510D01*
X51366469Y-17695010D01*
X51315460Y-17946900D01*
X51315460Y-19146900D01*
X51359738Y-19382217D01*
X51498810Y-19598341D01*
X51568611Y-19646034D01*
X51511459Y-19682810D01*
X51389092Y-19861900D01*
X50982760Y-19861900D01*
X50814656Y-19792097D01*
X50363125Y-19791703D01*
X49945814Y-19964133D01*
X49626255Y-20283135D01*
X49453097Y-20700144D01*
X49452703Y-21151675D01*
X49625133Y-21568986D01*
X49944135Y-21888545D01*
X50361144Y-22061703D01*
X50812675Y-22062097D01*
X51229986Y-21889667D01*
X51429449Y-21690551D01*
X51498810Y-21798341D01*
X51711010Y-21943331D01*
X51962900Y-21994340D01*
X52862900Y-21994340D01*
X53098217Y-21950062D01*
X53314341Y-21810990D01*
X53390176Y-21700002D01*
X53437501Y-21747327D01*
X53670890Y-21844000D01*
X54781450Y-21844000D01*
X54940200Y-21685250D01*
X54940200Y-20066000D01*
X54920200Y-20066000D01*
X54920200Y-19812000D01*
X54940200Y-19812000D01*
X54940200Y-19792000D01*
X55194200Y-19792000D01*
X55194200Y-19812000D01*
X56813450Y-19812000D01*
X56972200Y-19653250D01*
X56972200Y-18841262D01*
X57202246Y-18795503D01*
X57570466Y-18549466D01*
X58057840Y-18062093D01*
X58112185Y-18062140D01*
X58621415Y-17851731D01*
X59011361Y-17462464D01*
X59018197Y-17446000D01*
X59146010Y-17533331D01*
X59397900Y-17584340D01*
X60897900Y-17584340D01*
X61133217Y-17540062D01*
X61349341Y-17400990D01*
X61494331Y-17188790D01*
X61545340Y-16936900D01*
X61545340Y-14136900D01*
X61501062Y-13901583D01*
X61361990Y-13685459D01*
X61149790Y-13540469D01*
X60897900Y-13489460D01*
X59397900Y-13489460D01*
X59162583Y-13533738D01*
X58946459Y-13672810D01*
X58801469Y-13885010D01*
X58750460Y-14136900D01*
X58750460Y-15630657D01*
X58623464Y-15503439D01*
X58114602Y-15292141D01*
X57563615Y-15291660D01*
X57054385Y-15502069D01*
X56664439Y-15891336D01*
X56453141Y-16400198D01*
X56453092Y-16456576D01*
X56337925Y-16571742D01*
X56305362Y-16398683D01*
X56166290Y-16182559D01*
X55954090Y-16037569D01*
X55702200Y-15986560D01*
X54432200Y-15986560D01*
X54196883Y-16030838D01*
X53980759Y-16169910D01*
X53835769Y-16382110D01*
X53784760Y-16634000D01*
X53784760Y-17904000D01*
X53809221Y-18034000D01*
X53670890Y-18034000D01*
X53510340Y-18100502D01*
X53510340Y-17946900D01*
X53466062Y-17711583D01*
X53326990Y-17495459D01*
X53172759Y-17390077D01*
X53173062Y-17041733D01*
X53166347Y-17025482D01*
X53274341Y-16955990D01*
X53419331Y-16743790D01*
X53470340Y-16491900D01*
X53470340Y-14391900D01*
X53426062Y-14156583D01*
X53286990Y-13940459D01*
X53209142Y-13887268D01*
X53322738Y-13613699D01*
X53323036Y-13271900D01*
X53650460Y-13271900D01*
X53650460Y-13286900D01*
X53694738Y-13522217D01*
X53833810Y-13738341D01*
X54046010Y-13883331D01*
X54297900Y-13934340D01*
X57097900Y-13934340D01*
X57333217Y-13890062D01*
X57549341Y-13750990D01*
X57694331Y-13538790D01*
X57745340Y-13286900D01*
X57745340Y-12580789D01*
X58059067Y-12581062D01*
X58402843Y-12439017D01*
X58618485Y-12223750D01*
X61518800Y-12223750D01*
X61518800Y-13334309D01*
X61615473Y-13567698D01*
X61794101Y-13746327D01*
X62027490Y-13843000D01*
X63138050Y-13843000D01*
X63296800Y-13684250D01*
X63296800Y-12065000D01*
X61677550Y-12065000D01*
X61518800Y-12223750D01*
X58618485Y-12223750D01*
X58666092Y-12176227D01*
X58808738Y-11832699D01*
X58808920Y-11623326D01*
X59629255Y-10802992D01*
X59710067Y-10803062D01*
X60053843Y-10661017D01*
X60317092Y-10398227D01*
X60459738Y-10054699D01*
X60460062Y-9682733D01*
X60318017Y-9338957D01*
X60126820Y-9147427D01*
X60207623Y-9066624D01*
X60366951Y-8828172D01*
X60370929Y-8808172D01*
X60422900Y-8546900D01*
X60422900Y-7643252D01*
X60518573Y-7739092D01*
G36*
X73736460Y-8864907D02*
X73736460Y-10629900D01*
X73780738Y-10865217D01*
X73919810Y-11081341D01*
X74132010Y-11226331D01*
X74383900Y-11277340D01*
X75399900Y-11277340D01*
X75635217Y-11233062D01*
X75851341Y-11093990D01*
X75996331Y-10881790D01*
X76034443Y-10693586D01*
X76066738Y-10865217D01*
X76205810Y-11081341D01*
X76418010Y-11226331D01*
X76669900Y-11277340D01*
X77685900Y-11277340D01*
X77921217Y-11233062D01*
X78137341Y-11093990D01*
X78282331Y-10881790D01*
X78320443Y-10693586D01*
X78352738Y-10865217D01*
X78491810Y-11081341D01*
X78704010Y-11226331D01*
X78955900Y-11277340D01*
X79971900Y-11277340D01*
X80207217Y-11233062D01*
X80423341Y-11093990D01*
X80568331Y-10881790D01*
X80619340Y-10629900D01*
X80619340Y-8597900D01*
X80598900Y-8489271D01*
X80598900Y-6655114D01*
X80663069Y-6810415D01*
X81052336Y-7200361D01*
X81561198Y-7411659D01*
X81617576Y-7411708D01*
X82750334Y-8544466D01*
X83118554Y-8790503D01*
X83552900Y-8876900D01*
X83750460Y-8876900D01*
X83750460Y-9341900D01*
X83794738Y-9577217D01*
X83933810Y-9793341D01*
X84146010Y-9938331D01*
X84397900Y-9989340D01*
X85197900Y-9989340D01*
X85340014Y-9962599D01*
X85463069Y-10260415D01*
X85852336Y-10650361D01*
X86361198Y-10861659D01*
X86912185Y-10862140D01*
X87421415Y-10651731D01*
X87461315Y-10611900D01*
X87817768Y-10611900D01*
X89985334Y-12779466D01*
X90353554Y-13025503D01*
X90787900Y-13111900D01*
X93037900Y-13111900D01*
X93257699Y-13068179D01*
X96001182Y-13068179D01*
X96027585Y-13658358D01*
X96202641Y-14080980D01*
X96453942Y-14161253D01*
X97318295Y-13296900D01*
X96453942Y-12432547D01*
X96202641Y-12512820D01*
X96001182Y-13068179D01*
X93257699Y-13068179D01*
X93472246Y-13025503D01*
X93840466Y-12779466D01*
X94766170Y-11853762D01*
X94957900Y-11891900D01*
X96532644Y-11891900D01*
X96655617Y-12015088D01*
X96703212Y-12034851D01*
X96633547Y-12252942D01*
X97497900Y-13117295D01*
X97512043Y-13103153D01*
X97691648Y-13282758D01*
X97677505Y-13296900D01*
X97691648Y-13311043D01*
X97512043Y-13490648D01*
X97497900Y-13476505D01*
X96633547Y-14340858D01*
X96703081Y-14558540D01*
X96657814Y-14577244D01*
X96532940Y-14701900D01*
X92615122Y-14701900D01*
X92615062Y-14701583D01*
X92475990Y-14485459D01*
X92263790Y-14340469D01*
X92011900Y-14289460D01*
X89511900Y-14289460D01*
X89276583Y-14333738D01*
X89060459Y-14472810D01*
X88915469Y-14685010D01*
X88864460Y-14936900D01*
X88864460Y-16736900D01*
X88908738Y-16972217D01*
X89047810Y-17188341D01*
X89260010Y-17333331D01*
X89511900Y-17384340D01*
X92011900Y-17384340D01*
X92247217Y-17340062D01*
X92463341Y-17200990D01*
X92608331Y-16988790D01*
X92611751Y-16971900D01*
X96532644Y-16971900D01*
X96655617Y-17095088D01*
X96683457Y-17106648D01*
X96657814Y-17117244D01*
X96239712Y-17534617D01*
X96013158Y-18080219D01*
X96012643Y-18670989D01*
X96238244Y-19216986D01*
X96655617Y-19635088D01*
X96683457Y-19646648D01*
X96657814Y-19657244D01*
X96239712Y-20074617D01*
X96013158Y-20620219D01*
X96012643Y-21210989D01*
X96238244Y-21756986D01*
X96655617Y-22175088D01*
X96662148Y-22177800D01*
X96688402Y-22217092D01*
X96695334Y-22227466D01*
X97082900Y-22615032D01*
X97082900Y-23124270D01*
X97032583Y-23133738D01*
X96816459Y-23272810D01*
X96671469Y-23485010D01*
X96668049Y-23501900D01*
X96392900Y-23501900D01*
X96028751Y-23574334D01*
X95958554Y-23588297D01*
X95881983Y-23639460D01*
X94892900Y-23639460D01*
X94657583Y-23683738D01*
X94441459Y-23822810D01*
X94296469Y-24035010D01*
X94245460Y-24286900D01*
X94245460Y-26386900D01*
X94289738Y-26622217D01*
X94301686Y-26640785D01*
X94271469Y-26685010D01*
X94220460Y-26936900D01*
X94220460Y-27336900D01*
X94244844Y-27466489D01*
X94231387Y-27532940D01*
X93425214Y-26726768D01*
X93444331Y-26698790D01*
X93495340Y-26446900D01*
X93495340Y-25546900D01*
X93451062Y-25311583D01*
X93311990Y-25095459D01*
X93099790Y-24950469D01*
X92982900Y-24926798D01*
X92982900Y-24528938D01*
X93083217Y-24510062D01*
X93299341Y-24370990D01*
X93444331Y-24158790D01*
X93495340Y-23906900D01*
X93495340Y-23006900D01*
X93451062Y-22771583D01*
X93311990Y-22555459D01*
X93099790Y-22410469D01*
X92847900Y-22359460D01*
X91647900Y-22359460D01*
X91412583Y-22403738D01*
X91196459Y-22542810D01*
X91148766Y-22612611D01*
X91111990Y-22555459D01*
X90899790Y-22410469D01*
X90647900Y-22359460D01*
X89447900Y-22359460D01*
X89212583Y-22403738D01*
X88996459Y-22542810D01*
X88874092Y-22721900D01*
X88353900Y-22721900D01*
X88151215Y-22762217D01*
X88072627Y-22777849D01*
X87834176Y-22937177D01*
X85710340Y-25061014D01*
X85710340Y-23471900D01*
X85666062Y-23236583D01*
X85526990Y-23020459D01*
X85314790Y-22875469D01*
X85062900Y-22824460D01*
X83262900Y-22824460D01*
X83027583Y-22868738D01*
X82811459Y-23007810D01*
X82666469Y-23220010D01*
X82615460Y-23471900D01*
X82615460Y-24268472D01*
X82092073Y-24791859D01*
X81913125Y-24791703D01*
X81495814Y-24964133D01*
X81176255Y-25283135D01*
X81003097Y-25700144D01*
X81002897Y-25928868D01*
X80649581Y-25782158D01*
X80058811Y-25781643D01*
X79727746Y-25918436D01*
X79723487Y-25912062D01*
X79602624Y-25731177D01*
X78878623Y-25007177D01*
X78640172Y-24847849D01*
X78358900Y-24791900D01*
X76237900Y-24791900D01*
X75956628Y-24847849D01*
X75718176Y-25007177D01*
X75698310Y-25027043D01*
X74434821Y-23783608D01*
X74465340Y-23632900D01*
X74465340Y-22432900D01*
X74421062Y-22197583D01*
X74281990Y-21981459D01*
X74255326Y-21963240D01*
X74666246Y-21881503D01*
X75034466Y-21635466D01*
X75458943Y-21210989D01*
X79502643Y-21210989D01*
X79728244Y-21756986D01*
X80145617Y-22175088D01*
X80173457Y-22186648D01*
X80147814Y-22197244D01*
X79729712Y-22614617D01*
X79503158Y-23160219D01*
X79502643Y-23750989D01*
X79728244Y-24296986D01*
X80145617Y-24715088D01*
X80691219Y-24941642D01*
X81281989Y-24942157D01*
X81827986Y-24716556D01*
X82246088Y-24299183D01*
X82472642Y-23753581D01*
X82473157Y-23162811D01*
X82247556Y-22616814D01*
X81830183Y-22198712D01*
X81802343Y-22187152D01*
X81827986Y-22176556D01*
X81947851Y-22056900D01*
X82615460Y-22056900D01*
X82615460Y-22171900D01*
X82659738Y-22407217D01*
X82798810Y-22623341D01*
X83011010Y-22768331D01*
X83262900Y-22819340D01*
X85062900Y-22819340D01*
X85298217Y-22775062D01*
X85514341Y-22635990D01*
X85659331Y-22423790D01*
X85710340Y-22171900D01*
X85710340Y-19671900D01*
X85666062Y-19436583D01*
X85526990Y-19220459D01*
X85314790Y-19075469D01*
X85062900Y-19024460D01*
X83262900Y-19024460D01*
X83027583Y-19068738D01*
X82811459Y-19207810D01*
X82666469Y-19420010D01*
X82615460Y-19671900D01*
X82615460Y-19786900D01*
X81958147Y-19786900D01*
X81830183Y-19658712D01*
X81284581Y-19432158D01*
X80693811Y-19431643D01*
X80147814Y-19657244D01*
X79729712Y-20074617D01*
X79503158Y-20620219D01*
X79502643Y-21210989D01*
X75458943Y-21210989D01*
X79698032Y-16971900D01*
X82824360Y-16971900D01*
X83102336Y-17250361D01*
X83611198Y-17461659D01*
X84162185Y-17462140D01*
X84671415Y-17251731D01*
X85061361Y-16862464D01*
X85079752Y-16818172D01*
X85108738Y-16972217D01*
X85247810Y-17188341D01*
X85460010Y-17333331D01*
X85711900Y-17384340D01*
X88211900Y-17384340D01*
X88447217Y-17340062D01*
X88663341Y-17200990D01*
X88808331Y-16988790D01*
X88859340Y-16736900D01*
X88859340Y-14936900D01*
X88815062Y-14701583D01*
X88675990Y-14485459D01*
X88463790Y-14340469D01*
X88211900Y-14289460D01*
X87019593Y-14289460D01*
X84854466Y-12124334D01*
X84813408Y-12096900D01*
X84486246Y-11878297D01*
X84051900Y-11791900D01*
X77787900Y-11791900D01*
X77353554Y-11878297D01*
X77026392Y-12096900D01*
X76985334Y-12124334D01*
X75058900Y-14050768D01*
X74010466Y-13002334D01*
X73927014Y-12946573D01*
X73642246Y-12756297D01*
X73207900Y-12669900D01*
X70114414Y-12669900D01*
X70521415Y-12501731D01*
X70911361Y-12112464D01*
X71122659Y-11603602D01*
X71123140Y-11052615D01*
X70928103Y-10580587D01*
X70929950Y-10580138D01*
X71063217Y-10555062D01*
X71081542Y-10543270D01*
X71102718Y-10538120D01*
X71189004Y-10474120D01*
X71279341Y-10415990D01*
X71291635Y-10397997D01*
X71309138Y-10385015D01*
X71794909Y-9845269D01*
X72080466Y-9654466D01*
X72326503Y-9286246D01*
X72412900Y-8851900D01*
X72326503Y-8417554D01*
X72080466Y-8049334D01*
X71794909Y-7858531D01*
X71309138Y-7318785D01*
X71299000Y-7311352D01*
X71291990Y-7300459D01*
X71176545Y-7221579D01*
X71096172Y-7162656D01*
X71087305Y-7160604D01*
X71079790Y-7155469D01*
X70962437Y-7131704D01*
X70862900Y-7108668D01*
X70862900Y-5991346D01*
X73736460Y-8864907D01*
X73736460Y-8864907D01*
G37*
X73736460Y-8864907D02*
X73736460Y-10629900D01*
X73780738Y-10865217D01*
X73919810Y-11081341D01*
X74132010Y-11226331D01*
X74383900Y-11277340D01*
X75399900Y-11277340D01*
X75635217Y-11233062D01*
X75851341Y-11093990D01*
X75996331Y-10881790D01*
X76034443Y-10693586D01*
X76066738Y-10865217D01*
X76205810Y-11081341D01*
X76418010Y-11226331D01*
X76669900Y-11277340D01*
X77685900Y-11277340D01*
X77921217Y-11233062D01*
X78137341Y-11093990D01*
X78282331Y-10881790D01*
X78320443Y-10693586D01*
X78352738Y-10865217D01*
X78491810Y-11081341D01*
X78704010Y-11226331D01*
X78955900Y-11277340D01*
X79971900Y-11277340D01*
X80207217Y-11233062D01*
X80423341Y-11093990D01*
X80568331Y-10881790D01*
X80619340Y-10629900D01*
X80619340Y-8597900D01*
X80598900Y-8489271D01*
X80598900Y-6655114D01*
X80663069Y-6810415D01*
X81052336Y-7200361D01*
X81561198Y-7411659D01*
X81617576Y-7411708D01*
X82750334Y-8544466D01*
X83118554Y-8790503D01*
X83552900Y-8876900D01*
X83750460Y-8876900D01*
X83750460Y-9341900D01*
X83794738Y-9577217D01*
X83933810Y-9793341D01*
X84146010Y-9938331D01*
X84397900Y-9989340D01*
X85197900Y-9989340D01*
X85340014Y-9962599D01*
X85463069Y-10260415D01*
X85852336Y-10650361D01*
X86361198Y-10861659D01*
X86912185Y-10862140D01*
X87421415Y-10651731D01*
X87461315Y-10611900D01*
X87817768Y-10611900D01*
X89985334Y-12779466D01*
X90353554Y-13025503D01*
X90787900Y-13111900D01*
X93037900Y-13111900D01*
X93257699Y-13068179D01*
X96001182Y-13068179D01*
X96027585Y-13658358D01*
X96202641Y-14080980D01*
X96453942Y-14161253D01*
X97318295Y-13296900D01*
X96453942Y-12432547D01*
X96202641Y-12512820D01*
X96001182Y-13068179D01*
X93257699Y-13068179D01*
X93472246Y-13025503D01*
X93840466Y-12779466D01*
X94766170Y-11853762D01*
X94957900Y-11891900D01*
X96532644Y-11891900D01*
X96655617Y-12015088D01*
X96703212Y-12034851D01*
X96633547Y-12252942D01*
X97497900Y-13117295D01*
X97512043Y-13103153D01*
X97691648Y-13282758D01*
X97677505Y-13296900D01*
X97691648Y-13311043D01*
X97512043Y-13490648D01*
X97497900Y-13476505D01*
X96633547Y-14340858D01*
X96703081Y-14558540D01*
X96657814Y-14577244D01*
X96532940Y-14701900D01*
X92615122Y-14701900D01*
X92615062Y-14701583D01*
X92475990Y-14485459D01*
X92263790Y-14340469D01*
X92011900Y-14289460D01*
X89511900Y-14289460D01*
X89276583Y-14333738D01*
X89060459Y-14472810D01*
X88915469Y-14685010D01*
X88864460Y-14936900D01*
X88864460Y-16736900D01*
X88908738Y-16972217D01*
X89047810Y-17188341D01*
X89260010Y-17333331D01*
X89511900Y-17384340D01*
X92011900Y-17384340D01*
X92247217Y-17340062D01*
X92463341Y-17200990D01*
X92608331Y-16988790D01*
X92611751Y-16971900D01*
X96532644Y-16971900D01*
X96655617Y-17095088D01*
X96683457Y-17106648D01*
X96657814Y-17117244D01*
X96239712Y-17534617D01*
X96013158Y-18080219D01*
X96012643Y-18670989D01*
X96238244Y-19216986D01*
X96655617Y-19635088D01*
X96683457Y-19646648D01*
X96657814Y-19657244D01*
X96239712Y-20074617D01*
X96013158Y-20620219D01*
X96012643Y-21210989D01*
X96238244Y-21756986D01*
X96655617Y-22175088D01*
X96662148Y-22177800D01*
X96688402Y-22217092D01*
X96695334Y-22227466D01*
X97082900Y-22615032D01*
X97082900Y-23124270D01*
X97032583Y-23133738D01*
X96816459Y-23272810D01*
X96671469Y-23485010D01*
X96668049Y-23501900D01*
X96392900Y-23501900D01*
X96028751Y-23574334D01*
X95958554Y-23588297D01*
X95881983Y-23639460D01*
X94892900Y-23639460D01*
X94657583Y-23683738D01*
X94441459Y-23822810D01*
X94296469Y-24035010D01*
X94245460Y-24286900D01*
X94245460Y-26386900D01*
X94289738Y-26622217D01*
X94301686Y-26640785D01*
X94271469Y-26685010D01*
X94220460Y-26936900D01*
X94220460Y-27336900D01*
X94244844Y-27466489D01*
X94231387Y-27532940D01*
X93425214Y-26726768D01*
X93444331Y-26698790D01*
X93495340Y-26446900D01*
X93495340Y-25546900D01*
X93451062Y-25311583D01*
X93311990Y-25095459D01*
X93099790Y-24950469D01*
X92982900Y-24926798D01*
X92982900Y-24528938D01*
X93083217Y-24510062D01*
X93299341Y-24370990D01*
X93444331Y-24158790D01*
X93495340Y-23906900D01*
X93495340Y-23006900D01*
X93451062Y-22771583D01*
X93311990Y-22555459D01*
X93099790Y-22410469D01*
X92847900Y-22359460D01*
X91647900Y-22359460D01*
X91412583Y-22403738D01*
X91196459Y-22542810D01*
X91148766Y-22612611D01*
X91111990Y-22555459D01*
X90899790Y-22410469D01*
X90647900Y-22359460D01*
X89447900Y-22359460D01*
X89212583Y-22403738D01*
X88996459Y-22542810D01*
X88874092Y-22721900D01*
X88353900Y-22721900D01*
X88151215Y-22762217D01*
X88072627Y-22777849D01*
X87834176Y-22937177D01*
X85710340Y-25061014D01*
X85710340Y-23471900D01*
X85666062Y-23236583D01*
X85526990Y-23020459D01*
X85314790Y-22875469D01*
X85062900Y-22824460D01*
X83262900Y-22824460D01*
X83027583Y-22868738D01*
X82811459Y-23007810D01*
X82666469Y-23220010D01*
X82615460Y-23471900D01*
X82615460Y-24268472D01*
X82092073Y-24791859D01*
X81913125Y-24791703D01*
X81495814Y-24964133D01*
X81176255Y-25283135D01*
X81003097Y-25700144D01*
X81002897Y-25928868D01*
X80649581Y-25782158D01*
X80058811Y-25781643D01*
X79727746Y-25918436D01*
X79723487Y-25912062D01*
X79602624Y-25731177D01*
X78878623Y-25007177D01*
X78640172Y-24847849D01*
X78358900Y-24791900D01*
X76237900Y-24791900D01*
X75956628Y-24847849D01*
X75718176Y-25007177D01*
X75698310Y-25027043D01*
X74434821Y-23783608D01*
X74465340Y-23632900D01*
X74465340Y-22432900D01*
X74421062Y-22197583D01*
X74281990Y-21981459D01*
X74255326Y-21963240D01*
X74666246Y-21881503D01*
X75034466Y-21635466D01*
X75458943Y-21210989D01*
X79502643Y-21210989D01*
X79728244Y-21756986D01*
X80145617Y-22175088D01*
X80173457Y-22186648D01*
X80147814Y-22197244D01*
X79729712Y-22614617D01*
X79503158Y-23160219D01*
X79502643Y-23750989D01*
X79728244Y-24296986D01*
X80145617Y-24715088D01*
X80691219Y-24941642D01*
X81281989Y-24942157D01*
X81827986Y-24716556D01*
X82246088Y-24299183D01*
X82472642Y-23753581D01*
X82473157Y-23162811D01*
X82247556Y-22616814D01*
X81830183Y-22198712D01*
X81802343Y-22187152D01*
X81827986Y-22176556D01*
X81947851Y-22056900D01*
X82615460Y-22056900D01*
X82615460Y-22171900D01*
X82659738Y-22407217D01*
X82798810Y-22623341D01*
X83011010Y-22768331D01*
X83262900Y-22819340D01*
X85062900Y-22819340D01*
X85298217Y-22775062D01*
X85514341Y-22635990D01*
X85659331Y-22423790D01*
X85710340Y-22171900D01*
X85710340Y-19671900D01*
X85666062Y-19436583D01*
X85526990Y-19220459D01*
X85314790Y-19075469D01*
X85062900Y-19024460D01*
X83262900Y-19024460D01*
X83027583Y-19068738D01*
X82811459Y-19207810D01*
X82666469Y-19420010D01*
X82615460Y-19671900D01*
X82615460Y-19786900D01*
X81958147Y-19786900D01*
X81830183Y-19658712D01*
X81284581Y-19432158D01*
X80693811Y-19431643D01*
X80147814Y-19657244D01*
X79729712Y-20074617D01*
X79503158Y-20620219D01*
X79502643Y-21210989D01*
X75458943Y-21210989D01*
X79698032Y-16971900D01*
X82824360Y-16971900D01*
X83102336Y-17250361D01*
X83611198Y-17461659D01*
X84162185Y-17462140D01*
X84671415Y-17251731D01*
X85061361Y-16862464D01*
X85079752Y-16818172D01*
X85108738Y-16972217D01*
X85247810Y-17188341D01*
X85460010Y-17333331D01*
X85711900Y-17384340D01*
X88211900Y-17384340D01*
X88447217Y-17340062D01*
X88663341Y-17200990D01*
X88808331Y-16988790D01*
X88859340Y-16736900D01*
X88859340Y-14936900D01*
X88815062Y-14701583D01*
X88675990Y-14485459D01*
X88463790Y-14340469D01*
X88211900Y-14289460D01*
X87019593Y-14289460D01*
X84854466Y-12124334D01*
X84813408Y-12096900D01*
X84486246Y-11878297D01*
X84051900Y-11791900D01*
X77787900Y-11791900D01*
X77353554Y-11878297D01*
X77026392Y-12096900D01*
X76985334Y-12124334D01*
X75058900Y-14050768D01*
X74010466Y-13002334D01*
X73927014Y-12946573D01*
X73642246Y-12756297D01*
X73207900Y-12669900D01*
X70114414Y-12669900D01*
X70521415Y-12501731D01*
X70911361Y-12112464D01*
X71122659Y-11603602D01*
X71123140Y-11052615D01*
X70928103Y-10580587D01*
X70929950Y-10580138D01*
X71063217Y-10555062D01*
X71081542Y-10543270D01*
X71102718Y-10538120D01*
X71189004Y-10474120D01*
X71279341Y-10415990D01*
X71291635Y-10397997D01*
X71309138Y-10385015D01*
X71794909Y-9845269D01*
X72080466Y-9654466D01*
X72326503Y-9286246D01*
X72412900Y-8851900D01*
X72326503Y-8417554D01*
X72080466Y-8049334D01*
X71794909Y-7858531D01*
X71309138Y-7318785D01*
X71299000Y-7311352D01*
X71291990Y-7300459D01*
X71176545Y-7221579D01*
X71096172Y-7162656D01*
X71087305Y-7160604D01*
X71079790Y-7155469D01*
X70962437Y-7131704D01*
X70862900Y-7108668D01*
X70862900Y-5991346D01*
X73736460Y-8864907D01*
G36*
X36324573Y-1012202D02*
X36227900Y-1245591D01*
X36227900Y-1288150D01*
X36386650Y-1446900D01*
X36599358Y-1446900D01*
X36411459Y-1567810D01*
X36391583Y-1596900D01*
X36386650Y-1596900D01*
X36227900Y-1755650D01*
X36227900Y-1798209D01*
X36251329Y-1854772D01*
X36215460Y-2031900D01*
X36215460Y-2086900D01*
X34947900Y-2086900D01*
X34671399Y-2141900D01*
X34666628Y-2142849D01*
X34428177Y-2302176D01*
X34399591Y-2330762D01*
X34294581Y-2287158D01*
X33703811Y-2286643D01*
X33157814Y-2512244D01*
X32739712Y-2929617D01*
X32719949Y-2977212D01*
X32501858Y-2907547D01*
X32421476Y-2987929D01*
X32275131Y-2775064D01*
X32322253Y-2727942D01*
X32241980Y-2476641D01*
X31686621Y-2275182D01*
X31096442Y-2301585D01*
X30673820Y-2476641D01*
X30593547Y-2727942D01*
X30610625Y-2745020D01*
X30483845Y-2977450D01*
X30413942Y-2907547D01*
X30162641Y-2987820D01*
X29961182Y-3543179D01*
X29987585Y-4133358D01*
X30162641Y-4555980D01*
X30182163Y-4562216D01*
X30008957Y-4633783D01*
X29745708Y-4896573D01*
X29603062Y-5240101D01*
X29602738Y-5612067D01*
X29744783Y-5955843D01*
X29821481Y-6032675D01*
X29816469Y-6040010D01*
X29765460Y-6291900D01*
X29765460Y-8391900D01*
X29809738Y-8627217D01*
X29948810Y-8843341D01*
X30161010Y-8988331D01*
X30412900Y-9039340D01*
X31812900Y-9039340D01*
X32048217Y-8995062D01*
X32264341Y-8855990D01*
X32409331Y-8643790D01*
X32460340Y-8391900D01*
X32460340Y-6291900D01*
X32416062Y-6056583D01*
X32276990Y-5840459D01*
X32064790Y-5695469D01*
X31812900Y-5644460D01*
X31741057Y-5644460D01*
X31632624Y-5482177D01*
X31472992Y-5322545D01*
X31473048Y-5257708D01*
X31819358Y-5242215D01*
X32241980Y-5067159D01*
X32293193Y-4906833D01*
X32634642Y-4593838D01*
X32719540Y-4566719D01*
X32738244Y-4611986D01*
X33155617Y-5030088D01*
X33701219Y-5256642D01*
X34291989Y-5257157D01*
X34837986Y-5031556D01*
X35256088Y-4614183D01*
X35482642Y-4068581D01*
X35483088Y-3556900D01*
X36215460Y-3556900D01*
X36215460Y-3631900D01*
X36259738Y-3867217D01*
X36398810Y-4083341D01*
X36611010Y-4228331D01*
X36777900Y-4262127D01*
X36777900Y-4791978D01*
X36502733Y-4791738D01*
X36158957Y-4933783D01*
X35895708Y-5196573D01*
X35753062Y-5540101D01*
X35752990Y-5622363D01*
X35730893Y-5644460D01*
X34912900Y-5644460D01*
X34677583Y-5688738D01*
X34461459Y-5827810D01*
X34316469Y-6040010D01*
X34265460Y-6291900D01*
X34265460Y-8391900D01*
X34309738Y-8627217D01*
X34448810Y-8843341D01*
X34661010Y-8988331D01*
X34912900Y-9039340D01*
X36312900Y-9039340D01*
X36548217Y-8995062D01*
X36699978Y-8897406D01*
X36744783Y-9005843D01*
X37007573Y-9269092D01*
X37351101Y-9411738D01*
X37723067Y-9412062D01*
X38066843Y-9270017D01*
X38330092Y-9007227D01*
X38355193Y-8946777D01*
X38416010Y-8988331D01*
X38667900Y-9039340D01*
X40037964Y-9039340D01*
X40044783Y-9055843D01*
X40307573Y-9319092D01*
X40651101Y-9461738D01*
X41023067Y-9462062D01*
X41366843Y-9320017D01*
X41537968Y-9149191D01*
X41707573Y-9319092D01*
X42051101Y-9461738D01*
X42133363Y-9461810D01*
X43518176Y-10846623D01*
X43756627Y-11005951D01*
X43787375Y-11012067D01*
X44037900Y-11061900D01*
X45052956Y-11061900D01*
X45052738Y-11312067D01*
X45194783Y-11655843D01*
X45457573Y-11919092D01*
X45801101Y-12061738D01*
X45883363Y-12061810D01*
X46672945Y-12851392D01*
X46553062Y-13140101D01*
X46552738Y-13512067D01*
X46671367Y-13799173D01*
X46471459Y-13927810D01*
X46326469Y-14140010D01*
X46275460Y-14391900D01*
X46275460Y-16491900D01*
X46319738Y-16727217D01*
X46458810Y-16943341D01*
X46597900Y-17038377D01*
X46597900Y-17375708D01*
X46431459Y-17482810D01*
X46286469Y-17695010D01*
X46235460Y-17946900D01*
X46235460Y-19146900D01*
X46279738Y-19382217D01*
X46418810Y-19598341D01*
X46486906Y-19644869D01*
X46344573Y-19787202D01*
X46247900Y-20020591D01*
X46247900Y-20461150D01*
X46406648Y-20619898D01*
X46247900Y-20619898D01*
X46247900Y-20731606D01*
X46181665Y-20665255D01*
X45764656Y-20492097D01*
X45654581Y-20492001D01*
X45283690Y-20121110D01*
X45245713Y-20095735D01*
X45211062Y-19911583D01*
X45071990Y-19695459D01*
X45002189Y-19647766D01*
X45059341Y-19610990D01*
X45204331Y-19398790D01*
X45255340Y-19146900D01*
X45255340Y-17946900D01*
X45211062Y-17711583D01*
X45071990Y-17495459D01*
X44887419Y-17369347D01*
X44872797Y-17295837D01*
X44873011Y-17050151D01*
X45019341Y-16955990D01*
X45164331Y-16743790D01*
X45215340Y-16491900D01*
X45215340Y-14391900D01*
X45171062Y-14156583D01*
X45031990Y-13940459D01*
X44819790Y-13795469D01*
X44602900Y-13751548D01*
X44602900Y-13706900D01*
X44572832Y-13555740D01*
X44573062Y-13291733D01*
X44431017Y-12947957D01*
X44168227Y-12684708D01*
X43824699Y-12542062D01*
X43452733Y-12541738D01*
X43108957Y-12683783D01*
X43024835Y-12767758D01*
X42919731Y-12513385D01*
X42530464Y-12123439D01*
X42021602Y-11912141D01*
X41872957Y-11912011D01*
X41873062Y-11791733D01*
X41804259Y-11625217D01*
X41816843Y-11620017D01*
X42080092Y-11357227D01*
X42222738Y-11013699D01*
X42223062Y-10641733D01*
X42081017Y-10297957D01*
X41818227Y-10034708D01*
X41474699Y-9892062D01*
X41102733Y-9891738D01*
X40758957Y-10033783D01*
X40495708Y-10296573D01*
X40353062Y-10640101D01*
X40353034Y-10672319D01*
X39322791Y-11702563D01*
X39323062Y-11391733D01*
X39181017Y-11047957D01*
X38918227Y-10784708D01*
X38574699Y-10642062D01*
X38472975Y-10641973D01*
X38473062Y-10541733D01*
X38331017Y-10197957D01*
X38068227Y-9934708D01*
X37724699Y-9792062D01*
X37352733Y-9791738D01*
X37008957Y-9933783D01*
X36745708Y-10196573D01*
X36643839Y-10441900D01*
X31475319Y-10441900D01*
X31418227Y-10384708D01*
X31074699Y-10242062D01*
X30702733Y-10241738D01*
X30358957Y-10383783D01*
X30095708Y-10646573D01*
X29953062Y-10990101D01*
X29953060Y-10991912D01*
X29752733Y-10991738D01*
X29556277Y-11072912D01*
X29468227Y-10984708D01*
X29124699Y-10842062D01*
X29042437Y-10841990D01*
X28972900Y-10772454D01*
X28972900Y-8526900D01*
X28971072Y-8517711D01*
X28972738Y-8513699D01*
X28973062Y-8141733D01*
X28831017Y-7797957D01*
X28568227Y-7534708D01*
X28404914Y-7466894D01*
X28497642Y-7243581D01*
X28498157Y-6652811D01*
X28272556Y-6106814D01*
X27855183Y-5688712D01*
X27827343Y-5677152D01*
X27852986Y-5666556D01*
X28271088Y-5249183D01*
X28497642Y-4703581D01*
X28498157Y-4112811D01*
X28418481Y-3919980D01*
X28441200Y-2284229D01*
X28509618Y-2095621D01*
X28483215Y-1505442D01*
X28453028Y-1432565D01*
X28461065Y-853900D01*
X36482874Y-853900D01*
X36324573Y-1012202D01*
X36324573Y-1012202D01*
G37*
X36324573Y-1012202D02*
X36227900Y-1245591D01*
X36227900Y-1288150D01*
X36386650Y-1446900D01*
X36599358Y-1446900D01*
X36411459Y-1567810D01*
X36391583Y-1596900D01*
X36386650Y-1596900D01*
X36227900Y-1755650D01*
X36227900Y-1798209D01*
X36251329Y-1854772D01*
X36215460Y-2031900D01*
X36215460Y-2086900D01*
X34947900Y-2086900D01*
X34671399Y-2141900D01*
X34666628Y-2142849D01*
X34428177Y-2302176D01*
X34399591Y-2330762D01*
X34294581Y-2287158D01*
X33703811Y-2286643D01*
X33157814Y-2512244D01*
X32739712Y-2929617D01*
X32719949Y-2977212D01*
X32501858Y-2907547D01*
X32421476Y-2987929D01*
X32275131Y-2775064D01*
X32322253Y-2727942D01*
X32241980Y-2476641D01*
X31686621Y-2275182D01*
X31096442Y-2301585D01*
X30673820Y-2476641D01*
X30593547Y-2727942D01*
X30610625Y-2745020D01*
X30483845Y-2977450D01*
X30413942Y-2907547D01*
X30162641Y-2987820D01*
X29961182Y-3543179D01*
X29987585Y-4133358D01*
X30162641Y-4555980D01*
X30182163Y-4562216D01*
X30008957Y-4633783D01*
X29745708Y-4896573D01*
X29603062Y-5240101D01*
X29602738Y-5612067D01*
X29744783Y-5955843D01*
X29821481Y-6032675D01*
X29816469Y-6040010D01*
X29765460Y-6291900D01*
X29765460Y-8391900D01*
X29809738Y-8627217D01*
X29948810Y-8843341D01*
X30161010Y-8988331D01*
X30412900Y-9039340D01*
X31812900Y-9039340D01*
X32048217Y-8995062D01*
X32264341Y-8855990D01*
X32409331Y-8643790D01*
X32460340Y-8391900D01*
X32460340Y-6291900D01*
X32416062Y-6056583D01*
X32276990Y-5840459D01*
X32064790Y-5695469D01*
X31812900Y-5644460D01*
X31741057Y-5644460D01*
X31632624Y-5482177D01*
X31472992Y-5322545D01*
X31473048Y-5257708D01*
X31819358Y-5242215D01*
X32241980Y-5067159D01*
X32293193Y-4906833D01*
X32634642Y-4593838D01*
X32719540Y-4566719D01*
X32738244Y-4611986D01*
X33155617Y-5030088D01*
X33701219Y-5256642D01*
X34291989Y-5257157D01*
X34837986Y-5031556D01*
X35256088Y-4614183D01*
X35482642Y-4068581D01*
X35483088Y-3556900D01*
X36215460Y-3556900D01*
X36215460Y-3631900D01*
X36259738Y-3867217D01*
X36398810Y-4083341D01*
X36611010Y-4228331D01*
X36777900Y-4262127D01*
X36777900Y-4791978D01*
X36502733Y-4791738D01*
X36158957Y-4933783D01*
X35895708Y-5196573D01*
X35753062Y-5540101D01*
X35752990Y-5622363D01*
X35730893Y-5644460D01*
X34912900Y-5644460D01*
X34677583Y-5688738D01*
X34461459Y-5827810D01*
X34316469Y-6040010D01*
X34265460Y-6291900D01*
X34265460Y-8391900D01*
X34309738Y-8627217D01*
X34448810Y-8843341D01*
X34661010Y-8988331D01*
X34912900Y-9039340D01*
X36312900Y-9039340D01*
X36548217Y-8995062D01*
X36699978Y-8897406D01*
X36744783Y-9005843D01*
X37007573Y-9269092D01*
X37351101Y-9411738D01*
X37723067Y-9412062D01*
X38066843Y-9270017D01*
X38330092Y-9007227D01*
X38355193Y-8946777D01*
X38416010Y-8988331D01*
X38667900Y-9039340D01*
X40037964Y-9039340D01*
X40044783Y-9055843D01*
X40307573Y-9319092D01*
X40651101Y-9461738D01*
X41023067Y-9462062D01*
X41366843Y-9320017D01*
X41537968Y-9149191D01*
X41707573Y-9319092D01*
X42051101Y-9461738D01*
X42133363Y-9461810D01*
X43518176Y-10846623D01*
X43756627Y-11005951D01*
X43787375Y-11012067D01*
X44037900Y-11061900D01*
X45052956Y-11061900D01*
X45052738Y-11312067D01*
X45194783Y-11655843D01*
X45457573Y-11919092D01*
X45801101Y-12061738D01*
X45883363Y-12061810D01*
X46672945Y-12851392D01*
X46553062Y-13140101D01*
X46552738Y-13512067D01*
X46671367Y-13799173D01*
X46471459Y-13927810D01*
X46326469Y-14140010D01*
X46275460Y-14391900D01*
X46275460Y-16491900D01*
X46319738Y-16727217D01*
X46458810Y-16943341D01*
X46597900Y-17038377D01*
X46597900Y-17375708D01*
X46431459Y-17482810D01*
X46286469Y-17695010D01*
X46235460Y-17946900D01*
X46235460Y-19146900D01*
X46279738Y-19382217D01*
X46418810Y-19598341D01*
X46486906Y-19644869D01*
X46344573Y-19787202D01*
X46247900Y-20020591D01*
X46247900Y-20461150D01*
X46406648Y-20619898D01*
X46247900Y-20619898D01*
X46247900Y-20731606D01*
X46181665Y-20665255D01*
X45764656Y-20492097D01*
X45654581Y-20492001D01*
X45283690Y-20121110D01*
X45245713Y-20095735D01*
X45211062Y-19911583D01*
X45071990Y-19695459D01*
X45002189Y-19647766D01*
X45059341Y-19610990D01*
X45204331Y-19398790D01*
X45255340Y-19146900D01*
X45255340Y-17946900D01*
X45211062Y-17711583D01*
X45071990Y-17495459D01*
X44887419Y-17369347D01*
X44872797Y-17295837D01*
X44873011Y-17050151D01*
X45019341Y-16955990D01*
X45164331Y-16743790D01*
X45215340Y-16491900D01*
X45215340Y-14391900D01*
X45171062Y-14156583D01*
X45031990Y-13940459D01*
X44819790Y-13795469D01*
X44602900Y-13751548D01*
X44602900Y-13706900D01*
X44572832Y-13555740D01*
X44573062Y-13291733D01*
X44431017Y-12947957D01*
X44168227Y-12684708D01*
X43824699Y-12542062D01*
X43452733Y-12541738D01*
X43108957Y-12683783D01*
X43024835Y-12767758D01*
X42919731Y-12513385D01*
X42530464Y-12123439D01*
X42021602Y-11912141D01*
X41872957Y-11912011D01*
X41873062Y-11791733D01*
X41804259Y-11625217D01*
X41816843Y-11620017D01*
X42080092Y-11357227D01*
X42222738Y-11013699D01*
X42223062Y-10641733D01*
X42081017Y-10297957D01*
X41818227Y-10034708D01*
X41474699Y-9892062D01*
X41102733Y-9891738D01*
X40758957Y-10033783D01*
X40495708Y-10296573D01*
X40353062Y-10640101D01*
X40353034Y-10672319D01*
X39322791Y-11702563D01*
X39323062Y-11391733D01*
X39181017Y-11047957D01*
X38918227Y-10784708D01*
X38574699Y-10642062D01*
X38472975Y-10641973D01*
X38473062Y-10541733D01*
X38331017Y-10197957D01*
X38068227Y-9934708D01*
X37724699Y-9792062D01*
X37352733Y-9791738D01*
X37008957Y-9933783D01*
X36745708Y-10196573D01*
X36643839Y-10441900D01*
X31475319Y-10441900D01*
X31418227Y-10384708D01*
X31074699Y-10242062D01*
X30702733Y-10241738D01*
X30358957Y-10383783D01*
X30095708Y-10646573D01*
X29953062Y-10990101D01*
X29953060Y-10991912D01*
X29752733Y-10991738D01*
X29556277Y-11072912D01*
X29468227Y-10984708D01*
X29124699Y-10842062D01*
X29042437Y-10841990D01*
X28972900Y-10772454D01*
X28972900Y-8526900D01*
X28971072Y-8517711D01*
X28972738Y-8513699D01*
X28973062Y-8141733D01*
X28831017Y-7797957D01*
X28568227Y-7534708D01*
X28404914Y-7466894D01*
X28497642Y-7243581D01*
X28498157Y-6652811D01*
X28272556Y-6106814D01*
X27855183Y-5688712D01*
X27827343Y-5677152D01*
X27852986Y-5666556D01*
X28271088Y-5249183D01*
X28497642Y-4703581D01*
X28498157Y-4112811D01*
X28418481Y-3919980D01*
X28441200Y-2284229D01*
X28509618Y-2095621D01*
X28483215Y-1505442D01*
X28453028Y-1432565D01*
X28461065Y-853900D01*
X36482874Y-853900D01*
X36324573Y-1012202D01*
G36*
X37314900Y-19799900D02*
X37334900Y-19799900D01*
X37334900Y-20053900D01*
X37314900Y-20053900D01*
X37314900Y-20073900D01*
X37060900Y-20073900D01*
X37060900Y-20053900D01*
X37040900Y-20053900D01*
X37040900Y-19799900D01*
X37060900Y-19799900D01*
X37060900Y-19779900D01*
X37314900Y-19779900D01*
X37314900Y-19799900D01*
X37314900Y-19799900D01*
G37*
X37314900Y-19799900D02*
X37334900Y-19799900D01*
X37334900Y-20053900D01*
X37314900Y-20053900D01*
X37314900Y-20073900D01*
X37060900Y-20073900D01*
X37060900Y-20053900D01*
X37040900Y-20053900D01*
X37040900Y-19799900D01*
X37060900Y-19799900D01*
X37060900Y-19779900D01*
X37314900Y-19779900D01*
X37314900Y-19799900D01*
G36*
X44590460Y-2276900D02*
X44634738Y-2512217D01*
X44650239Y-2536306D01*
X44602900Y-2650591D01*
X44602900Y-2791150D01*
X44761650Y-2949900D01*
X45362900Y-2949900D01*
X45362900Y-2929900D01*
X45612900Y-2929900D01*
X45612900Y-2949900D01*
X45634900Y-2949900D01*
X45634900Y-3203900D01*
X45612900Y-3203900D01*
X45612900Y-3853150D01*
X45771650Y-4011900D01*
X45864210Y-4011900D01*
X46097599Y-3915227D01*
X46276227Y-3736598D01*
X46372900Y-3503209D01*
X46372900Y-3362650D01*
X46214152Y-3203902D01*
X46289744Y-3203902D01*
X46506015Y-3420173D01*
X46483158Y-3475219D01*
X46482643Y-4065989D01*
X46708244Y-4611986D01*
X47125617Y-5030088D01*
X47671219Y-5256642D01*
X48261989Y-5257157D01*
X48502900Y-5157615D01*
X48502900Y-5176900D01*
X48552629Y-5426900D01*
X48558849Y-5458172D01*
X48718177Y-5696623D01*
X48918177Y-5896624D01*
X49136093Y-6042230D01*
X49156628Y-6055951D01*
X49437900Y-6111900D01*
X50811911Y-6111900D01*
X50775460Y-6291900D01*
X50775460Y-6606900D01*
X50372900Y-6606900D01*
X50091628Y-6662849D01*
X49853177Y-6822177D01*
X48970340Y-7705014D01*
X48970340Y-6291900D01*
X48926062Y-6056583D01*
X48786990Y-5840459D01*
X48574790Y-5695469D01*
X48322900Y-5644460D01*
X46922900Y-5644460D01*
X46687583Y-5688738D01*
X46471459Y-5827810D01*
X46404099Y-5926394D01*
X46257623Y-5707176D01*
X43913097Y-3362650D01*
X44602900Y-3362650D01*
X44602900Y-3503209D01*
X44699573Y-3736598D01*
X44878201Y-3915227D01*
X45111590Y-4011900D01*
X45204150Y-4011900D01*
X45362900Y-3853150D01*
X45362900Y-3203900D01*
X44761650Y-3203900D01*
X44602900Y-3362650D01*
X43913097Y-3362650D01*
X43512623Y-2962177D01*
X43274172Y-2802849D01*
X43268270Y-2801675D01*
X43197900Y-2787677D01*
X43197900Y-2694898D01*
X43091152Y-2694898D01*
X43197900Y-2588150D01*
X43197900Y-2545591D01*
X43177191Y-2495595D01*
X43210340Y-2331900D01*
X43210340Y-2256900D01*
X43642900Y-2256900D01*
X43924172Y-2200951D01*
X44162623Y-2041623D01*
X44492347Y-1711900D01*
X44590460Y-1711900D01*
X44590460Y-2276900D01*
X44590460Y-2276900D01*
G37*
X44590460Y-2276900D02*
X44634738Y-2512217D01*
X44650239Y-2536306D01*
X44602900Y-2650591D01*
X44602900Y-2791150D01*
X44761650Y-2949900D01*
X45362900Y-2949900D01*
X45362900Y-2929900D01*
X45612900Y-2929900D01*
X45612900Y-2949900D01*
X45634900Y-2949900D01*
X45634900Y-3203900D01*
X45612900Y-3203900D01*
X45612900Y-3853150D01*
X45771650Y-4011900D01*
X45864210Y-4011900D01*
X46097599Y-3915227D01*
X46276227Y-3736598D01*
X46372900Y-3503209D01*
X46372900Y-3362650D01*
X46214152Y-3203902D01*
X46289744Y-3203902D01*
X46506015Y-3420173D01*
X46483158Y-3475219D01*
X46482643Y-4065989D01*
X46708244Y-4611986D01*
X47125617Y-5030088D01*
X47671219Y-5256642D01*
X48261989Y-5257157D01*
X48502900Y-5157615D01*
X48502900Y-5176900D01*
X48552629Y-5426900D01*
X48558849Y-5458172D01*
X48718177Y-5696623D01*
X48918177Y-5896624D01*
X49136093Y-6042230D01*
X49156628Y-6055951D01*
X49437900Y-6111900D01*
X50811911Y-6111900D01*
X50775460Y-6291900D01*
X50775460Y-6606900D01*
X50372900Y-6606900D01*
X50091628Y-6662849D01*
X49853177Y-6822177D01*
X48970340Y-7705014D01*
X48970340Y-6291900D01*
X48926062Y-6056583D01*
X48786990Y-5840459D01*
X48574790Y-5695469D01*
X48322900Y-5644460D01*
X46922900Y-5644460D01*
X46687583Y-5688738D01*
X46471459Y-5827810D01*
X46404099Y-5926394D01*
X46257623Y-5707176D01*
X43913097Y-3362650D01*
X44602900Y-3362650D01*
X44602900Y-3503209D01*
X44699573Y-3736598D01*
X44878201Y-3915227D01*
X45111590Y-4011900D01*
X45204150Y-4011900D01*
X45362900Y-3853150D01*
X45362900Y-3203900D01*
X44761650Y-3203900D01*
X44602900Y-3362650D01*
X43913097Y-3362650D01*
X43512623Y-2962177D01*
X43274172Y-2802849D01*
X43268270Y-2801675D01*
X43197900Y-2787677D01*
X43197900Y-2694898D01*
X43091152Y-2694898D01*
X43197900Y-2588150D01*
X43197900Y-2545591D01*
X43177191Y-2495595D01*
X43210340Y-2331900D01*
X43210340Y-2256900D01*
X43642900Y-2256900D01*
X43924172Y-2200951D01*
X44162623Y-2041623D01*
X44492347Y-1711900D01*
X44590460Y-1711900D01*
X44590460Y-2276900D01*
G36*
X17110900Y-2391900D02*
X15475319Y-2391900D01*
X15418227Y-2334708D01*
X15074699Y-2192062D01*
X14702733Y-2191738D01*
X14358957Y-2333783D01*
X14095708Y-2596573D01*
X13953062Y-2940101D01*
X13952738Y-3312067D01*
X14094783Y-3655843D01*
X14164263Y-3725445D01*
X14008583Y-3754738D01*
X13792459Y-3893810D01*
X13742191Y-3967379D01*
X13702990Y-3906459D01*
X13490790Y-3761469D01*
X13238900Y-3710460D01*
X12496906Y-3710460D01*
X12165623Y-3379177D01*
X11927172Y-3219849D01*
X11911949Y-3216821D01*
X11645900Y-3163900D01*
X10121900Y-3163900D01*
X9840628Y-3219849D01*
X9602177Y-3379176D01*
X9135833Y-3845520D01*
X9115755Y-853900D01*
X17110900Y-853900D01*
X17110900Y-2391900D01*
X17110900Y-2391900D01*
G37*
X17110900Y-2391900D02*
X15475319Y-2391900D01*
X15418227Y-2334708D01*
X15074699Y-2192062D01*
X14702733Y-2191738D01*
X14358957Y-2333783D01*
X14095708Y-2596573D01*
X13953062Y-2940101D01*
X13952738Y-3312067D01*
X14094783Y-3655843D01*
X14164263Y-3725445D01*
X14008583Y-3754738D01*
X13792459Y-3893810D01*
X13742191Y-3967379D01*
X13702990Y-3906459D01*
X13490790Y-3761469D01*
X13238900Y-3710460D01*
X12496906Y-3710460D01*
X12165623Y-3379177D01*
X11927172Y-3219849D01*
X11911949Y-3216821D01*
X11645900Y-3163900D01*
X10121900Y-3163900D01*
X9840628Y-3219849D01*
X9602177Y-3379176D01*
X9135833Y-3845520D01*
X9115755Y-853900D01*
X17110900Y-853900D01*
X17110900Y-2391900D01*
M02*
