G04 #@! TF.FileFunction,Soldermask,Top*
%FSLAX46Y46*%
G04 Gerber Fmt 4.6, Leading zero omitted, Abs format (unit mm)*
G04 Created by KiCad (PCBNEW 4.0.0-rc1-stable) date 18.11.2015 07:04:15*
%MOMM*%
G01*
G04 APERTURE LIST*
%ADD10C,0.020000*%
%ADD11R,2.940000X2.940000*%
%ADD12R,1.670000X1.670000*%
%ADD13R,1.197560X1.197560*%
%ADD14C,2.100000*%
%ADD15R,1.700000X0.700000*%
%ADD16R,2.900000X2.200000*%
%ADD17R,1.200000X3.600000*%
%ADD18R,3.600000X1.200000*%
%ADD19R,3.200000X1.400000*%
%ADD20R,3.200000X1.900000*%
%ADD21R,1.900000X3.200000*%
%ADD22R,2.200000X2.900000*%
%ADD23R,1.300000X1.600000*%
%ADD24R,1.900000X1.400000*%
%ADD25R,2.600000X2.600000*%
%ADD26R,2.800000X1.400000*%
%ADD27R,1.050000X1.460000*%
%ADD28R,2.500000X1.800000*%
%ADD29R,1.800000X2.500000*%
%ADD30R,1.600000X1.550000*%
%ADD31R,3.400000X1.100000*%
%ADD32R,1.600000X1.850000*%
%ADD33R,1.100000X1.400000*%
%ADD34R,1.300000X1.850000*%
%ADD35R,1.600000X1.300000*%
%ADD36R,4.057600X2.432000*%
%ADD37R,1.416000X2.432000*%
%ADD38R,1.400000X1.100000*%
%ADD39R,1.900000X3.800000*%
%ADD40R,1.400000X4.400000*%
%ADD41R,1.750000X0.800000*%
%ADD42R,2.000000X2.500000*%
%ADD43R,2.300000X2.200000*%
%ADD44R,6.100000X2.000000*%
%ADD45R,0.800000X1.000000*%
%ADD46R,1.900000X0.800000*%
%ADD47O,1.500000X2.800000*%
%ADD48R,2.800000X1.500000*%
%ADD49O,2.800000X1.500000*%
%ADD50R,0.900000X1.000000*%
%ADD51R,1.000000X0.900000*%
G04 APERTURE END LIST*
D10*
D11*
X63423800Y-11938000D03*
D12*
X63423800Y-9268000D03*
D13*
X55359300Y-8191500D03*
X55359300Y-6692900D03*
D14*
X75272900Y-30441900D03*
X77812900Y-30441900D03*
X80352900Y-30441900D03*
D13*
X27012900Y-15062200D03*
X27012900Y-13563600D03*
D15*
X41912900Y-3481900D03*
X41912900Y-2821900D03*
X41912900Y-2181900D03*
X41912900Y-1521900D03*
X37512900Y-2821900D03*
X37512900Y-2181900D03*
X37512900Y-1521900D03*
X37512900Y-3481900D03*
D16*
X72092900Y-3136900D03*
X68292900Y-3136900D03*
D17*
X33037900Y-23826900D03*
X33037900Y-29226900D03*
D18*
X80639900Y-15836900D03*
X75239900Y-15836900D03*
X69971900Y-19646900D03*
X64571900Y-19646900D03*
D17*
X82892900Y-40761900D03*
X82892900Y-35361900D03*
X84797900Y-2341900D03*
X84797900Y-7741900D03*
D19*
X55697900Y-3136900D03*
X63097900Y-5136900D03*
D20*
X55697900Y-12536900D03*
D21*
X60147900Y-15536900D03*
D22*
X84162900Y-24721900D03*
X84162900Y-20921900D03*
D16*
X90761900Y-15836900D03*
X86961900Y-15836900D03*
D14*
X10502900Y-47586900D03*
X13042900Y-47586900D03*
X15582900Y-47586900D03*
X18122900Y-47586900D03*
D23*
X14693900Y-4957900D03*
X14693900Y-7157900D03*
X10883900Y-4957900D03*
X10883900Y-7157900D03*
X12788900Y-4957900D03*
X12788900Y-7157900D03*
D24*
X66977900Y-7351900D03*
D10*
G36*
X67527900Y-8551900D02*
X68827900Y-7551900D01*
X68827900Y-10151900D01*
X67527900Y-9151900D01*
X67527900Y-8551900D01*
X67527900Y-8551900D01*
G37*
G36*
X70627900Y-7551900D02*
X71927900Y-8551900D01*
X71927900Y-9151900D01*
X70627900Y-10151900D01*
X70627900Y-7551900D01*
X70627900Y-7551900D01*
G37*
D25*
X69727900Y-8851900D03*
D26*
X67427900Y-8851900D03*
D24*
X66977900Y-10351900D03*
D27*
X69877900Y-32176900D03*
X70827900Y-32176900D03*
X71777900Y-32176900D03*
X71777900Y-29976900D03*
X69877900Y-29976900D03*
X70827900Y-29976900D03*
D28*
X66777900Y-40946900D03*
X74877900Y-40946900D03*
X66777900Y-36446900D03*
X74877900Y-36446900D03*
D29*
X39367900Y-7341900D03*
X39367900Y-15441900D03*
X43867900Y-7341900D03*
X43867900Y-15441900D03*
X47622900Y-7341900D03*
X47622900Y-15441900D03*
X52122900Y-7341900D03*
X52122900Y-15441900D03*
X31112900Y-7341900D03*
X31112900Y-15441900D03*
X35612900Y-7341900D03*
X35612900Y-15441900D03*
D30*
X98957900Y-48366900D03*
D31*
X94317900Y-41816900D03*
X94317900Y-39616900D03*
X94317900Y-40716900D03*
X94317900Y-42916900D03*
X94317900Y-44016900D03*
X94317900Y-45116900D03*
X94317900Y-46216900D03*
X94317900Y-47316900D03*
D30*
X96367900Y-48366900D03*
D32*
X96807900Y-37891900D03*
D33*
X97957900Y-37666900D03*
D34*
X99257900Y-37891900D03*
D35*
X90047900Y-25996900D03*
X92247900Y-25996900D03*
X92247900Y-23456900D03*
X90047900Y-23456900D03*
X58932900Y-37426900D03*
X61132900Y-37426900D03*
D23*
X63207900Y-39161900D03*
X63207900Y-36961900D03*
D35*
X66933900Y-24218900D03*
X69133900Y-24218900D03*
D23*
X73367900Y-20832900D03*
X73367900Y-23032900D03*
X71589900Y-24388900D03*
X71589900Y-26588900D03*
D35*
X61132900Y-39331900D03*
X58932900Y-39331900D03*
D23*
X44157900Y-20746900D03*
X44157900Y-18546900D03*
X39077900Y-20746900D03*
X39077900Y-18546900D03*
X52412900Y-20746900D03*
X52412900Y-18546900D03*
X47332900Y-20746900D03*
X47332900Y-18546900D03*
D35*
X31287900Y-22076900D03*
X29087900Y-22076900D03*
D23*
X37187900Y-17726900D03*
X37187900Y-19926900D03*
D36*
X77177900Y-3009900D03*
D37*
X77177900Y-9613900D03*
X79463900Y-9613900D03*
X74891900Y-9613900D03*
D33*
X10629900Y-9460900D03*
X9679900Y-12560900D03*
X11579900Y-12560900D03*
D38*
X5325780Y-11645900D03*
X8425780Y-12595900D03*
X8425780Y-10695900D03*
X824900Y-11645900D03*
X3924900Y-12595900D03*
X3924900Y-10695900D03*
D39*
X96402900Y-3101900D03*
D40*
X92052900Y-8851900D03*
X94052900Y-8851900D03*
D39*
X89702900Y-3101900D03*
D14*
X21932900Y-9486900D03*
X21932900Y-6946900D03*
X21932900Y-4406900D03*
X21932900Y-1866900D03*
X24472900Y-9486900D03*
X24472900Y-6946900D03*
X24472900Y-4406900D03*
X24472900Y-1866900D03*
X27012900Y-9486900D03*
X27012900Y-6946900D03*
X27012900Y-4406900D03*
X27012900Y-1866900D03*
X2247900Y-6946900D03*
X2247900Y-4406900D03*
X2247900Y-1866900D03*
X18757900Y-9486900D03*
X18757900Y-6946900D03*
X18757900Y-4406900D03*
X18757900Y-1866900D03*
X4787900Y-6946900D03*
X4787900Y-4406900D03*
X4787900Y-1866900D03*
X7327900Y-6946900D03*
X7327900Y-4406900D03*
X7327900Y-1866900D03*
X97497900Y-10756900D03*
X97497900Y-13296900D03*
X97497900Y-15836900D03*
X97497900Y-18376900D03*
X97497900Y-20916900D03*
D41*
X95542900Y-27136900D03*
X95542900Y-27786900D03*
X95542900Y-29736900D03*
X95542900Y-29086900D03*
D42*
X95692900Y-31536900D03*
X95692900Y-25336900D03*
D43*
X98217900Y-29586900D03*
X98217900Y-27286900D03*
X98217900Y-32236900D03*
X98217900Y-24636900D03*
D41*
X95542900Y-28436900D03*
D44*
X61683900Y-32664900D03*
X61683900Y-27964900D03*
D45*
X89057900Y-40716900D03*
X88157900Y-40716900D03*
X88157900Y-39446900D03*
X89057900Y-39446900D03*
D14*
X69049900Y-13804900D03*
X66509900Y-13804900D03*
X47967900Y-3771900D03*
X50507900Y-3771900D03*
X31457900Y-38061900D03*
X33997900Y-38061900D03*
X33997900Y-41236900D03*
X31457900Y-41236900D03*
X80352900Y-27266900D03*
X77812900Y-27266900D03*
X58635900Y-20662900D03*
X61175900Y-20662900D03*
X80987900Y-23456900D03*
X80987900Y-20916900D03*
X31457900Y-3771900D03*
X33997900Y-3771900D03*
X27957900Y-18376900D03*
X30497900Y-18376900D03*
X33037900Y-18376900D03*
X24472900Y-18376900D03*
X21932900Y-18376900D03*
X2247900Y-16471900D03*
X2247900Y-19011900D03*
X5422900Y-16471900D03*
X5422900Y-19011900D03*
X8597900Y-16471900D03*
X8597900Y-19011900D03*
X13677900Y-12661900D03*
X16217900Y-12661900D03*
X18757900Y-12661900D03*
X13677900Y-15836900D03*
X16217900Y-15836900D03*
X18757900Y-15836900D03*
X13677900Y-19011900D03*
X16217900Y-19011900D03*
X18757900Y-19011900D03*
D46*
X84592900Y-27791900D03*
X84592900Y-29061900D03*
X84592900Y-30331900D03*
X84592900Y-31601900D03*
X90542900Y-27791900D03*
X90542900Y-29061900D03*
X90542900Y-30331900D03*
X90542900Y-31601900D03*
D47*
X51997900Y-25471900D03*
X49997900Y-25471900D03*
X47997900Y-25471900D03*
X45997900Y-25471900D03*
X43997900Y-25471900D03*
X41997900Y-25471900D03*
D48*
X54987900Y-41221900D03*
D49*
X54987900Y-39221900D03*
X54987900Y-37221900D03*
X54987900Y-35221900D03*
X54987900Y-33221900D03*
X54987900Y-31221900D03*
X54987900Y-29221900D03*
X54987900Y-27221900D03*
X38987900Y-27221900D03*
X38987900Y-29221900D03*
X38987900Y-31221900D03*
X38987900Y-33221900D03*
X38987900Y-35221900D03*
X38987900Y-37221900D03*
X38987900Y-39221900D03*
X38987900Y-41221900D03*
D13*
X24472900Y-15062200D03*
X24472900Y-13563600D03*
D50*
X45487900Y-3076900D03*
X45487900Y-1976900D03*
D51*
X88522900Y-33616900D03*
X87422900Y-33616900D03*
X61687900Y-41276900D03*
X60587900Y-41276900D03*
D50*
X68033900Y-31626900D03*
X68033900Y-30526900D03*
D11*
X55067200Y-19939000D03*
D12*
X55067200Y-17269000D03*
M02*
